<svg height="358" width="600" xmlns="http://www.w3.org/2000/svg"><g fill="none" fill-rule="evenodd"><rect fill="#ff00af" height="96" rx="8" width="192" x="68" y="54"/><path d="M164.5 158.5v27" stroke="#000" stroke-opacity=".402" stroke-width="2"/><path d="M164.5 189.5l-4-4h8z" fill="#000" fill-opacity=".402"/><path d="M436.5 189.5v-27" stroke="#000" stroke-opacity=".402" stroke-width="2"/><path d="M436.5 158.5l4 4h-8z" fill="#000" fill-opacity=".402"/><text fill="#fff" font-family="NotoSansCJKsc-Bold, Noto Sans CJK SC" font-size="18" font-weight="bold"><tspan x="111" y="109">遞飛鏈基金會</tspan></text><rect fill="#f4f3f6" height="96" rx="8" width="192" x="68" y="198"/><path d="M269 246h35" stroke="#000" stroke-opacity=".402" stroke-width="2"/><path d="M308 246l-4 4v-8z" fill="#000" fill-opacity=".402"/><rect fill="#f4f3f6" height="96" rx="8" width="240" x="316" y="198"/><rect height="36" rx="4" stroke="#b3b0bb" stroke-width="2" width="106" x="332" y="242"/><rect height="36" rx="4" stroke="#b3b0bb" stroke-width="2" width="88" x="454" y="242"/><rect fill="#ff00af" height="96" rx="8" width="192" x="340" y="54"/><g fill="#000"><text fill-opacity=".605" font-family="NotoSansCJKsc-Bold, Noto Sans CJK SC" font-size="18" font-weight="bold"><tspan x="95.839" y="253">DFI初始代幣分配</tspan></text><text fill-opacity=".402" font-family="NotoSansCJKsc-Bold, Noto Sans CJK SC" font-size="14" font-weight="bold"><tspan x="484" y="265">其他</tspan></text><text fill-opacity=".605" font-family="NotoSansCJKsc-Bold, Noto Sans CJK SC" font-size="16" font-weight="bold"><tspan x="332" y="226">生態系統夥伴</tspan></text><text fill-opacity=".402" font-family="IBMPlexSans-SemiBold, IBM Plex Sans" font-size="14" font-weight="500"><tspan x="354.721" y="265">CakeDeFi</tspan></text></g><text fill="#fff" font-family="NotoSansCJKsc-Bold, Noto Sans CJK SC" font-size="18" font-weight="bold"><tspan x="364.5" y="100">遞飛鏈區塊鏈開發</tspan> <tspan x="411.696" y="127">(開源)</tspan></text></g></svg>