<svg height="28" width="123" xmlns="http://www.w3.org/2000/svg"><path d="M14.33 0c7.914 0 14.33 6.268 14.33 14s-6.416 14-14.33 14S0 21.732 0 14 6.416 0 14.33 0zm63.105 6.698c1.957 0 3.478.614 4.563 1.842 1.098 1.228 1.647 2.96 1.647 5.195 0 1.46-.251 2.72-.754 3.78-.49 1.06-1.204 1.874-2.143 2.443-.926.555-2.03.833-3.313.833-1.284 0-2.388-.278-3.314-.833-.926-.556-1.64-1.357-2.143-2.404-.49-1.06-.734-2.333-.734-3.819 0-1.447.245-2.7.734-3.76.503-1.06 1.217-1.868 2.143-2.424.926-.568 2.03-.853 3.314-.853zm-36.515.33v10.914h5.357l-.337 2.52h-8.274V7.028zm14.569 0l4.147 13.434h-3.453l-.714-2.889h-4.008l-.694 2.889h-3.373L51.54 7.028zm14.675 0l-.318 2.442h-3.393v10.992H63.2V9.47h-3.551V7.028h10.516zm19.79 0v13.434H86.7V7.028zm7.897 0l-4.385 6.029 4.742 7.405h-3.77l-4.385-7.173 4.366-6.261zm10.94 0l-.337 2.268h-4.842v3.218h4.227v2.23h-4.227v3.43h5.178v2.288h-8.432V7.028h8.432zm7.161 0l4.067 10.429c-.29-1.77-.435-3.438-.435-5.001V7.028h2.916v13.434h-4.147l-3.969-10.41c.089.68.163 1.31.221 1.887l.078.827c.078.775.119 1.7.119 2.772v4.924h-2.897V7.028zM13.407 7h-3.46L4.298 19.6h10.396l.932-2.574h3.442l.209 2.574h3.65L20.951 7h-4.183l-4.507 9.99H8.939zm64.028 2.025c-.94 0-1.64.374-2.104 1.124-.45.737-.674 1.932-.674 3.586s.231 2.856.694 3.606 1.158 1.124 2.084 1.124c.952 0 1.653-.368 2.103-1.105.463-.75.694-1.958.694-3.625s-.231-2.869-.694-3.605c-.463-.737-1.164-1.105-2.103-1.105zm-23.97.31l-1.448 5.931h2.897zm-35.005-.16l.438 5.458h-2.415l1.977-5.457z" fill="#404960"/></svg>