<svg height="30" width="110" xmlns="http://www.w3.org/2000/svg"><linearGradient id="a" x1="50%" x2="50%" y1="0%" y2="100%"><stop offset="0" stop-color="#ffe275"/><stop offset="1" stop-color="#f0b736"/></linearGradient><g fill="none"><path d="M35.762 18.925c0 .552.103 1.069.307 1.55.205.482.483.904.834 1.265a3.831 3.831 0 0 0 2.75 1.16 3.835 3.835 0 0 0 2.75-1.16 4.01 4.01 0 0 0 1.127-2.815 4.01 4.01 0 0 0-1.126-2.816 3.84 3.84 0 0 0-1.237-.85 3.754 3.754 0 0 0-1.514-.309 3.84 3.84 0 0 0-2.75 1.16 4.096 4.096 0 0 0-.834 1.264 3.926 3.926 0 0 0-.307 1.55zM32.5 7.978c0-.24.041-.466.125-.676.082-.21.197-.393.343-.548a1.62 1.62 0 0 1 .52-.369c.2-.09.416-.135.65-.135.235 0 .449.045.644.135a1.608 1.608 0 0 1 .849.917c.078.21.117.436.117.676v5.65c.165-.29.39-.561.673-.812.282-.25.6-.468.95-.653a5.37 5.37 0 0 1 1.112-.436c.39-.105.78-.158 1.17-.158a6.74 6.74 0 0 1 2.765.579 7.172 7.172 0 0 1 2.268 1.578 7.537 7.537 0 0 1 1.528 2.336 7.28 7.28 0 0 1 .563 2.855 7.226 7.226 0 0 1-.563 2.848 7.466 7.466 0 0 1-1.528 2.321 7.227 7.227 0 0 1-2.268 1.57 6.734 6.734 0 0 1-2.765.58 6.712 6.712 0 0 1-2.772-.58 7.43 7.43 0 0 1-2.275-1.57 7.333 7.333 0 0 1-1.543-2.321 7.221 7.221 0 0 1-.563-2.848zm16.413 5.26a1.672 1.672 0 0 1 1.02-1.533c.204-.09.417-.136.64-.136.224 0 .432.045.627.136a1.606 1.606 0 0 1 .837.893 1.7 1.7 0 0 1 .124.64v11.314a1.678 1.678 0 0 1-.466 1.172c-.146.15-.316.268-.51.353a1.548 1.548 0 0 1-.626.128 1.6 1.6 0 0 1-.634-.128 1.656 1.656 0 0 1-.88-.879 1.585 1.585 0 0 1-.132-.646V13.237zm-.131-4.99a1.846 1.846 0 0 1 .517-1.285c.16-.164.347-.295.56-.39.214-.095.448-.143.7-.143.243 0 .47.048.684.143s.401.226.561.39c.16.166.29.359.386.58.098.22.146.455.146.706 0 .26-.048.5-.146.72a1.947 1.947 0 0 1-.386.58c-.16.165-.347.295-.56.39a1.66 1.66 0 0 1-.685.143c-.252 0-.486-.048-.7-.143a1.784 1.784 0 0 1-.56-.39 1.85 1.85 0 0 1-.517-1.3zm5.498.647a1.686 1.686 0 0 1 1.01-1.563 1.48 1.48 0 0 1 .629-.135 1.668 1.668 0 0 1 1.185.488c.155.156.28.336.373.54.092.206.139.43.139.67v2.419h5.134c.225 0 .437.045.637.135a1.678 1.678 0 0 1 .87.894c.088.206.132.424.132.654 0 .22-.044.428-.132.623a1.639 1.639 0 0 1-1.507.984h-5.134v4.388c0 .551.097 1.065.292 1.54.195.476.463.892.805 1.248.341.355.743.633 1.207.834.463.2.967.3 1.514.3.477 0 .921-.07 1.331-.21s.79-.366 1.141-.676c.195-.17.385-.308.57-.414.186-.105.405-.157.659-.157.185 0 .366.04.54.12.177.08.332.193.47.338.136.145.245.315.328.51.083.196.125.404.125.625 0 .26-.05.51-.147.75a1.864 1.864 0 0 1-.439.647 6.124 6.124 0 0 1-2.084 1.352c-.775.3-1.607.451-2.494.451a6.954 6.954 0 0 1-2.794-.564 7.075 7.075 0 0 1-2.268-1.547 7.362 7.362 0 0 1-1.528-2.314 7.259 7.259 0 0 1-.564-2.863zm14.457 10.36a7.63 7.63 0 0 1 .592-2.985 7.845 7.845 0 0 1 1.61-2.452 7.633 7.633 0 0 1 2.377-1.655 7.007 7.007 0 0 1 2.896-.609h.03c.536 0 .95.156 1.243.468.292.312.439.71.439 1.193 0 .241-.044.465-.132.671a1.59 1.59 0 0 1-.358.529 1.706 1.706 0 0 1-1.193.475h-.073a4.01 4.01 0 0 0-1.587.353 4.334 4.334 0 0 0-1.324.917c-.38.386-.685.834-.914 1.345a4.155 4.155 0 0 0-.358 1.652v5.26c0 .23-.042.446-.125.646s-.195.376-.336.526a1.52 1.52 0 0 1-.505.353 1.602 1.602 0 0 1-1.25 0 1.747 1.747 0 0 1-.535-.354 1.598 1.598 0 0 1-.498-1.173v-5.16zm11.304-6.033a1.675 1.675 0 0 1 .468-1.172 1.6 1.6 0 0 1 .512-.353 1.56 1.56 0 0 1 .629-.128 1.615 1.615 0 0 1 1.155.481c.147.15.264.326.352.526s.131.416.131.646v5.95c0 .532.093 1.022.278 1.473a3.597 3.597 0 0 0 1.916 1.969c.44.19.917.285 1.434.285a3.152 3.152 0 0 0 2.429-1.09 3.52 3.52 0 0 0 .672-1.186c.156-.456.235-.95.235-1.48v-5.92a1.592 1.592 0 0 1 .497-1.173c.156-.15.331-.268.527-.353a1.56 1.56 0 0 1 .629-.128 1.554 1.554 0 0 1 1.133.481 1.72 1.72 0 0 1 .461 1.172v5.92c0 .982-.166 1.901-.497 2.758a7.185 7.185 0 0 1-1.375 2.254 6.384 6.384 0 0 1-2.085 1.525c-.805.37-1.68.556-2.626.556-.956 0-1.85-.185-2.684-.556a6.91 6.91 0 0 1-2.187-1.525 7.17 7.17 0 0 1-2.004-5.011v-5.92zm19.221 7.198a3.896 3.896 0 0 0 1.353 1.878c.308.23.65.41 1.025.541.375.13.768.195 1.177.195.44 0 .8-.037 1.083-.112a2.89 2.89 0 0 0 .804-.353c.352-.21.668-.316.951-.316.224 0 .434.048.63.143.194.095.363.223.504.383a1.869 1.869 0 0 1 .46 1.202c0 .34-.107.651-.32.931-.216.281-.518.519-.908.715a5.44 5.44 0 0 1-1.404.45 9.543 9.543 0 0 1-1.8.158 6.817 6.817 0 0 1-2.786-.578 7.373 7.373 0 0 1-2.29-1.57 7.339 7.339 0 0 1-1.543-2.322 7.226 7.226 0 0 1-.563-2.848 7.31 7.31 0 0 1 .563-2.87 7.321 7.321 0 0 1 1.543-2.33 7.372 7.372 0 0 1 2.29-1.57 6.818 6.818 0 0 1 2.786-.578c.976 0 1.895.19 2.758.571s1.619.897 2.267 1.548a7.44 7.44 0 0 1 1.55 2.306c.386.887.588 1.831.608 2.833 0 .48-.149.867-.446 1.157-.298.29-.68.436-1.149.436zm7.403-2.795a3.897 3.897 0 0 0-.534-1.157 4.027 4.027 0 0 0-.849-.91 3.762 3.762 0 0 0-1.104-.593c-.41-.14-.844-.21-1.302-.21-.459 0-.89.075-1.295.225s-.768.353-1.09.609a3.817 3.817 0 0 0-.826.909c-.23.35-.398.726-.505 1.127z" fill="#000"/><path d="M21.872 20.062V5.1l4.378 2.491v14.966l-8.012 4.576-4.374-2.496zM.004 13.387l4.374-2.49v9.131h.005l13.126 7.477v.004L13.135 30 0 22.523zM13.135 0h.005l8.01 4.555v4.99L13.135 4.99v-.004h-.004L.004 12.466H0V7.482h.004zm-4.91 8.874L11.2 7.187v6.262c.307-.215 1.01-.766 2.105-.766 1.404 0 2.6.487 3.587 1.461s1.48 2.154 1.48 3.538c0 1.386-.493 2.567-1.48 3.546-.987.978-2.183 1.467-3.587 1.467-1.412 0-2.613-.489-3.6-1.467-.987-.979-1.48-2.16-1.48-3.546zm3.593 10.276c.412.407.908.61 1.487.61.571 0 1.062-.203 1.475-.61a1.99 1.99 0 0 0 .618-1.468c0-.571-.207-1.058-.618-1.46a2.037 2.037 0 0 0-1.475-.603c-.58 0-1.075.2-1.487.603a1.961 1.961 0 0 0-.618 1.46c0 .573.205 1.062.618 1.468z" fill="url(#a)"/></g></svg>