<?xml version="1.0" encoding="UTF-8"?><svg id="Ebene_2" xmlns="http://www.w3.org/2000/svg" viewBox="0 0 250.46 74.04"><defs><style>.cls-1{fill:#8aae7a;}.cls-2{fill:#337116;}</style></defs><g id="Ebene_1-2"><g><g><path class="cls-2" d="M106.33,49.42h13.44v7.92h-23.7V15.22h10.26V49.42Z"/><path class="cls-2" d="M131.45,55c-3.3-1.84-5.92-4.41-7.86-7.71-1.94-3.3-2.91-7.01-2.91-11.13s.97-7.82,2.91-11.1c1.94-3.28,4.56-5.84,7.86-7.68s6.93-2.76,10.89-2.76,7.59,.92,10.89,2.76c3.3,1.84,5.9,4.4,7.8,7.68,1.9,3.28,2.85,6.98,2.85,11.1s-.96,7.83-2.88,11.13c-1.92,3.3-4.52,5.87-7.8,7.71-3.28,1.84-6.9,2.76-10.86,2.76s-7.59-.92-10.89-2.76Zm18.96-9.96c2.02-2.24,3.03-5.2,3.03-8.88s-1.01-6.69-3.03-8.91c-2.02-2.22-4.71-3.33-8.07-3.33s-6.11,1.1-8.13,3.3c-2.02,2.2-3.03,5.18-3.03,8.94s1.01,6.69,3.03,8.91c2.02,2.22,4.73,3.33,8.13,3.33s6.05-1.12,8.07-3.36Z"/><path class="cls-2" d="M170.36,25.09c1.8-3.26,4.31-5.8,7.53-7.62,3.22-1.82,6.87-2.73,10.95-2.73,5,0,9.28,1.32,12.84,3.96,3.56,2.64,5.94,6.24,7.14,10.8h-11.28c-.84-1.76-2.03-3.1-3.57-4.02-1.54-.92-3.29-1.38-5.25-1.38-3.16,0-5.72,1.1-7.68,3.3-1.96,2.2-2.94,5.14-2.94,8.82s.98,6.62,2.94,8.82c1.96,2.2,4.52,3.3,7.68,3.3,1.96,0,3.71-.46,5.25-1.38,1.54-.92,2.73-2.26,3.57-4.02h11.28c-1.2,4.56-3.58,8.15-7.14,10.77-3.56,2.62-7.84,3.93-12.84,3.93-4.08,0-7.73-.91-10.95-2.73-3.22-1.82-5.73-4.35-7.53-7.59-1.8-3.24-2.7-6.94-2.7-11.1s.9-7.87,2.7-11.13Z"/><path class="cls-2" d="M237.92,57.34l-14.16-18.6v18.6h-10.26V15.22h10.26v18.48l14.04-18.48h12.06l-16.32,20.64,16.92,21.48h-12.54Z"/></g><path class="cls-2" d="M73.95,28.46l.02-8.52c.02-6.79-4.76-15.06-10.67-18.48-5.91-3.41-10.72-.68-10.74,6.11l-.02,8.52-4.95-2.86-.08,29.2,30.47,17.59,.08-29.2-4.11-2.37ZM56.79,10.02c.01-4.11,2.93-5.77,6.51-3.7,3.57,2.06,6.48,7.08,6.47,11.19l-.02,8.52-12.97-7.49,.02-8.52Z"/><path class="cls-1" d="M77.98,60.04l-30.47-17.59-24.01,14,3.91,2.26-5.83,3.39c-3.56,2.07-9.36,2.06-12.93,0-3.58-2.07-3.6-5.42-.04-7.49l6.22-3.62-4.22-2.44-6.22,3.62c-5.88,3.41-5.84,8.95,.07,12.36,5.91,3.41,15.47,3.41,21.34,0l5.83-3.39,22.34,12.9,24.01-14Z"/></g></g></svg>