<?xml version="1.0" encoding="UTF-8"?>
<svg width="134px" height="28px" viewBox="0 0 134 28" version="1.1" xmlns="http://www.w3.org/2000/svg">
    <title>sources/logo-dfx</title>
    <g id="sources/logo-dfx" stroke="none" stroke-width="1" fill="none" fill-rule="evenodd">
        <path d="M7.17808219,6.19178082 C11.1232877,6.19178082 14.3013699,9.42465753 14.3013699,13.369863 C14.3013699,17.3150685 11.1232877,20.5479452 7.12328767,20.5479452 C3.17808219,20.4931507 -2.27373675e-13,17.3150685 -2.27373675e-13,13.369863 C-2.27373675e-13,9.42465753 3.17808219,6.19178082 7.17808219,6.19178082 Z M14.3013699,6.95890411 C17.8630137,6.95890411 20.7123288,9.80821918 20.7123288,13.260274 C20.7123288,16.8219178 17.8082192,19.6712329 14.3013699,19.6712329 C13.6438356,19.6712329 12.9863014,19.5616438 12.3835616,19.3972603 C14.0821918,17.9178082 15.1780822,15.7260274 15.1780822,13.3150685 C15.1780822,10.9041096 14.0821918,8.71232877 12.3835616,7.23287671 C12.9863014,7.06849315 13.6438356,6.95890411 14.3013699,6.95890411 Z"
              id="Combined-Shape" fill="#F5516C" fill-rule="nonzero"></path>
        <path d="M114.082192,22.1369863 C114.575342,22.1369863 114.958904,22.3013699 115.287671,22.6849315 L115.342466,22.2465753 L116,22.2465753 L116,26.3013699 C116,26.7884323 115.870117,27.1889058 115.61035,27.4643065 L115.506849,27.5616438 C115.178082,27.890411 114.739726,28 114.246575,28 C113.972603,28 113.643836,27.9452055 113.369863,27.8356164 C113.09589,27.7260274 112.876712,27.5068493 112.712329,27.2876712 L113.09589,26.8493151 C113.424658,27.2328767 113.753425,27.3972603 114.191781,27.3972603 C114.520548,27.3972603 114.794521,27.2876712 115.013699,27.1232877 C115.232877,26.9041096 115.287671,26.630137 115.287671,26.3013699 L115.287671,25.9178082 C115.013699,26.2465753 114.630137,26.4109589 114.136986,26.4109589 C113.643836,26.4109589 113.260274,26.1917808 112.931507,25.8082192 C112.60274,25.4246575 112.438356,24.8767123 112.438356,24.2191781 C112.438356,23.5616438 112.60274,23.0684932 112.876712,22.6849315 C113.150685,22.3013699 113.589041,22.1369863 114.082192,22.1369863 Z M54.8493151,0.273972603 L54.8493151,5.15068493 L41.1506849,5.15068493 L41.1506849,12.0547945 L52.2191781,12.0547945 L52.2191781,16.9315068 L41.1506849,16.9315068 L41.1506849,26.4657534 L35.0684932,26.4657534 L35.0684932,0.273972603 L54.8493151,0.273972603 Z M64.3835616,0.273972603 L70.4109589,8.76712329 L76.3287671,0.273972603 L82.8493151,0.273972603 L73.6986301,12.9315068 L83.4520548,26.4657534 L76.4931507,26.4657534 L70.1917808,17.369863 L64,26.4657534 L56.9863014,26.4657534 L66.6849315,13.1506849 L57.4794521,0.273972603 L64.3835616,0.273972603 Z M118.684932,22.1369863 C119.232877,22.1369863 119.616438,22.3013699 119.945205,22.6849315 C120.219178,23.0136986 120.383562,23.5616438 120.383562,24.2191781 L120.383562,24.4931507 L117.589041,24.4931507 C117.589041,24.8287671 117.672945,25.1224315 117.877461,25.3741438 L117.972603,25.4794521 C118.191781,25.7534247 118.465753,25.8630137 118.849315,25.8630137 C119.123288,25.8630137 119.287671,25.8082192 119.506849,25.6986301 C119.671233,25.5890411 119.835616,25.4794521 119.945205,25.3150685 L120.383562,25.6438356 C120,26.1369863 119.452055,26.4109589 118.794521,26.4109589 C118.246575,26.4109589 117.753425,26.2465753 117.424658,25.8630137 C117.09589,25.4794521 116.876712,24.9863014 116.876712,24.3835616 L116.876712,24.2739726 C116.876712,23.8356164 116.931507,23.5068493 117.09589,23.1780822 C117.260274,22.8493151 117.479452,22.5753425 117.753425,22.4109589 C118.027397,22.2465753 118.356164,22.1369863 118.684932,22.1369863 Z M105.534247,22.0821918 C105.965753,22.0821918 106.313356,22.1660959 106.577055,22.3706122 L106.684932,22.4657534 C106.958904,22.6849315 107.123288,23.0136986 107.123288,23.4520548 L107.123288,25.369863 C107.123288,25.7534247 107.178082,26.0273973 107.287671,26.3013699 L106.520548,26.3013699 C106.502283,26.283105 106.490107,26.2526636 106.479959,26.2120751 L106.434297,25.9677829 C106.427702,25.934551 106.420091,25.8995434 106.410959,25.8630137 C106.082192,26.1917808 105.69863,26.3561644 105.205479,26.3561644 C104.821918,26.3561644 104.438356,26.2465753 104.219178,26.0273973 C103.945205,25.8082192 103.835616,25.4794521 103.835616,25.1506849 C103.835616,24.7123288 104,24.3835616 104.328767,24.1643836 C104.657534,23.9452055 105.09589,23.7808219 105.69863,23.7808219 L106.410959,23.7808219 L106.410959,23.4520548 C106.410959,23.1780822 106.356164,23.0136986 106.191781,22.8493151 C106.027397,22.6849315 105.808219,22.630137 105.534247,22.630137 C105.260274,22.630137 105.09589,22.6849315 104.876712,22.8493151 C104.657534,23.0136986 104.60274,23.1232877 104.60274,23.2876712 L103.890411,23.2876712 C103.890411,23.0684932 103.945205,22.9041096 104.109589,22.6849315 C104.273973,22.4657534 104.438356,22.3561644 104.712329,22.2465753 C104.986301,22.1369863 105.260274,22.0821918 105.534247,22.0821918 Z M110.191781,22.0821918 C111.068493,22.0821918 111.506849,22.5753425 111.506849,23.5616438 L111.506849,26.3013699 L110.794521,26.3013699 L110.794521,23.5616438 C110.794521,23.3333333 110.756469,23.1430746 110.648656,22.9908676 L110.575342,22.9041096 C110.465753,22.739726 110.246575,22.6849315 109.972603,22.6849315 C109.753425,22.6849315 109.534247,22.739726 109.369863,22.8493151 C109.205479,22.9589041 109.041096,23.1232877 108.986301,23.3424658 L108.986301,26.3013699 L108.273973,26.3013699 L108.273973,22.1369863 L108.931507,22.1369863 L108.931507,22.6849315 C109.260274,22.3013699 109.643836,22.0821918 110.191781,22.0821918 Z M100.383562,20.4383562 L100.383562,22.6849315 C100.712329,22.3013699 101.09589,22.0821918 101.589041,22.0821918 C102.465753,22.0821918 102.90411,22.5753425 102.90411,23.5616438 L102.90411,26.3013699 L102.191781,26.3013699 L102.191781,23.5616438 C102.191781,23.3333333 102.153729,23.1430746 102.045916,22.9908676 L101.972603,22.9041096 C101.863014,22.739726 101.643836,22.6849315 101.369863,22.6849315 C101.150685,22.6849315 100.931507,22.739726 100.767123,22.8493151 C100.60274,22.9589041 100.438356,23.1232877 100.383562,23.3424658 L100.383562,26.3013699 L99.6712329,26.3013699 L99.6712329,20.4383562 L100.383562,20.4383562 Z M97.1506849,22.0273973 C97.5890411,22.0273973 98.0273973,22.1917808 98.3013699,22.4657534 C98.630137,22.739726 98.7945205,23.1232877 98.7945205,23.5616438 L98.1369863,23.5616438 C98.1369863,23.2876712 98.0273973,23.0684932 97.8082192,22.9041096 C97.6438356,22.739726 97.4246575,22.630137 97.1506849,22.630137 C96.8150685,22.630137 96.5633562,22.7140411 96.3955479,22.9185574 L96.3287671,23.0136986 C96.1369863,23.2534247 96.0710616,23.5770548 96.0575771,23.984589 L96.0547945,24.2739726 C96.0547945,24.7054795 96.1386986,25.0111301 96.2697988,25.2643408 L96.3287671,25.369863 C96.4931507,25.6986301 96.7671233,25.8082192 97.1506849,25.8082192 C97.4246575,25.8082192 97.6438356,25.7534247 97.8082192,25.5890411 C97.9726027,25.4246575 98.0821918,25.260274 98.1369863,24.9863014 L98.7945205,24.9863014 C98.7945205,25.2054795 98.6849315,25.4246575 98.5753425,25.6438356 C98.4109589,25.8630137 98.2465753,26.0273973 97.9726027,26.1369863 C97.6986301,26.2465753 97.4794521,26.3013699 97.1506849,26.3013699 C96.6027397,26.3013699 96.109589,26.1369863 95.7808219,25.7534247 C95.4520548,25.369863 95.2876712,24.8767123 95.2876712,24.2191781 L95.2876712,24.109589 C95.2876712,23.7260274 95.3424658,23.3424658 95.5068493,23.0136986 C95.6712329,22.6849315 95.890411,22.4657534 96.1643836,22.3013699 C96.4383562,22.1369863 96.7671233,22.0273973 97.1506849,22.0273973 Z M18.8493151,0.438356164 C25.9178082,0.438356164 31.6164384,6.1369863 31.5616438,13.260274 C31.5616438,20.3358121 25.9181884,26.1335868 18.8296434,26.2977935 L18.5205479,26.3013699 L9.31506849,26.3013699 L9.31506849,21.0410959 L17.3150685,21.0410959 C21.5342466,21.0410959 24.9863014,17.5890411 24.9863014,13.369863 C24.9863014,9.23182297 21.6657413,5.83168517 17.5576124,5.70244098 L17.3150685,5.69863014 L9.31506849,5.69863014 L9.31506849,0.438356164 L18.8493151,0.438356164 Z M90.630137,20.7123288 L90.630137,21.3150685 L87.8356164,21.3150685 L87.8356164,23.1232877 L90.2465753,23.1232877 L90.2465753,23.7260274 L87.890411,23.7260274 L87.890411,25.6986301 L90.6849315,25.6986301 L90.6849315,26.3013699 L87.1232877,26.3013699 L87.1232877,20.7123288 L90.630137,20.7123288 Z M92.3287671,22.1369863 L93.1506849,23.6712329 L94.0821918,22.1369863 L94.9041096,22.1369863 L93.5342466,24.1643836 L94.9589041,26.2465753 L94.1369863,26.2465753 L93.2054795,24.7123288 L92.2739726,26.2465753 L91.4520548,26.2465753 L92.8767123,24.1643836 L91.5068493,22.1369863 L92.3287671,22.1369863 Z M106.465753,24.2739726 L105.917808,24.2739726 C105.041096,24.2739726 104.60274,24.5479452 104.60274,25.0410959 C104.60274,25.260274 104.657534,25.4246575 104.821918,25.5890411 C104.931507,25.6986301 105.150685,25.7534247 105.369863,25.7534247 C105.589041,25.7534247 105.808219,25.6986301 106.027397,25.5890411 C106.246575,25.4794521 106.356164,25.3150685 106.465753,25.1506849 L106.465753,24.2739726 Z M114.246575,22.630137 C113.917808,22.630137 113.643836,22.739726 113.424658,23.0136986 C113.205479,23.2876712 113.150685,23.7808219 113.150685,24.2739726 C113.150685,24.7671233 113.260274,25.0958904 113.424658,25.369863 C113.589041,25.6438356 113.863014,25.7534247 114.246575,25.7534247 C114.684932,25.7534247 115.013699,25.5342466 115.232877,25.1506849 L115.232877,23.2328767 C115.013699,22.8493151 114.684932,22.630137 114.246575,22.630137 Z M118.684932,22.6849315 C118.450098,22.6849315 118.215264,22.7654459 118.049443,22.9264747 L117.972603,23.0136986 C117.753425,23.2328767 117.643836,23.5068493 117.589041,23.890411 L119.671233,23.890411 L119.671233,23.8356164 C119.671233,23.5068493 119.590718,23.2585966 119.464196,23.0908583 L119.39726,23.0136986 C119.232877,22.7945205 119.013699,22.6849315 118.684932,22.6849315 Z M99.2328767,11.890411 C99.6643836,11.890411 100.011986,11.9743151 100.275685,12.1788313 L100.383562,12.2739726 C100.657534,12.4931507 100.821918,12.8219178 100.821918,13.260274 L100.821918,15.1780822 C100.821918,15.5616438 100.876712,15.8356164 100.986301,16.109589 L100.986301,16.1643836 L100.219178,16.1643836 L100.219178,16.109589 C100.200913,16.0913242 100.188737,16.0608828 100.17859,16.0202943 L100.132927,15.776002 C100.126332,15.7427702 100.118721,15.7077626 100.109589,15.6712329 C99.7808219,16 99.3972603,16.1643836 98.9041096,16.1643836 C98.5205479,16.1643836 98.1369863,16.0547945 97.9178082,15.8356164 C97.6438356,15.6164384 97.5342466,15.2876712 97.5342466,14.9589041 C97.5342466,14.5205479 97.6986301,14.1917808 98.0273973,13.9726027 C98.3561644,13.7534247 98.7945205,13.5890411 99.3972603,13.5890411 L100.109589,13.5890411 L100.109589,13.260274 C100.109589,12.9863014 100.054795,12.8219178 99.890411,12.6575342 C99.7260274,12.4931507 99.5068493,12.4383562 99.2328767,12.4383562 C98.9589041,12.4383562 98.7945205,12.4931507 98.5753425,12.6575342 C98.4109589,12.7671233 98.3013699,12.9315068 98.3013699,13.0958904 L97.5890411,13.0958904 C97.5890411,12.8767123 97.6438356,12.7123288 97.8082192,12.4931507 C97.9726027,12.2739726 98.1369863,12.1643836 98.4109589,12.0547945 C98.6849315,11.9452055 98.9589041,11.890411 99.2328767,11.890411 Z M112.109589,11.890411 C112.657534,11.890411 113.041096,12.0547945 113.369863,12.4383562 C113.643836,12.7671233 113.808219,13.3150685 113.808219,13.9726027 L113.808219,14.2465753 L111.013699,14.2465753 C111.013699,14.5821918 111.097603,14.8758562 111.302119,15.1275685 L111.39726,15.2328767 C111.616438,15.5068493 111.890411,15.6164384 112.273973,15.6164384 C112.547945,15.6164384 112.712329,15.5616438 112.931507,15.4520548 C113.09589,15.3424658 113.260274,15.2328767 113.369863,15.0684932 L113.808219,15.3972603 C113.424658,15.890411 112.876712,16.1643836 112.219178,16.1643836 C111.671233,16.1643836 111.178082,16 110.849315,15.6164384 C110.520548,15.2328767 110.30137,14.739726 110.30137,14.1369863 L110.30137,14.0273973 C110.30137,13.5890411 110.356164,13.260274 110.520548,12.9315068 C110.684932,12.6027397 110.90411,12.3287671 111.178082,12.1643836 C111.452055,12 111.780822,11.890411 112.109589,11.890411 Z M108,11.8356164 C108.438356,11.8356164 108.876712,12 109.150685,12.2739726 C109.479452,12.5479452 109.643836,12.9315068 109.643836,13.369863 L108.986301,13.369863 C108.986301,13.0958904 108.876712,12.8767123 108.657534,12.7123288 C108.493151,12.5479452 108.273973,12.4383562 108,12.4383562 C107.664384,12.4383562 107.412671,12.5222603 107.244863,12.7267765 L107.178082,12.8219178 C106.986301,13.0616438 106.920377,13.385274 106.906892,13.7928082 L106.90411,14.0821918 C106.90411,14.5753425 107.013699,14.9041096 107.178082,15.1780822 C107.342466,15.4520548 107.616438,15.6164384 108,15.6164384 C108.273973,15.6164384 108.493151,15.5616438 108.657534,15.3972603 C108.821918,15.2328767 108.931507,15.0684932 108.986301,14.7945205 L109.643836,14.7945205 C109.643836,15.0136986 109.534247,15.2328767 109.424658,15.4520548 C109.260274,15.6712329 109.09589,15.8356164 108.821918,15.9452055 C108.547945,16.0547945 108.328767,16.109589 108,16.109589 C107.452055,16.109589 106.958904,15.9452055 106.630137,15.5616438 C106.30137,15.1780822 106.136986,14.6849315 106.136986,14.0273973 L106.136986,13.9178082 C106.136986,13.5342466 106.191781,13.1506849 106.356164,12.8219178 C106.520548,12.4931507 106.739726,12.2739726 107.013699,12.109589 C107.287671,11.9452055 107.616438,11.8356164 108,11.8356164 Z M103.890411,11.890411 C104.767123,11.890411 105.205479,12.3835616 105.205479,13.369863 L105.205479,16.109589 L104.493151,16.109589 L104.493151,13.369863 C104.493151,13.1415525 104.455099,12.9512938 104.347286,12.7990868 L104.273973,12.7123288 C104.164384,12.5479452 103.945205,12.4931507 103.671233,12.4931507 C103.452055,12.4931507 103.232877,12.5479452 103.068493,12.6575342 C102.90411,12.7671233 102.739726,12.9315068 102.684932,13.1506849 L102.684932,16.109589 L101.972603,16.109589 L101.972603,11.9452055 L102.630137,11.9452055 L102.630137,12.4931507 C102.958904,12.109589 103.342466,11.890411 103.890411,11.890411 Z M90.630137,10.5205479 L90.630137,11.1232877 L87.890411,11.1232877 L87.890411,13.0410959 L90.2465753,13.0410959 L90.2465753,13.6438356 L87.890411,13.6438356 L87.890411,16.109589 L87.1780822,16.109589 L87.1780822,10.5205479 L90.630137,10.5205479 Z M95.2876712,11.890411 C96.1643836,11.890411 96.6027397,12.3835616 96.6027397,13.369863 L96.6027397,16.109589 L95.890411,16.109589 L95.890411,13.369863 C95.890411,13.1415525 95.8523592,12.9512938 95.7445459,12.7990868 L95.6712329,12.7123288 C95.5616438,12.5479452 95.3424658,12.4931507 95.0684932,12.4931507 C94.8493151,12.4931507 94.630137,12.5479452 94.4657534,12.6575342 C94.3013699,12.7671233 94.1369863,12.9315068 94.0821918,13.1506849 L94.0821918,16.109589 L93.369863,16.109589 L93.369863,11.9452055 L94.0273973,11.9452055 L94.0273973,12.4931507 C94.3561644,12.109589 94.739726,11.890411 95.2876712,11.890411 Z M92.3270548,11.9452055 L92.3270548,16.109589 L91.5145548,16.109589 L91.5145548,11.9452055 L92.3270548,11.9452055 Z M100.164384,14.0821918 L99.6164384,14.0821918 C98.739726,14.0821918 98.3013699,14.3561644 98.3013699,14.8493151 C98.3013699,15.0684932 98.3561644,15.2328767 98.5205479,15.3972603 C98.630137,15.5068493 98.8493151,15.5616438 99.0684932,15.5616438 C99.2876712,15.5616438 99.5068493,15.5068493 99.7260274,15.3972603 C99.9452055,15.2876712 100.054795,15.1232877 100.164384,14.9589041 L100.164384,14.0821918 Z M112.109589,12.4383562 C111.874755,12.4383562 111.639922,12.5188706 111.4741,12.6798994 L111.39726,12.7671233 C111.178082,12.9863014 111.068493,13.260274 111.013699,13.6438356 L113.09589,13.6438356 L113.09589,13.5890411 C113.09589,13.260274 113.015376,13.0120212 112.888853,12.8442829 L112.821918,12.7671233 C112.657534,12.5479452 112.438356,12.4383562 112.109589,12.4383562 Z M91.9520548,10.4657534 C92.0645548,10.4657534 92.1320548,10.4854795 92.1950548,10.5130959 L92.3270548,10.5753425 L92.3270548,10.5753425 C92.3895548,10.630137 92.4520548,10.739726 92.4520548,10.8493151 C92.4520548,10.9589041 92.3895548,11.0684932 92.3270548,11.1232877 C92.2645548,11.1780822 92.1395548,11.2328767 91.9520548,11.2328767 C91.8395548,11.2328767 91.7720548,11.2131507 91.7090548,11.1855342 L91.5770548,11.1232877 L91.5770548,11.1232877 C91.5145548,11.0684932 91.4520548,10.9589041 91.4520548,10.8493151 C91.4520548,10.739726 91.5145548,10.630137 91.5770548,10.5753425 C91.6395548,10.5205479 91.7645548,10.4657534 91.9520548,10.4657534 Z M133.753425,0 L133.753425,5.91780822 L133.09589,5.91780822 L133.041096,5.47945205 C132.767123,5.80821918 132.383562,6.02739726 131.835616,6.02739726 C131.342466,6.02739726 130.958904,5.80821918 130.684932,5.42465753 C130.410959,4.98630137 130.246575,4.49315068 130.246575,3.78082192 C130.246575,3.12328767 130.410959,2.63013699 130.684932,2.24657534 C131.013699,1.8630137 131.39726,1.64383562 131.890411,1.64383562 C132.383562,1.64383562 132.767123,1.80821918 133.041096,2.1369863 L133.041096,0 L133.753425,0 Z M93.8630137,1.64383562 C94.4109589,1.64383562 94.7945205,1.80821918 95.1232877,2.19178082 C95.4520548,2.57534247 95.5616438,3.06849315 95.5616438,3.7260274 L95.5616438,4 L92.7671233,4 C92.7671233,4.33561644 92.8510274,4.62928082 93.0555437,4.88099315 L93.1506849,4.98630137 C93.369863,5.26027397 93.6438356,5.36986301 94.0273973,5.36986301 C94.3013699,5.36986301 94.4657534,5.31506849 94.6849315,5.20547945 C94.8493151,5.09589041 95.0136986,4.98630137 95.1232877,4.82191781 L95.5616438,5.15068493 C95.1780822,5.69863014 94.630137,5.97260274 93.9726027,5.97260274 C93.4246575,5.97260274 92.9315068,5.80821918 92.6027397,5.42465753 C92.2739726,5.04109589 92.0547945,4.54794521 92.0547945,3.94520548 L92.0547945,3.78082192 C92.0547945,3.34246575 92.109589,3.01369863 92.2739726,2.68493151 C92.4383562,2.35616438 92.6575342,2.08219178 92.9315068,1.91780822 C93.2054795,1.75342466 93.5342466,1.64383562 93.8630137,1.64383562 Z M127.835616,1.64383562 C128.383562,1.64383562 128.767123,1.80821918 129.09589,2.19178082 C129.369863,2.52054795 129.534247,3.06849315 129.534247,3.7260274 L129.534247,4 L126.739726,4 C126.739726,4.33561644 126.82363,4.62928082 127.028146,4.88099315 L127.123288,4.98630137 C127.342466,5.26027397 127.616438,5.36986301 128,5.36986301 C128.273973,5.36986301 128.438356,5.31506849 128.657534,5.20547945 C128.821918,5.09589041 128.986301,4.98630137 129.09589,4.82191781 L129.534247,5.15068493 C129.150685,5.69863014 128.60274,5.97260274 127.945205,5.97260274 C127.39726,5.97260274 126.90411,5.80821918 126.575342,5.42465753 C126.246575,5.04109589 126.027397,4.54794521 126.027397,3.94520548 L126.027397,3.78082192 C126.027397,3.34246575 126.082192,3.01369863 126.246575,2.68493151 C126.410959,2.35616438 126.630137,2.08219178 126.90411,1.91780822 C127.178082,1.75342466 127.506849,1.64383562 127.835616,1.64383562 Z M102.246575,1.64383562 C102.794521,1.64383562 103.178082,1.80821918 103.506849,2.19178082 C103.835616,2.57534247 103.945205,3.06849315 103.945205,3.7260274 L103.945205,4 L101.150685,4 C101.150685,4.33561644 101.234589,4.62928082 101.439105,4.88099315 L101.534247,4.98630137 C101.753425,5.26027397 102.027397,5.36986301 102.410959,5.36986301 C102.684932,5.36986301 102.849315,5.31506849 103.068493,5.20547945 C103.232877,5.09589041 103.39726,4.98630137 103.506849,4.82191781 L103.945205,5.15068493 C103.561644,5.69863014 103.013699,5.97260274 102.356164,5.97260274 C101.808219,5.97260274 101.315068,5.80821918 100.986301,5.42465753 C100.657534,5.04109589 100.438356,4.54794521 100.438356,3.94520548 L100.438356,3.78082192 C100.438356,3.34246575 100.493151,3.01369863 100.657534,2.68493151 C100.821918,2.35616438 101.041096,2.08219178 101.315068,1.91780822 C101.589041,1.75342466 101.917808,1.64383562 102.246575,1.64383562 Z M116.054795,1.69863014 C116.486301,1.69863014 116.833904,1.78253425 117.097603,1.98705051 L117.205479,2.08219178 C117.479452,2.30136986 117.643836,2.63013699 117.643836,3.06849315 L117.643836,4.93150685 C117.643836,5.31506849 117.69863,5.5890411 117.808219,5.8630137 L117.808219,5.91780822 L117.041096,5.91780822 C117.022831,5.89954338 117.010654,5.86910198 117.000507,5.82851344 L116.954845,5.58422121 C116.94825,5.55098935 116.940639,5.51598174 116.931507,5.47945205 C116.60274,5.80821918 116.219178,5.97260274 115.726027,5.97260274 C115.342466,5.97260274 114.958904,5.8630137 114.739726,5.64383562 C114.465753,5.42465753 114.356164,5.09589041 114.356164,4.76712329 C114.356164,4.32876712 114.520548,4 114.849315,3.78082192 C115.178082,3.56164384 115.616438,3.39726027 116.219178,3.39726027 L116.931507,3.39726027 L116.931507,3.06849315 C116.931507,2.79452055 116.876712,2.63013699 116.712329,2.46575342 C116.547945,2.30136986 116.328767,2.24657534 116.054795,2.24657534 C115.780822,2.24657534 115.616438,2.30136986 115.39726,2.46575342 C115.232877,2.57534247 115.123288,2.73972603 115.123288,2.90410959 L114.410959,2.90410959 C114.410959,2.68493151 114.465753,2.52054795 114.630137,2.30136986 C114.794521,2.08219178 114.958904,1.97260274 115.232877,1.8630137 C115.506849,1.75342466 115.780822,1.69863014 116.054795,1.69863014 Z M121.47774,1.75342466 L121.47774,5.91780822 L120.66524,5.91780822 L120.66524,1.75342466 L121.47774,1.75342466 Z M113.479452,1.69863014 L113.63463,1.70213699 C113.696438,1.70739726 113.742466,1.72054795 113.808219,1.75342466 L113.808219,2.35616438 L113.424658,2.35616438 C112.986301,2.35616438 112.657534,2.57534247 112.493151,2.95890411 L112.493151,5.91780822 L111.780822,5.91780822 L111.780822,1.75342466 L112.493151,1.75342466 L112.493151,2.24657534 C112.712329,1.8630137 113.041096,1.69863014 113.479452,1.69863014 Z M125.369863,1.75342466 L125.369863,2.24657534 L123.068493,5.31506849 L125.479452,5.31506849 L125.479452,5.91780822 L122.191781,5.91780822 L122.191781,5.36986301 L124.493151,2.30136986 L122.246575,2.30136986 L122.246575,1.75342466 L125.369863,1.75342466 Z M119.452055,0 L119.452055,5.91780822 L118.739726,5.91780822 L118.739726,0 L119.452055,0 Z M106.794521,1.69863014 C107.671233,1.69863014 108.109589,2.19178082 108.109589,3.17808219 L108.109589,5.91780822 L107.39726,5.91780822 L107.39726,3.17808219 C107.39726,2.94977169 107.359209,2.75951294 107.251395,2.60730594 L107.178082,2.52054795 C107.068493,2.35616438 106.849315,2.30136986 106.575342,2.30136986 C106.356164,2.30136986 106.136986,2.35616438 105.972603,2.46575342 C105.808219,2.57534247 105.643836,2.73972603 105.589041,2.95890411 L105.589041,5.91780822 L104.876712,5.91780822 L104.876712,1.75342466 L105.534247,1.75342466 L105.534247,2.30136986 C105.863014,1.91780822 106.246575,1.69863014 106.794521,1.69863014 Z M88.7671233,0.328767123 C89.260274,0.328767123 89.6986301,0.438356164 90.0821918,0.657534247 C90.4178082,0.849315068 90.6695205,1.08304795 90.8740368,1.43214897 L90.9589041,1.5890411 C91.1780822,1.97260274 91.2876712,2.46575342 91.2876712,2.95890411 L91.2876712,3.28767123 C91.2876712,3.83561644 91.1780822,4.2739726 90.9589041,4.65753425 C90.739726,5.04109589 90.4657534,5.36986301 90.0821918,5.5890411 C89.6986301,5.80821918 89.260274,5.91780822 88.7671233,5.91780822 L87.1780822,5.91780822 L87.1780822,0.328767123 L88.7671233,0.328767123 Z M98.1369863,1.64383562 C98.5205479,1.64383562 98.9041096,1.76969178 99.1775471,1.98469606 L99.2876712,2.08219178 C99.6164384,2.35616438 99.7808219,2.73972603 99.7808219,3.17808219 L99.1232877,3.17808219 C99.1232877,2.94324853 99.0427733,2.74867207 98.8817445,2.59435281 L98.7945205,2.52054795 C98.630137,2.35616438 98.4109589,2.24657534 98.1369863,2.24657534 C97.8013699,2.24657534 97.5496575,2.33047945 97.3818493,2.53499572 L97.3150685,2.63013699 C97.0958904,2.90410959 96.9863014,3.28767123 96.9863014,3.78082192 L96.9863014,3.89041096 C96.9863014,4.38356164 97.0958904,4.71232877 97.260274,4.98630137 C97.4794521,5.26027397 97.7534247,5.36986301 98.1369863,5.36986301 C98.4109589,5.36986301 98.630137,5.31506849 98.7945205,5.15068493 C98.9589041,4.98630137 99.0684932,4.82191781 99.1232877,4.54794521 L99.7808219,4.54794521 C99.7808219,4.76712329 99.6712329,4.98630137 99.5616438,5.20547945 C99.3972603,5.42465753 99.2328767,5.5890411 98.9589041,5.69863014 C98.6849315,5.80821918 98.4657534,5.8630137 98.1369863,5.8630137 C97.5890411,5.8630137 97.0958904,5.69863014 96.7671233,5.31506849 C96.4383562,4.93150685 96.2739726,4.43835616 96.2739726,3.78082192 L96.2739726,3.7260274 C96.2739726,3.34246575 96.3287671,2.95890411 96.4931507,2.63013699 C96.6575342,2.30136986 96.8767123,2.08219178 97.1506849,1.91780822 C97.4246575,1.75342466 97.7534247,1.64383562 98.1369863,1.64383562 Z M110.191781,0.712328767 L110.191781,1.69863014 L110.958904,1.69863014 L110.958904,2.24657534 L110.191781,2.24657534 L110.191781,4.82191781 C110.191781,4.98630137 110.246575,5.09589041 110.30137,5.20547945 C110.3379,5.27853881 110.398782,5.30289193 110.484018,5.31100964 L110.630137,5.31506849 L110.630137,5.31506849 L110.737973,5.31156164 C110.807671,5.30630137 110.893151,5.29315068 110.958904,5.26027397 L110.958904,5.80821918 C110.794521,5.8630137 110.575342,5.8630137 110.410959,5.8630137 C110.082192,5.8630137 109.863014,5.75342466 109.69863,5.5890411 C109.534247,5.36986301 109.479452,5.15068493 109.479452,4.76712329 L109.479452,2.30136986 L108.712329,2.30136986 L108.712329,1.75342466 L109.479452,1.75342466 L109.479452,0.712328767 L110.191781,0.712328767 Z M116.931507,3.89041096 L116.383562,3.89041096 C115.506849,3.89041096 115.068493,4.16438356 115.068493,4.65753425 C115.068493,4.87671233 115.123288,5.04109589 115.287671,5.20547945 C115.452055,5.36986301 115.616438,5.36986301 115.835616,5.36986301 C116.054795,5.36986301 116.273973,5.31506849 116.493151,5.20547945 C116.712329,5.09589041 116.821918,4.93150685 116.931507,4.76712329 L116.931507,3.89041096 Z M88.7671233,0.876712329 L87.890411,0.876712329 L87.890411,5.31506849 L88.6575342,5.31506849 C89.2054795,5.31506849 89.6438356,5.15068493 89.9726027,4.76712329 C90.3013699,4.43835616 90.4657534,3.89041096 90.4657534,3.23287671 L90.4657534,2.90410959 C90.4657534,2.24657534 90.3013699,1.75342466 90.0273973,1.42465753 C89.7534247,1.09589041 89.3150685,0.876712329 88.7671233,0.876712329 Z M132.054795,2.24657534 C131.726027,2.24657534 131.452055,2.35616438 131.232877,2.63013699 C131.013699,2.90410959 130.958904,3.34246575 130.958904,3.83561644 C130.958904,4.32876712 131.068493,4.65753425 131.232877,4.93150685 C131.452055,5.20547945 131.671233,5.31506849 132.054795,5.31506849 C132.493151,5.31506849 132.821918,5.09589041 133.041096,4.71232877 L133.041096,2.84931507 C132.821918,2.46575342 132.493151,2.24657534 132.054795,2.24657534 Z M93.8630137,2.24657534 C93.62818,2.24657534 93.3933464,2.32708974 93.2275251,2.48811854 L93.1506849,2.57534247 C92.9315068,2.79452055 92.8219178,3.06849315 92.7671233,3.45205479 L94.8493151,3.45205479 L94.8493151,3.39726027 C94.8493151,3.06849315 94.7688007,2.82024042 94.642278,2.6525021 L94.5753425,2.57534247 C94.4109589,2.35616438 94.1369863,2.24657534 93.8630137,2.24657534 Z M102.246575,2.24657534 C102.011742,2.24657534 101.776908,2.32708974 101.611087,2.48811854 L101.534247,2.57534247 C101.315068,2.79452055 101.205479,3.06849315 101.150685,3.45205479 L103.232877,3.45205479 L103.232877,3.39726027 C103.232877,3.06849315 103.152362,2.82024042 103.02584,2.6525021 L102.958904,2.57534247 C102.794521,2.35616438 102.575342,2.24657534 102.246575,2.24657534 Z M127.835616,2.24657534 C127.600783,2.24657534 127.365949,2.32708974 127.200128,2.48811854 L127.123288,2.57534247 C126.90411,2.79452055 126.794521,3.06849315 126.739726,3.45205479 L128.821918,3.45205479 L128.821918,3.39726027 C128.821918,3.06849315 128.741403,2.82024042 128.614881,2.6525021 L128.547945,2.57534247 C128.383562,2.35616438 128.109589,2.24657534 127.835616,2.24657534 Z M121.10274,0.273972603 C121.21524,0.273972603 121.28274,0.29369863 121.34574,0.321315068 L121.47774,0.383561644 L121.47774,0.383561644 C121.54024,0.438356164 121.60274,0.547945205 121.60274,0.657534247 C121.60274,0.767123288 121.54024,0.876712329 121.47774,0.931506849 C121.41524,0.98630137 121.29024,1.04109589 121.10274,1.04109589 C120.99024,1.04109589 120.92274,1.02136986 120.85974,0.993753425 L120.72774,0.931506849 L120.72774,0.931506849 C120.60274,0.876712329 120.60274,0.767123288 120.60274,0.657534247 C120.60274,0.547945205 120.66524,0.438356164 120.72774,0.383561644 C120.79024,0.328767123 120.91524,0.273972603 121.10274,0.273972603 Z"
              id="Shape" fill="#072440" fill-rule="nonzero"></path>
    </g>
</svg>
