<svg data-v-6cd3225c="" viewBox="0 0 120 28" fill="currentColor" xmlns="http://www.w3.org/2000/svg" class="logo"><path data-v-6cd3225c="" fill-rule="evenodd" clip-rule="evenodd" d="M20.3714 13.1981L20.3713 13.198L20.3321 13.1682C21.2074 11.9079 21.6451 10.3751 21.6451 8.56964C21.6451 5.89156 20.726 3.79322 18.8878 2.27462C17.0495 0.756018 14.5198 -0.00218504 11.2985 4.72954e-06H3.27597V1.12171H11.1541C13.8917 1.12171 16.3339 1.73101 17.8833 2.99396C19.3243 4.16986 19.8528 5.18154 20.2746 6.69577C19.8463 5.31457 18.8369 4.42607 18.2099 3.90381C17.1119 2.98083 15.748 2.33539 12.0322 2.33539H5.84457V3.42918H11.8943C15.0652 3.42918 16.2289 3.82004 17.2957 4.61C18.6613 5.62167 19.5082 6.83043 19.5082 8.57458C19.5082 10.1463 18.9567 10.9872 18.031 11.8592C17.9227 11.8165 17.8144 11.7755 17.7028 11.7361L17.8078 11.6802C18.8106 11.1268 19.5049 10.0642 19.5049 8.56964C19.5049 6.93717 18.5694 5.91731 17.6535 5.34249C16.7952 4.80381 15.9778 4.4425 12.4901 4.4425H8.04224V5.17168H12.3653C15.5133 5.17168 16.7065 5.73172 17.0676 5.95343C17.775 6.38701 18.7089 7.13919 18.7089 8.58115C18.7089 9.50085 18.1656 10.6078 17.363 11.0594C17.1024 11.2038 16.8273 11.3205 16.5424 11.4076C15.3476 11.1367 14.1254 11.0055 12.9004 11.0167H7.53509V12.1384H12.7527C15.4903 12.1384 17.9686 12.7017 19.4819 14.0107C20.6242 14.9826 21.4553 16.2694 21.8716 17.7108C21.4449 16.3296 20.5684 15.4921 19.8085 14.9189C18.6596 14.0501 17.3466 13.3488 13.6308 13.3505H5.21925V14.4442H13.4929C16.6638 14.4442 17.8259 14.8351 18.8943 15.6251C20.2599 16.6368 21.0936 17.8455 21.0936 19.5897C21.0936 21.2714 20.2467 22.4982 18.8746 23.5099C17.4713 24.5446 15.3262 24.5758 14.4531 24.5758H9.85749V25.6679H13.2927C16.1682 25.6679 18.0885 25.4216 19.7511 24.1898C21.3103 23.0303 22.1391 21.5309 22.1391 19.5913C22.1543 20.6307 21.931 21.6597 21.4866 22.5992C21.0422 23.5387 20.3884 24.3638 19.5755 25.011C18.0015 26.3117 15.1933 26.8849 12.3834 26.8849H3.33834V28H12.4474C15.8394 28 18.4867 27.2632 20.3895 25.7894C22.2923 24.3157 23.2448 22.2453 23.247 19.5782C23.2404 16.8968 22.3175 14.7979 20.4782 13.2815C20.4432 13.2526 20.4074 13.2254 20.3714 13.1981ZM20.5323 8.57293C20.5332 8.61951 20.5335 8.66606 20.5334 8.71258C20.5337 8.66608 20.5333 8.61954 20.5323 8.57293ZM20.5334 8.71258C20.5301 10.0673 20.1228 11.3914 19.3621 12.5145C19.2653 12.4587 19.1668 12.4045 19.0683 12.3503C20.0033 11.3677 20.5263 10.0659 20.5334 8.71258ZM14.8944 18.0064H7.00977V18.617H14.8944V18.0064ZM10.2612 20.2285H14.8469V20.7521H10.2612V20.2285ZM5.66414 18.0064H3.32861V18.617H5.66414V18.0064ZM1.87256 20.1858H8.96613V20.7963H1.87256V20.1858ZM8.5476 24.8467H1.87256V25.5787H8.5476V24.8467ZM3.62061 4.61331H6.3845V5.11719H3.62061V4.61331ZM8.02571 8.62064H1.69531V9.20656H8.02571V8.62064ZM4.38037 6.83043H14.8616V7.41637H4.38037V6.83043ZM14.6631 8.62064H9.62109V9.20656H14.6631V8.62064ZM21.0838 19.5799C21.0838 20.9907 20.4026 22.0467 19.3982 22.5804C18.397 23.1109 16.979 23.4164 14.5811 23.4164H0V22.7217H14.5154C16.7278 22.7217 18.2148 22.3653 18.9468 21.9678C19.7511 21.5293 20.2943 20.4635 20.2943 19.5766C20.2943 18.1888 19.3605 17.458 18.6531 17.0392C18.292 16.8257 17.0971 16.2854 13.9508 16.2854H8.41316V15.5907H14.0805C17.6322 15.5907 18.3855 15.9405 19.2456 16.4595C20.1614 17.0162 21.0838 18.0049 21.0838 19.5799ZM49.2596 7.21801C48.8453 7.22941 48.4396 7.09776 48.1107 6.8452C47.9624 6.73755 47.842 6.59597 47.7595 6.43227C47.6769 6.26857 47.6348 6.08749 47.6364 5.90415C47.6348 5.71989 47.6769 5.53788 47.7594 5.37312C47.8419 5.20836 47.9623 5.06557 48.1107 4.95652C48.4377 4.69987 48.8443 4.5662 49.2596 4.5788C49.6815 4.56616 50.0949 4.69957 50.4299 4.95652C50.5799 5.06271 50.7023 5.20339 50.7868 5.3667C50.8712 5.53002 50.9153 5.71123 50.9153 5.89513C50.9153 6.07902 50.8712 6.26023 50.7868 6.42355C50.7023 6.58687 50.5799 6.72752 50.4299 6.83371C50.0963 7.09411 49.6825 7.23001 49.2596 7.21801ZM50.484 23.1256H47.9745V10.4386H50.484V23.1256ZM31.6045 23.1256V5.3589H37.8413C39.7375 5.3589 41.2415 5.73445 42.3532 6.48554C43.4649 7.23663 44.0207 8.21545 44.0207 9.42201C44.0342 10.3952 43.6727 11.3361 43.0113 12.0497C42.3384 12.7943 41.4084 13.3231 40.2212 13.6362V13.6855C41.6994 13.8256 42.8822 14.2778 43.7696 15.042C44.2019 15.4058 44.5462 15.8629 44.7767 16.3788C45.0072 16.8948 45.118 17.4563 45.1007 18.0212C45.1007 19.542 44.4277 20.7727 43.0819 21.7132C41.7361 22.6537 40.0401 23.1245 37.994 23.1256H31.6045ZM34.1747 7.24265V12.9793H36.8007C38.2079 12.9793 39.3141 12.7056 40.1194 12.1581C40.505 11.9089 40.8192 11.5636 41.0312 11.1562C41.2433 10.7488 41.3459 10.2933 41.329 9.83424C41.329 8.1087 39.9268 7.24593 37.1225 7.24593L34.1747 7.24265ZM34.1747 14.8499V21.2435H37.6624C39.1713 21.2435 40.3415 20.9544 41.1731 20.3763C41.5672 20.1197 41.8889 19.7661 42.1074 19.3495C42.3258 18.9328 42.4336 18.4669 42.4205 17.9966C42.4205 15.8999 40.6561 14.851 37.1274 14.8499H34.1747ZM59.2352 23.3983C60.2047 23.3994 60.9848 23.2674 61.5757 23.0025L61.5806 21.2682C61.0836 21.5592 60.515 21.7049 59.9393 21.6886C59.1121 21.6886 58.5202 21.5069 58.1635 21.1434C57.8068 20.7799 57.6284 20.1728 57.6284 19.322V12.173H61.5757V10.4387H57.6284V6.68434L55.1206 7.34127V10.4387H52.4272V12.173H55.1206V19.6817C55.1195 22.1594 56.491 23.3983 59.2352 23.3983ZM84.3613 23.1256H82.0111V12.1615C82.0227 11.099 82.0884 10.0377 82.208 8.9819H82.1522C82.002 9.528 81.7992 10.0582 81.5466 10.5651L74.6532 23.1256H73.5043L66.6225 10.6571C66.3622 10.1216 66.1591 9.56009 66.0168 8.9819H65.961C66.0532 10.0468 66.091 11.1157 66.0743 12.1844V23.1256H63.7798V6.7812H66.8982L73.0907 18.1789C73.4547 18.8054 73.7654 19.4614 74.0197 20.1399H74.105C74.5077 19.2432 74.831 18.5747 75.075 18.1346L81.3939 6.7812H84.3482L84.3613 23.1256ZM97.1062 23.1256H99.6157V14.8746C99.6146 11.7191 97.7736 10.1414 94.0928 10.1414C92.0828 10.1414 90.308 10.5377 88.7685 11.3304V13.4129C90.2703 12.3771 92.0555 11.8316 93.8794 11.8511C96.0306 11.8521 97.1062 12.9301 97.1062 15.0848L92.4105 15.6185C88.9627 16.0061 87.2388 17.3851 87.2388 19.7556C87.2256 20.2739 87.3392 20.7875 87.5697 21.2518C87.8003 21.7161 88.1409 22.117 88.5617 22.4194C89.4447 23.0884 90.6664 23.4229 92.2267 23.4229C94.345 23.424 95.9513 22.6641 97.0454 21.1433H97.1062V23.1256ZM93.3312 17.1295L97.1062 16.709L97.116 17.972C97.1271 18.4816 97.0236 18.9873 96.813 19.4515C96.6025 19.9157 96.2904 20.3267 95.8998 20.6539C95.089 21.3601 94.0616 21.7132 92.8175 21.7132C91.9115 21.7132 91.185 21.5172 90.6379 21.1253C90.3846 20.9618 90.1767 20.737 90.0332 20.4717C89.8898 20.2065 89.8155 19.9093 89.8173 19.6077C89.8227 18.7559 90.1187 18.163 90.7052 17.8291C91.2917 17.4952 92.167 17.262 93.3312 17.1295ZM111.258 12.4948C110.821 12.2222 110.188 12.0859 109.361 12.0859C108.851 12.0776 108.345 12.1834 107.88 12.3956C107.416 12.6079 107.004 12.9212 106.676 13.3127C105.957 14.1305 105.598 15.2457 105.598 16.6581V23.1256H103.09V10.4386H105.598V13.0548H105.66C105.981 12.2076 106.554 11.4791 107.301 10.9674C108.026 10.4706 108.885 10.2085 109.763 10.2169C110.269 10.1988 110.774 10.2575 111.262 10.391L111.262 10.4387H113.54V7.34127L116.048 6.68434V10.4387H119.987V12.173H116.048V19.322C116.048 20.1728 116.226 20.7799 116.583 21.1434C116.94 21.5069 117.532 21.6886 118.359 21.6886C118.934 21.7049 119.503 21.5592 120 21.2682L119.995 23.0025C119.404 23.2674 118.624 23.3994 117.655 23.3983C114.91 23.3983 113.539 22.1594 113.54 19.6817V12.173H111.259L111.258 12.4948ZM0.208496 26.8931H1.87766V27.955H0.208496V26.8931Z" fill="currentColor"/></svg>