<svg xmlns="http://www.w3.org/2000/svg" height="32" width="32"><path fill="#f7931a" d="M31.517 19.872c-2.137 8.572-10.819 13.788-19.391 11.65C3.556 29.387-1.66 20.705.478 12.133 2.614 3.56 11.296-1.656 19.865.48c8.573 2.137 13.789 10.82 11.652 19.392z"/><path fill="#FFF" d="M23.052 13.722c.318-2.129-1.303-3.273-3.52-4.037l.72-2.884-1.756-.438-.7 2.808a73.436 73.436 0 0 0-1.407-.33l.705-2.827-1.754-.438-.72 2.883a58.728 58.728 0 0 1-1.12-.263l.001-.009-2.42-.605-.468 1.875s1.303.299 1.275.317c.711.178.84.648.818 1.021l-.819 3.286c.05.012.113.03.183.058l-.186-.046-1.148 4.603c-.087.216-.307.54-.804.417.017.025-1.276-.319-1.276-.319l-.872 2.01 2.285.57c.425.106.841.218 1.251.323l-.726 2.917 1.753.437.72-2.886c.479.13.944.25 1.399.363l-.717 2.873 1.755.437.727-2.912c2.993.567 5.244.339 6.192-2.369.763-2.18-.038-3.437-1.613-4.257 1.147-.265 2.011-1.02 2.241-2.578zm-4.011 5.625c-.543 2.18-4.213 1.001-5.403.705l.964-3.864c1.19.297 5.006.885 4.439 3.159zm.543-5.657c-.495 1.984-3.55.976-4.541.729l.874-3.505c.99.247 4.182.708 3.667 2.777z"/></svg>