<svg viewBox="0 0 258 51.4" xmlns="http://www.w3.org/2000/svg"><g fill="#5b10ff"><path d="M49.6 25.7C49.6 11.5 38.1 0 23.9 0 15.6 0 8.2 3.9 3.5 10c.2.1.4.1.5.2l3 1.5c4.1-5 10.2-7.9 16.8-7.9 12 0 21.8 9.8 21.8 21.8s-9.8 21.8-21.8 21.8c-6.6 0-12.7-2.9-16.8-7.9L4 41c-.2.1-.4.2-.5.2 4.7 6.1 12.1 10 20.3 10 14.3.2 25.8-11.3 25.8-25.5z"/><path d="M24 26.9c.6-.3 1-.8 1-1.2s-.3-.9-1-1.2L2.4 13.7C1.1 13 0 13.7 0 15.1v21.1c0 1.5 1.1 2.1 2.4 1.5zm84.1 10.4c-.2-.1-.5-.2-.8-.2-.7 0-1.3.4-1.6 1.1-1.4 3.1-3.3 5.4-5.9 7.1-2.5 1.7-5.5 2.5-9.2 2.5-5.5 0-9.7-1.8-12.8-5.5s-4.7-9.3-4.7-16.6c0-3.7.4-7 1.2-9.7s2-5 3.5-6.8C79.4 7.3 81.2 6 83.3 5c2.2-.9 4.6-1.4 7.4-1.4 3.6 0 6.7.8 9.1 2.3 2.4 1.6 4.3 3.9 5.7 7 .3.6.9 1.1 1.7 1.1.3 0 .5-.1.7-.2.9-.4 1.3-1.5.9-2.4-1.7-3.7-4.1-6.6-7.1-8.5C98.8 1 95.1 0 90.7 0c-3.2 0-6.2.6-8.8 1.7-2.7 1.1-4.9 2.9-6.8 5.1-1.8 2.2-3.2 4.9-4.2 8.1-.9 3.1-1.4 6.7-1.4 10.8 0 8.2 1.9 14.5 5.6 18.9 3.8 4.5 9 6.8 15.6 6.8 4.4 0 8.1-1.1 11.2-3.1 3-2.1 5.4-4.9 7.1-8.6.2-.4.2-.9.1-1.4-.2-.5-.5-.8-1-1zm84.5-14.7l-.4-.6.5-.6L207.9 3c.6-.8.5-1.9-.2-2.6-.3-.3-.7-.4-1.1-.4-.5 0-1.1.2-1.4.7l-22.7 27.5-1.8 2.1V1.8c0-1-.8-1.8-1.8-1.8s-1.8.8-1.8 1.8v47.8c0 1 .8 1.8 1.8 1.8s1.8-.8 1.8-1.8V36l.2-.3 8.1-9.8.9-1 .7 1.1 16.7 24.6c.3.5.9.8 1.5.8.4 0 .7-.1 1-.3.4-.3.7-.7.8-1.2s0-1-.3-1.4zm63.6 25.2h-28.8V27.4h26.4c1 0 1.8-.8 1.8-1.8s-.8-1.8-1.8-1.8h-26.4V3.6h28.8c1 0 1.8-.8 1.8-1.8s-.8-1.8-1.8-1.8h-30.7c-1 0-1.8.8-1.8 1.8v47.8c0 1 .8 1.8 1.8 1.8h30.7c1 0 1.8-.8 1.8-1.8s-.8-1.8-1.8-1.8zm-133.5 1l16.1-47.4c.3-.8 1-1.3 1.9-1.3h4.6c.8 0 1.6.5 1.9 1.3l16.1 47.4c.4 1-.2 2.2-1.2 2.5-.2.1-.4.1-.6.1-.8 0-1.6-.5-1.9-1.3L143.8 4h-1.7l-9.3 27.5h14.5l1.3 4h-17.1l-5 14.6c-.3.8-1 1.3-1.9 1.3-.2 0-.4 0-.6-.1-1.1-.4-1.6-1.5-1.3-2.5z"/></g></svg>