<svg enable-background="new 0 0 352.6 101.4" viewBox="0 0 352.6 101.4" xmlns="http://www.w3.org/2000/svg"><g fill="#5b10ff"><path d="m3.7 101.4c-2.1 0-3.7-1.7-3.7-3.7v-94c0-2 1.7-3.7 3.7-3.7h37.4c9.5 0 16.9 2.8 22.2 8.4 5.2 5.5 7.8 13 7.8 22.3s-2.6 16.8-7.8 22.3c-5.2 5.6-12.7 8.4-22.2 8.4-2.1 0-3.7-1.7-3.7-3.7 0-2.1 1.7-3.7 3.7-3.7 7.4 0 12.9-2 16.7-6 3.9-4.1 5.8-9.7 5.8-17.1s-1.9-13-5.8-17.1c-3.8-4.1-9.3-6-16.7-6h-33.6v90.2c0 1.7-1.7 3.4-3.8 3.4z"/><path d="m348.9 101.4h-51.3c-2.1 0-3.7-1.7-3.7-3.7v-94c0-2.1 1.7-3.7 3.7-3.7 2.1 0 3.7 1.7 3.7 3.7v90.2h47.5c2.1 0 3.7 1.7 3.7 3.7.1 2.1-1.6 3.8-3.6 3.8z"/><path d="m256.1 13.3c-7.4-8.8-17.8-13.3-30.8-13.3-31.1 0-37.7 26.7-47.6 44.8 0 0-12.2 27.5-21.2 38.8s-22.3 10.6-24.5 10.6c-10.9 0-19.2-3.5-25.3-10.8-6.2-7.4-9.3-18.4-9.3-32.7 0-7.3.8-13.7 2.5-19.2 1.6-5.3 3.9-9.9 6.9-13.5s6.5-6.2 10.7-8.1c4.3-1.8 9.2-2.8 14.6-2.8 7.2 0 13.2 1.5 18 4.6s8.5 7.6 11.3 13.8c.6 1.3 1.9 2.1 3.3 2.1.5 0 1-.1 1.5-.3 1.8-.8 2.6-2.9 1.8-4.7-3.3-7.4-8-13-13.9-16.9-6.1-3.8-13.5-5.7-22.1-5.7-6.4 0-12.2 1.1-17.4 3.4s-9.8 5.7-13.4 10.1-6.4 9.7-8.2 16c-1.8 6.1-2.8 13.3-2.8 21.3 0 16.1 3.7 28.7 11 37.3 7.5 8.8 17.8 13.3 30.8 13.3 31.1 0 36.8-24.7 46.6-42.8 0 0 13.1-29.5 22.1-40.8s22.4-10.6 24.6-10.6c10.9 0 19.2 3.5 25.3 10.8 6.2 7.4 9.3 18.4 9.3 32.7 0 7.3-.8 13.7-2.5 19.2-1.6 5.3-3.9 9.9-6.9 13.5s-6.5 6.2-10.7 8.1c-4.3 1.8-9.2 2.8-14.6 2.8-7.2 0-13.2-1.5-18-4.6s-8.5-7.6-11.3-13.8c-.6-1.3-1.9-2.1-3.3-2.1-.5 0-1 .1-1.5.3-1.8.8-2.6 2.9-1.8 4.7 3.3 7.4 8 13 13.9 16.9 5.9 3.8 13.3 5.7 21.8 5.7 6.4 0 12.2-1.1 17.4-3.4s9.8-5.7 13.4-10.1 6.4-9.7 8.2-16c1.8-6.1 2.8-13.3 2.8-21.3.3-16-3.4-28.6-10.7-37.3z"/></g></svg>