<svg enable-background="new 0 0 385.9 400" viewBox="0 0 385.9 400" xmlns="http://www.w3.org/2000/svg"><g fill="#5b10ff"><path d="m385.9 200c0-110.5-89.5-200-200-200-64.4 0-121.7 30.6-158.3 77.9 1.4.6 2.8 1.1 4.1 1.8l23.4 11.7c31.9-38.6 79.2-61.4 130.8-61.4 93.8 0 170.1 76.2 170.1 170s-76.3 170.1-170.1 170.1c-51.6 0-99-22.9-130.8-61.5l-23.3 11.7c-1.4.7-2.8 1.2-4.2 1.8 36.6 47.4 93.8 77.9 158.3 77.9 110.5 0 200-89.6 200-200z"/><path d="m187 209.2c5.1-2.5 7.6-5.9 7.6-9.2s-2.5-6.6-7.6-9.2l-168.6-84.3c-10.1-5-18.4.1-18.4 11.4v164.3c0 11.3 8.3 16.4 18.4 11.4z"/></g></svg>