{
  "accessors": [
    {
      "bufferView": 2,
      "componentType": 5126,
      "count": 65532,
      "max": [91.9679946899414, 82.91832733154297, 448.2965087890625],
      "min": [-65.95541381835938, -80.31014251708984, 237.2274932861328],
      "type": "VEC3"
    },
    {
      "bufferView": 2,
      "byteOffset": 786384,
      "componentType": 5126,
      "count": 65532,
      "max": [0.9999985694885254, 0.9999619126319885, 1.0],
      "min": [-0.999983012676239, -0.9999882578849792, -0.9999999403953552],
      "type": "VEC3"
    },
    {
      "bufferView": 1,
      "componentType": 5126,
      "count": 65532,
      "max": [0.9850651621818542, 0.6469281315803528],
      "min": [0.008261862210929394, 0.01582464762032032],
      "type": "VEC2"
    },
    {
      "bufferView": 0,
      "componentType": 5125,
      "count": 324186,
      "type": "SCALAR"
    },
    {
      "bufferView": 2,
      "byteOffset": 1572768,
      "componentType": 5126,
      "count": 65532,
      "max": [92.71257781982422, 83.34479522705078, 439.49627685546875],
      "min": [-74.0323715209961, -83.34178924560547, 297.16229248046875],
      "type": "VEC3"
    },
    {
      "bufferView": 2,
      "byteOffset": 2359152,
      "componentType": 5126,
      "count": 65532,
      "max": [0.9999924898147583, 0.9999786019325256, 0.9999502897262573],
      "min": [-0.9999850392341614, -0.9999966025352478, -1.0],
      "type": "VEC3"
    },
    {
      "bufferView": 1,
      "byteOffset": 524256,
      "componentType": 5126,
      "count": 65532,
      "max": [0.9751514196395874, 0.9579235315322876],
      "min": [0.008037760853767395, 0.010893555358052254],
      "type": "VEC2"
    },
    {
      "bufferView": 0,
      "byteOffset": 1296744,
      "componentType": 5125,
      "count": 333924,
      "type": "SCALAR"
    },
    {
      "bufferView": 2,
      "byteOffset": 3145536,
      "componentType": 5126,
      "count": 65532,
      "max": [23.991161346435547, 9.966486930847168, 443.7812805175781],
      "min": [-4.98331356048584, -12.813881874084473, 163.92311096191406],
      "type": "VEC3"
    },
    {
      "bufferView": 2,
      "byteOffset": 3931920,
      "componentType": 5126,
      "count": 65532,
      "max": [0.9999998211860657, 0.999999463558197, 0.999869704246521],
      "min": [-0.9999863505363464, -0.9999865293502808, -0.9999663233757019],
      "type": "VEC3"
    },
    {
      "bufferView": 1,
      "byteOffset": 1048512,
      "componentType": 5126,
      "count": 65532,
      "max": [0.6445550322532654, 0.8830362558364868],
      "min": [0.027493484318256378, 0.7084840536117554],
      "type": "VEC2"
    },
    {
      "bufferView": 0,
      "byteOffset": 2632440,
      "componentType": 5125,
      "count": 317361,
      "type": "SCALAR"
    },
    {
      "bufferView": 2,
      "byteOffset": 4718304,
      "componentType": 5126,
      "count": 65532,
      "max": [23.897724151611328, 15.45388126373291, 443.5167541503906],
      "min": [-5.225104808807373, -12.742144584655762, 153.83656311035156],
      "type": "VEC3"
    },
    {
      "bufferView": 2,
      "byteOffset": 5504688,
      "componentType": 5126,
      "count": 65532,
      "max": [0.9999918937683105, 1.0, 0.9999391436576843],
      "min": [-0.9999885559082031, -0.9999932646751404, -0.9998910427093506],
      "type": "VEC3"
    },
    {
      "bufferView": 1,
      "byteOffset": 1572768,
      "componentType": 5126,
      "count": 65532,
      "max": [0.7061629891395569, 0.9893763065338135],
      "min": [0.023288575932383537, 0.7466846108436584],
      "type": "VEC2"
    },
    {
      "bufferView": 0,
      "byteOffset": 3901884,
      "componentType": 5125,
      "count": 288798,
      "type": "SCALAR"
    },
    {
      "bufferView": 2,
      "byteOffset": 6291072,
      "componentType": 5126,
      "count": 22715,
      "max": [92.77063751220703, 83.2862548828125, 454.1202697753906],
      "min": [-74.2062759399414, -82.53468322753906, 154.1307830810547],
      "type": "VEC3"
    },
    {
      "bufferView": 2,
      "byteOffset": 6563652,
      "componentType": 5126,
      "count": 22715,
      "max": [0.9999859929084778, 0.9999266862869263, 1.0],
      "min": [-0.9999976754188538, -0.9999962449073792, -0.9999653697013855],
      "type": "VEC3"
    },
    {
      "bufferView": 1,
      "byteOffset": 2097024,
      "componentType": 5126,
      "count": 22715,
      "max": [0.879493236541748, 0.9857823252677917],
      "min": [0.06431645154953003, 0.12013232707977295],
      "type": "VEC2"
    },
    {
      "bufferView": 0,
      "byteOffset": 5057076,
      "componentType": 5125,
      "count": 106611,
      "type": "SCALAR"
    }
  ],
  "asset": {
    "extras": {
      "author": "cyberhirsch (https://sketchfab.com/cyberhirsch)",
      "license": "SKETCHFAB Standard (https://sketchfab.com/licenses)",
      "source": "https://sketchfab.com/3d-models/jellyfish-bcd6f7da7a8d4ae383f688477cfa9e6d",
      "title": "Jellyfish"
    },
    "generator": "Sketchfab-13.68.0",
    "version": "2.0"
  },
  "bufferViews": [
    {
      "buffer": 0,
      "byteLength": 5483520,
      "name": "floatBufferViews",
      "target": 34963
    },
    {
      "buffer": 0,
      "byteLength": 2278744,
      "byteOffset": 5483520,
      "byteStride": 8,
      "name": "floatBufferViews",
      "target": 34962
    },
    {
      "buffer": 0,
      "byteLength": 6836232,
      "byteOffset": 7762264,
      "byteStride": 12,
      "name": "floatBufferViews",
      "target": 34962
    }
  ],
  "buffers": [
    {
      "byteLength": 14598496,
      "uri": "jellyfish.bin"
    }
  ],
  "images": [
    {
      "uri": "textures/Jelly_emissive.jpeg"
    }
  ],
  "materials": [
    {
      "doubleSided": true,
      "emissiveFactor": [1.0, 1.0, 1.0],
      "emissiveTexture": {
        "index": 0
      },
      "name": "Jelly",
      "pbrMetallicRoughness": {
        "baseColorFactor": [0.0, 0.0, 0.0, 1.0],
        "metallicFactor": 0.0,
        "roughnessFactor": 0.11723333880548918
      }
    }
  ],
  "meshes": [
    {
      "name": "Object_0",
      "primitives": [
        {
          "attributes": {
            "NORMAL": 1,
            "POSITION": 0,
            "TEXCOORD_0": 2
          },
          "indices": 3,
          "material": 0,
          "mode": 4
        }
      ]
    },
    {
      "name": "Object_1",
      "primitives": [
        {
          "attributes": {
            "NORMAL": 5,
            "POSITION": 4,
            "TEXCOORD_0": 6
          },
          "indices": 7,
          "material": 0,
          "mode": 4
        }
      ]
    },
    {
      "name": "Object_2",
      "primitives": [
        {
          "attributes": {
            "NORMAL": 9,
            "POSITION": 8,
            "TEXCOORD_0": 10
          },
          "indices": 11,
          "material": 0,
          "mode": 4
        }
      ]
    },
    {
      "name": "Object_3",
      "primitives": [
        {
          "attributes": {
            "NORMAL": 13,
            "POSITION": 12,
            "TEXCOORD_0": 14
          },
          "indices": 15,
          "material": 0,
          "mode": 4
        }
      ]
    },
    {
      "name": "Object_4",
      "primitives": [
        {
          "attributes": {
            "NORMAL": 17,
            "POSITION": 16,
            "TEXCOORD_0": 18
          },
          "indices": 19,
          "material": 0,
          "mode": 4
        }
      ]
    }
  ],
  "nodes": [
    {
      "children": [1],
      "matrix": [
        1.0, 0.0, 0.0, 0.0, 0.0, 2.220446049250313e-16, -1.0, 0.0, 0.0, 1.0,
        2.220446049250313e-16, 0.0, 0.0, 0.0, 0.0, 1.0
      ],
      "name": "Sketchfab_model"
    },
    {
      "children": [2],
      "name": "root"
    },
    {
      "children": [3],
      "matrix": [
        1.0, 0.0, 0.0, 0.0, 0.0, 2.220446049250313e-16, 1.0, 0.0, 0.0, -1.0,
        2.220446049250313e-16, 0.0, 0.0, 0.0, 0.0, 1.0
      ],
      "name": "GLTF_SceneRootNode"
    },
    {
      "children": [4],
      "matrix": [
        1.0, 0.0, 0.0, 0.0, 0.0, -1.685873969314855e-7, -0.9999999999999858,
        0.0, 0.0, 0.9999999999999858, -1.685873969314855e-7, 0.0,
        1.7175465822219849, -0.3604167699813843, 0.600555419921875, 1.0
      ],
      "name": "Jellyfish.001_1"
    },
    {
      "children": [5, 6, 7, 8, 9],
      "matrix": [
        1.0, 0.0, 0.0, 0.0, 0.0, 1.0, 0.0, 0.0, 0.0, 0.0, 1.0, 0.0,
        -9.655593872070313, 1.68115234375, -610.6943359375, 1.0
      ],
      "name": "Jellyfish_0"
    },
    {
      "mesh": 0,
      "name": "Object_5"
    },
    {
      "mesh": 1,
      "name": "Object_6"
    },
    {
      "mesh": 2,
      "name": "Object_7"
    },
    {
      "mesh": 3,
      "name": "Object_8"
    },
    {
      "mesh": 4,
      "name": "Object_9"
    }
  ],
  "samplers": [
    {
      "magFilter": 9729,
      "minFilter": 9987,
      "wrapS": 10497,
      "wrapT": 10497
    }
  ],
  "scene": 0,
  "scenes": [
    {
      "name": "Sketchfab_Scene",
      "nodes": [0]
    }
  ],
  "textures": [
    {
      "sampler": 0,
      "source": 0
    }
  ]
}
