<svg xmlns="http://www.w3.org/2000/svg" xmlns:xlink="http://www.w3.org/1999/xlink" id="Layer_2" viewBox="0 0 100.81 96.34"><defs><style>.cls-1{fill:url(#linear-gradient)}</style><linearGradient id="linear-gradient" x1="44.8" x2="61.88" y1="-31.68" y2="218.59" gradientUnits="userSpaceOnUse"><stop offset="0" stop-color="#ff00a3"/><stop offset="1" stop-color="#bc00c0"/><stop offset="1" stop-color="#000"/></linearGradient></defs><g id="Layer_1-2"><path d="m100.09,42.24c-.06-.39-.11-.79-.18-1.18-.47-2.5-1.14-4.94-1.97-7.3-.15-.45-.32-.9-.49-1.34-.89-2.33-1.93-4.59-3.14-6.74-.19-.34-.4-.64-.59-.97-1.33-2.23-2.77-4.38-4.41-6.37-.05-.05-.1-.1-.15-.16C79.9,7.07,65.98,0,50.4,0c0,0-.01,0-.02,0-2.31,0-4.57.21-6.81.51-.56.08-1.13.16-1.69.26-2.19.37-4.36.84-6.45,1.48-.02,0-.04.02-.05.02-2.09.65-4.11,1.48-6.08,2.39-.5.23-.99.47-1.48.72-1.92.96-3.8,2.01-5.57,3.2-.02.01-.04.03-.06.04-1.77,1.2-3.43,2.55-5.03,3.95-.41.36-.82.73-1.22,1.11-1.55,1.45-3.04,2.97-4.39,4.61-.03.03-.05.05-.08.09-1.35,1.64-2.56,3.4-3.7,5.21-.29.46-.58.93-.85,1.4-1.09,1.86-2.11,3.77-2.95,5.78-1.28,3.02-2.27,6.19-2.95,9.48-.67,3.28-1.02,6.68-1.02,10.16,0,3.03.32,5.98.83,8.86,4.16,1.37,8.4,2.55,12.71,3.59-.33,7.81-1.75,11.92-5.95,14.05,2.38,3.85,5.26,7.34,8.57,10.4,7.63-5.07,9.88-13.42,10.47-21.9,1.78.28,3.58.45,5.38.67h0v30.27h14.94v-29.2c1.16.03,2.29.14,3.45.14h0c1.16,0,2.3-.12,3.45-.14v29.2h14.94v-30.27h0c1.79-.21,3.61-.39,5.38-.67.59,8.49,2.84,16.83,10.47,21.9,3.3-3.07,6.18-6.55,8.57-10.41-4.2-2.13-5.62-6.24-5.95-14.05,4.3-1.04,8.54-2.22,12.71-3.59h0c.51-2.88.83-5.83.83-8.85h0s0-.02,0-.03c0-2.78-.28-5.49-.72-8.14Zm-21.7,9.09c-3.08.61-6.18,1.12-9.28,1.52-6.21.82-12.45,1.23-18.7,1.23-12.5,0-24.97-1.64-37.2-4.9.64-19.96,17.08-36,37.2-36,10.06,0,19.19,4.01,25.9,10.52s10.98,15.51,11.3,25.49c-3.06.82-6.13,1.53-9.21,2.14Z" class="cls-1"/></g></svg>