<svg width="153" height="50" viewBox="0 0 153 32" fill="none" xmlns="http://www.w3.org/2000/svg">
<g clip-path="url(#clip0_3997_17280)">
<path d="M67.7412 28.613C67.1585 28.9581 66.351 29.1291 65.3187 29.1291C64.4446 29.1291 63.748 28.8853 63.235 28.3944C62.7188 27.9036 62.4591 27.1024 62.4591 25.9909C61.5313 27.1024 60.4546 27.9036 59.2227 28.3944C57.9909 28.8853 56.6609 29.1291 55.2295 29.1291C54.3017 29.1291 53.4213 29.0215 52.5885 28.8125C51.7557 28.6035 51.0337 28.2709 50.4225 27.8213C49.8145 27.3716 49.33 26.7826 48.9721 26.0543C48.6143 25.3259 48.437 24.4456 48.437 23.4132C48.437 22.2479 48.6365 21.2947 49.0323 20.5537C49.4281 19.8127 49.9538 19.211 50.603 18.7455C51.2522 18.2832 51.9932 17.9317 52.826 17.6942C53.6588 17.4567 54.5139 17.2572 55.3879 17.0988C56.3157 16.9151 57.1961 16.7758 58.0289 16.6808C58.8617 16.589 59.5964 16.456 60.2329 16.285C60.8694 16.114 61.3698 15.8606 61.7434 15.5313C62.114 15.202 62.3008 14.7175 62.3008 14.0809C62.3008 13.3399 62.1615 12.7446 61.8828 12.2949C61.6041 11.8453 61.2463 11.5001 60.8093 11.2626C60.3723 11.0251 59.8814 10.8667 59.3399 10.7844C58.7984 10.7052 58.2601 10.6641 57.7312 10.6641C56.2999 10.6641 55.1092 10.9364 54.156 11.4779C53.2028 12.0194 52.6867 13.0486 52.6075 14.556H49.2318C49.2856 13.2861 49.5485 12.2126 50.0266 11.3386C50.5048 10.4646 51.1382 9.75523 51.933 9.21372C52.7278 8.67222 53.6335 8.27954 54.6532 8.04204C55.6729 7.80454 56.7654 7.6842 57.9307 7.6842C58.8586 7.6842 59.7769 7.7507 60.6921 7.88371C61.6041 8.01671 62.4338 8.28588 63.1748 8.69755C63.9158 9.10605 64.5111 9.68239 64.9608 10.4202C65.4105 11.1612 65.6353 12.1239 65.6353 13.3114V23.8534C65.6353 24.6451 65.6828 25.2277 65.7747 25.5983C65.8665 25.9688 66.1768 26.1524 66.7088 26.1524C67.0002 26.1524 67.3454 26.0986 67.7412 25.9941V28.6161V28.613ZM62.2596 18.0868C61.8353 18.4035 61.2811 18.6347 60.5908 18.7772C59.9036 18.9228 59.1816 19.04 58.4247 19.1318C57.6711 19.2237 56.9079 19.3313 56.1415 19.4485C55.372 19.5688 54.6849 19.7588 54.0769 20.0217C53.4688 20.2845 52.9717 20.6614 52.5885 21.149C52.2053 21.6367 52.0122 22.3017 52.0122 23.1441C52.0122 23.6982 52.1262 24.1637 52.351 24.5469C52.5758 24.9301 52.8672 25.2404 53.225 25.4747C53.5828 25.7123 54.0009 25.8833 54.4759 25.9878C54.9509 26.0923 55.4544 26.1461 55.9864 26.1461C57.0979 26.1461 58.0511 25.9941 58.8459 25.6933C59.6408 25.3892 60.2899 25.0092 60.7934 24.5469C61.2969 24.0846 61.6674 23.5842 61.9049 23.0459C62.1425 22.5075 62.2628 21.9977 62.2628 21.5259V18.0868H62.2596Z" fill="black"/>
<path d="M45.1943 8.16559H41.4291V24.927H45.1943V8.16559Z" fill="black"/>
<path d="M31.9543 8.16559H28.1891V24.927H31.9543V8.16559Z" fill="black"/>
<path d="M41.4322 24.9269H31.9543V28.6922H41.4322V24.9269Z" fill="black"/>
<path d="M74.0651 11.9308H70.2999V28.6922H74.0651V11.9308Z" fill="black"/>
<path d="M87.3083 11.9308H83.5431V28.6922H87.3083V11.9308Z" fill="black"/>
<path d="M83.5431 8.16559H74.0651V11.9308H83.5431V8.16559Z" fill="black"/>
<path d="M74.0651 8.16559H70.2999V11.9308H74.0651V8.16559Z" fill="black"/>
<path d="M100.38 8.15607V11.1359H96.289V23.8851C96.289 24.2809 96.3207 24.6008 96.3872 24.8383C96.4537 25.0758 96.5804 25.2626 96.764 25.3956C96.9477 25.5286 97.2074 25.6141 97.5399 25.6553C97.8692 25.6933 98.2999 25.7154 98.8319 25.7154H100.38V28.6953H97.7996C96.9255 28.6953 96.1782 28.6352 95.5544 28.518C94.9305 28.3976 94.427 28.1791 94.0438 27.8625C93.6607 27.5458 93.3757 27.0961 93.1888 26.5135C93.002 25.9308 92.9102 25.1644 92.9102 24.2113V11.1359H89.4141V8.15607H92.9102V2H96.2859V8.15607H100.377H100.38Z" fill="black"/>
<path d="M120.242 8.16559H116.477V24.927H120.242V8.16559Z" fill="black"/>
<path d="M106.999 8.16559H103.234V24.927H106.999V8.16559Z" fill="black"/>
<path d="M116.477 24.9269H106.999V28.6922H116.477V24.9269Z" fill="black"/>
<path d="M20.1425 2.03168H6.67133V5.79689H20.1425V2.03168Z" fill="black"/>
<path d="M4.64778 5.7652H0.882568V24.8953H4.64778V5.7652Z" fill="black"/>
<path d="M20.1425 2H4.64777V5.76521H20.1425V2Z" fill="black"/>
<path d="M23.9077 5.7652H20.1425V24.9618H23.9077V5.7652Z" fill="black"/>
<path d="M23.9077 24.8953H4.64777V28.6605H23.9077V24.8953Z" fill="black"/>
<path d="M12.8939 20.3764L15.5571 17.7258L25.2187 27.3494L22.5555 30L12.8939 20.3764Z" fill="black"/>
<path d="M3.31458 7.09523L5.97461 4.4447L11.8742 10.3063L9.21415 12.96L3.31458 7.09523Z" fill="black"/>
<path d="M127.234 8.15609V11.174H127.313C128.849 8.84326 131.059 7.67792 133.947 7.67792C135.217 7.67792 136.37 7.94392 137.402 8.47276C138.435 9.0016 139.163 9.90411 139.587 11.174C140.275 10.0624 141.183 9.2011 142.308 8.59309C143.432 7.98509 144.67 7.68108 146.022 7.68108C147.054 7.68108 147.989 7.79509 148.822 8.01992C149.654 8.24476 150.37 8.59626 150.965 9.07127C151.561 9.54627 152.023 10.1638 152.356 10.9175C152.685 11.6711 152.853 12.58 152.853 13.6377V28.6922H149.477V15.2273C149.477 14.5908 149.423 13.9955 149.319 13.4413C149.214 12.884 149.015 12.4026 148.723 11.991C148.432 11.5825 148.03 11.2563 147.51 11.0188C146.991 10.7813 146.326 10.661 145.506 10.661C143.837 10.661 142.526 11.136 141.573 12.0891C140.62 13.0423 140.142 14.3122 140.142 15.9018V28.6922H136.766V15.2273C136.766 14.5655 136.706 13.9575 136.589 13.4002C136.471 12.8428 136.262 12.3615 135.974 11.9498C135.683 11.5381 135.293 11.2215 134.802 10.9966C134.312 10.7718 133.685 10.6578 132.915 10.6578C131.937 10.6578 131.094 10.8573 130.394 11.2531C129.691 11.649 129.125 12.1271 128.688 12.6845C128.251 13.2418 127.934 13.815 127.734 14.4135C127.535 15.012 127.437 15.506 127.437 15.9018V28.6922H124.061V8.15609H127.237H127.234Z" fill="black"/>
</g>
<defs>
<clipPath id="clip0_3997_17280">
<rect width="152" height="50" fill="white" transform="translate(0.882568 2)"/>
</clipPath>
</defs>
</svg>
