<?xml version="1.0" encoding="UTF-8"?>
<svg width="24px" height="24px" viewBox="0 0 24 24" version="1.1" xmlns="http://www.w3.org/2000/svg" xmlns:xlink="http://www.w3.org/1999/xlink">
    <title>utility/budget</title>
    <g id="utility/budget" stroke="none" stroke-width="1" fill="none" fill-rule="evenodd">
        <g id="legal-hammer" transform="translate(1.000000, 0.000000)" fill="#FF00AF" fill-rule="nonzero">
            <path d="M2.49926929,21.0008771 L10.4969309,21.0008771 L10.4969308,21.0008771 C11.0490544,21.0008771 11.4966385,20.5532928 11.4966385,20.0011692 L11.4966385,18.5016077 L11.4966385,18.5016077 C11.4966385,17.6734228 10.8252618,17.0020461 9.99707697,17.0020461 L2.99912309,17.0020461 L2.99912302,17.0020461 C2.17093818,17.0020461 1.49956148,17.6734228 1.49956148,18.5016077 C1.49956148,18.5016077 1.49956148,18.5016077 1.49956148,18.5016077 L1.49956148,20.0011692 L1.49956148,20.0011694 C1.49956148,20.5532929 1.94714561,21.0008771 2.49926918,21.0008771 L2.49926929,21.0008771 Z" id="Path"></path>
            <path d="M22.4934232,18.0017538 L22.4934233,18.0017538 C23.1383037,17.3795657 23.1566983,16.352406 22.5345106,15.7075246 C22.5210611,15.6935847 22.5073631,15.6798867 22.4934232,15.6664372 L15.6814149,9.53522989 L15.6814149,9.53522987 C15.5791148,9.44256256 15.5713061,9.28451018 15.6639734,9.18221009 C15.6667152,9.17918329 15.6695308,9.17622416 15.6724176,9.17333534 L17.4349022,7.40985097 L17.4349022,7.40985099 C17.5229389,7.32184592 17.6623177,7.31204248 17.7618066,7.38685771 L17.7618065,7.3868576 C18.4248826,7.88306351 19.3646678,7.74778906 19.8608727,7.08471294 C20.3077531,6.48755154 20.2478256,5.65273164 19.7202339,5.12551579 L15.0406021,0.44588406 L15.0406022,0.4458841 C14.4586723,-0.143393602 13.5092199,-0.14934886 12.9199422,0.43258079 C12.3840379,0.961804051 12.3238355,1.80642909 12.7792624,2.40631369 L12.7792624,2.40631369 C12.8539346,2.5054845 12.8441258,2.64451404 12.7562691,2.7322184 L7.22288699,8.26360109 L7.22288699,8.26360109 C7.13491851,8.35149869 6.99584137,8.3617062 6.89598257,8.28759407 L6.89598269,8.28759416 C6.23130503,7.79353562 5.29196169,7.93184918 4.79790614,8.59652583 C4.35530456,9.19197573 4.4146742,10.0215792 4.93755731,10.5479353 L9.61718904,15.227567 L9.61718894,15.2275669 C10.2025928,15.8133936 11.1520602,15.8137375 11.7378889,15.2283339 C12.2654806,14.7011241 12.3254071,13.8663022 11.8785277,13.2691368 L11.8785277,13.2691368 C11.8041178,13.1697238 11.8143544,13.0306765 11.9025207,12.943232 L13.6650054,11.1797477 L13.6650054,11.1797477 C13.7626129,11.0821501 13.9208576,11.0821582 14.018455,11.1797658 C14.0216938,11.1830049 14.024843,11.1863325 14.0278989,11.1897447 L20.1611056,18.001753 L20.1611055,18.0017529 C20.7849451,18.6458046 21.8127726,18.6621908 22.4568243,18.0383513 C22.4692173,18.0263471 22.4814184,18.0141462 22.4934226,18.001753 L22.4934232,18.0017538 Z" id="Path"></path>
            <path d="M11.9964924,22.0005846 L0.99970774,22.0005846 L0.999707697,22.0005846 C0.447584131,22.0005846 0,22.4481687 0,23.0002923 C0,23.5524159 0.447584131,24 0.999707697,24 L11.9964924,24 L11.9964923,24 C12.5486159,24 12.9962,23.5524159 12.9962,23.0002923 C12.9962,22.4481687 12.5486159,22.0005846 11.9964923,22.0005846 L11.9964924,22.0005846 Z" id="Path"></path>
        </g>
    </g>
</svg>