<svg width="24" height="24" xmlns="http://www.w3.org/2000/svg"><g fill="#5B10FF"><path d="M24 1.75a1.5 1.5 0 0 0-1.5-1.5h-21a1.5 1.5 0 0 0-.214 2.984.25.25 0 0 1 .214.248v14.543c0 .119-.084.22-.2.245a1 1 0 0 0 .2 1.98H11a.249.249 0 0 1 .25.25v.314a.249.249 0 0 1-.107.2 1.5 1.5 0 1 0 1.714 0 .249.249 0 0 1-.107-.2V20.5c0-.138.11-.25.248-.25H22.5a1 1 0 0 0 .2-1.98.249.249 0 0 1-.2-.245V3.482a.25.25 0 0 1 .214-.248A1.5 1.5 0 0 0 24 1.75zM20.5 18a.25.25 0 0 1-.25.25H3.75A.25.25 0 0 1 3.5 18V3.5c0-.138.11-.25.248-.25H20.25c.138 0 .25.11.25.248V18z"/><path d="M8.75 16.25c0 .414.336.75.75.75H19a.75.75 0 1 0 0-1.5h-.75a.25.25 0 0 1-.25-.25v-4.5a1 1 0 0 0-1-1h-1a1 1 0 0 0-1 1v4.5a.25.25 0 0 1-.25.25h-1a.25.25 0 0 1-.25-.25v-1.5a1 1 0 0 0-1-1h-1a1 1 0 0 0-1 1v1.5a.25.25 0 0 1-.25.25H9.5a.75.75 0 0 0-.75.75zM10 10.947a2.3 2.3 0 0 0-1.025-1.916L7.135 7.8a.3.3 0 0 1 .165-.55H9a1 1 0 0 0 .184-1.984.249.249 0 0 1-.2-.2 1 1 0 0 0-1.972.034.25.25 0 0 1-.195.208 2.295 2.295 0 0 0-.792 4.156l1.84 1.236a.3.3 0 0 1-.168.555H6a1 1 0 0 0-.184 1.983.249.249 0 0 1 .2.2 1 1 0 0 0 1.97-.041.249.249 0 0 1 .194-.21 2.292 2.292 0 0 0 1.82-2.24z"/></g></svg>