<?xml version="1.0" encoding="UTF-8"?>
<svg width="24px" height="24px" viewBox="0 0 24 24" version="1.1" xmlns="http://www.w3.org/2000/svg" xmlns:xlink="http://www.w3.org/1999/xlink">
    <title>utility/collateral</title>
    <g id="utility/collateral" stroke="none" stroke-width="1" fill="none" fill-rule="evenodd">
        <g id="business-contract-give" transform="translate(0.294677, 0.396990)" fill="#FF00AF" fill-rule="nonzero">
            <path d="M17.4553229,2.07701036 L7.45532288,2.07701036 L7.45532288,2.07701036 C6.90303788,2.07701036 6.45532288,2.52472536 6.45532288,3.07701036 C6.45532288,3.62929536 6.90303788,4.07701036 7.45532288,4.07701036 L16.9553229,4.07701036 L16.9553229,4.07701036 C17.2314649,4.07701036 17.4553229,4.30086836 17.4553229,4.57701036 L17.4553229,12.4770104 L17.4553229,12.4770105 C17.4548914,12.5044278 17.4657374,12.5308194 17.485323,12.5500105 L20.235323,15.3000105 L20.235323,15.3000105 C20.533396,15.5876305 20.541869,16.0624295 20.2542485,16.3605005 C19.9666285,16.6585735 19.4918295,16.6670465 19.1937585,16.379426 C19.1875075,16.3733942 19.1813619,16.3672544 19.1753243,16.3610092 L17.1053243,14.2840092 L17.1053244,14.2840092 C16.4938084,13.9696302 15.7432244,14.2105067 15.4288444,14.8220232 C15.1844554,15.2973972 15.2707744,15.8757232 15.6433264,16.2590132 L18.3873264,19.0590132 L18.3873264,19.0590132 C18.4336061,19.1054755 18.4595093,19.1684352 18.4593264,19.2340132 L18.4593264,20.6340132 L18.4593264,20.6340134 C18.5940554,21.4944944 18.9148444,22.3152334 19.3993264,23.0390134 L19.3993264,23.0390134 C19.4377094,23.1015851 19.5017464,23.1440324 19.5743264,23.1550134 L19.5743263,23.1550134 C20.9934863,23.3932564 22.4329763,22.8643804 23.3603263,21.7640134 L23.3603263,21.7640134 C23.4218046,21.6871473 23.4320071,21.5811984 23.3863263,21.4940134 L22.4863263,19.7540134 L22.4863263,19.7540133 C22.4681728,19.7183806 22.4585852,19.6790031 22.4583263,19.6390133 L22.4583263,15.1390133 C22.4923263,13.6960133 21.0993263,12.3800133 19.5463263,11.0580133 L19.5463263,11.0580134 C19.4903837,11.0107757 19.4581739,10.9412324 19.4583263,10.8680134 L19.4583263,4.07701036 L19.4583263,4.07701036 C19.4583263,2.97244112 18.5628953,2.07701036 17.4583263,2.07701036 C17.4573256,2.07701036 17.4563249,2.07701036 17.4553229,2.07701036 L17.4553229,2.07701036 Z" id="Path"></path>
            <path d="M5.95532292,20.5770104 L15.9553229,20.5770104 L15.9553229,20.5770104 C16.5076079,20.5770104 16.9553229,20.1292954 16.9553229,19.5770104 C16.9553229,19.0247254 16.5076079,18.5770104 15.9553229,18.5770104 L6.95532288,18.5770104 L6.95532285,18.5770104 C6.67918085,18.5770103 6.45532285,18.3531524 6.45532285,18.0770104 C6.45532285,18.0770104 6.45532285,18.0770104 6.45532285,18.0770104 L6.45532285,11.1930104 L6.45532285,11.1930066 C6.45529197,11.1035689 6.40767245,11.0209046 6.33031985,10.9760086 L6.33031987,10.9760086 C6.27334337,10.9437842 6.22116887,10.9037273 6.17531987,10.8570086 L3.42531987,8.10300865 L3.42531986,8.10300864 C3.11473186,7.82895064 3.08511886,7.35500064 3.35917746,7.04440864 C3.63323546,6.73382064 4.10718546,6.70420764 4.41777746,6.97826624 C4.44171146,6.99938524 4.46427286,7.02201074 4.48532396,7.04600444 L6.45532396,9.01600444 L6.45532396,8.98700444 L6.45532397,8.98700444 C7.10154797,9.22191044 7.81584397,8.88847064 8.05075397,8.24224644 C8.21417697,7.79267044 8.10556577,7.28921844 7.77132797,6.94700644 L5.02732797,4.14700644 L5.02732798,4.14700645 C4.98123368,4.10042105 4.95536328,4.03754145 4.95532798,3.97200645 L4.95532798,2.57200645 L4.95532809,2.57200712 C4.81955809,1.71335712 4.49882509,0.894467119 4.01532809,0.172007119 L4.01532808,0.172007116 C3.97664688,0.109723816 3.91275808,0.0673751155 3.84032808,0.0560061155 L3.84032848,0.0560061819 C2.42121848,-0.181613818 0.98203848,0.347151182 0.0543284804,1.44700618 L0.0543284785,1.44700618 C-0.00714982147,1.52387228 -0.0173522215,1.62982118 0.0283284785,1.71700618 L0.928328479,3.45700618 L0.928328487,3.4570062 C0.946494587,3.4929918 0.956078387,3.5326961 0.956328487,3.5730062 L0.956328487,8.0730062 C0.919328487,9.6730062 2.62832849,11.1120062 4.36732849,12.5730062 L4.36732849,12.5730062 C4.42391269,12.6202773 4.45652939,12.6902752 4.45632849,12.7640062 L4.45632849,19.0700062 L4.45632842,19.07002 C4.45246971,19.898438 5.12090742,20.57313 5.94932842,20.5770104 C5.95133398,20.5770104 5.95333956,20.5770104 5.95534514,20.5770104 L5.95532292,20.5770104 Z" id="Path"></path>
        </g>
    </g>
</svg>