<?xml version="1.0" encoding="UTF-8"?>
<svg width="24px" height="24px" viewBox="0 0 24 24" version="1.1" xmlns="http://www.w3.org/2000/svg" xmlns:xlink="http://www.w3.org/1999/xlink">
    <title>utility/dct</title>
    <g id="utility/dct" stroke="none" stroke-width="1" fill="none" fill-rule="evenodd">
        <g id="famous-character-star" transform="translate(-0.000001, -0.000023)" fill="#FF00AF" fill-rule="nonzero">
            <path d="M12,0 L12,0 C5.37258,0 0,5.37260265 0,12.0000227 C0,18.6274427 5.37258,24.0000227 12,24.0000227 C18.62742,24.0000227 24,18.6274427 24,12.0000227 L24,11.9999 C23.9927671,5.37545 18.6243199,0.0071 11.9998999,0 L12,0 Z M12.0000001,22.0000586 L12.0000001,22.0000586 C6.47715009,22.0000586 2.00000009,17.5228727 2.00000009,12.0000227 C2.00000009,6.47717265 6.47715009,2.00002265 12.0000001,2.00002265 C17.5228501,2.00002265 22.0000001,6.47717265 22.0000001,12.0000227 L22.0000001,11.9999586 C21.9939729,17.5202886 17.5204002,21.9939286 12.0000602,22.0000586 L12.0000001,22.0000586 Z" id="Shape"></path>
            <path d="M12.0000002,3.50002266 L12.0000002,3.50002266 C7.30558015,3.50002266 3.50000015,7.30560266 3.50000015,12.0000227 C3.50000015,16.6944427 7.30558015,20.5000227 12.0000002,20.5000227 C16.6944202,20.5000227 20.5000002,16.6944427 20.5000002,12.0000227 L20.5000002,12.0000227 C20.5000002,7.30560303 16.6944202,3.50002266 12.0000002,3.50002266 L12.0000002,3.50002266 Z" id="Shape"></path>
        </g>
    </g>
</svg>