<?xml version="1.0" encoding="UTF-8"?>
<svg width="24px" height="24px" viewBox="0 0 24 24" version="1.1" xmlns="http://www.w3.org/2000/svg" xmlns:xlink="http://www.w3.org/1999/xlink">
    <title>utility/fees</title>
    <g id="utility/fees" stroke="none" stroke-width="1" fill="none" fill-rule="evenodd">
        <g id="discount" transform="translate(0.500005, 0.499995)" fill="#FF00AF" fill-rule="nonzero">
            <path d="M6.828425,1.171575 C8.390525,2.733675 8.390525,5.266335 6.828425,6.828425 C5.266325,8.390525 2.733665,8.390525 1.171575,6.828425 C-0.390525,5.266325 -0.390525,2.733665 1.171575,1.171575 C2.733675,-0.390525 5.266335,-0.390525 6.828425,1.171575" id="Path"></path>
            <path d="M21.828395,16.171605 C23.390495,17.733705 23.390495,20.266365 21.828395,21.828455 C20.266295,23.390555 17.733635,23.390555 16.171545,21.828455 C14.609445,20.266355 14.609445,17.733695 16.171545,16.171605 C17.733645,14.609505 20.266305,14.609505 21.828395,16.171605" id="Path"></path>
            <path d="M21.913995,1.086005 L21.9139951,1.08600508 C21.1329951,0.305241084 19.8669951,0.305241084 19.0859951,1.08600492 L1.08599508,19.0860049 L1.08599511,19.0860049 C0.291491109,19.8533619 0.269485109,21.1195049 1.03684221,21.9140049 C1.80419921,22.7085089 3.07034221,22.7305149 3.86484221,21.9631578 C3.88151001,21.9470595 3.89789671,21.9306728 3.91399501,21.914005 L21.913995,3.91400499 L21.9139951,3.91400494 C22.6947591,3.13300494 22.6947591,1.86700494 21.9139949,1.08600494 L21.913995,1.086005 Z" id="Path"></path>
        </g>
    </g>
</svg>