<?xml version="1.0" encoding="UTF-8"?>
<svg width="24px" height="24px" viewBox="0 0 24 24" version="1.1" xmlns="http://www.w3.org/2000/svg" xmlns:xlink="http://www.w3.org/1999/xlink">
    <title>utility/liquidity-pools</title>
    <g id="utility/liquidity-pools" stroke="none" stroke-width="1" fill="none" fill-rule="evenodd">
        <g id="analytics-pie-2" transform="translate(0.039441, 0.000000)" fill="#FF00AF" fill-rule="nonzero">
            <path d="M22.9605223,10.4999487 L22.9605223,10.4999487 C23.2366634,10.4999487 23.4605207,10.2760914 23.4605207,9.99995028 L23.4605207,9.99996834 C23.4539185,4.47987582 18.9806549,0.00659997911 13.4605739,0 L13.4605739,0 C13.1844312,0 12.9605739,0.223857291 12.9605739,0.5 C12.9605739,0.5 12.9605739,0.5 12.9605739,0.5 L12.9605739,9.52496985 L12.9605739,9.52498391 C12.9611317,10.0633942 13.3971756,10.4998728 13.9355849,10.5009668 L22.9605223,10.4999487 Z" id="Path"></path>
            <path d="M23.4605207,11.9999439 L13.9605508,11.9999439 L13.9605508,11.999944 C13.589665,11.9525988 13.2506221,12.2148803 13.2032762,12.5857661 C13.1728919,12.8237863 13.2707705,13.0601076 13.4605524,13.2069401 L20.1785312,19.9249189 L20.1785311,19.9249188 C20.3737805,20.1201092 20.6902795,20.1201092 20.8855289,19.9249189 L20.8855294,19.9249184 C22.8608931,17.9598446 23.9681396,15.2862531 23.9605587,12.4999419 L23.9605587,12.499942 C23.9605587,12.2238009 23.7366624,11.9999436 23.4605212,11.9999436 L23.4605207,11.9999439 Z" id="Path"></path>
            <path d="M10.5485616,24 L10.5485614,24 C13.3081426,23.9940152 15.9504643,22.8833595 17.8855381,20.9159157 L17.8855381,20.9159157 C18.0807285,20.7206664 18.0807285,20.4041674 17.8855382,20.208918 L11.1675594,13.4909392 L11.1675593,13.4909391 C11.0494537,13.3491206 10.9772609,13.1747421 10.96056,12.9909407 L10.96056,3.49097237 L10.96056,3.49097237 C10.96056,3.21482966 10.7367027,2.99097237 10.4605616,2.99097237 L10.460561,2.99097237 C4.65909939,3.0152731 -0.024205787,7.73798734 0,13.539439 C0.0243948592,19.3409006 4.74710911,24.0242058 10.5485607,24 C10.5485609,24 10.5485609,24 10.548561,24 L10.5485616,24 Z" id="Path"></path>
        </g>
    </g>
</svg>