<?xml version="1.0" encoding="UTF-8"?>
<svg width="118px" height="24px" viewBox="0 0 118 24" version="1.1" xmlns="http://www.w3.org/2000/svg" xmlns:xlink="http://www.w3.org/1999/xlink">
    <title>press/btc-echo</title>
    <g id="press/btc-echo" stroke="none" stroke-width="1" fill="none" fill-rule="evenodd">
        <g id="Group" fill-rule="nonzero">
            <polygon id="Fill-1" fill="#FFA838" points="50.9636881 0 50.9636881 7.67368526 46.9566272 11.6796182 50.9636881 15.6859382 50.9636881 24 117.391568 24 117.391568 0"></polygon>
            <g id="Group-6" transform="translate(-0.000000, 4.000000)" fill="#1D1D1B">
                <path d="M66.9864857,12.6361905 L58.5754949,12.6361905 L58.5754949,8.16419046 L64.8201359,8.16419046 L64.8201359,6.60419046 L58.5754949,6.60419046 L58.5754949,2.61066667 L66.7954856,2.61066667 L66.7954856,1.0712381 L56.7491331,1.0712381 L56.7491331,14.1752381 L66.9864857,14.1752381 L66.9864857,12.6361905 Z M79.7301747,9.57866669 C79.2419775,11.6586667 77.8614115,12.8651429 75.4394877,12.8651429 C72.7211457,12.8651429 70.724401,10.8472381 70.724401,7.62323811 C70.724401,4.3992381 72.7001394,2.38171429 75.5036734,2.38171429 C77.6700226,2.38171429 79.0505886,3.54666667 79.6029709,5.27314286 L81.1535309,4.27466667 C80.2825564,2.15314286 78.328213,0.821714286 75.5036734,0.821714286 C71.7229674,0.821714286 68.7918414,3.58819047 68.7918414,7.62323811 C68.7918414,11.6586667 71.7229674,14.4251429 75.4394877,14.4251429 C78.5833983,14.4251429 80.6225436,12.8651429 81.3869317,10.4521905 L79.7301747,9.57866669 Z M85.9958214,14.1752381 L85.9958214,8.16419046 L94.1940282,8.16419046 L94.1940282,14.1752381 L96.0631803,14.1752381 L96.0631803,1.0712381 L94.1940282,1.0712381 L94.1940282,6.60419046 L85.9958214,6.60419046 L85.9958214,1.0712381 L84.1266693,1.0712381 L84.1266693,14.1752381 L85.9958214,14.1752381 Z M112.545173,7.62323811 C112.545173,3.58819047 109.656059,0.821714286 105.74854,0.821714286 C101.861248,0.821714286 98.9729112,3.58819047 98.9729112,7.62323811 C98.9729112,11.6586667 101.861248,14.4251429 105.74854,14.4251429 C109.656059,14.4251429 112.545173,11.6586667 112.545173,7.62323811 Z M110.611836,7.62323811 C110.611836,10.8266667 108.636487,12.8441905 105.74854,12.8441905 C102.859814,12.8441905 100.905471,10.8266667 100.905471,7.62323811 C100.905471,4.42019047 102.859814,2.40266667 105.74854,2.40266667 C108.636487,2.40266667 110.611836,4.42019047 110.611836,7.62323811 Z" id="Fill-2"></path>
                <path d="M45.4576645,2.61588571 C44.2159717,1.15340953 42.2908033,0.247885714 39.7035543,0.247885714 C35.2813853,0.247885714 31.825496,3.39569524 31.825496,7.9865524 C31.825496,12.5777905 35.2813853,15.725219 39.6794363,15.725219 C42.4024467,15.725219 44.3739063,14.7496 45.600428,13.1758857 L43.1858957,10.7956953 C42.3297035,11.9027429 41.4171059,12.5777905 39.6549291,12.5777905 C37.2384519,12.5777905 35.6194276,10.7789333 35.6194276,7.9865524 C35.6194276,5.19417143 37.2143338,3.39569524 39.6794363,3.39569524 C41.3023505,3.39569524 42.466632,4.05398095 43.1512746,4.85893333 L45.4576645,2.61588571 Z M24.7452798,3.70312381 L30.6172574,3.70312381 L30.6172574,0.53207619 L15.2719264,0.53207619 L15.2719264,3.70312381 L21.0719387,3.70312381 L21.0719387,15.4410286 L24.7452798,15.4410286 L24.7452798,3.70312381 Z M9.83524149,7.70274286 C11.768579,7.48979046 13.2666237,6.2825524 13.2666237,4.62617143 C13.2666237,2.14121905 11.5511271,0.53207619 7.68406322,0.53207619 L0.000116700448,0.53207619 L0.000116700448,15.4410286 L8.14386303,15.4410286 C11.6962247,15.4410286 13.7260345,13.9263619 13.7260345,11.3469333 C13.7260345,9.21702857 11.8895584,7.9865524 9.83524149,7.70274286 Z M9.56916451,5.05207619 C9.56916451,5.92788571 8.94131609,6.6376 7.37052804,6.6376 L3.57659645,6.6376 L3.57659645,3.39569524 L7.37052804,3.39569524 C8.94131609,3.39569524 9.56916451,4.12902857 9.56916451,5.05207619 Z M10.0523043,10.8737905 C10.0523043,11.8676953 9.30386547,12.5537905 7.68406322,12.5537905 L3.57659645,12.5537905 L3.57659645,9.19340954 L7.68406322,9.19340954 C9.30386547,9.19340954 10.0523043,9.90350474 10.0523043,10.8737905 Z" id="Fill-4"></path>
            </g>
        </g>
    </g>
</svg>