<svg height="24" width="118" xmlns="http://www.w3.org/2000/svg"><g fill="none"><path d="M50.964 0v7.674l-4.007 4.006 4.007 4.006V24h66.428V0z" fill="#ffa838"/><path d="M66.986 16.636h-8.41v-4.472h6.244v-1.56h-6.245V6.611h8.22V5.07H56.75v13.104h10.237v-1.539zM79.73 13.58c-.488 2.08-1.869 3.286-4.29 3.286-2.719 0-4.716-2.018-4.716-5.242s1.976-5.241 4.78-5.241c2.166 0 3.547 1.165 4.099 2.891l1.55-.998c-.87-2.122-2.825-3.453-5.65-3.453-3.78 0-6.711 2.766-6.711 6.801 0 4.036 2.931 6.802 6.647 6.802 3.144 0 5.184-1.56 5.948-3.973zm6.266 4.596v-6.01h8.198v6.01h1.87V5.071h-1.87v5.533h-8.198V5.071h-1.87v13.104h1.87zm26.55-6.552c0-4.035-2.89-6.801-6.797-6.801-3.888 0-6.776 2.766-6.776 6.801 0 4.036 2.888 6.802 6.776 6.802 3.907 0 6.796-2.766 6.796-6.802zm-1.934 0c0 3.204-1.976 5.221-4.863 5.221-2.89 0-4.844-2.017-4.844-5.22 0-3.204 1.955-5.221 4.844-5.221 2.887 0 4.863 2.017 4.863 5.22zM45.458 6.616c-1.242-1.463-3.168-2.368-5.754-2.368-4.423 0-7.879 3.148-7.879 7.739 0 4.59 3.456 7.738 7.854 7.738 2.723 0 4.695-.975 5.921-2.55l-2.414-2.38c-.856 1.108-1.769 1.783-3.531 1.783-2.417 0-4.036-1.8-4.036-4.591 0-2.793 1.595-4.591 4.06-4.591 1.623 0 2.788.658 3.472 1.463zM24.745 7.703h5.872v-3.17H15.272v3.17h5.8v11.738h3.673zm-14.91 4c1.934-.213 3.432-1.42 3.432-3.077 0-2.485-1.716-4.094-5.583-4.094H0v14.909h8.144c3.552 0 5.582-1.515 5.582-4.094 0-2.13-1.836-3.36-3.89-3.644zm-.266-2.65c0 .875-.628 1.585-2.198 1.585H3.577V7.396H7.37c1.57 0 2.198.733 2.198 1.656zm.483 5.82c0 .995-.748 1.68-2.368 1.68H3.577v-3.36h4.107c1.62 0 2.368.71 2.368 1.68z" fill="#1d1d1b"/></g></svg>