<svg height="24" width="140" xmlns="http://www.w3.org/2000/svg"><path d="M20.56 14.613c-.418.265-.911.298-1.286.086-.476-.268-.737-.897-.737-1.773v-2.618c0-1.264-.5-2.164-1.336-2.407-1.417-.413-2.482 1.32-2.882 1.972l-2.499 4.05v-4.95c-.028-1.14-.398-1.821-1.1-2.027-.465-.135-1.16-.081-1.836.953l-5.597 8.987a9.875 9.875 0 0 1-1.138-4.614c0-5.414 4.339-9.818 9.671-9.818 5.333 0 9.671 4.404 9.671 9.818 0 .01.002.018.003.026 0 .01-.002.018-.001.027.05 1.049-.29 1.883-.933 2.289zm3.08-2.34v-.055C23.61 5.625 18.32.272 11.82.272 5.303.272 0 5.655 0 12.272c0 6.616 5.303 12 11.82 12 2.99 0 5.845-1.137 8.036-3.2.436-.41.461-1.1.058-1.541a1.064 1.064 0 0 0-1.519-.059 9.56 9.56 0 0 1-6.575 2.618c-2.855 0-5.424-1.263-7.196-3.268l5.047-8.105v3.737c0 1.794.696 2.374 1.28 2.544s1.477.054 2.414-1.468l2.776-4.5c.09-.146.171-.271.246-.38v2.276c0 1.678.672 3.02 1.844 3.68 1.056.597 2.383.543 3.465-.14 1.311-.828 2.018-2.354 1.944-4.193zm16.456-4.1c.284.172.53.556.53.902 0 .557-.473 1.018-1.003 1.018a1.2 1.2 0 0 1-.378-.077c-.624-.46-1.419-.768-2.251-.768-1.967 0-3.329 1.613-3.329 3.61s1.362 3.59 3.329 3.59c.983 0 1.854-.403 2.516-1.017.17-.123.376-.19.586-.192.53 0 .946.422.946.96 0 .345-.208.652-.473.825-.946.807-2.232 1.344-3.556 1.344-3.026 0-5.486-2.496-5.486-5.568s2.46-5.568 5.486-5.568c1.135 0 2.213.345 3.083.94zm5.534 2.323c2.062 0 3.802 1.747 3.802 3.897 0 2.151-1.74 3.975-3.802 3.975-2.156 0-3.953-1.824-3.953-3.975 0-2.15 1.797-3.897 3.953-3.897zm-.019 5.952c.909 0 1.684-.864 1.684-2.035s-.775-1.901-1.684-1.901c-.983 0-1.797.71-1.797 1.9 0 1.172.814 2.036 1.797 2.036zm5.118.73v-5.491c0-.596.473-1.095 1.06-1.095.586 0 1.078.5 1.078 1.095v5.49c0 .596-.492 1.095-1.079 1.095-.586 0-1.059-.5-1.059-1.095zm-.17-8.66c0-.71.548-1.286 1.23-1.286.699 0 1.267.576 1.267 1.287 0 .69-.568 1.248-1.268 1.248-.68 0-1.229-.558-1.229-1.248zm6.404 5.683v2.976c0 .596-.492 1.095-1.079 1.095-.586 0-1.06-.5-1.06-1.095v-5.74c0-.461.38-.845.834-.845.453 0 .813.384.813.845.87-.806 1.627-.941 2.345-.941 2.138 0 3.084 1.613 3.084 3.437v3.244c0 .596-.492 1.095-1.078 1.095-.587 0-1.06-.5-1.06-1.095v-2.976c0-.94-.113-1.728-1.456-1.728-.946 0-1.343.788-1.343 1.728zm11.89 1.134c-.246 0-.416-.116-.549-.27l-2.497-2.706v4.818c0 .596-.492 1.095-1.078 1.095-.587 0-1.06-.5-1.06-1.095V7.636a.418.418 0 0 1 .398-.27c.189 0 .34.155.454.27l3.972 4.473c.114.135.265.212.34.212.076 0 .227-.077.34-.211l3.974-4.474c.113-.115.264-.27.453-.27.19 0 .341.116.398.27v9.541c0 .596-.473 1.095-1.06 1.095-.586 0-1.078-.5-1.078-1.095V12.36l-2.496 2.706c-.133.154-.304.27-.512.27zm10.281 1.113c.965 0 1.778-.864 1.778-2.035s-.832-1.94-1.778-1.94-1.702.788-1.702 1.94c0 1.132.756 2.035 1.702 2.035zm2.27.98l-.038-.25c-.416.825-1.74 1.19-2.592 1.19-2.005 0-3.48-1.824-3.48-3.975 0-2.15 1.513-3.897 3.594-3.897.36 0 1.551.096 2.478 1.19l.038-.25c0-.46.36-.844.814-.844.453 0 .831.384.831.845v5.99c0 .461-.378.845-.832.845s-.814-.384-.814-.845h.001zm7.577-4.955h-.227c-1.343.078-1.608.846-1.608 1.728v2.976c0 .596-.491 1.095-1.078 1.095-.586 0-1.06-.5-1.06-1.095v-5.74c0-.461.379-.845.833-.845s.814.384.814.845c.794-.749 1.437-.902 2.1-.941h.207c.511 0 .984.441.984.999 0 .518-.454.978-.965.978zm8.239 4.206a.972.972 0 0 1 .152.518c0 .556-.512 1.075-1.06 1.075-.378 0-.7-.288-.946-.595l-2.458-2.861v2.361a1.1 1.1 0 0 1-1.08 1.095c-.586 0-1.059-.5-1.059-1.095V8.461c0-.596.473-1.094 1.06-1.094.586 0 1.078.498 1.078 1.094v5.434l2.459-2.727c.246-.288.549-.576.927-.576.53 0 1.022.5 1.022 1.056a.94.94 0 0 1-.133.5l-1.948 2.13 1.986 2.4zm4.191-4.167c-.586 0-1.532.307-1.532 1.21h3.083c0-.922-.984-1.21-1.551-1.21zm2.8 2.573h-4.332c0 1.286 1.229 1.478 1.777 1.478.398 0 .966-.076 1.4-.269a1.04 1.04 0 0 1 .55-.173c.472 0 .869.404.869.884 0 .326-.208.614-.472.768-.663.48-1.514.595-2.327.595-2.157 0-3.954-1.17-3.954-3.879 0-2.13 1.097-3.993 3.651-3.993 2.062 0 3.632 1.344 3.67 3.744 0 .46-.378.845-.833.845zm5.95 3.283h-.587c-1.627 0-2.573-.71-2.573-3.264v-2.63h-.548c-.511 0-.965-.461-.965-.98 0-.557.454-.998.965-.998H107V8.461c0-.596.473-1.095 1.06-1.095.586 0 1.078.5 1.078 1.095v2.035h.889c.51 0 .965.441.965.999 0 .518-.454.978-.965.978h-.889v2.208c0 1.46.076 1.767.719 1.767h.303c.51 0 .945.423.945.96 0 .519-.435.96-.945.96zm10.357-10.195c.283.172.53.556.53.902 0 .557-.473 1.018-1.003 1.018-.132 0-.265-.038-.378-.077-.625-.46-1.419-.768-2.251-.768-1.967 0-3.33 1.613-3.33 3.61s1.362 3.59 3.33 3.59c.983 0 1.853-.403 2.516-1.017.17-.123.375-.19.586-.192.53 0 .945.422.945.96 0 .345-.207.652-.472.825-.946.807-2.233 1.344-3.557 1.344-3.026 0-5.485-2.496-5.485-5.568s2.458-5.568 5.485-5.568c1.136 0 2.214.345 3.084.94zm5.42 8.275c.965 0 1.778-.864 1.778-2.035s-.832-1.94-1.778-1.94c-.945 0-1.702.788-1.702 1.94 0 1.132.757 2.035 1.702 2.035zm2.27.98l-.037-.25c-.417.825-1.74 1.19-2.592 1.19-2.005 0-3.481-1.824-3.481-3.975 0-2.15 1.514-3.897 3.594-3.897.36 0 1.551.096 2.479 1.19l.037-.25c0-.46.36-.844.814-.844.453 0 .832.384.832.845v5.99a.847.847 0 0 1-.832.845c-.455 0-.814-.384-.814-.845zm7.52-.98c.946 0 1.702-.903 1.702-2.035 0-1.152-.756-1.94-1.702-1.94s-1.778.768-1.778 1.94c0 1.171.814 2.035 1.778 2.035zm-1.778 1.287v2.726c0 .595-.492 1.094-1.078 1.094s-1.06-.499-1.06-1.094v-9.024c0-.461.379-.845.833-.845s.814.384.814.921c.793-.825 1.777-1.017 2.515-1.017 2.081 0 3.594 1.747 3.594 3.897 0 2.151-1.475 3.975-3.48 3.975-.624 0-1.552-.192-2.138-.633z" fill="#17181b" fill-rule="evenodd"/></svg>