<svg width="147" height="11" xmlns="http://www.w3.org/2000/svg"><g fill="none"><path d="M42.542 6.529h-2.106V4h2.106a1.264 1.264 0 0 1 0 2.528m0-4.212H38.75v8.424h1.685V8.213h2.106a2.948 2.948 0 1 0 0-5.896m63.18 4.212h-2.106V4h2.106a1.264 1.264 0 0 1 0 2.528m0-4.212h-3.79v8.424h1.684V8.213h2.106a2.948 2.948 0 1 0 0-5.896m12.636 4.212h-2.106V4h2.106a1.264 1.264 0 1 1 0 2.528m0-4.212h-3.79v8.424h1.684V8.213h2.106a2.948 2.948 0 1 0 0-5.896m-87.189 0l-1.685 3.37-1.685-3.37h-2.106l2.949 5.054v3.37h1.685V7.37l2.948-5.054H31.17zM6.196 8.09a2.527 2.527 0 1 1 0-3.125L7.39 3.771a4.199 4.199 0 0 0-3.179-1.454 4.212 4.212 0 0 0 0 8.424c1.27 0 2.407-.565 3.18-1.455L6.195 8.091z" fill="#0C0E40"/><path d="M6.196 4.966a2.527 2.527 0 1 0 0 3.125L7.39 9.286a4.197 4.197 0 0 1-3.179 1.455 4.212 4.212 0 0 1 0-8.424c1.27 0 2.407.564 3.18 1.454L6.195 4.966zm8.967-.965h2.106a1.264 1.264 0 0 1 0 2.528h-2.106V4zm5.476 6.74l-2.035-2.85a2.946 2.946 0 0 0-1.335-5.574h-3.79v8.424h1.684V8.213h1.565l1.805 2.528h2.106zM141.524 4h2.106a1.264 1.264 0 1 1 0 2.528h-2.106V4zm5.476 6.74l-2.035-2.85a2.946 2.946 0 0 0-1.335-5.574h-3.79v8.424h1.684V8.213h1.565l1.805 2.528H147zM58.126 2.317h-6.74V4h2.528v6.74h1.685V4h2.527V2.317zm9.267 6.739a2.527 2.527 0 1 1 0-5.055 2.527 2.527 0 0 1 0 5.055m0-6.74a4.212 4.212 0 1 0 0 8.425 4.212 4.212 0 0 0 0-8.424" fill="#0C0E40"/><path d="M92.665 6.948a2.527 2.527 0 1 1 0-5.054 2.527 2.527 0 0 1 0 5.054m0-6.74a4.212 4.212 0 1 0 0 8.425 4.212 4.212 0 0 0 0-8.424" fill="#00B2C8"/><path d="M128.888 9.056V7.37h4.212V5.686h-4.212V4.001h4.633V2.317h-6.318v8.424h6.53V9.056h-4.845zm-47.175-6.74v3.37h-3.37v-3.37H76.66v8.425h1.685V7.37h3.37v3.37h1.684V2.317h-1.685z" fill="#0C0E40"/></g></svg>