<svg height="24" width="70" xmlns="http://www.w3.org/2000/svg"><g fill="none"><path d="M42.404.14H42.3L40.917.117V.14h-4.156v15.22h2.927v-5.151h1.23v.022l1.383-.022h.103a5.034 5.034 0 1 0 0-10.069zm-.047 7.142h-2.67V3.067h2.67a2.107 2.107 0 0 1 0 4.215zM34.42 3.125V.022h-2.927v4.544a2.107 2.107 0 1 1-4.215 0V.022h-2.927v3.103h-.022l.022 1.38v.107a5.063 5.063 0 0 0 3.512 4.713v6.034h2.927V9.366a5.06 5.06 0 0 0 3.63-4.749v-.105l.022-1.381zm35.004 5.853V6.52h.023l-.023-1.38v-.106a5.034 5.034 0 1 0-10.068 0v.106l-.022 1.381h.022V8.98h-.022l.022 1.381v.105a5.034 5.034 0 1 0 10.068 0v-.106l.023-1.38zm-5.034 3.513a2.117 2.117 0 0 1-2.107-2.071V5.08a2.107 2.107 0 0 1 4.215 0v5.34a2.117 2.117 0 0 1-2.108 2.07zM48.761 3.125h3.102v12.234h2.927V3.125h3.22V.198H48.76zM2.927 10.113l.177-.149 5.991 5.395h4.374L5.367 8.064l6.087-5.115h6.435a2.107 2.107 0 1 1 0 4.215h-6.065v2.927l.117.08 6.452 5.188h4.67l-6.523-5.247 1.288-.021h.103a5.034 5.034 0 1 0 0-10.069h-.103L16.448 0v.022h-6.087L2.927 6.29V.022H0V15.36h2.927v-5.246z" fill="#f98c08"/><g fill="#4d4d4d"><path d="M5.248 23.923v-4.628l-1.99 3.548h-.43L.831 19.295v4.628H.073v-5.985h.8l2.17 3.886 2.176-3.886h.793v5.985zm6.904 0l2.459-5.985h.624l2.452 5.985h-.809l-.708-1.756h-2.51l-.702 1.756zm2.772-5.11l-1.11 2.766h2.19l-1.08-2.765zm13.142 4.3c-.528.568-1.134.852-1.82.852a2.395 2.395 0 0 1-1.11-.262 2.917 2.917 0 0 1-.88-.686 3.34 3.34 0 0 1-.585-.974 3.162 3.162 0 0 1 .582-3.24c.247-.28.548-.505.885-.664a2.555 2.555 0 0 1 1.112-.243c.578 0 1.055.12 1.428.362.366.231.662.558.856.944l-.585.404a1.811 1.811 0 0 0-.717-.775 1.998 1.998 0 0 0-1.002-.253 1.721 1.721 0 0 0-.826.198c-.244.13-.459.308-.632.522a2.425 2.425 0 0 0-.406.75 2.765 2.765 0 0 0-.142.882 2.54 2.54 0 0 0 .598 1.656c.182.213.406.387.658.51.257.125.54.188.825.185.652 0 1.237-.314 1.756-.943v-.827h-1.288v-.572h1.933v2.984h-.64zm6.524.81l2.459-5.985h.624l2.453 5.985h-.81l-.708-1.756H36.1l-.703 1.756zm2.774-5.11L36.25 21.58h2.191l-1.078-2.765zm8.42 4.52l3.863-4.72H45.86v-.675h4.67v.585l-3.793 4.72h3.793v.675h-4.746zm11.076.59v-5.977h.759v5.977zm8.287-4.57v4.566h-.757v-5.981h.586l3.71 4.657v-4.649h.76v5.977h-.64z"/></g></g></svg>