<svg height="28" width="99" xmlns="http://www.w3.org/2000/svg"><g fill="none" fill-rule="evenodd"><g fill="#404041"><path d="M72.92 21.304c-3.376 0-5.474-1.96-5.474-5.12 0-3.281 1.936-5.32 5.052-5.32l.263-.002c.39 0 .928.013 1.663.106v-3.96h2.205v13.94s-2.094.356-3.71.356zm-.02-8.701c-2.133 0-3.17 1.154-3.17 3.527 0 2.13 1.25 3.453 3.262 3.453.386 0 .83-.024 1.432-.077v-6.763a9.674 9.674 0 0 0-1.524-.14zm-30.143 8.383l-5.95-10.41-.001 10.41h-2.073V7.81h2.901l5.95 10.316L43.58 7.81h2.1v13.176zm18.947.202c-1.002 0-2.047-.112-3.29-.352l-.133-.026v-1.84l.197.042c1.095.234 2.042.436 2.988.436.766 0 2.547-.122 2.547-1.25 0-.947-1.23-1.184-2.22-1.374l-.062-.012c-.184-.037-.358-.071-.507-.109-1.45-.378-2.997-.944-2.997-2.893 0-1.9 1.5-2.99 4.117-2.99 1.256 0 2.168.136 2.9.245l.358.054v1.784l-.191-.033c-.83-.153-1.8-.31-2.736-.31-1.038 0-2.273.194-2.273 1.122 0 .768 1.01.988 2.179 1.243 1.633.356 3.661.8 3.661 3.035 0 2.051-1.654 3.228-4.538 3.228zm21.107 0c-2.282 0-4.393-.402-4.393-3.32 0-3.175 3.265-3.175 5.216-3.175.195 0 1.112.042 1.395.055-.003-1.781-.027-2.206-2.604-2.206-1.021 0-2.156.203-3.157.382l-.191.035v-1.76l.13-.026a16.869 16.869 0 0 1 3.42-.353c2.497 0 4.613.253 4.613 3.358v6.773l-.152.016c-1.73.194-3.104.221-4.277.221zm.768-4.925c-1.881 0-3.047.278-3.047 1.66 0 1.598 1.488 1.731 2.883 1.731.522 0 1.459-.066 1.745-.088v-3.248c-.404-.016-1.454-.055-1.581-.055zm-31.67 4.925c-2.28 0-4.391-.402-4.391-3.32 0-3.175 3.264-3.175 5.215-3.175.195 0 1.112.042 1.395.055-.003-1.781-.027-2.206-2.603-2.206-1.022 0-2.156.203-3.158.382l-.191.035v-1.76l.13-.026a16.872 16.872 0 0 1 3.42-.353c2.498 0 4.614.253 4.614 3.358v6.773l-.153.016a36.71 36.71 0 0 1-4.277.221zm.769-4.925c-1.88 0-3.046.278-3.046 1.66 0 1.598 1.487 1.731 2.882 1.731.522 0 1.459-.066 1.745-.088v-3.248c-.404-.016-1.454-.055-1.581-.055zm43.332 9.198v-4.32c-.86.12-1.318.12-1.686.12-.872 0-1.84-.19-2.592-.51-1.678-.697-2.68-2.476-2.68-4.756 0-1.14.277-3.221 2.129-4.343.927-.556 2.026-.794 3.674-.794.591 0 1.388.045 2.158.09l1.251.065V24.46l-2.254 1zm-1.32-12.864c-2.237 0-3.372 1.143-3.372 3.398 0 2.9 1.694 3.509 3.116 3.509.345 0 .735 0 1.597-.11V12.66a18.799 18.799 0 0 0-1.342-.062z"/></g><path d="M24.894 0L17.61 20.063c-.18.495-.63.857-1.172.911v.012h7.7c.604 0 1.12-.385 1.313-.923L32.736 0zm-9.082 20.68a1.32 1.32 0 0 0 1.076-.558 1.37 1.37 0 0 0 .173-.326l2.673-7.362-1.563-4.299a1.322 1.322 0 0 0-2.47.071l-2.67 7.359 1.568 4.316c.204.47.67.799 1.213.799zM8.598 7.015h7.784v.004a1.395 1.395 0 0 0-1.256.918L7.842 28H0L7.284 7.937c.195-.538.71-.922 1.314-.922z" fill="#0090ba"/></g></svg>