<?xml version="1.0" encoding="UTF-8"?>
<svg width="147px" height="16px" viewBox="0 0 147 16" version="1.1" xmlns="http://www.w3.org/2000/svg" xmlns:xlink="http://www.w3.org/1999/xlink">
    <title>press/wallstreetonline</title>
    <g id="press/wallstreetonline" stroke="none" stroke-width="1" fill="none" fill-rule="evenodd">
        <path d="M78.0851506,5.39148494 L78.0851506,2.42159917 C78.0851506,2.28452752 78.1765317,2.19314642 78.3136033,2.14745587 L79.4558671,1.82762201 L79.5015576,1.82762201 C79.6386293,1.82762201 79.6843198,1.87331256 79.6843198,2.05607477 L79.6843198,5.34579439 L82.9283489,5.34579439 C83.0654206,5.34579439 83.1111111,5.39148494 83.1111111,5.48286604 L83.1111111,5.61993769 L82.8826584,6.4423676 C82.8369678,6.57943925 82.7455867,6.6251298 82.6085151,6.6251298 L79.7300104,6.6251298 L79.7300104,12.6562825 C79.7300104,13.3416407 79.8213915,13.8442368 80.0041537,14.0726895 C80.1869159,14.3011423 80.5067497,14.4382139 81.0550363,14.4382139 C81.5119418,14.4382139 82.1516096,14.2554517 82.9740395,13.8899273 L83.1111111,13.8442368 C83.2024922,13.8899273 83.2481828,13.9356179 83.2481828,13.9813084 L83.5223261,14.8494289 L83.5223261,14.8951194 C83.5223261,14.9865005 83.4766355,15.0778816 83.3395639,15.1692627 C82.4714434,15.5804777 81.6033229,15.8089304 80.7352025,15.8089304 C79.7757009,15.8089304 79.0903427,15.5804777 78.7248183,15.1235722 C78.3136033,14.6666667 78.1308411,13.8442368 78.1308411,12.701973 L78.1308411,6.7165109 L76.623053,6.7165109 C76.4402908,6.7165109 76.3489097,6.6251298 76.3489097,6.48805815 L76.3489097,5.66562825 C76.3489097,5.48286604 76.4402908,5.43717549 76.623053,5.43717549 L78.0851506,5.43717549 M69.0384216,9.59501558 L73.6988577,9.59501558 C73.6988577,8.54413292 73.5160955,7.76739356 73.1048806,7.21910696 C72.6936656,6.67082035 72.145379,6.39667705 71.4143302,6.39667705 C69.8608515,6.39667705 69.0384216,7.44755971 69.0384216,9.59501558 Z M69.0384216,10.9200415 C69.0384216,12.0623053 69.3125649,12.9761163 69.815161,13.5700935 C70.317757,14.2097612 71.0031153,14.529595 71.9169263,14.529595 C72.3281412,14.529595 72.6936656,14.4839045 73.1048806,14.3468328 C73.5160955,14.2097612 73.9273105,14.026999 74.384216,13.7528557 L74.5669782,13.7071651 C74.6583593,13.7528557 74.7040498,13.7985462 74.7040498,13.7985462 L75.1152648,14.6209761 L75.1609553,14.7580478 C75.1609553,14.94081 74.7954309,15.1692627 74.0186916,15.4890966 C73.2876428,15.8089304 72.5109034,15.9460021 71.7341641,15.9460021 C70.3634476,15.9460021 69.2668744,15.443406 68.490135,14.4839045 C67.6677051,13.5244029 67.3021807,12.1993769 67.3021807,10.5088266 C67.3021807,8.86396677 67.6677051,7.53894081 68.4444444,6.5337487 C69.2211838,5.52855659 70.2263759,5.07165109 71.5514019,5.07165109 C72.7850467,5.07165109 73.7445483,5.48286604 74.4299065,6.30529595 C75.1152648,7.12772586 75.4807892,8.31568017 75.4807892,9.82346833 L75.4807892,10.463136 C75.4807892,10.7372793 75.3894081,10.874351 75.2523364,10.874351 L69.0384216,10.874351 L69.0384216,10.9200415 Z M59.1235722,9.59501558 L63.7840083,9.59501558 C63.7840083,8.54413292 63.6012461,7.76739356 63.1900312,7.21910696 C62.7788162,6.67082035 62.2305296,6.39667705 61.4994808,6.39667705 C59.9003115,6.39667705 59.1235722,7.44755971 59.1235722,9.59501558 Z M59.1235722,10.9200415 C59.1235722,12.0623053 59.3977155,12.9761163 59.9003115,13.5700935 C60.4029076,14.2097612 61.0882658,14.529595 62.0020768,14.529595 C62.4132918,14.529595 62.7788162,14.4839045 63.1900312,14.3468328 C63.6012461,14.2097612 64.0124611,14.026999 64.4693666,13.7528557 L64.6521288,13.7071651 C64.7435099,13.7528557 64.7892004,13.7985462 64.7892004,13.7985462 L65.2004154,14.6209761 L65.2461059,14.7580478 C65.2461059,14.94081 64.8805815,15.1692627 64.1038422,15.4890966 C63.3727934,15.8089304 62.596054,15.9460021 61.8193146,15.9460021 C60.4485981,15.9460021 59.3520249,15.443406 58.5752856,14.4839045 C57.7528557,13.5244029 57.3873313,12.1993769 57.3873313,10.5088266 C57.3873313,8.86396677 57.7528557,7.53894081 58.529595,6.5337487 C59.3063344,5.52855659 60.3115265,5.07165109 61.6365524,5.07165109 C62.8701973,5.07165109 63.8296989,5.48286604 64.5150571,6.30529595 C65.2004154,7.12772586 65.5659398,8.31568017 65.5659398,9.82346833 L65.5659398,10.463136 C65.5659398,10.7372793 65.4745587,10.874351 65.337487,10.874351 L59.1235722,10.874351 L59.1235722,10.9200415 Z M52.5441329,6.8992731 L52.7725857,6.6251298 C53.3208723,6.03115265 53.7777778,5.61993769 54.0976116,5.43717549 C54.4174455,5.25441329 54.7829699,5.11734164 55.1941848,5.11734164 C55.5140187,5.11734164 55.8338525,5.16303219 56.1079958,5.30010384 C56.1536864,5.30010384 56.1993769,5.34579439 56.2450675,5.39148494 C56.2450675,5.39148494 56.2450675,5.43717549 56.2450675,5.43717549 L56.1993769,5.57424714 L55.6510903,6.76220145 C55.6510903,6.807892 55.6053998,6.807892 55.5597092,6.85358255 L55.5140187,6.85358255 C55.2855659,6.76220145 55.0571132,6.7165109 54.874351,6.7165109 C54.6002077,6.7165109 54.3260644,6.807892 54.0062305,7.03634476 C53.6863967,7.26479751 53.2751817,7.67601246 52.7725857,8.31568017 L52.7725857,15.443406 C52.7725857,15.6261682 52.6812046,15.6718588 52.5441329,15.6718588 L51.4018692,15.6718588 C51.219107,15.6718588 51.1734164,15.5804777 51.1734164,15.443406 L51.1734164,8.95534787 C51.1734164,8.08722741 51.1277259,7.49325026 51.0820353,7.17341641 C51.0363448,6.85358255 50.8535826,6.48805815 50.6251298,6.0768432 L50.5337487,5.84839045 C50.5794393,5.75700935 50.6251298,5.66562825 50.6708204,5.66562825 L51.5389408,5.07165109 L51.721703,5.07165109 C51.9044652,5.07165109 52.0872274,5.34579439 52.2699896,5.894081 C52.3613707,6.12253375 52.4070613,6.2596054 52.4527518,6.39667705 C52.4984424,6.57943925 52.4984424,6.7165109 52.5441329,6.8992731 Z M43.9086189,5.39148494 L43.9086189,2.42159917 C43.9086189,2.28452752 44,2.19314642 44.1370717,2.14745587 L45.2793354,1.82762201 L45.325026,1.82762201 C45.4620976,1.82762201 45.5077882,1.87331256 45.5077882,2.05607477 L45.5077882,5.34579439 L48.7518172,5.34579439 C48.8888889,5.34579439 48.9345794,5.39148494 48.9345794,5.48286604 L48.9345794,5.61993769 L48.7061267,6.4423676 C48.6604361,6.57943925 48.569055,6.6251298 48.4319834,6.6251298 L45.5534787,6.6251298 L45.5534787,12.6562825 C45.5534787,13.3416407 45.6448598,13.8442368 45.827622,14.0726895 C46.0103842,14.3011423 46.3302181,14.4382139 46.8785047,14.4382139 C47.3354102,14.4382139 47.9750779,14.2554517 48.7975078,13.8899273 L48.9345794,13.8442368 C49.0259605,13.8899273 49.0716511,13.9356179 49.0716511,13.9813084 L49.3457944,14.8494289 L49.3457944,14.8951194 C49.3457944,14.9865005 49.3001038,15.0778816 49.1630322,15.1692627 C48.2949117,15.5804777 47.4267913,15.8089304 46.5586708,15.8089304 C45.5991693,15.8089304 44.913811,15.5804777 44.5482866,15.1235722 C44.1370717,14.6666667 43.9543094,13.8442368 43.9543094,12.701973 L43.9543094,6.7165109 L42.4465213,6.7165109 C42.2637591,6.7165109 42.172378,6.6251298 42.172378,6.48805815 L42.172378,5.66562825 C42.172378,5.48286604 42.2637591,5.43717549 42.4465213,5.43717549 L43.9086189,5.43717549 L43.9086189,5.39148494 Z M34.4049844,14.8951194 L34.8161994,13.9813084 C34.8161994,13.9356179 34.8618899,13.8899273 34.9075805,13.8899273 C34.953271,13.8899273 34.953271,13.8899273 34.9989616,13.8899273 L35.1360332,13.9356179 C36.0955348,14.4382139 36.9636552,14.6666667 37.7403946,14.6666667 C38.2429907,14.6666667 38.6542056,14.529595 38.9740395,14.2554517 C39.2938733,13.9813084 39.430945,13.615784 39.430945,13.113188 C39.430945,12.4735202 38.9740395,11.9252336 38.0602285,11.5140187 C37.3291796,11.1941848 36.9179647,11.0114226 36.780893,10.9200415 C36.3696781,10.6915888 36.0041537,10.463136 35.6843198,10.1889927 C35.0446521,9.64070613 34.6791277,9.00103842 34.6791277,8.17860852 C34.6791277,7.31048806 34.9989616,6.57943925 35.5929387,6.03115265 C36.1869159,5.48286604 36.9636552,5.20872274 37.9688474,5.20872274 C38.8369678,5.20872274 39.7050883,5.43717549 40.4818276,5.84839045 C40.6645898,5.93977155 40.7102804,6.03115265 40.7102804,6.12253375 L40.6645898,6.12253375 L40.2990654,6.8992731 C40.2533749,6.99065421 40.1619938,7.03634476 40.1163032,7.03634476 L39.9792316,6.99065421 C39.1568017,6.6251298 38.517134,6.4423676 37.9688474,6.4423676 C36.8722741,6.4423676 36.3239875,6.8992731 36.3239875,7.85877466 C36.3239875,8.49844237 36.7352025,9.04672897 37.5119418,9.41225337 L39.01973,10.1433022 C39.7964694,10.5088266 40.3904465,10.9200415 40.6645898,11.3312565 C40.9844237,11.7424714 41.1214953,12.2450675 41.1214953,12.8847352 C41.1214953,13.7985462 40.8016615,14.529595 40.1619938,15.1235722 C39.5223261,15.6718588 38.6998962,15.9460021 37.694704,15.9460021 C36.5067497,15.9460021 35.4558671,15.6718588 34.5420561,15.1235722 C34.450675,15.0778816 34.4049844,14.9865005 34.4049844,14.94081 L34.4049844,14.8951194 Z M29.8359294,11.788162 L29.8359294,0.685358255 C29.8359294,0.548286604 29.9273105,0.456905504 30.0643821,0.411214953 L31.1609553,0.137071651 L31.298027,0.137071651 C31.3894081,0.137071651 31.4350987,0.228452752 31.4350987,0.365524403 L31.4350987,13.1588785 C31.4350987,14.0726895 31.7549325,14.529595 32.3489097,14.529595 C32.623053,14.529595 32.9428868,14.4382139 33.3084112,14.2554517 L33.4454829,14.2097612 C33.536864,14.2097612 33.5825545,14.2554517 33.5825545,14.3468328 L33.8566978,15.1235722 L33.9023884,15.3063344 C33.9023884,15.4890966 33.8110073,15.5347871 33.8110073,15.5804777 C33.2627207,15.8089304 32.7144341,15.9460021 32.1204569,15.9460021 C31.2523364,15.9460021 30.6583593,15.7175493 30.3385254,15.2606438 C30.0186916,14.8037383 29.8359294,14.026999 29.8359294,12.8390447 L29.8359294,11.788162 Z M24.2616822,11.788162 L24.2616822,0.685358255 C24.2616822,0.548286604 24.3530633,0.456905504 24.490135,0.411214953 L25.5867082,0.137071651 L25.7237799,0.137071651 C25.815161,0.137071651 25.8608515,0.228452752 25.8608515,0.365524403 L25.8608515,13.1588785 C25.8608515,14.0726895 26.1806854,14.529595 26.7746625,14.529595 C27.0488058,14.529595 27.3686397,14.4382139 27.7341641,14.2554517 L27.8712357,14.2097612 C27.9626168,14.2097612 28.0083074,14.2554517 28.0083074,14.3468328 L28.2824507,15.1235722 L28.3281412,15.3063344 C28.2824507,15.3977155 28.2367601,15.443406 28.1910696,15.4890966 C27.642783,15.7175493 27.0944964,15.854621 26.5005192,15.854621 C25.6323988,15.854621 25.0384216,15.6261682 24.7185877,15.1692627 C24.3987539,14.7123572 24.2159917,13.9356179 24.2159917,12.7476636 L24.2159917,11.788162 L24.2616822,11.788162 Z M19.0529595,10.5545171 C16.357217,10.5545171 15.0321911,11.3312565 15.0321911,12.8390447 C15.0321911,13.3416407 15.1692627,13.7528557 15.443406,14.0726895 C15.7175493,14.3925234 16.0830737,14.529595 16.5399792,14.529595 C17.271028,14.529595 18.0934579,14.1183801 19.007269,13.2959502 L19.007269,10.5545171 L19.0529595,10.5545171 Z M19.0529595,9.22949117 L19.0529595,8.54413292 C19.0529595,7.85877466 18.9158879,7.35617861 18.596054,7.03634476 C18.2762201,6.76220145 17.7736241,6.6251298 17.0425753,6.6251298 C16.3115265,6.6251298 15.443406,6.85358255 14.4839045,7.26479751 L14.3468328,7.31048806 C14.2554517,7.26479751 14.2097612,7.21910696 14.2097612,7.21910696 L13.8899273,6.3509865 L13.8442368,6.21391485 C13.8442368,6.12253375 13.8899273,6.0768432 14.026999,5.9854621 C14.1640706,5.894081 14.3468328,5.8026999 14.6209761,5.7113188 C15.0321911,5.52855659 15.443406,5.43717549 15.9003115,5.34579439 C16.357217,5.25441329 16.8141225,5.20872274 17.271028,5.20872274 C19.509865,5.20872274 20.6521288,6.21391485 20.6521288,8.22429907 L20.6521288,12.2450675 C20.6521288,12.9761163 20.6978193,13.5244029 20.7435099,13.8899273 C20.834891,14.2554517 20.9719626,14.6666667 21.2004154,15.0778816 L21.2461059,15.1692627 L21.2004154,15.3063344 L20.2409138,15.9003115 L20.1038422,15.9003115 C20.0124611,15.9003115 19.8753894,15.7632399 19.7383178,15.4890966 C19.5555556,15.2149533 19.4184839,14.8951194 19.3271028,14.5752856 C18.3676012,15.4890966 17.3624091,15.9003115 16.2658359,15.9003115 C15.3977155,15.9003115 14.7123572,15.6261682 14.2097612,15.1235722 C13.7071651,14.5752856 13.4330218,13.8899273 13.4330218,12.9761163 C13.3873313,10.463136 15.2606438,9.22949117 19.0529595,9.22949117 Z M3.24402908,13.7071651 L3.33541018,13.2502596 L3.42679128,12.8390447 L3.51817238,12.4735202 L5.52855659,5.52855659 C5.57424714,5.39148494 5.66562825,5.34579439 5.8026999,5.34579439 L6.76220145,5.34579439 C6.85358255,5.34579439 6.8992731,5.39148494 6.94496366,5.52855659 L8.68120457,12.7476636 L8.77258567,13.0218069 L8.81827622,13.3873313 L8.86396677,13.615784 L8.90965732,13.2959502 L8.95534787,13.0218069 L9.00103842,12.7476636 L10.874351,5.30010384 C10.9200415,5.20872274 10.9657321,5.16303219 11.0114226,5.16303219 L11.1484943,5.16303219 L12.1536864,5.43717549 C12.290758,5.48286604 12.3821391,5.52855659 12.3821391,5.61993769 L12.3821391,5.7113188 L9.54932503,15.6261682 L9.54932503,15.6718588 C9.54932503,15.7175493 9.50363448,15.7175493 9.45794393,15.7632399 C9.41225337,15.7632399 9.41225337,15.8089304 9.36656282,15.8089304 L8.36137072,15.8089304 C8.26998962,15.8089304 8.22429907,15.7175493 8.17860852,15.5804777 L6.4423676,9.13811007 L6.2596054,8.22429907 L6.21391485,7.90446521 L6.1682243,7.44755971 C6.12253375,7.67601246 6.12253375,7.95015576 6.0768432,8.22429907 C6.03115265,8.49844237 5.93977155,8.77258567 5.84839045,9.13811007 L3.83800623,15.6718588 C3.79231568,15.8089304 3.74662513,15.854621 3.65524403,15.854621 L2.65005192,15.854621 C2.55867082,15.854621 2.51298027,15.7632399 2.46728972,15.6261682 L0,5.75700935 L0,5.61993769 C0,5.57424714 0.0456905504,5.48286604 0.182762201,5.48286604 L1.27933541,5.20872274 L1.41640706,5.20872274 C1.50778816,5.20872274 1.55347871,5.25441329 1.55347871,5.34579439 L3.01557632,12.5192108 L3.10695742,12.8847352 L3.19833853,13.3416407 L3.24402908,13.7071651 Z" id="Shape" fill="#416F54" fill-rule="nonzero"></path>
        <path d="M140.407061,9.00103842 L143.788162,9.00103842 C143.788162,8.08722741 143.65109,7.49325026 143.422638,7.08203531 C143.194185,6.7165109 142.78297,6.5337487 142.234683,6.5337487 C141.640706,6.5337487 141.229491,6.7165109 140.955348,7.08203531 C140.681205,7.44755971 140.498442,8.08722741 140.407061,9.00103842 Z M140.407061,10.9657321 C140.407061,12.7933541 141.183801,13.6614746 142.78297,13.6614746 C143.6054,13.6614746 144.42783,13.4330218 145.25026,13.0218069 C145.29595,12.9761163 145.341641,12.9761163 145.387331,12.9761163 C145.433022,12.9761163 145.478712,12.9761163 145.524403,12.9304258 C145.661475,12.9304258 145.707165,12.9761163 145.752856,13.113188 L146.301142,14.3925234 L146.346833,14.6209761 C146.346833,14.7580478 146.255452,14.8951194 146.07269,14.9865005 C145.889927,15.0778816 145.570093,15.2606438 145.113188,15.3977155 C144.245067,15.7175493 143.376947,15.9003115 142.463136,15.9003115 C140.909657,15.9003115 139.721703,15.443406 138.899273,14.4839045 C138.076843,13.5244029 137.665628,12.1536864 137.665628,10.3260644 C137.665628,8.58982347 138.076843,7.21910696 138.944964,6.1682243 C139.813084,5.11734164 140.909657,4.56905504 142.326064,4.56905504 C145.158879,4.56905504 146.575286,6.5337487 146.575286,10.4174455 C146.575286,10.6458982 146.529595,10.7829699 146.483904,10.874351 C146.438214,10.9657321 146.301142,10.9657321 146.07269,10.9657321 L140.407061,10.9657321 L140.407061,10.9657321 Z M129.624091,5.93977155 C130.172378,5.48286604 130.674974,5.11734164 131.17757,4.88888889 C131.680166,4.66043614 132.228453,4.56905504 132.82243,4.56905504 C133.781931,4.56905504 134.46729,4.84319834 134.924195,5.39148494 C135.381101,5.93977155 135.609553,6.807892 135.609553,7.95015576 L135.609553,15.1235722 C135.609553,15.3063344 135.609553,15.3977155 135.563863,15.443406 C135.518172,15.4890966 135.426791,15.4890966 135.244029,15.4890966 L133.279335,15.4890966 C133.096573,15.4890966 133.005192,15.4890966 132.959502,15.443406 C132.913811,15.3977155 132.913811,15.3063344 132.913811,15.1235722 L132.913811,8.54413292 C132.913811,7.35617861 132.502596,6.76220145 131.680166,6.76220145 C131.086189,6.76220145 130.492212,7.03634476 129.806854,7.63032191 L129.806854,15.1235722 C129.806854,15.3063344 129.806854,15.3977155 129.761163,15.443406 C129.715472,15.4890966 129.624091,15.4890966 129.441329,15.4890966 L127.476636,15.4890966 C127.293873,15.4890966 127.156802,15.4890966 127.156802,15.443406 C127.156802,15.3977155 127.111111,15.3063344 127.111111,15.1235722 L127.111111,7.99584631 C127.111111,7.08203531 126.974039,6.30529595 126.654206,5.66562825 L126.562825,5.48286604 C126.562825,5.39148494 126.608515,5.34579439 126.745587,5.30010384 L128.66459,4.61474559 L128.755971,4.52336449 L128.847352,4.52336449 C129.121495,4.47767394 129.349948,4.98026999 129.624091,5.93977155 Z M124.186916,1.78193146 C124.186916,2.28452752 124.004154,2.69574247 123.68432,3.01557632 C123.364486,3.33541018 122.953271,3.51817238 122.450675,3.51817238 C121.993769,3.51817238 121.582555,3.33541018 121.21703,3.01557632 C120.897196,2.69574247 120.714434,2.28452752 120.714434,1.78193146 C120.714434,1.32502596 120.897196,0.913811007 121.21703,0.548286604 C121.536864,0.228452752 121.948079,0.0456905504 122.450675,0.0456905504 C122.90758,0.0456905504 123.318795,0.228452752 123.68432,0.548286604 C124.004154,0.913811007 124.186916,1.32502596 124.186916,1.78193146 Z M121.125649,6.94496366 L119.480789,6.94496366 C119.298027,6.94496366 119.160955,6.94496366 119.160955,6.8992731 C119.160955,6.85358255 119.115265,6.76220145 119.115265,6.57943925 L119.115265,5.34579439 C119.115265,5.20872274 119.115265,5.11734164 119.160955,5.07165109 C119.160955,5.02596054 119.298027,4.98026999 119.480789,4.98026999 L123.455867,4.98026999 C123.638629,4.98026999 123.775701,4.98026999 123.775701,5.02596054 C123.775701,5.07165109 123.821391,5.16303219 123.821391,5.34579439 L123.821391,15.1692627 C123.821391,15.3063344 123.821391,15.3977155 123.775701,15.443406 C123.775701,15.4890966 123.638629,15.5347871 123.455867,15.5347871 L121.536864,15.5347871 C121.354102,15.5347871 121.262721,15.5347871 121.21703,15.4890966 C121.17134,15.443406 121.17134,15.3520249 121.17134,15.1692627 L121.17134,6.94496366 L121.125649,6.94496366 Z M116.785047,0 L117.05919,0 C117.196262,0 117.287643,0.137071651 117.287643,0.365524403 L117.287643,12.290758 C117.287643,12.701973 117.333333,13.0218069 117.424714,13.1588785 C117.516096,13.2959502 117.653167,13.3873313 117.88162,13.3873313 C118.110073,13.3873313 118.338525,13.3416407 118.566978,13.2502596 L118.70405,13.2502596 C118.795431,13.2959502 118.841121,13.3416407 118.841121,13.3873313 L119.298027,15.1235722 L119.298027,15.2149533 L119.298027,15.3063344 C119.298027,15.3520249 119.252336,15.3520249 119.252336,15.3520249 C119.206646,15.443406 119.160955,15.4890966 119.115265,15.4890966 C118.521288,15.7632399 117.835929,15.9003115 117.150571,15.9003115 C116.739356,15.9003115 116.373832,15.854621 116.008307,15.7175493 C115.642783,15.5804777 115.36864,15.3977155 115.140187,15.1235722 C114.911734,14.8494289 114.728972,14.5752856 114.637591,14.2097612 C114.54621,13.8442368 114.500519,13.3416407 114.500519,12.6105919 L114.500519,0.776739356 C114.500519,0.548286604 114.5919,0.411214953 114.820353,0.365524403 L116.785047,0 Z M105.773624,5.93977155 C106.321911,5.48286604 106.824507,5.11734164 107.327103,4.88888889 C107.829699,4.66043614 108.377985,4.56905504 108.971963,4.56905504 C109.931464,4.56905504 110.616822,4.84319834 111.073728,5.39148494 C111.530633,5.93977155 111.759086,6.807892 111.759086,7.95015576 L111.759086,15.1235722 C111.759086,15.3063344 111.759086,15.3977155 111.713396,15.443406 C111.667705,15.4890966 111.576324,15.4890966 111.393562,15.4890966 L109.428868,15.4890966 C109.246106,15.4890966 109.154725,15.4890966 109.109034,15.443406 C109.063344,15.3977155 109.063344,15.3063344 109.063344,15.1235722 L109.063344,8.54413292 C109.063344,7.35617861 108.652129,6.76220145 107.829699,6.76220145 C107.235722,6.76220145 106.641745,7.03634476 105.956386,7.63032191 L105.956386,15.1235722 C105.956386,15.3063344 105.956386,15.3977155 105.910696,15.443406 C105.865005,15.4890966 105.773624,15.4890966 105.590862,15.4890966 L103.626168,15.4890966 C103.443406,15.4890966 103.306334,15.4890966 103.306334,15.443406 C103.306334,15.3977155 103.260644,15.3063344 103.260644,15.1235722 L103.260644,7.99584631 C103.260644,7.08203531 103.123572,6.30529595 102.803738,5.66562825 L102.758048,5.48286604 C102.758048,5.39148494 102.803738,5.34579439 102.94081,5.30010384 L104.859813,4.61474559 L104.951194,4.52336449 L105.042575,4.52336449 C105.271028,4.47767394 105.545171,4.98026999 105.773624,5.93977155 Z M96.3156802,13.7528557 C96.9553479,13.7528557 97.3665628,13.4787124 97.6407061,12.9304258 C97.9148494,12.3821391 98.0519211,11.4683281 98.0519211,10.2346833 C98.0519211,9.00103842 97.9148494,8.08722741 97.6407061,7.53894081 C97.3665628,6.99065421 96.9096573,6.7165109 96.2699896,6.7165109 C95.6303219,6.7165109 95.219107,6.99065421 94.9449637,7.53894081 C94.6708204,8.08722741 94.5337487,9.00103842 94.5337487,10.2346833 C94.5337487,11.4683281 94.6708204,12.3821391 94.9449637,12.9304258 C95.219107,13.4787124 95.6760125,13.7528557 96.3156802,13.7528557 Z M100.930426,10.2803738 C100.930426,12.0166147 100.519211,13.3873313 99.6967809,14.3925234 C98.874351,15.3977155 97.7320872,15.9003115 96.3156802,15.9003115 C94.8535826,15.9003115 93.7113188,15.3977155 92.8888889,14.3925234 C92.066459,13.3873313 91.655244,12.0166147 91.655244,10.1889927 C91.655244,8.45275182 92.066459,7.08203531 92.9345794,6.0768432 C93.7570093,5.07165109 94.8992731,4.56905504 96.3613707,4.56905504 C97.8234683,4.56905504 98.9657321,5.07165109 99.7424714,6.0768432 C100.564901,7.08203531 100.930426,8.45275182 100.930426,10.2803738 Z" id="Shape" fill="#416F54" fill-rule="nonzero"></path>
        <path d="M89.2793354,6.48805815 C89.2793354,7.03634476 89.0965732,7.53894081 88.6853583,7.90446521 C88.2741433,8.31568017 87.8172378,8.49844237 87.2689512,8.49844237 C86.7206646,8.49844237 86.2180685,8.31568017 85.8525441,7.90446521 C85.4413292,7.49325026 85.258567,7.03634476 85.258567,6.48805815 C85.258567,5.93977155 85.4413292,5.43717549 85.8525441,5.07165109 C86.2637591,4.66043614 86.7206646,4.47767394 87.2689512,4.47767394 C87.8172378,4.47767394 88.3198339,4.66043614 88.6853583,5.07165109 C89.0965732,5.48286604 89.2793354,5.93977155 89.2793354,6.48805815 M89.2793354,13.5700935 C89.2793354,14.1183801 89.0965732,14.6209761 88.6853583,14.9865005 C88.2741433,15.3977155 87.8172378,15.5804777 87.2689512,15.5804777 C86.7206646,15.5804777 86.2180685,15.3977155 85.8525441,14.9865005 C85.4413292,14.5752856 85.258567,14.1183801 85.258567,13.5700935 C85.258567,13.0218069 85.4413292,12.5192108 85.8525441,12.1536864 C86.2637591,11.7424714 86.7206646,11.5597092 87.2689512,11.5597092 C87.8172378,11.5597092 88.3198339,11.7424714 88.6853583,12.1536864 C89.0965732,12.5192108 89.2793354,13.0218069 89.2793354,13.5700935 Z" id="Shape" fill="#A21A17" fill-rule="nonzero"></path>
    </g>
</svg>