<svg height="16" width="147" xmlns="http://www.w3.org/2000/svg"><g fill="none"><path d="M78.085 5.391v-2.97c0-.136.092-.228.229-.274l1.142-.32h.046c.137 0 .182.046.182.23v3.289h3.244c.137 0 .183.045.183.137v.137l-.228.822c-.046.137-.137.183-.274.183H79.73v6.031c0 .686.091 1.188.274 1.417.183.228.503.365 1.051.365.457 0 1.097-.183 1.919-.548l.137-.046c.091.046.137.092.137.137l.274.868v.046c0 .092-.045.183-.182.274-.869.411-1.737.64-2.605.64-.96 0-1.645-.229-2.01-.685-.411-.457-.594-1.28-.594-2.422V6.717h-1.508c-.183 0-.274-.092-.274-.229v-.822c0-.183.091-.229.274-.229h1.462m-9.047 4.158h4.66c0-1.05-.182-1.828-.593-2.376s-.96-.822-1.69-.822c-1.554 0-2.377 1.05-2.377 3.198zm0 1.325c0 1.142.275 2.056.777 2.65.503.64 1.188.96 2.102.96a3.58 3.58 0 0 0 1.188-.183c.411-.137.822-.32 1.28-.594l.182-.046a.565.565 0 0 1 .137.092l.411.822.046.137c0 .183-.366.411-1.142.731a5.669 5.669 0 0 1-2.285.457c-1.37 0-2.467-.503-3.244-1.462-.822-.96-1.188-2.285-1.188-3.975 0-1.645.366-2.97 1.142-3.975.777-1.005 1.782-1.462 3.107-1.462 1.234 0 2.194.41 2.879 1.233s1.05 2.01 1.05 3.518v.64c0 .274-.09.411-.228.411h-6.214zm-9.914-1.325h4.66c0-1.05-.183-1.828-.594-2.376s-.96-.822-1.69-.822c-1.6 0-2.376 1.05-2.376 3.198zm0 1.325c0 1.142.274 2.056.776 2.65.503.64 1.188.96 2.102.96a3.58 3.58 0 0 0 1.188-.183c.411-.137.822-.32 1.28-.594l.182-.046a.548.548 0 0 1 .137.092l.411.822.046.137c0 .183-.365.411-1.142.731a5.669 5.669 0 0 1-2.285.457c-1.37 0-2.467-.503-3.244-1.462-.822-.96-1.188-2.285-1.188-3.975 0-1.645.366-2.97 1.143-3.975.776-1.005 1.782-1.462 3.107-1.462 1.233 0 2.193.41 2.878 1.233s1.05 2.01 1.05 3.518v.64c0 .274-.09.411-.228.411h-6.213zm-6.58-4.02l.229-.275c.548-.594 1.005-1.005 1.325-1.188s.685-.32 1.096-.32c.32 0 .64.046.914.183.046 0 .091.046.137.091v.046l-.046.137-.548 1.188c0 .046-.046.046-.091.092h-.046a1.794 1.794 0 0 0-.64-.137c-.274 0-.548.09-.868.32-.32.228-.73.639-1.233 1.279v7.127c0 .183-.092.229-.229.229h-1.142c-.183 0-.229-.092-.229-.229V8.955c0-.868-.045-1.462-.091-1.782s-.228-.685-.457-1.096l-.091-.229c.045-.091.091-.182.137-.182l.868-.594h.183c.182 0 .365.274.548.822.091.229.137.366.183.503.045.182.045.32.091.502zM43.91 5.39V2.42c0-.136.091-.228.228-.274l1.142-.32h.046c.137 0 .183.046.183.23v3.289h3.244c.137 0 .183.045.183.137v.137l-.229.822c-.046.137-.137.183-.274.183h-2.879v6.031c0 .686.092 1.188.275 1.417.182.228.502.365 1.05.365.457 0 1.097-.183 1.92-.548l.137-.046c.091.046.137.092.137.137l.274.868v.046c0 .092-.046.183-.183.274-.868.411-1.736.64-2.604.64-.96 0-1.645-.229-2.01-.685-.412-.457-.595-1.28-.595-2.422V6.717h-1.507c-.183 0-.275-.092-.275-.229v-.822c0-.183.092-.229.275-.229h1.462v-.046zm-9.504 9.504l.411-.914c0-.045.046-.091.092-.091H35l.137.046c.96.502 1.828.73 2.604.73.503 0 .914-.136 1.234-.41.32-.275.457-.64.457-1.143 0-.64-.457-1.188-1.37-1.599-.732-.32-1.143-.503-1.28-.594-.411-.228-.777-.457-1.097-.731-.64-.548-1.005-1.188-1.005-2.01 0-.869.32-1.6.914-2.148s1.37-.822 2.376-.822c.868 0 1.736.228 2.513.64.183.09.228.182.228.274h-.045l-.366.776c-.046.092-.137.137-.183.137l-.137-.045c-.822-.366-1.462-.549-2.01-.549-1.097 0-1.645.457-1.645 1.417 0 .64.411 1.188 1.188 1.553l1.508.731c.776.366 1.37.777 1.645 1.188.32.411.456.914.456 1.554 0 .914-.32 1.645-.959 2.239-.64.548-1.462.822-2.467.822-1.188 0-2.24-.274-3.153-.822-.091-.046-.137-.137-.137-.183zm-4.57-3.107V.685c0-.137.092-.228.23-.274L31.16.137h.137c.091 0 .137.091.137.229v12.793c0 .914.32 1.37.914 1.37.274 0 .594-.09.96-.274l.136-.045c.092 0 .138.045.138.137l.274.777.045.182c0 .183-.091.229-.091.274-.548.229-1.097.366-1.69.366-.869 0-1.463-.228-1.782-.685-.32-.457-.503-1.234-.503-2.422v-1.05zm-5.573 0V.685c0-.137.091-.228.228-.274l1.097-.274h.137c.091 0 .137.091.137.229v12.793c0 .914.32 1.37.914 1.37.274 0 .594-.09.96-.274l.136-.045c.092 0 .137.045.137.137l.274.777.046.182a.628.628 0 0 1-.137.183c-.548.229-1.097.366-1.69.366-.869 0-1.463-.229-1.782-.686-.32-.457-.503-1.233-.503-2.421v-.96h.046zm-5.209-1.233c-2.696 0-4.02.776-4.02 2.284 0 .503.136.914.41 1.234.275.32.64.457 1.097.457.731 0 1.553-.412 2.467-1.234v-2.741zm0-1.326v-.685c0-.685-.137-1.188-.457-1.508-.32-.274-.822-.41-1.553-.41s-1.6.228-2.56.639l-.136.045a.565.565 0 0 1-.137-.09l-.32-.869-.046-.137c0-.091.046-.137.183-.229.137-.09.32-.182.594-.274.411-.182.822-.274 1.28-.365a6.974 6.974 0 0 1 1.37-.137c2.239 0 3.381 1.005 3.381 3.015v4.021c0 .731.046 1.28.092 1.645.09.365.228.777.456 1.188l.046.091-.046.137-.96.594h-.136c-.092 0-.229-.137-.366-.41a3.298 3.298 0 0 1-.41-.915c-.96.914-1.966 1.325-3.062 1.325-.868 0-1.554-.274-2.056-.776-.503-.549-.777-1.234-.777-2.148-.046-2.513 1.828-3.747 5.62-3.747zm-15.81 4.479l.091-.457.092-.411.091-.365 2.01-6.945c.046-.138.138-.183.275-.183h.96c.09 0 .136.045.182.183l1.736 7.219.092.274.045.365.046.229.046-.32.045-.274.046-.274L10.874 5.3c.046-.091.092-.137.137-.137h.137l1.006.274c.137.046.228.092.228.183v.091L9.55 15.626v.046c0 .046-.045.046-.091.091-.046 0-.046.046-.091.046H8.36c-.091 0-.137-.091-.182-.229L6.442 9.138l-.182-.914-.046-.32-.046-.456c-.045.228-.045.502-.091.776s-.137.549-.229.914l-2.01 6.534c-.046.137-.091.183-.183.183H2.65c-.091 0-.137-.092-.183-.229L0 5.757V5.62c0-.046.046-.137.183-.137l1.096-.274h.137c.092 0 .137.045.137.137l1.463 7.173.091.366.091.457zm137.163-4.706h3.381c0-.914-.137-1.508-.365-1.919-.229-.365-.64-.548-1.188-.548-.594 0-1.006.183-1.28.548-.274.366-.457 1.005-.548 1.919zm0 1.965c0 1.827.777 2.695 2.376 2.695.822 0 1.645-.228 2.467-.64.046-.045.092-.045.137-.045.046 0 .092 0 .137-.046.137 0 .183.046.229.183l.548 1.28.046.228c0 .137-.092.274-.274.366-.183.09-.503.274-.96.41-.868.32-1.736.503-2.65.503-1.553 0-2.741-.457-3.564-1.416-.822-.96-1.233-2.33-1.233-4.158 0-1.736.41-3.107 1.279-4.158.868-1.05 1.965-1.599 3.381-1.599 2.833 0 4.25 1.965 4.25 5.848a.983.983 0 0 1-.092.457c-.046.092-.183.092-.411.092zM129.624 5.94c.548-.457 1.051-.823 1.554-1.051.502-.229 1.05-.32 1.644-.32.96 0 1.645.274 2.102.822.457.549.686 1.417.686 2.56v7.173c0 .182 0 .274-.046.32-.046.045-.137.045-.32.045h-1.965c-.182 0-.274 0-.32-.046-.045-.045-.045-.137-.045-.32V8.545c0-1.188-.411-1.782-1.234-1.782-.594 0-1.188.274-1.873.868v7.494c0 .182 0 .274-.046.32-.046.045-.137.045-.32.045h-1.964c-.183 0-.32 0-.32-.046 0-.045-.046-.137-.046-.32V7.997c0-.914-.137-1.69-.457-2.33l-.091-.183c0-.092.046-.137.183-.183l1.919-.685.091-.092h.091c.274-.045.503.457.777 1.417zm-5.437-4.158c0 .503-.183.914-.503 1.234s-.73.502-1.233.502c-.457 0-.868-.183-1.234-.502a1.687 1.687 0 0 1-.503-1.234c0-.457.183-.868.503-1.234.32-.32.731-.502 1.234-.502.457 0 .868.182 1.233.502.32.366.503.777.503 1.234zm-3.061 5.163h-1.645c-.183 0-.32 0-.32-.046 0-.045-.046-.137-.046-.32V5.346c0-.137 0-.229.046-.274 0-.046.137-.092.32-.092h3.975c.183 0 .32 0 .32.046s.045.137.045.32v9.823c0 .137 0 .229-.045.274 0 .046-.137.092-.32.092h-1.92c-.182 0-.273 0-.319-.046s-.046-.137-.046-.32V6.945zM116.785 0h.274c.137 0 .229.137.229.366V12.29c0 .411.045.73.137.868.091.137.228.228.457.228.228 0 .457-.045.685-.137h.137c.091.046.137.092.137.137l.457 1.737v.182c0 .046-.046.046-.046.046-.045.091-.091.137-.137.137a4.732 4.732 0 0 1-1.964.411c-.412 0-.777-.045-1.143-.182-.365-.138-.64-.32-.868-.594-.228-.275-.411-.549-.502-.914-.092-.366-.137-.868-.137-1.6V.778c0-.229.09-.366.32-.411L116.784 0zm-11.011 5.94c.548-.457 1.05-.823 1.553-1.051.503-.229 1.051-.32 1.645-.32.96 0 1.645.274 2.102.822.457.549.685 1.417.685 2.56v7.173c0 .182 0 .274-.046.32-.045.045-.137.045-.32.045h-1.964c-.183 0-.274 0-.32-.046-.046-.045-.046-.137-.046-.32V8.545c0-1.188-.41-1.782-1.233-1.782-.594 0-1.188.274-1.874.868v7.494c0 .182 0 .274-.045.32-.046.045-.137.045-.32.045h-1.965c-.183 0-.32 0-.32-.046 0-.045-.045-.137-.045-.32V7.997c0-.914-.137-1.69-.457-2.33l-.046-.183c0-.092.046-.137.183-.183l1.919-.685.091-.092h.092c.228-.045.502.457.73 1.417zm-9.458 7.813c.64 0 1.05-.274 1.325-.823.274-.548.41-1.462.41-2.695 0-1.234-.136-2.148-.41-2.696s-.731-.822-1.371-.822-1.05.274-1.325.822c-.274.548-.411 1.462-.411 2.696 0 1.233.137 2.147.411 2.695.274.549.731.823 1.37.823zm4.614-3.473c0 1.737-.41 3.107-1.233 4.113-.823 1.005-1.965 1.507-3.381 1.507-1.462 0-2.605-.502-3.427-1.507-.823-1.006-1.234-2.376-1.234-4.204 0-1.736.411-3.107 1.28-4.112.822-1.005 1.964-1.508 3.426-1.508s2.605.503 3.381 1.508c.823 1.005 1.188 2.376 1.188 4.203z" fill="#416f54"/><path d="M89.28 6.488c0 .548-.183 1.05-.595 1.416-.41.412-.868.594-1.416.594s-1.05-.182-1.416-.594c-.412-.41-.594-.868-.594-1.416s.182-1.05.594-1.416c.41-.412.868-.594 1.416-.594s1.05.182 1.416.594c.412.41.594.868.594 1.416m0 7.082c0 .548-.182 1.051-.594 1.417-.41.41-.868.593-1.416.593s-1.05-.182-1.416-.593c-.412-.412-.594-.869-.594-1.417s.182-1.05.594-1.416c.41-.412.868-.594 1.416-.594s1.05.182 1.416.594c.412.365.594.868.594 1.416z" fill="#a21a17"/></g></svg>