<?xml version="1.0" encoding="UTF-8"?>
<svg width="48px" height="48px" viewBox="0 0 48 48" version="1.1" xmlns="http://www.w3.org/2000/svg" xmlns:xlink="http://www.w3.org/1999/xlink">
    <title>icon-reddit</title>
    <g id="icon-reddit" stroke="none" stroke-width="1" fill="none" fill-rule="evenodd">
        <g id="social-media-reddit" transform="translate(0.000000, 4.000000)" fill="#5B10FF" fill-rule="nonzero">
            <path d="M48.0000452,19 L48.0000452,19.0000063 C47.9856643,15.6863263 45.28778,13.0116863 41.9741,13.0260263 C40.071034,13.0342594 38.28472,13.9448303 37.16,15.4800063 L37.1600006,15.4800067 C33.6271806,13.3759667 29.6279606,12.1803267 25.5200006,12.0000067 C25.6400006,9.88000669 26.2600006,6.20000669 28.2800006,5.04000669 C29.5400006,4.32000669 31.3800006,4.66000669 33.7000006,5.96000669 L33.7000007,5.96000708 C33.9786747,8.69622708 36.4227407,10.6884671 39.1589607,10.4097871 C41.8951807,10.1311131 43.8874207,7.68704708 43.6087407,4.95082708 C43.3300667,2.21460708 40.8860007,0.222367085 38.1497807,0.501047085 C36.5848267,0.660431885 35.1871807,1.54984308 34.3800007,2.90000708 L34.3800005,2.90000699 C32.0974005,1.44047099 29.2219605,1.26643099 26.7800005,2.44000699 C23.2400005,4.44000699 22.6000005,9.74000699 22.5000005,12.000007 L22.499999,12.0000071 C18.385339,12.1778657 14.379059,13.3735671 10.839999,15.4800071 L10.8399988,15.4800069 C8.88161685,12.8069269 5.12705885,12.2275269 2.45397885,14.1859169 C0.918808846,15.3106269 0.00823884571,17.0969369 -4.61119407e-05,18.9999969 L-4.61119407e-05,19.000059 C-0.00980987352,21.551239 1.59474061,23.829659 4.00005861,24.680019 L4.00005826,24.6800243 C3.97096826,25.1195343 3.97094886,25.5604863 4.00000019,25.9999983 C4.00000019,33.7199983 12.9800002,39.9999983 24.0000002,39.9999983 C35.0200002,39.9999983 44.0000002,33.7199983 44.0000002,25.9999983 L44,26.0000014 C44.0290718,25.5604814 44.029072,25.1195214 44.0000004,24.6800014 L44.0000002,24.6800014 C46.4053002,23.8296174 48.0098402,21.5511814 48.0000452,19.0000014 L48.0000452,19 Z M13,23.0000005 L13,23.0000005 C13,21.3431465 14.343146,20.0000005 16,20.0000005 C17.656854,20.0000005 19,21.3431465 19,23.0000005 C19,24.6568545 17.656854,26.0000005 16,26.0000005 L16,26.0000005 C14.3431461,26.0000005 13,24.6568545 13,23.0000005 C13,23.0000005 13,23.0000005 13,23.0000005 L13,23.0000005 Z M31.82,33 L31.8200008,32.9999996 C29.4271008,34.3240236 26.7347608,35.0125996 24.0000008,34.9999996 L24.0000009,34.9999996 C21.2510609,35.024912 18.5427209,34.3357696 16.1400009,32.9999996 L16.1400008,32.9999995 C15.4220308,32.5857855 15.1757868,31.6679695 15.5900008,30.9499995 C16.0042148,30.2320295 16.9220308,29.9857855 17.6400008,30.3999995 L17.6400011,30.3999997 C21.6244211,32.4237797 26.3355811,32.4237797 30.3200011,30.3999994 L30.320001,30.3999994 C31.037971,29.9857854 31.955787,30.232029 32.370001,30.9499994 C32.784215,31.6679694 32.5379714,32.5857854 31.820001,32.9999994 L31.82,33 Z M31.9999999,26 L31.9999999,26 C30.3431459,26 28.9999999,24.656854 28.9999999,23 C28.9999999,21.343146 30.3431459,20 31.9999999,20 C33.6568539,20 34.9999999,21.343146 34.9999999,23 L34.9999999,23 C34.9999999,24.6568539 33.6568539,26 31.9999999,26 L31.9999999,26 Z" id="Shape"></path>
        </g>
    </g>
</svg>