<svg width="48" height="48" xmlns="http://www.w3.org/2000/svg"><path d="M23.998.96C10.746.96 0 11.536 0 24.586 0 35.02 6.876 43.876 16.414 47c1.2.215 1.638-.514 1.638-1.14 0-.56-.02-2.047-.032-4.017-6.676 1.426-8.084-3.168-8.084-3.168-1.092-2.73-2.666-3.454-2.666-3.454-2.178-1.467.166-1.438.166-1.438 2.408.169 3.676 2.435 3.676 2.435 2.14 3.61 5.616 2.567 6.984 1.964.218-1.527.838-2.569 1.524-3.158-5.329-.597-10.932-2.624-10.932-11.677 0-2.578.936-4.687 2.47-6.34-.247-.597-1.07-2.998.235-6.251 0 0 2.016-.636 6.6 2.421 1.914-.524 3.968-.785 6.008-.795 2.038.01 4.092.271 6.009.795 4.581-3.057 6.592-2.421 6.592-2.421 1.31 3.252.487 5.654.24 6.253 1.537 1.65 2.467 3.76 2.467 6.338 0 9.076-5.611 11.072-10.959 11.657.863.73 1.63 2.171 1.63 4.375 0 3.158-.03 5.705-.03 6.48 0 .632.432 1.367 1.65 1.137C41.129 43.867 48 35.018 48 24.586 48 11.536 37.254.96 23.998.96" fill="currentColor" fill-rule="evenodd"/></svg>