<svg xmlns="http://www.w3.org/2000/svg" xmlns:xlink="http://www.w3.org/1999/xlink"><symbol id="hbg-close"><g fill="currentColor" fill-rule="evenodd"><path fill="currentColor" fill-rule="nonzero" d="M19 6.41L17.59 5 12 10.59 6.41 5 5 6.41 10.59 12 5 17.59 6.41 19 12 13.41 17.59 19 19 17.59 13.41 12z" transform="translate(-5 -5)"/><path d="M0 0L24 0 24 24 0 24z" transform="translate(-5 -5)"/></g></symbol><symbol id="hbg"><g fill="currentColor" fill-rule="evenodd"><path d="M0 0L24 0 24 24 0 24z" transform="translate(-3 -6)"/><path d="M3,18 L21,18 L21,16 L3,16 L3,18 Z M3,13 L21,13 L21,11 L3,11 L3,13 Z M3,6 L3,8 L21,8 L21,6 L3,6 Z" fill="currentColor" fill-rule="nonzero" transform="translate(-3 -6)"/></g></symbol></svg>