<?xml version="1.0" encoding="UTF-8"?>
<svg width="170px" height="72px" viewBox="0 0 170 72" version="1.1" xmlns="http://www.w3.org/2000/svg" xmlns:xlink="http://www.w3.org/1999/xlink">
    <title>downloads/logo-defi-blockchain</title>
    <defs>
        <polygon id="path-1" points="0 0 71.98 0 71.98 71.9999 0 71.9999"></polygon>
    </defs>
    <g id="downloads/logo-defi-blockchain" stroke="none" stroke-width="1" fill="none" fill-rule="evenodd">
        <g id="Group-3" transform="translate(0.000000, 0.000000)">
            <mask id="mask-2" fill="white">
                <use xlink:href="#path-1"></use>
            </mask>
            <g id="Clip-2"></g>
            <path d="M43.98,62.8359 L43.98,9.1639 L44.359,9.2799 C55.718,12.8519 63.98,23.4799 63.98,35.9999 C63.98,48.6599 55.534,59.3859 43.98,62.8359 M35.98,-0.0001 L35.98,30.3419 L31.41,25.7729 L30.826,14.3659 L35.592,0.0199 L34.889,0.0339 C32.083,0.1209 29.367,0.5459 26.758,1.2379 L24.452,8.1719 L17.916,4.8939 L17.323,5.2469 C14.963,6.6789 12.774,8.3619 10.812,10.2839 L22.918,16.3499 L23.272,23.2919 L16.332,22.9359 L10.264,10.8319 L9.789,11.3269 C7.908,13.3269 6.264,15.5469 4.874,17.9359 L8.154,24.4739 L1.216,26.7779 L1.049,27.4329 C0.403,30.0589 0.029,32.7909 0,35.6119 L14.348,30.8459 L25.754,31.4279 L30.324,35.9999 L25.754,40.5719 L14.348,41.1539 L0,36.3879 L0.014,37.0919 C0.101,39.8979 0.525,42.6129 1.216,45.2219 L8.154,47.5259 L4.874,54.0649 L5.227,54.6569 C6.659,57.0189 8.344,59.2049 10.264,61.1679 L16.332,49.0649 L23.272,48.7079 L22.918,55.6489 L10.812,61.7159 L11.307,62.1909 C13.307,64.0709 15.529,65.7139 17.916,67.1069 L24.452,63.8279 L26.758,70.7619 L27.412,70.9289 C30.039,71.5749 32.771,71.9499 35.592,71.9809 L30.826,57.6339 L31.41,46.2279 L35.98,41.6579 L35.98,71.9999 L36.575,71.9949 C56.183,71.6779 71.98,55.6839 71.98,35.9999 C71.98,16.1179 55.862,-0.0001 35.98,-0.0001" id="Fill-1" fill="#FF00AF" mask="url(#mask-2)"></path>
        </g>
        <polygon id="Fill-4" fill="#FF00AF" points="89.5596 20.3892 84.4776 9.4972 79.0396 12.0342 84.1226 22.9262"></polygon>
        <path d="M107.9995,28.2871 L104.9995,28.4741 L104.9995,26.7301 L107.9995,26.7301 L107.9995,28.2871 Z M105.9995,58.9411 C99.1805,58.9411 93.3025,54.8961 90.5965,49.0881 L95.9835,49.6451 L97.5715,34.2881 C97.8115,31.9721 97.9995,28.3311 97.9995,26.0001 L97.9995,13.5511 L107.9995,12.9331 L107.9995,20.7301 L98.9995,20.7301 L98.9995,32.9131 C98.9995,34.9701 98.7625,38.4281 98.4845,40.4391 L96.2485,55.6501 L102.1855,56.5231 L104.4245,41.2851 C104.6825,39.4201 104.8925,36.7091 104.9675,34.4881 L108.0285,34.2971 C108.3185,37.8921 111.3315,40.7301 114.9995,40.7301 L116.9995,40.7301 C120.9245,40.7301 123.9995,38.0951 123.9995,34.7301 L123.9995,31.7301 L117.9995,31.7301 L117.9995,34.4741 C117.8345,34.5861 117.4865,34.7301 116.9995,34.7301 L114.9995,34.7301 C114.5165,34.7301 114.1305,34.3781 114.0385,33.9211 L117.1865,33.7241 L116.8125,27.7361 L113.9995,27.9121 L113.9995,26.7301 L117.9995,26.7301 L117.9995,29.7301 L123.9995,29.7301 L123.9995,20.7301 L113.9995,20.7301 L113.9995,19.7301 L120.9995,19.7301 L120.9995,13.7301 L113.9995,13.7301 L113.9995,12.5621 L123.1845,11.9941 L122.8145,6.0061 L91.9995,7.9101 L91.9995,26.0001 C91.9995,28.1221 91.8215,31.5631 91.6035,33.6701 L90.1245,47.9721 C89.4095,46.0951 88.9995,44.0671 88.9995,41.9411 L88.9995,24.8851 L77.9995,24.8851 L77.9995,30.8851 L82.9995,30.8851 L82.9995,41.9411 C82.9995,46.2411 84.1875,50.2661 86.2505,53.7121 L78.7545,61.0541 L82.9525,65.3411 L90.0005,58.4381 C94.1475,62.4591 99.7995,64.9411 106.0305,64.9411 L125.0305,64.7441 L124.9685,58.7441 L105.9995,58.9411 Z" id="Fill-6" fill="#FF00AF"></path>
        <path d="M117.9995,58.7305 C120.9225,58.7305 124.9995,56.4475 124.9995,52.7305 L124.9995,47.7305 L118.9995,47.7305 L118.9995,52.3275 C118.8055,52.4765 118.4885,52.6265 118.2325,52.6945 C118.1245,52.5175 117.9995,52.1845 117.9995,51.7305 L117.9995,41.7305 L104.9995,41.7305 L104.9995,46.7305 C104.9995,48.4265 104.6865,50.6115 104.1185,52.8835 L103.0885,57.0025 L108.9105,58.4585 L109.9395,54.3385 C110.3655,52.6355 110.8635,50.1905 110.9765,47.7305 L111.9995,47.7305 L111.9995,51.7305 C111.9995,55.6555 114.6355,58.7305 117.9995,58.7305" id="Fill-8" fill="#FF00AF"></path>
        <path d="M156.9619,25.2725 L156.3099,21.7925 L163.4219,25.7435 L162.9999,25.7435 L162.9999,29.7435 C162.9999,30.0495 162.9329,30.1985 162.9189,30.2175 C162.9189,30.2175 162.8709,30.2435 162.7499,30.2435 C159.1369,30.2435 157.2889,27.2305 156.9619,25.2725 M168.9999,29.7435 L168.9999,25.7435 L164.8879,25.7435 L167.4569,21.1215 L161.9329,18.0525 L168.1209,11.8645 L163.8789,7.6225 L155.2679,16.2325 L153.4899,6.7435 L126.9999,6.7435 L126.9999,12.7435 L148.5099,12.7435 L151.0539,26.3185 C151.8369,31.0135 155.7539,35.7635 161.8149,36.2095 L161.9829,36.2155 L155.1429,43.0555 L153.5409,33.4415 L147.9999,33.4415 L147.9999,15.7435 L141.9999,15.7435 L141.9999,33.4415 L137.9709,33.4415 C137.9879,32.9305 137.9999,32.4375 137.9999,32.0005 L137.9999,21.2405 L141.4559,20.7095 L140.5439,14.7785 L127.5439,16.7785 L128.4559,22.7095 L131.9999,22.1635 L131.9999,32.0005 C131.9999,32.4255 131.9869,32.9205 131.9669,33.4415 L126.9999,33.4415 L126.9999,39.4415 L131.4709,39.4415 C131.4669,39.4695 131.4629,39.5025 131.4599,39.5305 L128.0299,63.3155 L133.9689,64.1715 L137.3979,40.3875 C137.4409,40.0915 137.4819,39.7745 137.5219,39.4415 L141.9999,39.4415 L141.9999,63.7435 L147.9999,63.7435 L147.9999,39.4415 L148.4579,39.4415 L151.0539,55.0165 C151.8369,59.7115 155.7539,64.4615 161.8149,64.9075 L162.7499,64.9415 C166.3709,64.9415 168.9999,62.2075 168.9999,58.4415 L168.9999,54.4415 L162.9999,54.4415 L162.9999,58.4415 C162.9999,58.7475 162.9329,58.8965 162.9189,58.9155 C162.9189,58.9155 162.8709,58.9415 162.7499,58.9415 C159.1369,58.9415 157.2889,55.9285 156.9719,54.0295 L156.0229,48.3305 L164.5429,53.0645 L167.4569,47.8185 L161.9329,44.7505 L168.1209,38.5625 L165.2959,35.7375 C167.5389,34.7815 168.9999,32.5505 168.9999,29.7435" id="Fill-10" fill="#FF00AF"></path>
    </g>
</svg>