<svg xmlns="http://www.w3.org/2000/svg" width="49" height="50" viewBox="0 0 49 50" fill="none">
    <path d="M29.7719 43.2505V6.8452C37.6009 9.18291 43.3257 16.4558 43.3257 25.0547C43.3257 33.6536 37.6009 40.9265 29.7719 43.2642V43.2505ZM24.3477 0.625V21.2132L21.2461 18.1099L20.8499 10.3723L24.0881 0.638671C22.0113 0.666012 20.0165 0.953099 18.1036 1.45892L16.546 6.16167L12.1192 3.93333C10.3703 4.95864 8.7444 6.17534 7.2961 7.58343L15.5076 11.6983L15.7536 16.4011L11.0535 16.155L6.94086 7.93887C5.53356 9.38797 4.30388 11.0011 3.29281 12.7647L5.5199 17.194L0.819787 18.7525C0.314252 20.6664 0.0136631 22.676 0 24.7403L9.72814 21.5003L17.4615 21.8967L20.563 25L17.4615 28.1033L9.72814 28.4997L0 25.2597C0.0273262 27.3377 0.314252 29.3336 0.819787 31.2475L5.5199 32.806L3.29281 37.2353C4.31754 38.9852 5.53356 40.612 6.94086 42.0611L11.0535 33.845L15.7536 33.5989L15.5076 38.3017L7.2961 42.4166C8.7444 43.8247 10.3566 45.055 12.1192 46.0667L16.546 43.8383L18.1036 48.5411C20.0165 49.0469 22.0249 49.3477 24.0881 49.3613L20.8499 39.6277L21.2461 31.8901L24.3477 28.7868V49.375C37.8332 49.375 48.75 38.4384 48.75 24.959C48.75 11.4796 37.8195 0.625 24.3477 0.625Z" fill="#FF00AF"/>
</svg>
