<svg xmlns="http://www.w3.org/2000/svg" width="153" height="30" fill="none" viewBox="0 0 153 30"><path fill="#fff" d="M48.6788 13.2154C48.199 12.6002 47.6366 12.0999 46.9749 11.739C46.0154 11.214 44.9401 10.9433 43.7573 10.9433C42.3925 10.9433 41.1683 11.2468 40.1013 11.8374C39.026 12.4362 38.1823 13.2646 37.562 14.3309C36.9416 15.3973 36.6273 16.6358 36.6273 18.0631C36.6273 19.4903 36.9416 20.7371 37.562 21.8116C38.1823 22.8861 39.026 23.7228 40.1013 24.3215C41.1766 24.9203 42.3925 25.2156 43.7573 25.2156C44.9815 25.2156 46.0733 24.9449 47.0328 24.4118C47.7193 24.0263 48.3066 23.5013 48.7863 22.8451V25.0598H51.2347V5.48047H48.6788V13.2072V13.2154ZM48.0832 20.6714C47.6697 21.4179 47.0989 21.992 46.3793 22.4022C45.6597 22.8041 44.8574 23.0091 43.9723 23.0091C43.0873 23.0091 42.2602 22.8041 41.5488 22.4022C40.8375 22.0002 40.275 21.4179 39.8449 20.6714C39.4231 19.925 39.208 19.0556 39.208 18.0713C39.208 17.087 39.4231 16.2011 39.8449 15.4711C40.2667 14.7411 40.8375 14.1751 41.5488 13.7732C42.2602 13.3712 43.0625 13.1662 43.9723 13.1662C44.8822 13.1662 45.6597 13.3712 46.3793 13.7732C47.0989 14.1751 47.6614 14.7493 48.0832 15.4711C48.4968 16.2011 48.7119 17.0706 48.7119 18.0713C48.7119 19.072 48.5051 19.925 48.0832 20.6714Z"/><path fill="#fff" d="M64.7086 11.8511C63.6581 11.2523 62.4588 10.957 61.0857 10.957C59.7127 10.957 58.5298 11.2605 57.4546 11.8675C56.3793 12.4745 55.5356 13.3111 54.9235 14.3857C54.3114 15.4602 54.0054 16.6906 54.0054 18.0768C54.0054 19.463 54.3197 20.7016 54.9483 21.7679C55.5769 22.8424 56.462 23.6873 57.6117 24.3024C58.7532 24.9176 60.0849 25.2293 61.5903 25.2293C62.7648 25.2293 63.8236 25.0325 64.7665 24.6469C65.7177 24.2614 66.5118 23.6955 67.1487 22.9572L65.7343 21.325C65.2214 21.8909 64.6176 22.3092 63.9394 22.5881C63.2528 22.867 62.5001 23.0065 61.6647 23.0065C60.6556 23.0065 59.754 22.8014 58.9765 22.3995C58.199 21.9976 57.5869 21.4316 57.1568 20.7016C56.8342 20.1602 56.6357 19.5696 56.553 18.9216H68.0006C68.0172 18.7986 68.0337 18.6674 68.042 18.5279C68.0503 18.3885 68.0585 18.2654 68.0585 18.1588C68.0585 16.7152 67.7608 15.452 67.1652 14.3693C66.5697 13.2865 65.7508 12.4499 64.7003 11.8511H64.7086ZM58.7201 13.6885C59.4149 13.2947 60.2007 13.0979 61.0857 13.0979C61.9708 13.0979 62.7814 13.2947 63.4679 13.6885C64.1544 14.0822 64.6838 14.6317 65.0808 15.3371C65.3786 15.8703 65.5523 16.4609 65.6185 17.1089H56.553C56.6274 16.4691 56.8094 15.8867 57.0989 15.3536C57.4876 14.6399 58.0336 14.0904 58.7201 13.6885Z"/><path fill="#fff" d="M82.7325 11.0742H80.1766V25.0594H82.7325V11.0742Z"/><path fill="#fff" d="M75.8091 5.32812C74.3202 5.32812 73.1705 5.73825 72.3599 6.5585C71.5493 7.37874 71.1523 8.46967 71.1523 9.84768V11.0863H68.7535V13.1697H71.1523V25.0715H73.7081V13.1697H77.7529V11.0863H73.6585V9.87229C73.6585 9.06025 73.857 8.45327 74.2458 8.03494C74.6345 7.62482 75.2053 7.41155 75.9497 7.41155C76.3219 7.41155 76.6776 7.46897 77.0167 7.5838C77.3558 7.69864 77.6536 7.86269 77.9183 8.07595L78.6875 6.14837C78.3319 5.86949 77.9017 5.65622 77.3972 5.52498C76.8926 5.39374 76.3633 5.32812 75.8173 5.32812H75.8091Z"/><path fill="#fff" d="M90.4833 13.7787C91.2112 13.3768 92.0383 13.1717 92.9565 13.1717C93.7174 13.1717 94.437 13.3357 95.0988 13.6638C95.7605 13.9919 96.3229 14.4923 96.7861 15.1813L98.7299 13.9427C98.1757 12.9584 97.4065 12.212 96.4056 11.7117C95.4048 11.2113 94.2633 10.957 92.9895 10.957C91.5503 10.957 90.2682 11.2605 89.1433 11.8675C88.0184 12.4745 87.1334 13.3111 86.4965 14.3857C85.8596 15.4602 85.537 16.6906 85.537 18.0768C85.537 19.463 85.8596 20.7016 86.4965 21.7679C87.1334 22.8424 88.0184 23.6873 89.1433 24.3024C90.2682 24.9176 91.5503 25.2293 92.9895 25.2293C94.2633 25.2293 95.4048 24.9668 96.4056 24.4501C97.4065 23.9333 98.184 23.1869 98.7299 22.219L96.7861 21.0051C96.3229 21.6941 95.7605 22.1944 95.0988 22.5225C94.437 22.8506 93.7174 23.0147 92.9565 23.0147C92.0301 23.0147 91.2112 22.8096 90.4833 22.4077C89.7554 22.0058 89.1764 21.4316 88.7546 20.6934C88.3327 19.9551 88.1177 19.0857 88.1177 18.085C88.1177 17.0843 88.3327 16.2148 88.7546 15.4848C89.1764 14.7548 89.7554 14.1888 90.4833 13.7869V13.7787Z"/><path fill="#fff" d="M111.484 11.6077C110.608 11.1648 109.59 10.9515 108.44 10.9515C107.167 10.9515 106.042 11.2058 105.091 11.7143C104.429 12.0671 103.891 12.5264 103.469 13.0678V5.48047H100.913V25.0598H103.469V17.858C103.469 16.8409 103.651 15.9878 104.015 15.2988C104.379 14.6098 104.9 14.0931 105.57 13.7404C106.249 13.3876 107.034 13.2154 107.936 13.2154C109.144 13.2154 110.078 13.5599 110.74 14.2407C111.402 14.9297 111.741 15.9468 111.741 17.3002V25.0598H114.297V17.0131C114.297 15.6433 114.048 14.5032 113.552 13.6091C113.056 12.715 112.369 12.0424 111.493 11.6077H111.484Z"/><path fill="#fff" d="M123.03 10.9531C121.914 10.9531 120.847 11.109 119.821 11.4125C118.804 11.7242 117.927 12.1671 117.199 12.7413L118.266 14.6442C118.812 14.1849 119.49 13.824 120.293 13.5451C121.087 13.2744 121.905 13.135 122.741 13.135C123.998 13.135 124.941 13.4303 125.578 14.0208C126.207 14.6114 126.521 15.4399 126.521 16.5144V17.0147H122.476C121.078 17.0147 119.962 17.2034 119.135 17.5725C118.307 17.9416 117.712 18.4338 117.348 19.049C116.984 19.6641 116.802 20.3532 116.802 21.1078C116.802 21.8624 117.017 22.6088 117.439 23.2322C117.861 23.8556 118.473 24.3478 119.259 24.7005C120.044 25.0532 120.963 25.2254 122.013 25.2254C123.312 25.2254 124.379 24.9875 125.231 24.5036C125.834 24.1591 126.298 23.7326 126.645 23.2158V25.0696H129.069V16.6292C129.069 14.7099 128.547 13.2908 127.497 12.3557C126.446 11.4207 124.958 10.9531 123.03 10.9531ZM124.958 22.6416C124.238 23.06 123.403 23.2732 122.443 23.2732C121.484 23.2732 120.706 23.0682 120.152 22.6498C119.598 22.2397 119.325 21.6902 119.325 21.0011C119.325 20.4024 119.548 19.8938 119.987 19.4673C120.433 19.049 121.293 18.8357 122.567 18.8357H126.504V20.7879C126.182 21.5999 125.669 22.2151 124.949 22.6334L124.958 22.6416Z"/><path fill="#fff" d="M135.132 11.0781H132.576V25.0633H135.132V11.0781Z"/><path fill="#fff" d="M151.394 13.6146C150.898 12.7206 150.211 12.048 149.334 11.6132C148.457 11.1703 147.44 10.957 146.29 10.957C145.017 10.957 143.892 11.2113 142.94 11.7199C142.229 12.0972 141.65 12.5975 141.212 13.2045V11.0883H138.763V25.0735H141.319V17.8717C141.319 16.8546 141.501 16.0015 141.865 15.3125C142.229 14.6235 142.75 14.1068 143.42 13.7541C144.098 13.4014 144.884 13.2291 145.786 13.2291C146.993 13.2291 147.928 13.5736 148.59 14.2544C149.252 14.9434 149.591 15.9605 149.591 17.3139V25.0735H152.147V17.0269C152.147 15.657 151.898 14.5169 151.402 13.6228L151.394 13.6146Z"/><path fill="#FF00AF" d="M18.8769 25.9503V4.10712C23.6164 5.50974 27.0822 9.87346 27.0822 15.0328C27.0822 20.1922 23.6164 24.5559 18.8769 25.9585V25.9503ZM15.5931 0.375V12.7279L13.7155 10.866L13.4757 6.22336L15.436 0.383202C14.1787 0.399607 12.9711 0.571859 11.8131 0.87535L10.8702 3.697L8.19021 2.36C7.13147 2.97518 6.14717 3.7052 5.2704 4.55006L10.2415 7.019L10.3904 9.84065L7.54504 9.693L5.05534 4.76332C4.20338 5.63278 3.45895 6.60067 2.84687 7.65879L4.19511 10.3164L1.34974 11.2515C1.0437 12.3998 0.861726 13.6056 0.853455 14.8442L6.74271 12.9002L11.4243 13.138L13.302 15L11.4243 16.862L6.74271 17.0998L0.853455 15.1558C0.869997 16.4026 1.0437 17.6002 1.34974 18.7485L4.19511 19.6836L2.84687 22.3412C3.46723 23.3911 4.20338 24.3672 5.05534 25.2367L7.54504 20.307L10.3904 20.1594L10.2415 22.981L5.2704 25.4499C6.14717 26.2948 7.1232 27.033 8.19021 27.64L10.8702 26.303L11.8131 29.1246C12.9711 29.4281 14.187 29.6086 15.436 29.6168L13.4757 23.7766L13.7155 19.134L15.5931 17.2721V29.625C23.757 29.625 30.3659 23.063 30.3659 14.9754C30.3659 6.88776 23.7488 0.375 15.5931 0.375Z"/></svg>