<svg width="124" height="25" xmlns="http://www.w3.org/2000/svg"><path d="M22.972 0a1.531 1.531 0 0 1 1.531 1.531v.963h-.547v-.963a.984.984 0 0 0-.984-.984H1.532a.985.985 0 0 0-.985.984v21.44a.984.984 0 0 0 .984.985h21.44a.984.984 0 0 0 .985-.984v-.534h.547v.534a1.531 1.531 0 0 1-1.531 1.531H1.532A1.531 1.531 0 0 1 0 22.972V1.532A1.531 1.531 0 0 1 1.531 0h21.44zm12.027 9.526c3.08 0 5.268 2.33 5.268 5.46 0 3.148-2.187 5.483-5.268 5.483-3.08 0-5.268-2.338-5.268-5.483 0-3.126 2.188-5.46 5.268-5.46zm54.519 0c3.08 0 5.268 2.33 5.268 5.46 0 3.148-2.188 5.483-5.268 5.483-3.081 0-5.269-2.338-5.269-5.483 0-3.126 2.188-5.46 5.269-5.46zm29.186 0c3.08 0 5.267 2.33 5.267 5.46 0 3.148-2.187 5.483-5.268 5.483-3.08 0-5.267-2.338-5.267-5.483 0-3.126 2.188-5.46 5.268-5.46zm-68.672 0c2.741 0 4.157 1.713 4.583 3.281l-1.82.766c-.257-1.006-1.006-2.188-2.763-2.188-1.628 0-3.127 1.2-3.127 3.601 0 2.356 1.478 3.62 3.148 3.62 1.773 0 2.513-1.106 2.803-1.916l.066-.204 1.778.766c-.493 1.476-1.97 3.211-4.647 3.211-2.998.003-5.204-2.353-5.204-5.477 0-3.211 2.25-5.46 5.183-5.46zM12.843 4.96c2.893 0 4.584 1.713 4.584 4.112 0 1.627-.942 2.784-2.27 3.281 1.735.43 2.741 1.97 2.741 3.663 0 2.399-1.906 4.134-4.69 4.134H7.897V4.96h4.946zm65.628-.386c.686 0 1.113.15 1.203.219v1.795l-.042-.016-.12-.037a2.809 2.809 0 0 0-.713-.077c-.706 0-1.628.343-1.628 1.757v1.63h2.485v1.82l-2.493-.002v8.481h-2.078v-8.48H73.18v-1.82h1.907V8.11c0-2.292 1.52-3.534 3.383-3.534zm-53.32.064v15.506h-2.014V4.64h2.014zm36.121 0v9.766l4.455-4.56h2.784l-4.39 4.346 4.476 5.954H66.07l-3.363-4.54-1.435 1.435v3.105H59.28V4.64h1.992zm40.109 0v15.506h-2.013V4.64h2.013zm7.022 5.205v10.3h-1.991v-10.3h1.991zM35 11.324c-1.714 0-3.211 1.282-3.211 3.662 0 2.4 1.498 3.684 3.211 3.684 1.713 0 3.213-1.288 3.213-3.684 0-2.377-1.499-3.662-3.213-3.662zm54.519 0c-1.713 0-3.211 1.282-3.211 3.662 0 2.4 1.5 3.684 3.213 3.684s3.21-1.288 3.21-3.684c0-2.377-1.5-3.662-3.212-3.662zm29.185 0c-1.714 0-3.211 1.285-3.211 3.662 0 2.4 1.498 3.684 3.21 3.684 1.714 0 3.214-1.288 3.214-3.684 0-2.377-1.499-3.662-3.213-3.662zM12.99 13.398H9.995v4.905h2.913c1.692 0 2.844-.943 2.844-2.42 0-1.457-.921-2.485-2.762-2.485zm-.467-6.6H9.995v4.797h2.613c1.692 0 2.699-1.006 2.699-2.42 0-1.435-1.05-2.378-2.784-2.378zM107.4 4.638a.996.996 0 1 1 .022 1.993.996.996 0 0 1-.022-1.993z" fill-rule="evenodd"/></svg>