<svg xmlns="http://www.w3.org/2000/svg" xmlns:xlink="http://www.w3.org/1999/xlink" width="138" height="30" version="1.1" viewBox="0 0 138 30"><g id="surface1"><path style="stroke:none;fill-rule:nonzero;fill:#0b0b40;fill-opacity:1" d="M 132.449219 7.4375 L 132.449219 5.167969 C 132.449219 5.066406 132.367188 4.980469 132.265625 4.980469 L 129.394531 4.980469 C 127.9375 4.980469 126.765625 6.167969 126.765625 7.625 L 126.765625 9.667969 L 125.039062 9.667969 C 124.9375 9.667969 124.855469 9.75 124.855469 9.855469 L 124.855469 12.121094 C 124.855469 12.226562 124.9375 12.308594 125.039062 12.308594 L 126.765625 12.308594 L 126.765625 23.246094 C 126.765625 23.351562 126.847656 23.433594 126.953125 23.433594 L 129.6875 23.433594 C 129.789062 23.433594 129.875 23.351562 129.875 23.246094 L 129.875 12.308594 L 132.269531 12.308594 C 132.371094 12.308594 132.457031 12.226562 132.457031 12.121094 L 132.457031 9.855469 C 132.457031 9.75 132.371094 9.667969 132.269531 9.667969 L 129.875 9.667969 L 129.875 7.625 L 132.269531 7.625 C 132.371094 7.625 132.457031 7.539062 132.457031 7.4375 Z M 132.449219 7.4375"/><path style="stroke:none;fill-rule:nonzero;fill:#5b10ff;fill-opacity:1" d="M 50.164062 16.558594 C 50.164062 11.875 53.058594 9.375 56.117188 9.375 C 57.980469 9.375 59.578125 10.242188 60.65625 11.828125 L 60.65625 9.824219 C 60.65625 9.722656 60.742188 9.640625 60.84375 9.640625 L 63.578125 9.640625 C 63.679688 9.640625 63.765625 9.722656 63.765625 9.824219 L 63.765625 23.246094 C 63.765625 23.351562 63.679688 23.433594 63.578125 23.433594 L 60.84375 23.433594 C 60.742188 23.433594 60.65625 23.351562 60.65625 23.246094 L 60.65625 21.582031 C 59.65625 22.976562 58.148438 23.71875 56.308594 23.71875 C 52.695312 23.71875 50.164062 20.785156 50.164062 16.558594 Z M 60.65625 16.558594 C 60.65625 13.917969 59.152344 12.136719 56.972656 12.136719 C 54.796875 12.136719 53.339844 13.941406 53.339844 16.535156 C 53.339844 19.132812 54.84375 20.960938 56.996094 20.960938 C 59.152344 20.960938 60.65625 19.179688 60.65625 16.558594 Z M 60.65625 16.558594"/><path style="stroke:none;fill-rule:nonzero;fill:#0b0b40;fill-opacity:1" d="M 94.65625 16.558594 C 94.65625 11.875 97.550781 9.375 100.609375 9.375 C 102.472656 9.375 104.078125 10.242188 105.148438 11.828125 L 105.148438 5.792969 C 105.148438 5.6875 105.234375 5.605469 105.335938 5.605469 L 108.070312 5.605469 C 108.171875 5.605469 108.257812 5.6875 108.257812 5.792969 L 108.257812 23.246094 C 108.257812 23.351562 108.171875 23.433594 108.070312 23.433594 L 105.335938 23.433594 C 105.234375 23.433594 105.148438 23.351562 105.148438 23.246094 L 105.148438 21.582031 C 104.148438 22.976562 102.640625 23.71875 100.800781 23.71875 C 97.191406 23.71875 94.65625 20.785156 94.65625 16.558594 Z M 105.148438 16.558594 C 105.148438 13.917969 103.644531 12.136719 101.464844 12.136719 C 99.289062 12.136719 97.832031 13.941406 97.832031 16.535156 C 97.832031 19.132812 99.335938 20.960938 101.488281 20.960938 C 103.644531 20.960938 105.148438 19.179688 105.148438 16.558594 Z M 105.148438 16.558594"/><path style="stroke:none;fill-rule:nonzero;fill:#0b0b40;fill-opacity:1" d="M 134.871094 7.914062 L 134.871094 5.164062 C 134.871094 5.058594 134.953125 4.976562 135.054688 4.976562 L 137.792969 4.976562 C 137.894531 4.976562 137.980469 5.058594 137.980469 5.164062 L 137.980469 7.914062 C 137.980469 8.015625 137.894531 8.101562 137.792969 8.101562 L 135.054688 8.101562 C 134.953125 8.101562 134.871094 8.015625 134.871094 7.914062 Z M 134.871094 23.246094 L 134.871094 9.847656 C 134.871094 9.746094 134.953125 9.664062 135.054688 9.664062 L 137.792969 9.664062 C 137.894531 9.664062 137.980469 9.746094 137.980469 9.847656 L 137.980469 23.242188 C 137.980469 23.34375 137.894531 23.429688 137.792969 23.429688 L 135.054688 23.429688 C 134.953125 23.429688 134.871094 23.34375 134.871094 23.242188 Z M 134.871094 23.246094"/><path style="stroke:none;fill-rule:nonzero;fill:#5b10ff;fill-opacity:1" d="M 69.667969 5.792969 C 69.667969 5.6875 69.582031 5.605469 69.480469 5.605469 L 66.742188 5.605469 C 66.640625 5.605469 66.558594 5.6875 66.558594 5.792969 L 66.558594 23.246094 C 66.558594 23.351562 66.640625 23.433594 66.742188 23.433594 L 69.480469 23.433594 C 69.582031 23.433594 69.667969 23.351562 69.667969 23.246094 L 69.667969 18.316406 C 69.667969 17.9375 69.910156 17.601562 70.261719 17.472656 C 70.617188 17.347656 71.011719 17.464844 71.246094 17.757812 L 75.832031 23.296875 C 75.902344 23.382812 76.007812 23.433594 76.117188 23.433594 L 79.359375 23.433594 C 79.519531 23.433594 79.601562 23.246094 79.503906 23.125 L 73.726562 16.167969 L 78.574219 9.964844 C 78.671875 9.84375 78.582031 9.660156 78.429688 9.660156 L 75.378906 9.660156 C 75.269531 9.660156 75.160156 9.714844 75.089844 9.804688 L 71.246094 14.574219 C 71.011719 14.867188 70.617188 14.980469 70.261719 14.859375 C 69.910156 14.730469 69.671875 14.394531 69.671875 14.019531 L 69.671875 5.792969 Z M 69.667969 5.792969"/><path style="stroke:none;fill-rule:nonzero;fill:#0b0b40;fill-opacity:1" d="M 117.171875 9.375 C 113.039062 9.375 110.359375 12.257812 110.359375 16.558594 C 110.359375 20.863281 113.15625 23.71875 117.265625 23.71875 C 120.0625 23.71875 122.203125 22.347656 123.261719 19.875 C 123.300781 19.769531 123.25 19.648438 123.148438 19.617188 L 120.683594 18.75 C 120.589844 18.714844 120.488281 18.765625 120.449219 18.859375 C 119.941406 20.234375 118.839844 21.003906 117.3125 21.003906 C 115.164062 21.003906 113.683594 19.464844 113.609375 17.421875 L 123.515625 17.421875 C 123.613281 17.421875 123.703125 17.34375 123.707031 17.238281 C 124.011719 12.441406 121.441406 9.371094 117.167969 9.371094 Z M 113.734375 14.902344 C 113.972656 13.195312 115.285156 12.066406 117.148438 12.066406 C 119.015625 12.066406 120.257812 13.171875 120.472656 14.902344 Z M 113.734375 14.902344"/><path style="stroke:none;fill-rule:nonzero;fill:#5b10ff;fill-opacity:1" d="M 86.328125 9.375 C 82.195312 9.375 79.515625 12.257812 79.515625 16.558594 C 79.515625 20.863281 82.3125 23.71875 86.421875 23.71875 C 89.21875 23.71875 91.355469 22.347656 92.414062 19.875 C 92.457031 19.769531 92.40625 19.648438 92.304688 19.617188 L 89.839844 18.75 C 89.746094 18.714844 89.640625 18.765625 89.605469 18.859375 C 89.097656 20.234375 87.996094 21.003906 86.46875 21.003906 C 84.320312 21.003906 82.835938 19.464844 82.761719 17.421875 L 92.671875 17.421875 C 92.769531 17.421875 92.859375 17.34375 92.863281 17.238281 C 93.164062 12.441406 90.597656 9.371094 86.324219 9.371094 Z M 82.890625 14.902344 C 83.125 13.195312 84.441406 12.066406 86.304688 12.066406 C 88.167969 12.066406 89.414062 13.171875 89.628906 14.902344 Z M 82.890625 14.902344"/><path style="stroke:none;fill-rule:nonzero;fill:#5b10ff;fill-opacity:1" d="M 42.347656 20.960938 C 40.078125 20.960938 38.621094 19.230469 38.621094 16.535156 C 38.621094 13.84375 40.078125 12.136719 42.324219 12.136719 C 43.925781 12.136719 45.023438 12.992188 45.476562 14.5625 C 45.503906 14.667969 45.613281 14.726562 45.710938 14.691406 L 48.28125 13.785156 C 48.378906 13.753906 48.4375 13.636719 48.398438 13.539062 C 47.429688 10.933594 45.238281 9.371094 42.25 9.371094 C 38.210938 9.371094 35.4375 12.304688 35.4375 16.53125 C 35.4375 20.757812 38.257812 23.714844 42.296875 23.714844 C 45.21875 23.714844 47.339844 22.269531 48.371094 19.550781 C 48.40625 19.453125 48.355469 19.335938 48.253906 19.300781 L 45.703125 18.402344 C 45.605469 18.363281 45.5 18.425781 45.472656 18.527344 C 45.015625 20.09375 43.917969 20.949219 42.34375 20.949219 Z M 42.347656 20.960938"/><path style="stroke:none;fill-rule:nonzero;fill:#5b10ff;fill-opacity:1" d="M 14.628906 16.761719 C 16.289062 16.175781 16.289062 13.808594 14.628906 13.222656 L 3.125 9.179688 C 2.167969 8.84375 1.09375 9.328125 0.773438 10.300781 C -0.191406 13.222656 -0.265625 16.476562 0.757812 19.628906 C 1.078125 20.621094 2.144531 21.152344 3.128906 20.808594 L 14.632812 16.761719 Z M 14.628906 16.761719"/><path style="stroke:none;fill-rule:nonzero;fill:#5b10ff;fill-opacity:1" d="M 16.777344 0.113281 C 11.890625 -0.480469 7.40625 1.3125 4.3125 4.480469 C 3.925781 4.871094 4.070312 5.542969 4.59375 5.726562 L 6.574219 6.425781 C 7.046875 6.59375 7.582031 6.523438 7.972656 6.207031 C 9.976562 4.597656 12.539062 3.660156 15.328125 3.757812 C 21.105469 3.960938 25.902344 8.765625 26.109375 14.578125 C 26.34375 20.980469 21.25 26.246094 14.933594 26.246094 C 12.3125 26.246094 9.910156 25.332031 8.003906 23.808594 C 7.613281 23.496094 7.09375 23.382812 6.625 23.550781 L 4.59375 24.269531 C 4.070312 24.453125 3.921875 25.117188 4.308594 25.515625 C 7.011719 28.28125 10.773438 30 14.933594 30 C 23.734375 30 30.753906 22.339844 29.757812 13.289062 C 29 6.457031 23.550781 0.925781 16.777344 0.113281 Z M 16.777344 0.113281"/></g></svg>