<svg height="18" width="164" xmlns="http://www.w3.org/2000/svg"><g fill="none"><path d="M13.364 4.773L17.89 0v13.8l-4.527 4.145z" fill="#2170b8"/><path d="M6.682 7.173l2.182 1.8L11.209 6.9v6.9l-4.527 4.145z" fill="#458ac9"/><path d="M4.555 4.773L0 0v18l4.555-3.873z" fill="#73b5e3"/><path d="M160.745 15.464h2.891V2.973h-2.89v12.49zM141.11 9.027v-3.6h2.864c1.418 0 2.263.6 2.263 1.773v.027c0 1.064-.818 1.773-2.209 1.773h-2.918zm-2.89 6.437h2.89v-4.01h2.264l2.809 4.01h3.382l-3.219-4.473c1.664-.6 2.81-1.855 2.81-3.873v-.027c0-1.173-.382-2.155-1.119-2.864-.872-.818-2.154-1.282-3.818-1.282h-6v12.519zm-19.61-5.237l1.746-4.063 1.745 4.063h-3.49zm-5.182 5.237h2.946l1.2-2.81h5.563l1.2 2.81h3.028l-5.619-12.6h-2.672zm-14.782.163c2.837 0 4.828-1.39 4.828-3.872v-.028c0-2.182-1.5-3.082-4.173-3.763-2.264-.546-2.836-.819-2.836-1.637V6.3c0-.6.572-1.09 1.69-1.09 1.119 0 2.264.463 3.41 1.226l1.5-2.072c-1.337-1.01-2.973-1.582-4.882-1.582-2.673 0-4.61 1.5-4.61 3.763v.028c0 2.482 1.719 3.19 4.364 3.818 2.182.545 2.646.9 2.646 1.582V12c0 .736-.71 1.173-1.882 1.173-1.5 0-2.727-.6-3.927-1.528l-1.718 1.937c1.609 1.39 3.6 2.045 5.59 2.045m-20.672 0c2.836 0 4.827-1.39 4.827-3.872v-.028c0-2.182-1.5-3.082-4.173-3.763-2.263-.546-2.836-.819-2.836-1.637V6.3c0-.6.573-1.09 1.69-1.09 1.119 0 2.264.463 3.41 1.226l1.5-2.072c-1.336-1.01-2.973-1.582-4.882-1.582-2.673 0-4.609 1.5-4.609 3.763v.028c0 2.482 1.718 3.19 4.364 3.818 2.181.545 2.645.9 2.645 1.582V12c0 .736-.709 1.173-1.882 1.173-1.5 0-2.727-.6-3.927-1.528l-1.718 1.937c1.609 1.39 3.6 2.045 5.59 2.045M51.9 15.464h10.01v-2.455h-7.12v-2.618h6.192V7.936H54.79V5.4h7.036V2.945h-9.9v12.519zm-25.145 0h2.836v-8.1l3.654 5.29h.082l3.71-5.345v8.155H39.9V2.973h-3.11l-3.463 5.263-3.463-5.29h-3.11v12.518z" fill="#000"/></g></svg>