<svg width="24" height="24" xmlns="http://www.w3.org/2000/svg"><path d="M10 18a1 1 0 0 1 1 1v1a1 1 0 0 1-1 1H3a1 1 0 0 1-1-1v-1a1 1 0 0 1 1-1h7zm11 0a1 1 0 0 1 1 1v1a1 1 0 0 1-1 1h-7a1 1 0 0 1-1-1v-1a1 1 0 0 1 1-1h7zm-10-5a1 1 0 0 1 1 1v1a1 1 0 0 1-1 1H4a1 1 0 0 1-1-1v-1a1 1 0 0 1 1-1h7zm11 0a1 1 0 0 1 1 1v1a1 1 0 0 1-1 1h-7a1 1 0 0 1-1-1v-1a1 1 0 0 1 1-1h7zM9 8a1 1 0 0 1 1 1v1a1 1 0 0 1-1 1H2a1 1 0 0 1-1-1V9a1 1 0 0 1 1-1h7zm12 0a1 1 0 0 1 1 1v1a1 1 0 0 1-1 1h-7a1 1 0 0 1-1-1V9a1 1 0 0 1 1-1h7zM11 3a1 1 0 0 1 1 1v1a1 1 0 0 1-1 1H4a1 1 0 0 1-1-1V4a1 1 0 0 1 1-1h7z" fill="#5B10FF" fill-rule="evenodd"/></svg>