<svg xmlns="http://www.w3.org/2000/svg" id="a" viewBox="0 0 187.09 39.69"><defs><style>.b{fill:#ff00af}</style></defs><g><g><path d="M59.93,17.63c-.58-.75-1.26-1.36-2.06-1.8-1.16-.64-2.46-.97-3.89-.97-1.65,0-3.13,.37-4.42,1.09-1.3,.73-2.32,1.74-3.07,3.04-.75,1.3-1.13,2.81-1.13,4.55s.38,3.26,1.13,4.57c.75,1.31,1.77,2.33,3.07,3.06,1.3,.73,2.77,1.09,4.42,1.09,1.48,0,2.8-.33,3.96-.98,.83-.47,1.54-1.11,2.12-1.91v2.7h2.96V8.2h-3.09v9.42Zm-.72,9.09c-.5,.91-1.19,1.61-2.06,2.11-.87,.49-1.84,.74-2.91,.74s-2.07-.25-2.93-.74c-.86-.49-1.54-1.2-2.06-2.11-.51-.91-.77-1.97-.77-3.17s.26-2.28,.77-3.17c.51-.89,1.2-1.58,2.06-2.07,.86-.49,1.83-.74,2.93-.74s2.04,.25,2.91,.74c.87,.49,1.55,1.19,2.06,2.07,.5,.89,.76,1.95,.76,3.17s-.25,2.26-.76,3.17Z"/><path d="M79.31,15.96c-1.27-.73-2.72-1.09-4.38-1.09s-3.09,.37-4.39,1.11c-1.3,.74-2.32,1.76-3.06,3.07-.74,1.31-1.11,2.81-1.11,4.5s.38,3.2,1.14,4.5c.76,1.31,1.83,2.34,3.22,3.09,1.38,.75,2.99,1.13,4.81,1.13,1.42,0,2.7-.24,3.84-.71,1.15-.47,2.11-1.16,2.88-2.06l-1.71-1.99c-.62,.69-1.35,1.2-2.17,1.54-.83,.34-1.74,.51-2.75,.51-1.22,0-2.31-.25-3.25-.74-.94-.49-1.68-1.18-2.2-2.07-.39-.66-.63-1.38-.73-2.17h13.84c.02-.15,.04-.31,.05-.48,.01-.17,.02-.32,.02-.45,0-1.76-.36-3.3-1.08-4.62-.72-1.32-1.71-2.34-2.98-3.07Zm-7.24,2.24c.84-.48,1.79-.72,2.86-.72s2.05,.24,2.88,.72c.83,.48,1.47,1.15,1.95,2.01,.36,.65,.57,1.37,.65,2.16h-10.96c.09-.78,.31-1.49,.66-2.14,.47-.87,1.13-1.54,1.96-2.03Z"/><rect width="3.09" height="17.05" x="98.01" y="15.02"/><path d="M92.73,8.01c-1.8,0-3.19,.5-4.17,1.5-.98,1-1.46,2.33-1.46,4.01v1.51h-2.9v2.54h2.9v14.51h3.09v-14.51h4.89v-2.54h-4.95v-1.48c0-.99,.24-1.73,.71-2.24,.47-.5,1.16-.76,2.06-.76,.45,0,.88,.07,1.29,.21,.41,.14,.77,.34,1.09,.6l.93-2.35c-.43-.34-.95-.6-1.56-.76-.61-.16-1.25-.24-1.91-.24Z"/><path d="M110.47,18.31c.88-.49,1.88-.74,2.99-.74,.92,0,1.79,.2,2.59,.6,.8,.4,1.48,1.01,2.04,1.85l2.35-1.51c-.67-1.2-1.6-2.11-2.81-2.72-1.21-.61-2.59-.92-4.13-.92-1.74,0-3.29,.37-4.65,1.11-1.36,.74-2.43,1.76-3.2,3.07-.77,1.31-1.16,2.81-1.16,4.5s.39,3.2,1.16,4.5c.77,1.31,1.84,2.34,3.2,3.09,1.36,.75,2.91,1.13,4.65,1.13,1.54,0,2.92-.32,4.13-.95,1.21-.63,2.15-1.54,2.81-2.72l-2.35-1.48c-.56,.84-1.24,1.45-2.04,1.85-.8,.4-1.67,.6-2.59,.6-1.12,0-2.11-.25-2.99-.74-.88-.49-1.58-1.19-2.09-2.09-.51-.9-.77-1.96-.77-3.18s.26-2.28,.77-3.17c.51-.89,1.21-1.58,2.09-2.07Z"/><path d="M135.86,15.67c-1.06-.54-2.29-.8-3.68-.8-1.54,0-2.9,.31-4.05,.93-.8,.43-1.45,.99-1.96,1.65V8.2h-3.09v23.87h3.09v-8.78c0-1.24,.22-2.28,.66-3.12,.44-.84,1.07-1.47,1.88-1.9,.82-.43,1.77-.64,2.86-.64,1.46,0,2.59,.42,3.39,1.25,.8,.84,1.21,2.08,1.21,3.73v9.46h3.09v-9.81c0-1.67-.3-3.06-.9-4.15-.6-1.09-1.43-1.91-2.49-2.44Z"/><path d="M149.82,14.86c-1.35,0-2.64,.19-3.88,.56-1.23,.38-2.29,.92-3.17,1.62l1.29,2.32c.66-.56,1.48-1,2.45-1.34,.96-.33,1.95-.5,2.96-.5,1.52,0,2.66,.36,3.43,1.08,.76,.72,1.14,1.73,1.14,3.04v.61h-4.89c-1.69,0-3.04,.23-4.04,.68s-1.72,1.05-2.16,1.8c-.44,.75-.66,1.59-.66,2.51s.26,1.83,.77,2.59c.51,.76,1.25,1.36,2.2,1.79,.95,.43,2.06,.64,3.33,.64,1.57,0,2.86-.29,3.89-.88,.73-.42,1.29-.94,1.71-1.57v2.26h2.93v-10.29c0-2.34-.63-4.07-1.9-5.21-1.27-1.14-3.07-1.71-5.4-1.71Zm2.33,14.25c-.87,.51-1.88,.77-3.04,.77s-2.1-.25-2.77-.76c-.67-.5-1-1.17-1-2.01,0-.73,.27-1.35,.8-1.87,.54-.51,1.58-.77,3.12-.77h4.76v2.38c-.39,.99-1.01,1.74-1.88,2.25Z"/><rect width="3.09" height="17.05" x="161.36" y="15.02"/><path d="M184.11,18.11c-.6-1.09-1.43-1.91-2.49-2.44-1.06-.54-2.29-.8-3.68-.8-1.54,0-2.9,.31-4.05,.93-.86,.46-1.56,1.07-2.09,1.81v-2.58h-2.96v17.05h3.09v-8.78c0-1.24,.22-2.28,.66-3.12,.44-.84,1.07-1.47,1.88-1.9,.82-.43,1.77-.64,2.86-.64,1.46,0,2.59,.42,3.39,1.25,.8,.84,1.21,2.08,1.21,3.73v9.46h3.09v-9.81c0-1.67-.3-3.06-.9-4.15Z"/></g><path d="M23.9,33.16V6.53c5.73,1.71,9.92,7.03,9.92,13.32s-4.19,11.61-9.92,13.32ZM19.93,1.98v15.06l-2.27-2.27-.29-5.66,2.37-7.12c-1.52,.02-2.98,.23-4.38,.6l-1.14,3.44-3.24-1.63c-1.28,.75-2.47,1.64-3.53,2.67l6.01,3.01,.18,3.44-3.44-.18-3.01-6.01c-1.03,1.06-1.93,2.24-2.67,3.53l1.63,3.24-3.44,1.14c-.37,1.4-.59,2.87-.6,4.38l7.12-2.37,5.66,.29,2.27,2.27-2.27,2.27-5.66,.29-7.12-2.37c.02,1.52,.23,2.98,.6,4.38l3.44,1.14-1.63,3.24c.75,1.28,1.64,2.47,2.67,3.53l3.01-6.01,3.44-.18-.18,3.44-6.01,3.01c1.06,1.03,2.24,1.93,3.53,2.67l3.24-1.63,1.14,3.44c1.4,.37,2.87,.59,4.38,.6l-2.37-7.12,.29-5.66,2.27-2.27v15.06c9.87,0,17.86-8,17.86-17.86S29.79,1.98,19.93,1.98Z" class="b"/></g><g><path d="M138.72,3.92c-.34-.19-.72-.29-1.15-.29-.38,0-.72,.08-1.01,.25-.15,.09-.28,.21-.4,.34v-.53h-1.24v6.11h1.3v-2.1c.11,.12,.22,.22,.36,.3,.28,.17,.61,.25,.99,.25,.43,0,.81-.1,1.15-.29,.34-.19,.6-.46,.8-.8,.2-.34,.3-.75,.3-1.22s-.1-.87-.3-1.22c-.2-.35-.46-.61-.8-.81Zm-.38,2.69c-.1,.19-.24,.33-.41,.43-.17,.1-.36,.15-.58,.15s-.41-.05-.58-.15c-.17-.1-.31-.24-.41-.43-.1-.19-.16-.41-.16-.66s.05-.48,.16-.67c.1-.18,.24-.32,.41-.42s.37-.15,.58-.15,.41,.05,.58,.15,.31,.24,.41,.42c.1,.18,.15,.41,.15,.67s-.05,.48-.15,.66Z"/><path d="M144.05,3.93c-.37-.2-.8-.3-1.28-.3s-.9,.1-1.27,.3c-.37,.2-.66,.47-.87,.82s-.32,.75-.32,1.2,.11,.84,.32,1.19,.5,.62,.87,.82c.37,.2,.79,.3,1.27,.3s.9-.1,1.28-.3c.37-.2,.67-.47,.88-.82,.21-.34,.32-.74,.32-1.19s-.11-.85-.32-1.2c-.21-.35-.5-.62-.88-.82Zm-.28,2.69c-.1,.19-.24,.33-.41,.43s-.37,.15-.59,.15-.4-.05-.58-.15c-.17-.1-.31-.24-.41-.43-.1-.19-.15-.41-.15-.67s.05-.48,.15-.67c.1-.18,.24-.32,.41-.42,.17-.1,.37-.15,.58-.15s.41,.05,.58,.15,.31,.24,.41,.42c.1,.18,.15,.41,.15,.67s-.05,.48-.15,.67Z"/><polygon points="150.94 6.76 149.87 3.7 148.76 3.7 147.66 6.73 146.6 3.7 145.38 3.7 147 8.19 148.26 8.19 149.29 5.39 150.3 8.19 151.56 8.19 153.18 3.7 152.03 3.7 150.94 6.76"/><path d="M156.9,3.91c-.35-.19-.75-.28-1.19-.28s-.87,.1-1.23,.3c-.37,.2-.65,.47-.85,.82s-.3,.75-.3,1.19,.11,.84,.32,1.19,.51,.62,.89,.82c.38,.2,.83,.3,1.34,.3,.41,0,.77-.06,1.08-.19,.31-.12,.57-.3,.78-.54l-.69-.75c-.15,.14-.32,.25-.5,.33-.18,.07-.39,.11-.62,.11-.27,0-.51-.05-.7-.15-.2-.1-.35-.24-.46-.42-.06-.1-.1-.21-.13-.33h3.39c0-.06,.01-.12,.02-.18,0-.06,0-.12,0-.17,0-.48-.1-.9-.31-1.24-.21-.34-.49-.61-.84-.8Zm-1.77,.85c.17-.1,.37-.15,.59-.15s.42,.05,.58,.15,.3,.23,.39,.41c.06,.11,.09,.24,.11,.38h-2.19c.02-.14,.06-.27,.12-.38,.09-.17,.23-.31,.4-.41Z"/><path d="M159.95,4.32v-.62h-1.24v4.49h1.3v-2.12c0-.43,.11-.75,.33-.95,.22-.21,.51-.31,.88-.31,.04,0,.09,0,.14,0,.05,0,.1,.01,.15,.02v-1.21c-.42,0-.78,.08-1.08,.25-.2,.11-.34,.27-.47,.44Z"/><path d="M165.14,3.91c-.35-.19-.75-.28-1.19-.28s-.87,.1-1.23,.3c-.37,.2-.65,.47-.85,.82s-.3,.75-.3,1.19,.11,.84,.32,1.19,.51,.62,.89,.82c.38,.2,.83,.3,1.34,.3,.41,0,.77-.06,1.08-.19,.31-.12,.57-.3,.78-.54l-.69-.75c-.15,.14-.32,.25-.5,.33-.18,.07-.39,.11-.62,.11-.27,0-.51-.05-.7-.15-.2-.1-.35-.24-.46-.42-.06-.1-.1-.21-.13-.33h3.39c0-.06,.01-.12,.02-.18,0-.06,0-.12,0-.17,0-.48-.1-.9-.31-1.24-.21-.34-.49-.61-.84-.8Zm-1.77,.85c.17-.1,.37-.15,.59-.15s.42,.05,.58,.15,.3,.23,.39,.41c.06,.11,.09,.24,.11,.38h-2.19c.02-.14,.06-.27,.12-.38,.09-.17,.23-.31,.4-.41Z"/><path d="M170.39,4.17c-.1-.11-.22-.21-.35-.29-.28-.17-.62-.25-.99-.25-.42,0-.8,.1-1.14,.29-.34,.19-.61,.46-.8,.81-.2,.34-.29,.75-.29,1.22s.1,.88,.29,1.22c.19,.35,.46,.61,.8,.81,.34,.19,.72,.29,1.14,.29,.4,0,.73-.08,1.02-.25,.15-.09,.28-.2,.39-.34v.52h1.25V1.99h-1.3v2.18Zm-.13,2.44c-.1,.19-.24,.33-.41,.43-.17,.1-.37,.15-.58,.15s-.4-.05-.58-.15c-.17-.1-.31-.24-.41-.43-.1-.19-.15-.41-.15-.67s.05-.48,.15-.67c.1-.18,.24-.32,.41-.42,.17-.1,.36-.15,.58-.15s.41,.05,.58,.15c.17,.1,.31,.24,.41,.42,.1,.18,.15,.41,.15,.67s-.05,.48-.15,.67Z"/><path d="M178.69,3.92c-.34-.19-.72-.29-1.15-.29-.37,0-.7,.08-.99,.25-.13,.08-.25,.18-.36,.3V1.99h-1.3v6.2h1.24v-.52c.11,.14,.24,.26,.4,.34,.29,.16,.62,.25,1.01,.25,.43,0,.81-.1,1.15-.29,.34-.19,.6-.46,.8-.81,.2-.34,.3-.75,.3-1.22s-.1-.87-.3-1.22c-.2-.35-.46-.61-.8-.81Zm-.38,2.69c-.1,.19-.24,.33-.41,.43s-.36,.15-.58,.15-.41-.05-.58-.15-.31-.24-.41-.43c-.1-.19-.16-.41-.16-.67s.05-.48,.16-.67c.1-.18,.24-.32,.41-.42s.37-.15,.58-.15,.41,.05,.58,.15,.31,.24,.41,.42c.1,.18,.15,.41,.15,.67s-.05,.48-.15,.67Z"/><path d="M183.71,3.7l-1.28,3.05-1.26-3.05h-1.34l1.94,4.53-.02,.04c-.09,.2-.19,.34-.3,.43-.11,.09-.25,.13-.43,.13-.13,0-.27-.03-.4-.08s-.25-.12-.35-.22l-.48,.94c.15,.13,.34,.23,.57,.3,.23,.07,.46,.11,.68,.11,.27,0,.52-.04,.75-.13,.23-.08,.43-.23,.62-.43s.35-.49,.5-.86l2.03-4.77h-1.24Z"/></g></svg>