<?xml version="1.0" encoding="utf-8"?>
<!-- Generator: Adobe Illustrator 27.0.0, SVG Export Plug-In . SVG Version: 6.00 Build 0)  -->
<svg width="1000" height="188.4" version="1.1" id="Layer_1" xmlns="http://www.w3.org/2000/svg" xmlns:xlink="http://www.w3.org/1999/xlink" x="0px" y="0px"
	 viewBox="0 0 1000 188.4" style="enable-background:new 0 0 1000 188.4;" xml:space="preserve">
<style type="text/css">
	.st0{fill:#FF00AF;}
</style>
<g id="Primary">
	<path class="st0" d="M686,0v79.4l-12-12l-1.5-29.8L685,0.1l-1.8,0c-7.2,0.2-14.3,1.3-21.3,3.1l-6,18.1l-17.1-8.6l-1.6,0.9
		c-6.2,3.7-11.9,8.1-17,13.2l31.7,15.9l0.9,18.2L634.6,60l-15.9-31.7l-1.2,1.3c-4.9,5.3-9.2,11.1-12.9,17.3l8.6,17.1l-18.1,6
		l-0.4,1.7c-1.7,6.9-2.7,14-2.7,21.4l37.5-12.5l29.8,1.5l12,12l-12,12l-29.8,1.5l-37.5-12.5l0,1.8c0.2,7.2,1.3,14.3,3.1,21.3l18.1,6
		l-8.6,17.1l0.9,1.6c3.7,6.2,8.1,11.9,13.2,17l15.9-31.7l18.2-0.9l-0.9,18.2l-31.7,15.9l1.3,1.2c5.3,4.9,11.1,9.2,17.3,12.9
		l17.1-8.6l6,18.1l1.7,0.4c7,1.7,14.2,2.7,21.4,2.7l-12.5-37.5l1.5-29.8l12-12v79.4l1.6,0c51.3-0.8,92.6-42.7,92.6-94.2
		C780.2,42.2,738,0,686,0z M707,164.4V24l1,0.3c29.7,9.3,51.3,37.1,51.3,69.9C759.3,127.3,737.2,155.4,707,164.4z"/>
	<rect x="979.1" y="15.8" class="st0" width="20.9" height="157"/>
	<polygon class="st0" points="890.1,172.7 911.1,172.7 911.1,104.7 947.7,104.7 947.7,83.8 911.1,83.8 911.1,36.7 958.1,36.7 
		958.1,15.8 890.1,15.8 	"/>
	<polygon class="st0" points="801.2,172.7 869.2,172.7 869.2,151.8 822.1,151.8 822.1,104.7 858.7,104.7 858.7,83.8 822.1,83.8 
		822.1,36.7 869.2,36.7 869.2,15.8 801.2,15.8 	"/>
	<path d="M27.1,53.3H0v79.4h10.2v-32.2h16.9c6.9,0,12.8-2.3,17.5-6.8c4.9-4.5,7.3-10.1,7.3-16.9c0-6.6-2.4-12.2-7.3-16.7
		C39.8,55.6,33.9,53.3,27.1,53.3z M37.4,86.6c-2.7,2.7-6,4.1-10.1,4.1H10.2V63h17.1c4.1,0,7.4,1.4,10.1,4.2c2.7,2.7,4.1,6,4.1,9.6
		C41.5,80.7,40.1,83.9,37.4,86.6z"/>
	<path d="M81.7,76.6c-8.1,0-14.7,2.7-20.1,8.2c-5.2,5.5-7.9,12.4-7.9,20.7s2.6,15.3,7.9,20.7c5.3,5.5,12,8.2,20.1,8.2
		s14.7-2.7,20-8.2c5.3-5.4,8-12.3,8-20.7c0-8.4-2.7-15.3-8-20.7C96.4,79.3,89.8,76.6,81.7,76.6z M94.3,119.7
		c-3.4,3.6-7.6,5.4-12.6,5.4c-5,0-9.2-1.8-12.6-5.4c-3.4-3.6-5.1-8.4-5.1-14.2c0-5.8,1.7-10.5,5.1-14.1c3.5-3.7,7.7-5.5,12.6-5.5
		c5,0,9.2,1.8,12.6,5.5c3.4,3.6,5.1,8.3,5.1,14.1C99.4,111.3,97.7,116.1,94.3,119.7z"/>
	<polygon points="172.4,119.3 172.3,119.3 158.9,78.3 148.3,78.3 134.9,119.3 134.8,119.3 122.7,78.3 112.1,78.3 129.6,132.6 
		139.9,132.6 153.3,91 166.9,132.6 177.3,132.6 194.8,78.3 184.4,78.3 	"/>
	<path d="M224.1,76.6c-7.8,0-14.3,2.8-19.3,8.3c-5,5.5-7.5,12.4-7.5,20.7c0,8.4,2.6,15.3,7.8,20.7c5.2,5.5,11.8,8.2,19.7,8.2
		c5.5,0,10.4-1.3,14.7-3.9c4.3-2.6,7.7-6.2,10.1-10.8l-9.1-4.4c-3.7,6.5-8.8,9.8-15.3,9.8c-4.7,0-8.8-1.6-12.2-4.9
		s-5.2-7.5-5.3-12.9h42.7l0.1-1.1c0-9.4-2.4-16.7-7.2-21.9C238.5,79.2,232.1,76.6,224.1,76.6z M208.4,98.9c0.9-4,2.7-7.2,5.5-9.5
		c2.8-2.4,6.1-3.5,9.9-3.5c4.7,0,8.4,1.2,11.1,3.7c2.8,2.5,4.3,5.6,4.6,9.4H208.4z"/>
	<path d="M276.3,79.8c-3.2,2-5.3,4.5-6.4,7.4h-0.4v-8.9h-9.8v54.3H270v-29.9c0-4.1,1.4-7.8,4.3-10.9c2.8-3.1,6.2-4.7,10-4.7
		c2.7,0,4.7,0.3,6,0.8l3.1-9.9c-2.1-0.9-4.6-1.3-7.5-1.3C282.7,76.8,279.5,77.8,276.3,79.8z"/>
	<path d="M320.4,76.6c-7.8,0-14.3,2.8-19.3,8.3s-7.5,12.4-7.5,20.7c0,8.4,2.6,15.3,7.8,20.7c5.2,5.5,11.8,8.2,19.7,8.2
		c5.5,0,10.4-1.3,14.7-3.9c4.3-2.6,7.7-6.2,10.1-10.8l-9.1-4.4c-3.7,6.5-8.8,9.8-15.3,9.8c-4.7,0-8.8-1.6-12.2-4.9
		s-5.2-7.5-5.3-12.9h42.7l0.1-1.1c0-9.4-2.4-16.7-7.2-21.9C334.9,79.2,328.5,76.6,320.4,76.6z M304.8,98.9c0.9-4,2.7-7.2,5.5-9.5
		c2.8-2.4,6.1-3.5,9.9-3.5c4.7,0,8.4,1.2,11.1,3.7c2.8,2.5,4.3,5.6,4.6,9.4H304.8z"/>
	<path d="M397.9,78.3l0.4,7.5h-0.4c-1.8-2.8-4.3-5.1-7.6-6.8c-3.3-1.7-6.9-2.6-10.9-2.6c-7.1,0-13.2,2.8-18.3,8.4
		c-5,5.7-7.5,12.5-7.5,20.5s2.5,14.8,7.5,20.5c5.1,5.6,11.2,8.4,18.3,8.4c4,0,7.6-0.8,10.9-2.5c3.3-1.7,5.8-4,7.6-6.8h0.4v7.5h9.8
		V53.3h-10.2V78.3z M393.4,119.7c-3.2,3.6-7.3,5.4-12.3,5.4c-4.9,0-9-1.8-12.3-5.5c-3.3-3.6-5-8.3-5-14.1c0-5.7,1.7-10.4,5-14.1
		c3.3-3.7,7.4-5.5,12.3-5.5c5,0,9.1,1.8,12.3,5.5c3.3,3.7,5,8.4,5,14.1C398.3,111.3,396.7,116.1,393.4,119.7z"/>
	<path d="M473.6,76.6c-4,0-7.6,0.9-10.9,2.6c-3.3,1.7-5.8,4-7.6,6.8h-0.4l0.4-7.5V53.3h-10.2v79.4h9.8v-7.5h0.4
		c1.8,2.8,4.3,5.1,7.6,6.8c3.3,1.7,6.9,2.5,10.9,2.5c7.2,0,13.2-2.8,18.2-8.4c5.1-5.6,7.6-12.5,7.6-20.5c0-8-2.6-14.8-7.6-20.5
		C486.8,79.4,480.8,76.6,473.6,76.6z M484.3,119.6c-3.3,3.7-7.4,5.5-12.3,5.5c-5,0-9.1-1.8-12.4-5.4c-3.3-3.7-4.9-8.4-4.9-14.2
		c0-5.7,1.6-10.4,4.9-14.1c3.3-3.7,7.5-5.5,12.4-5.5c4.9,0,9,1.8,12.3,5.5c3.3,3.7,5,8.4,5,14.1
		C489.2,111.3,487.6,115.9,484.3,119.6z"/>
	<polygon points="528.3,117.4 528,117.4 511.9,78.3 500.8,78.3 523.2,129.2 510.5,156.6 521.1,156.6 555.1,78.3 544,78.3 	"/>
</g>
</svg>
