<svg width="138" height="24" xmlns="http://www.w3.org/2000/svg"><g fill="none" fill-rule="evenodd"><path d="M1.986 16.744a1.505 1.505 0 0 1-1.441-1.067 12.666 12.666 0 0 1 0-7.355 1.51 1.51 0 0 1 1.94-.983l9.304 3.245a1.5 1.5 0 0 1-.001 2.832L2.483 16.66a1.506 1.506 0 0 1-.497.084" fill="#5B10FF"/><path d="M3.782 4.793l1.32.46c.392.137.953.012 1.276-.248A8.99 8.99 0 0 1 12.044 3c4.981 0 9.033 4.037 9.033 9s-4.052 9-9.033 9a8.996 8.996 0 0 1-5.667-2.005c-.323-.261-.883-.385-1.276-.248l-1.319.46c-.59.205-.75.765-.312 1.208A12.026 12.026 0 0 0 12.044 24c6.641 0 12.044-5.383 12.044-12S18.685 0 12.044 0A12.022 12.022 0 0 0 3.47 3.585c-.438.442-.277 1.003.312 1.208" fill="#5B10FF"/><path d="M102.861 18.636c0 .6.488 1.086 1.09 1.086h9.115c.3 0 .544-.243.544-.542v-1.087c0-.3-.244-.543-.544-.543h-8.025v-4.474h5.844a.544.544 0 0 0 .545-.544v-1.086c0-.3-.244-.543-.545-.543h-5.844V6.648h8.025c.3 0 .544-.244.544-.544V5.018c0-.3-.244-.543-.544-.543h-9.115c-.602 0-1.09.487-1.09 1.086v13.075zm-9.336-1.086h-3.09V6.43h3.09c1.004 0 4.057 0 4.057 5.56s-3.053 5.56-4.057 5.56m0-13.293h-4.18c-.602 0-1.09.486-1.09 1.086v13.293c0 .6.488 1.086 1.09 1.086h4.18c2.33 0 6.237-1.004 6.237-7.732 0-6.73-3.907-7.733-6.237-7.733m23.436 15.465h2.18v-6.646h5.603a.544.544 0 0 0 .545-.544v-1.086c0-.3-.244-.543-.545-.543h-5.603V6.647h7.783a.544.544 0 0 0 .545-.543V5.018c0-.3-.243-.543-.545-.543h-8.873c-.602 0-1.09.486-1.09 1.086v14.16z" fill="#000"/><path d="M40.055 14.824l-.214.5c-.675 1.578-1.862 2.379-3.529 2.379-2.79 0-3.644-2.059-3.868-3.787a1.957 1.957 0 0 0-.022-.116c-.067-.292-.131-1.718-.131-2.38 0-1.913.522-5.123 4.021-5.123 1.687 0 2.773.716 3.416 2.251l.21.502a.545.545 0 0 0 .713.29l1.007-.417a.542.542 0 0 0 .293-.71l-.21-.501c-.984-2.347-2.86-3.587-5.429-3.587-3.826 0-6.202 2.796-6.202 7.296 0 .02.019 2.053.177 2.823.477 3.527 2.727 5.63 6.025 5.63 2.55 0 4.515-1.313 5.535-3.698l.213-.5a.542.542 0 0 0-.288-.712l-1.003-.427a.546.546 0 0 0-.714.287m33.551-4.02v7.733c0 .6.488 1.087 1.09 1.087h9.114a.544.544 0 0 0 .545-.544v-1.086c0-.3-.244-.543-.545-.543h-8.024v-4.474h5.844a.544.544 0 0 0 .545-.543v-1.086c0-.3-.244-.543-.545-.543h-5.844V6.548h8.024a.544.544 0 0 0 .545-.542V4.92c0-.3-.244-.543-.545-.543h-9.114c-.602 0-1.09.486-1.09 1.086v5.343zM61.828 19.06v-3.721l2.386-2.75 4.384 6.563c.167.249.547.452.847.452h1.53c.3 0 .41-.203.243-.452l-5.528-8.272 5.212-6.09c.195-.227.109-.413-.191-.413H68.93a1.35 1.35 0 0 0-.9.414l-6.202 7.225V4.92c0-.3-.244-.543-.545-.543h-1.09a.544.544 0 0 0-.545.543v14.14c0 .3.244.544.545.544h1.09a.544.544 0 0 0 .545-.544M50.305 6.593h.038l2.253 6.76h-4.533l2.242-6.76zm-3.058 9.217l.095-.286h5.978l1.187 3.563a.806.806 0 0 0 .717.516h1.207c.301 0 .468-.231.374-.516l-4.64-13.922a1.09 1.09 0 0 0-1.035-.745h-1.613c-.47 0-.888.301-1.035.746l-4.618 13.92c-.095.286.073.517.374.517h1.206a.805.805 0 0 0 .717-.516l1.086-3.277z" fill="#5B10FF"/><path d="M137 5.93v-.912c0-.3-.244-.543-.546-.543h-5.536c-.3 0-.545.243-.545.543v.912c0 .3.244.543.545.543h1.678v11.251h-1.678c-.3 0-.545.243-.545.542v.913c0 .3.244.543.545.543h5.536a.545.545 0 0 0 .546-.543v-.913c0-.299-.244-.542-.546-.542h-1.678V6.474h1.678A.545.545 0 0 0 137 5.93" fill="#000"/></g></svg>