<svg width="114" height="30" xmlns="http://www.w3.org/2000/svg" xmlns:xlink="http://www.w3.org/1999/xlink"><defs><path id="a" d="M0 0L30.0097773 0 30.0097773 29.9995556 0 29.9995556z"/><path id="c" d="M0.837784098 0.1325L8.51 0.1325 8.51 8.14175741 0.837784098 8.14175741z"/></defs><g fill="none" fill-rule="evenodd"><mask id="b" fill="#fff"><use xlink:href="#a"/></mask><path d="M22.06 14.266c-.021.247.19.572.574.585a.59.59 0 0 0 .589-.572.578.578 0 0 0-.562-.597.574.574 0 0 0-.6.584m-9.023-5.36a2.67 2.67 0 0 0-2.686 2.681 2.677 2.677 0 0 0 2.686 2.686c1.42 0 2.686-1.113 2.685-2.686a2.66 2.66 0 0 0-2.685-2.682m12.212 6.736c.005-.025.022-.057.013-.074-.025-.044-.056-.01-.08.008a7.311 7.311 0 0 1-1.216.753c-.635.322-1.294.588-1.968.821-.55.19-1.112.332-1.68.455-.568.122-1.147.178-1.725.212-.606.036-1.214.023-1.814-.094a4.831 4.831 0 0 1-.874-.246c-.203-.08-.393-.184-.588-.28-.034-.016-.068-.056-.115-.009.239.312.564.513.906.682.52.256 1.08.381 1.654.418a6.644 6.644 0 0 0 1.554-.084c.54-.093 1.07-.212 1.593-.372.982-.3 1.934-.669 2.828-1.18.407-.235.802-.484 1.18-.762.11-.082.199-.195.33-.247.008.087-.05.147-.097.206-.132.161-.264.323-.41.472-.376.385-.765.76-1.14 1.146-.473.485-.987.927-1.448 1.426-.39.421-.792.83-1.16 1.27-.221.267-.456.523-.67.798-.573.742-1.116 1.506-1.577 2.326a11.359 11.359 0 0 0-1.105 2.663 7.233 7.233 0 0 0-.213 1.23 8.829 8.829 0 0 0-.003 1.172c.005.103.033.203.069.301.035-.002.06 0 .085-.005a17.9 17.9 0 0 0 1.139-.266c.86-.23 1.682-.554 2.477-.947a13.208 13.208 0 0 0 1.937-1.173c.379-.276.753-.56 1.096-.88.57-.535 1.126-1.085 1.613-1.7.49-.623.935-1.275 1.317-1.969.528-.963.949-1.97 1.232-3.034a13.044 13.044 0 0 0 .416-2.274c.04-.44.055-.883.082-1.324.014-.242-.023-.485-.032-.727a13.023 13.023 0 0 0-.161-1.577c-.105-.66-.254-1.31-.456-1.948a14.12 14.12 0 0 0-1.38-3.028 13.284 13.284 0 0 0-1.52-2.046 13.93 13.93 0 0 0-5.33-3.688 13.825 13.825 0 0 0-3.505-.843 14.237 14.237 0 0 0-1.167-.083 10.184 10.184 0 0 0-1.197.028c-.301.028-.606.045-.907.08-.5.057-.993.153-1.482.27-.915.221-1.797.533-2.65.931-.432.203-.852.43-1.261.678a14.409 14.409 0 0 0-2.42 1.846c-.474.447-.9.94-1.31 1.447a13.09 13.09 0 0 0-1.28 1.93 13.482 13.482 0 0 0-1.06 2.488c-.182.59-.334 1.185-.432 1.795-.04.248-.075.496-.11.745-.04.293-.07.587-.08.88-.026.816-.023 1.631.087 2.444.067.49.143.977.255 1.46.186.803.439 1.586.773 2.344.34.773.733 1.517 1.204 2.218.03.046.049.113.116.124.05-.019.06-.064.077-.103.133-.339.274-.676.397-1.019.232-.646.418-1.306.557-1.978.143-.696.263-1.396.342-2.103.02-.19.026-.382.06-.568.045-.249.045-.5.08-.75a16.8 16.8 0 0 0 .106-1.165c.028-.433.067-.865.105-1.296.043-.476.115-.947.227-1.41a5.704 5.704 0 0 1 .778-1.838A5.45 5.45 0 0 1 7.34 9.45a8.083 8.083 0 0 1 1.589-1.037c.669-.335 1.373-.585 2.087-.807a5.312 5.312 0 0 1 1.299-.256c.484-.024.97-.034 1.456.032.387.053.773.107 1.153.198.069.016.137.014.206.016.073.081.179.053.268.075.7.168 1.389.37 2.064.618.439.162.878.324 1.292.544.054.028.105.064.17.061.077.04.152.082.232.114.347.137.696.271 1.043.406.663.258 1.336.49 2.02.683a9.848 9.848 0 0 1 1.985.771c.462.247.889.542 1.246.93.633.687.832 1.485.593 2.386-.135.51-.38.967-.69 1.391-.027.037-.053.068-.103.067M14.996 30C6.919 30.044-.007 23.47 0 14.98.007 6.693 6.739-.075 15.144.001 23.5.075 30.036 6.91 30.01 15.051 29.983 23.328 23.214 30.047 14.996 30" fill="#8CC540" mask="url(#b)"/><path d="M80.124 11.771c-.079.003-.13.008-.182.008h-1.408c-.043 0-.087.001-.13-.002-.049-.003-.08-.03-.089-.078-.007-.034-.01-.069-.018-.103a2.188 2.188 0 0 0-1.173-1.544c-.62-.324-1.283-.412-1.974-.317a2.719 2.719 0 0 0-1.568.756c-.27.263-.482.57-.646.908-.23.474-.364.975-.432 1.496a5.935 5.935 0 0 0 .11 2.174c.13.538.34 1.04.677 1.483.52.685 1.218 1.044 2.068 1.112.4.031.798.01 1.191-.084 1-.239 1.618-.866 1.89-1.846.066-.234.101-.476.116-.719.012-.207.01-.207-.187-.21h-2.477c-.094-.004-.108-.018-.114-.103v-.078c0-.339-.002-.678 0-1.018 0-.203.002-.204.196-.206h3.912l.21.001c.13.004.138.015.143.155v5.086c0 .316.034.282-.272.284h-.757c-.116.001-.154 0-.186-.157-.063-.315-.139-.627-.21-.94-.016-.068-.06-.079-.11-.03-.125.122-.244.25-.37.368-.522.483-1.12.818-1.827.941a5.04 5.04 0 0 1-1.117.068 5.154 5.154 0 0 1-1.48-.279c-1.085-.385-1.908-1.087-2.49-2.073a5.746 5.746 0 0 1-.748-2.233 6.75 6.75 0 0 1 .17-2.662c.265-.967.736-1.816 1.48-2.5a4.531 4.531 0 0 1 2.355-1.15 5.54 5.54 0 0 1 2.924.26c.743.277 1.363.723 1.83 1.372.392.548.608 1.164.693 1.86m-31.38-.023c-.036.032-.08.03-.123.03h-1.59c-.11-.004-.11-.004-.145-.107-.05-.14-.094-.28-.15-.417a2.6 2.6 0 0 0-.477-.771 2.28 2.28 0 0 0-1.272-.715 3.245 3.245 0 0 0-1.747.109c-.596.209-1.054.597-1.4 1.12a3.93 3.93 0 0 0-.545 1.289c-.251 1.08-.232 2.154.12 3.212.178.535.454 1.014.865 1.407.407.39.892.623 1.447.719.417.072.832.074 1.243-.025.779-.19 1.316-.674 1.662-1.386.16-.33.257-.681.312-1.044.008-.051.01-.104.02-.155.009-.046.039-.078.089-.081.043-.004.087-.005.129-.005h1.461c.105.007.125.027.123.122l-.004.052c-.066.682-.24 1.333-.58 1.932-.616 1.08-1.543 1.752-2.75 2.02a5.063 5.063 0 0 1-3.165-.283c-.864-.37-1.54-.966-2.052-1.75a5.618 5.618 0 0 1-.82-2.096 6.642 6.642 0 0 1 .196-3.246c.288-.903.765-1.691 1.483-2.321a4.564 4.564 0 0 1 2.354-1.091c1.019-.16 2.01-.061 2.965.333.838.346 1.496.905 1.932 1.71.212.392.405.996.419 1.438m56.313-.361c-.062.063-.127.133-.195.198l-2.427 2.328c-.056.054-.113.107-.168.164-.032.034-.04.075-.011.118l.13.195 2.868 4.322c.037.056.073.114.106.166-.032.067-.081.047-.12.047-.573.002-1.146-.002-1.72.004a.281.281 0 0 1-.272-.15c-.542-.87-1.09-1.736-1.635-2.603l-.501-.794c-.023-.036-.051-.07-.075-.1-.081.02-.12.08-.17.127-.225.216-.445.439-.675.65a.445.445 0 0 0-.155.364c.006.738.003 1.477.002 2.216 0 .319.036.287-.297.287-.418.002-.835.002-1.252 0-.12-.001-.13-.015-.133-.138-.002-.061-.001-.122-.001-.183v-9.83c0-.087.003-.174.008-.26.002-.038.029-.062.068-.066.034-.004.068-.004.103-.004h1.33c.035 0 .069.002.104.006.039.005.063.03.065.069.003.077.005.156.005.234v5.267c0 .087.005.174.006.26 0 .022.008.036.029.036a.086.086 0 0 0 .045-.011c.02-.015.038-.035.056-.054l1.796-1.818c.323-.328.647-.656.967-.986a.32.32 0 0 1 .25-.111c.592.003 1.183.002 1.774.002.034 0 .068 0 .095.048m-19.801 3.072h1.25c.19 0 .381 0 .572-.002.099-.002.121-.03.112-.128a2.262 2.262 0 0 0-.288-.912c-.44-.78-1.275-1.134-2.156-.882-.766.22-1.199.757-1.382 1.515-.025.1-.035.205-.047.308-.007.06.026.094.09.099.052.003.104.002.157.002h1.692zm.842 1.116h-2.502c-.07 0-.139 0-.209.005-.051.002-.072.032-.075.084-.007.149.025.295.048.44a2.2 2.2 0 0 0 .228.689c.276.525.706.85 1.287.968.335.068.674.06 1.009-.008.569-.116.98-.443 1.205-.974.083-.195.18-.256.383-.247.4.017.8.005 1.2.007.089 0 .108.026.086.11-.259 1.008-.861 1.73-1.807 2.159a3.765 3.765 0 0 1-1.491.325A4.317 4.317 0 0 1 84.246 19c-1.112-.295-1.869-.99-2.298-2.051a4.332 4.332 0 0 1-.289-1.212c-.076-.79-.011-1.562.289-2.304.218-.54.529-1.017.962-1.41.668-.603 1.462-.886 2.356-.893 1.025-.006 1.903.348 2.609 1.1.443.472.733 1.032.9 1.654.126.474.171.957.131 1.447-.021.25 0 .244-.253.243H86.098zm-30.27-.424c.01-.59-.101-1.137-.383-1.643-.32-.572-.793-.938-1.452-1.026-.711-.096-1.324.098-1.807.645a2.324 2.324 0 0 0-.393.64c-.246.584-.306 1.193-.237 1.815.04.355.13.699.287 1.023.345.713.893 1.14 1.698 1.195.552.037 1.049-.107 1.466-.484.242-.22.42-.486.549-.784.193-.445.282-.91.273-1.381m-2.191-4.02c.509.002.966.053 1.407.2 1.119.37 1.853 1.129 2.23 2.237a4.85 4.85 0 0 1 .23 1.903c-.03.463-.11.914-.275 1.348-.43 1.127-1.217 1.862-2.387 2.17a4.445 4.445 0 0 1-2.421-.026c-1.191-.35-1.96-1.145-2.347-2.316a4.766 4.766 0 0 1-.224-1.49c-.001-.568.067-1.127.266-1.664.48-1.295 1.408-2.05 2.762-2.297.267-.048.536-.05.759-.065" fill="#4E4E4E"/><g transform="translate(105 11)"><mask id="d" fill="#fff"><use xlink:href="#c"/></mask><path d="M6.83 4.154c-.012-.5-.08-.925-.244-1.33a2.31 2.31 0 0 0-.67-.946c-.756-.622-2.142-.608-2.847.382a2.666 2.666 0 0 0-.3.546 3.472 3.472 0 0 0-.222.88 3.563 3.563 0 0 0 .22 1.764c.112.287.268.546.481.768.347.362.774.55 1.272.582.533.035 1.016-.095 1.43-.444a2.24 2.24 0 0 0 .582-.79c.21-.458.284-.944.298-1.412M4.601.133c.528 0 .967.05 1.393.184 1.061.336 1.794 1.028 2.202 2.06.28.708.357 1.447.293 2.202-.04.478-.138.944-.327 1.386-.478 1.122-1.318 1.806-2.505 2.066a4.505 4.505 0 0 1-2.09-.026c-1.264-.32-2.092-1.12-2.499-2.352C.835 4.95.794 4.226.878 3.492c.047-.417.143-.82.31-1.207C1.693 1.117 2.588.438 3.83.204c.11-.022.222-.04.334-.049.174-.013.348-.017.438-.021" fill="#4E4E4E" mask="url(#d)"/></g><path d="M62.44 15.132v-3.495c0-.07 0-.14.002-.21 0-.05.027-.08.078-.083.043-.005.087-.005.13-.005h1.173c.044 0 .087 0 .13.003.052.005.077.037.078.086.003.061.003.122.003.183v.625c0 .044.007.087.012.13 0 .007.008.018.013.018.015.002.038.005.045-.004.034-.039.065-.08.096-.123.432-.585 1.004-.96 1.72-1.08.657-.11 1.303-.047 1.912.239.566.264.937.705 1.13 1.298.097.3.146.608.146.922v5.06c0 .23.017.231-.224.23h-1.226c-.052 0-.104 0-.156-.004-.038-.003-.063-.027-.064-.067a6.14 6.14 0 0 1-.005-.235v-4.277a3.506 3.506 0 0 0-.088-.854 2 2 0 0 0-.11-.319c-.162-.368-.45-.585-.841-.668a1.941 1.941 0 0 0-.7-.029c-.766.121-1.246.572-1.477 1.3a2.61 2.61 0 0 0-.104.797c.002 1.34.003 2.678 0 4.017-.001.398.06.335-.347.338-.347.005-.695.002-1.043.002l-.182-.002c-.06 0-.1-.024-.1-.09l-.001-.209v-3.495zm33.658-1.252c-.234 0-.469.002-.704 0-.106-.002-.112-.01-.139-.114-.01-.042-.02-.085-.032-.127-.18-.641-.607-1.01-1.255-1.14a2.183 2.183 0 0 0-1.056.053 1.746 1.746 0 0 0-.982.732 2.114 2.114 0 0 0-.269.563 4.403 4.403 0 0 0-.05 2.417c.07.27.184.523.344.755.39.565.937.815 1.61.783.753-.036 1.264-.428 1.55-1.122.065-.161.11-.328.143-.5.02-.098.035-.111.142-.111.478-.002.956-.001 1.434 0 .1 0 .117.02.098.129-.105.626-.317 1.209-.702 1.72-.39.517-.903.864-1.52 1.045a4.29 4.29 0 0 1-2.367.024c-1.05-.285-1.782-.944-2.207-1.94-.306-.718-.39-1.474-.335-2.247a4.807 4.807 0 0 1 .34-1.52c.313-.755.811-1.35 1.543-1.734a3.528 3.528 0 0 1 1.265-.382c.635-.07 1.267-.04 1.884.145.534.16 1.008.422 1.391.834.431.463.653 1.018.72 1.64.007.069-.017.096-.09.096-.252.002-.504 0-.756 0zm-35.475 1.269v3.546c0 .24.015.232-.22.232h-1.252c-.22 0-.207-.003-.207-.22V11.67v-.157c.004-.158.01-.17.156-.17h1.408c.092.007.11.02.114.105.002.078.001.157.001.235v3.467zm-.867-5.105l-.703-.001c-.084-.001-.107-.025-.107-.111-.002-.46-.002-.92 0-1.38 0-.082.025-.105.111-.106h1.457c.083 0 .107.024.107.11.002.46.002.92 0 1.38 0 .082-.027.107-.111.107-.252.002-.503 0-.755 0" fill="#4E4E4E"/><path d="M16.578 1.914a5.867 5.867 0 0 0-1.108.06c-.138.023-.239.076-.21.109.053.064.134.073.21.086.57.104 1.136.229 1.698.373.495.128.985.272 1.468.442.532.187 1.055.396 1.581.599.527.204 1.048.419 1.545.686.422.227.825.485 1.181.806.536.483 1.03 1.007 1.43 1.613.2.305.4.609.596.916.462.727.871 1.482 1.208 2.275.346.814.67 1.637.93 2.484.293.954.513 1.925.697 2.905.038.204.073.408.112.612.007.038.036.062.074.053.021-.005.038-.031.054-.05.006-.005.005-.015.006-.024.036-.336.084-.671.105-1.007.036-.573-.014-1.145-.05-1.716l-.004-.026c-.068-.366-.113-.736-.19-1.1a10.313 10.313 0 0 0-.824-2.433 12.666 12.666 0 0 0-1.414-2.272c-.428-.541-.92-1.018-1.424-1.483-.4-.371-.828-.714-1.249-1.062a69.98 69.98 0 0 0-1.434-1.164 7.644 7.644 0 0 0-1.105-.733 7.65 7.65 0 0 0-1.944-.727c-.54-.124-1.086-.22-1.644-.222h-.295zm8.671 13.728c.05 0 .077-.031.103-.067.31-.425.556-.883.69-1.392.24-.901.04-1.698-.592-2.385-.357-.388-.784-.684-1.247-.93a9.843 9.843 0 0 0-1.984-.772 22.112 22.112 0 0 1-2.02-.682c-.348-.136-.697-.27-1.043-.406-.08-.032-.156-.076-.233-.115a2.073 2.073 0 0 0-1.17-1.256c-.59-.261-1.21-.29-1.839-.218-.267.03-.534.07-.784.176-.07-.002-.137 0-.207-.016a12.1 12.1 0 0 0-1.152-.197c-.486-.067-.972-.057-1.457-.032a5.35 5.35 0 0 0-1.298.255c-.714.223-1.419.472-2.087.808A8.05 8.05 0 0 0 7.34 9.449c-.403.34-.74.733-1.029 1.169a5.698 5.698 0 0 0-.777 1.838 9.565 9.565 0 0 0-.227 1.41c-.039.432-.077.863-.105 1.296a16.8 16.8 0 0 1-.106 1.165c-.035.25-.036.5-.08.75-.034.186-.04.379-.06.568a22.574 22.574 0 0 1-.343 2.103 14.654 14.654 0 0 1-.556 1.978c-.124.344-.264.68-.398 1.02-.016.039-.027.084-.077.103-.067-.012-.085-.078-.115-.124a14.163 14.163 0 0 1-1.205-2.22 13.252 13.252 0 0 1-.773-2.344 16.294 16.294 0 0 1-.254-1.46c-.11-.812-.114-1.627-.086-2.443.01-.293.04-.587.08-.88.033-.248.07-.497.11-.745.096-.61.248-1.205.43-1.794a13.52 13.52 0 0 1 1.061-2.49c.371-.678.795-1.324 1.281-1.928a14.15 14.15 0 0 1 1.31-1.448 14.456 14.456 0 0 1 2.418-1.845c.41-.248.83-.476 1.262-.678.852-.4 1.735-.71 2.65-.931.488-.118.983-.213 1.482-.271.301-.035.605-.051.907-.08a10.4 10.4 0 0 1 1.197-.028c.39.01.778.042 1.166.083a13.734 13.734 0 0 1 3.506.844 13.42 13.42 0 0 1 1.721.808 13.808 13.808 0 0 1 3.61 2.879A13.276 13.276 0 0 1 26.86 7.8a14 14 0 0 1 1.378 3.028c.203.637.351 1.287.457 1.948.083.523.142 1.047.16 1.577.01.242.047.485.032.727-.027.44-.04.883-.082 1.324a13.05 13.05 0 0 1-.416 2.273 13.491 13.491 0 0 1-1.232 3.034 14.164 14.164 0 0 1-1.317 1.969c-.487.616-1.042 1.166-1.613 1.7-.342.32-.717.604-1.096.88-.612.446-1.258.839-1.936 1.174-.796.393-1.618.717-2.477.947-.378.1-.757.189-1.14.266-.024.005-.05.003-.085.005a1.06 1.06 0 0 1-.069-.302 9.182 9.182 0 0 1 .003-1.173c.035-.414.107-.826.213-1.228.247-.938.631-1.818 1.105-2.663.461-.821 1.004-1.584 1.58-2.327.211-.274.446-.53.67-.797.366-.441.768-.85 1.157-1.27.461-.5.975-.941 1.448-1.427.375-.386.764-.76 1.141-1.146.145-.15.277-.311.41-.472.048-.058.105-.118.097-.205l.001-.001z" fill="#F9E988"/><path d="M13.03 9.727c-1.094-.006-1.886.922-1.883 1.893.003.992.828 1.887 1.897 1.882 1.079-.004 1.888-.905 1.883-1.895-.005-1.006-.83-1.893-1.896-1.88m.006-.822a2.66 2.66 0 0 1 2.686 2.682c0 1.573-1.264 2.687-2.685 2.687a2.678 2.678 0 0 1-2.686-2.687 2.67 2.67 0 0 1 2.685-2.682" fill="#FEFEFE"/><path d="M25.249 15.642c-.132.052-.22.165-.331.247-.378.278-.773.527-1.18.761-.894.512-1.846.881-2.828 1.181-.522.16-1.053.28-1.593.372a6.7 6.7 0 0 1-1.554.085 4.363 4.363 0 0 1-1.654-.419c-.342-.169-.667-.37-.906-.682.047-.047.08-.007.115.01.195.095.385.198.588.28.283.113.576.186.874.245.6.117 1.208.13 1.814.094.578-.034 1.157-.09 1.725-.212a14.514 14.514 0 0 0 1.68-.455 15.619 15.619 0 0 0 1.968-.82 7.311 7.311 0 0 0 1.216-.754c.024-.018.055-.052.08-.008.009.017-.008.05-.013.075h-.001z" fill="#5A5A5C"/><path d="M15.13 7.595c.25-.105.518-.146.784-.176.63-.072 1.248-.043 1.84.218.57.25.963.666 1.17 1.256-.065.003-.117-.032-.17-.06-.415-.22-.853-.383-1.292-.544a18.337 18.337 0 0 0-2.064-.62c-.089-.02-.195.007-.268-.074" fill="#4E4E4E"/><path d="M22.06 14.266c0-.335.268-.6.6-.584a.578.578 0 0 1 .563.597.59.59 0 0 1-.59.572c-.383-.013-.594-.338-.572-.585m33.768.885c.009.47-.08.936-.273 1.38a2.25 2.25 0 0 1-.55.785c-.416.377-.913.52-1.465.484-.805-.054-1.353-.482-1.698-1.195a3.132 3.132 0 0 1-.287-1.023c-.07-.622-.01-1.231.237-1.814.099-.233.224-.45.393-.641.483-.547 1.096-.741 1.807-.645.659.088 1.133.454 1.452 1.026.282.506.394 1.054.384 1.643M16.579 1.914h.294c.558.003 1.103.098 1.644.222a7.65 7.65 0 0 1 1.944.727c.391.21.758.459 1.105.733.485.38.96.772 1.434 1.164.421.348.848.69 1.25 1.062.503.465.995.942 1.423 1.483a12.666 12.666 0 0 1 1.414 2.272c.381.774.645 1.588.824 2.433.077.364.122.734.19 1.1.002.008.002.017.003.026.037.57.087 1.143.051 1.716-.02.336-.069.67-.105 1.007 0 .009 0 .019-.006.025-.016.018-.033.044-.054.049-.038.009-.067-.015-.074-.053-.039-.204-.074-.408-.112-.612a26.345 26.345 0 0 0-.698-2.905 25.47 25.47 0 0 0-.929-2.484 15.673 15.673 0 0 0-1.208-2.275 75.46 75.46 0 0 0-.597-.916c-.399-.606-.893-1.13-1.429-1.613a5.955 5.955 0 0 0-1.18-.806 13.669 13.669 0 0 0-1.546-.686c-.526-.203-1.049-.412-1.58-.6-.484-.17-.974-.313-1.469-.441a24.737 24.737 0 0 0-1.699-.373c-.075-.013-.156-.022-.21-.086-.028-.033.073-.086.211-.108.361-.06.725-.07 1.108-.061" fill="#FEFEFE"/><path d="M13.03 9.727c1.068-.013 1.892.874 1.897 1.88.005.99-.804 1.89-1.883 1.895-1.07.005-1.894-.89-1.897-1.882-.003-.971.789-1.9 1.884-1.893" fill="#5A5A5C"/></g></svg>