<svg height="24" viewBox="0 0 138 24" width="138" xmlns="http://www.w3.org/2000/svg"><g fill="none" fill-rule="evenodd"><path d="m21.92 8.56c-.16-.56-.48-1.04-.88-1.44-1.76-2-3.36-2.72-6.08-1.44h-.16c-1.04.08-1.92.72-2.16 1.76-.96 2.88-2.08 5.68-3.12 8.48-.16.24-.32.4-.48.64-1.92 1.44-3.76 2.72-6.4 1.6-.96-.4-2.56-.24-1.76 1.68.08.24.16.48.4.64.24.24.56.48.88.64 3.68 2.4 7.76 2.96 11.68 1.04 4.48-2.16 7.68-5.52 8-10.8.24-.88.24-1.84.08-2.8z" fill="#ca312c"/><path d="m20.32 5.76c0-.72.08-1.44.24-2.24.24-1.92-.8-2.72-1.6-2.8s-1.52.24-2.08.8c-.32.24-.32.72-.08 1.04.4.4.72.4.88-.4.4-1.28 1.92 0 1.84.64-.08 1.36-1.04 1.84-1.92 2.4s-1.6.72-2.96 1.2c-.24.08-.32.4-.24.64 0 .08.08.16.16.16.32.08.72.08 1.04 0 1.12-.16 1.44.16 1.84 1.28.72-.32 1.44-.4 2.16-.32.72.24.72.72 1.04 1.04.16.08.32 0 .4-.16v-.16c-.48-.96-.8-2-.72-3.12z" fill="#91b949"/><path d="m34.48 17.2c-.24.08-.4.08-.64.08h-.64c-.4 0-.72-.08-1.04-.16-.32-.16-.56-.32-.8-.56s-.4-.56-.56-.88c-.16-.4-.16-.8-.16-1.2s.08-.8.16-1.12.24-.64.48-.88.48-.48.8-.56c.32-.16.72-.24 1.12-.24s.8.08 1.2.16.8.24 1.2.4v-2.08c-.32-.08-.72-.16-1.12-.24-.48-.08-.96-.08-1.52-.08-.64 0-1.36.08-2 .32-1.12.4-2.08 1.36-2.48 2.48-.24.64-.32 1.28-.32 2s.08 1.36.32 2c.4 1.12 1.28 2 2.4 2.32.64.24 1.28.32 1.92.32.48 0 .96 0 1.44-.08s.88-.24 1.36-.4v-2c-.16.08-.4.16-.56.24s-.32.16-.56.16zm11.04-6.24c-.4-.4-.88-.72-1.36-.88-.56-.24-1.2-.32-1.84-.32s-1.28.08-1.92.32c-.56.24-1.04.56-1.44.96-.4.48-.72.96-.88 1.52-.24.64-.32 1.28-.32 2s.08 1.36.32 2.08c.16.56.48 1.04.88 1.52.4.4.88.72 1.36.88.56.24 1.2.32 1.84.32s1.28-.08 1.92-.32c.56-.24 1.04-.56 1.44-.96.4-.48.72-.96.88-1.52.24-.64.32-1.28.32-2s-.08-1.36-.32-2c-.16-.64-.48-1.12-.88-1.6zm-1.28 4.72c-.08.32-.16.64-.4.88-.16.24-.4.48-.64.64-.32.16-.64.24-.96.24-.64 0-1.2-.24-1.6-.72-.4-.64-.64-1.36-.56-2.16 0-.4 0-.72.16-1.12.08-.32.16-.64.4-.88.16-.24.4-.48.64-.64.32-.16.64-.24.96-.24.64-.08 1.2.24 1.6.72.4.64.56 1.36.56 2.16 0 .4-.08.8-.16 1.12zm7.28-7.2c.16.16.32.24.48.32.4.16.8.16 1.12 0 .16-.08.32-.16.48-.32s.24-.32.24-.48c.16-.32.16-.72 0-1.12-.08-.16-.16-.32-.24-.4-.16-.16-.32-.24-.48-.32-.4-.16-.8-.16-1.12 0-.16.08-.32.16-.48.32s-.24.32-.32.48c-.16.32-.16.72 0 1.04.08.16.16.32.32.48zm2.24 1.52h-4.8v1.68h2.56v5.76h-2.96v1.68h7.84v-1.68h-2.64zm11.92.64c-.24-.32-.56-.48-.88-.64-.4-.16-.8-.24-1.2-.24-.32 0-.64 0-.88.08s-.48.16-.72.32-.48.32-.64.48c-.24.24-.4.4-.56.64l-.08-1.36h-1.92v9.12h2.24v-5.84c.32-.48.64-.88 1.04-1.2.32-.24.64-.4 1.04-.48.72 0 1.12.48 1.12 1.52v6h2.16v-6.16c0-.48-.08-.88-.16-1.36-.08-.24-.32-.56-.56-.88zm10.56.4c-.24-.4-.64-.72-1.04-.96-.48-.24-.96-.32-1.44-.32-.32 0-.64 0-.88.08s-.56.16-.72.32c-.24.16-.48.32-.64.48-.24.24-.4.4-.56.64l-.08-1.36h-1.92v12.72h2.24v-3.6c.24.08.4.08.64.08s.48.08.72.08c.64 0 1.28-.08 1.92-.32.56-.16 1.04-.48 1.52-.88s.8-.96.96-1.52c.24-.72.4-1.44.32-2.16 0-.64-.08-1.28-.24-1.92-.24-.4-.48-.96-.8-1.36zm-1.6 4.72c-.08.32-.24.64-.48.96-.16.24-.48.48-.72.64-.32.16-.64.24-.96.24-.24 0-.56 0-.8-.08-.24 0-.4-.08-.64-.16v-4c.32-.48.72-.88 1.04-1.2.32-.24.64-.4 1.04-.48.48 0 .96.24 1.2.64.16.24.24.56.32.88.08.4.08.88.08 1.28.08.48.08.88-.08 1.28zm11.12-5.2c-.32-.24-.8-.48-1.2-.56-.56-.16-1.2-.24-1.76-.16-.64 0-1.2.08-1.76.16-.48.08-1.04.24-1.52.4v1.76c.48-.24 1.04-.4 1.52-.48.56-.16 1.04-.16 1.6-.16.32 0 .56 0 .88.08.24.08.4.16.56.32s.24.32.32.48c.08.24.08.4.08.64v.56h-1.2c-.64 0-1.36.08-2 .24-.48.16-.96.32-1.44.64-.32.24-.64.56-.8.96s-.32.8-.24 1.2c0 .4.08.8.16 1.12s.32.64.56.88.56.48.88.56c.4.16.8.24 1.28.24.32 0 .64 0 .96-.08.24-.08.56-.16.8-.32s.48-.24.72-.48c.24-.16.4-.4.64-.56v1.2h1.84v-6.24c0-.48-.08-.96-.24-1.36-.08-.48-.32-.8-.64-1.04zm-1.28 5.76c-.32.32-.72.64-1.12.96-.24.24-.64.32-.96.32s-.72-.08-.96-.32-.4-.56-.32-.88c0-.16 0-.4.08-.56s.24-.32.32-.4c.16-.16.4-.24.64-.32.32-.08.64-.08.96-.08h1.36zm12.08-5.28c-.24-.4-.64-.72-1.04-.88-.48-.24-.96-.32-1.44-.32-.32 0-.64 0-.88.08s-.56.16-.8.32-.48.32-.64.48c-.24.24-.4.4-.56.64l-.08-1.36h-1.92v12.72h2.24v-3.6c.24.08.4.08.64.08s.48.08.72.08c.64 0 1.28-.08 1.84-.32.56-.16 1.04-.48 1.52-.88.4-.4.8-.96.96-1.52.24-.72.4-1.44.32-2.16 0-.64-.08-1.28-.24-1.92-.08-.48-.32-1.04-.64-1.44zm-1.6 4.72c-.08.32-.24.64-.48.96-.16.24-.48.48-.72.64-.32.16-.64.24-.96.24-.24 0-.56 0-.8-.08-.24 0-.4-.08-.64-.16v-4c.32-.48.64-.88 1.04-1.2.32-.24.64-.4 1.04-.48.48 0 .96.24 1.2.64.16.24.24.56.32.88.08.4.16.88.08 1.28.08.48.08.88-.08 1.28zm11.84-5.04c-.24-.32-.56-.56-.88-.72-.4-.16-.8-.24-1.2-.24-.32 0-.64 0-.96.08s-.56.16-.8.32-.48.32-.64.48-.4.4-.48.64l-.08-1.36h-2v9.12h2.24v-5.84c.32-.48.72-.96 1.2-1.36.32-.24.64-.4.96-.4.16 0 .32 0 .48.08s.32.16.4.32.16.4.24.56c.08.32.08.56.08.88h2.24c0-.56 0-1.04-.16-1.6-.16-.16-.4-.56-.64-.96zm5.68-2.24c.16.16.32.24.48.32.4.16.8.16 1.12 0 .16-.08.32-.16.48-.32s.24-.32.32-.48c.16-.32.16-.72 0-1.12-.08-.16-.16-.32-.32-.48s-.32-.24-.48-.32c-.4-.16-.8-.16-1.12 0-.16.08-.32.16-.48.32s-.24.32-.32.48c-.16.32-.16.72 0 1.12.08.24.16.4.32.48zm2.24 1.52h-4.88v1.68h2.56v5.76h-2.8v1.68h7.84v-1.68h-2.64zm13.2 0h-2.72l-3.2 3.84v-7.44h-2.24v12.72h2.24v-4.56l3.36 4.56h2.88l-4-4.96zm9.36 1.52c-.16-.4-.4-.72-.72-.96s-.8-.48-1.2-.56c-.56-.16-1.2-.24-1.76-.16-.56 0-1.2.08-1.76.16-.48.08-1.04.24-1.52.4v1.76c.48-.24 1.04-.4 1.52-.48.56-.16 1.04-.16 1.6-.16.32 0 .56 0 .88.08.24.08.4.16.56.32s.24.32.32.48c.08.24.08.4.08.64v.56h-1.2c-.64 0-1.36.08-2 .24-.48.16-.96.32-1.44.64-.32.24-.64.56-.8.96s-.32.8-.32 1.2.08.8.16 1.12.32.64.56.88.56.48.88.56c.4.16.8.24 1.28.24.32 0 .64 0 .96-.08.24-.08.56-.16.8-.32s.48-.24.72-.48c.24-.16.4-.32.64-.56l.08 1.2h1.92v-6.24c0-.56-.08-.96-.24-1.44zm-2 4.8c-.32.32-.72.64-1.12.96-.24.24-.64.32-.96.32s-.72-.08-.96-.32-.4-.56-.32-.88c0-.16 0-.4.08-.56s.24-.32.32-.4c.16-.16.4-.24.64-.32.32-.08.64-.08.96-.08h1.36z" fill="#333"/></g></svg>