<svg width="114" height="28" xmlns="http://www.w3.org/2000/svg"><g fill="none" fill-rule="evenodd"><path d="M112.78 6.944c.8.083 1.15.774.74 1.467a4.092 4.092 0 0 1-.493.635c-1.606 1.778-3.218 3.552-4.826 5.328-.318.352-.323.363.023.754 1.066 1.207 2.14 2.406 3.208 3.611.75.845 1.49 1.699 2.242 2.542.266.298.383.62.226 1-.133.321-.356.544-.731.555-.038 0-.077.004-.115.006-1.169.064-1.18.075-1.97-.802-1.515-1.68-3.014-3.373-4.52-5.06a3.293 3.293 0 0 0-.12-.125c-.245-.248-.254-.256-.491-.002-.524.56-1.04 1.127-1.555 1.695-1.03 1.135-2.058 2.271-3.083 3.41-.888.986-.638.885-2.07.886-3.397.002-6.795-.02-10.192.013-1.046.01-1.266-.364-1.257-1.24.022-2.226.007-4.453.007-6.68v-6.68c0-.153-.008-.308.005-.46.038-.466.277-.738.733-.828.149-.029.305-.028.457-.029 3.705-.001 7.41.005 11.114-.007.516-.001.908.148 1.257.544 1.483 1.682 2.99 3.342 4.486 5.012.346.386.34.392.705-.012 1.449-1.61 2.923-3.197 4.332-4.84.535-.625 1.15-.77 1.889-.693zM99.096 9.24c-1.383.018-2.765.007-4.148.007-1.44 0-2.88-.002-4.32.002-.373 0-.382.01-.383.381-.004 1.171.004 2.343-.006 3.514-.002.244.069.358.325.332.133-.014.268-.003.403-.003 2.439 0 4.877-.003 7.316.002.721.002.975.26.988.96.002.116.004.231 0 .346-.022.568-.357.934-.919.985-.228.02-.46.004-.69.004H90.69c-.436.001-.445.007-.446.373-.004 1.364.004 2.727-.007 4.09-.002.27.07.366.355.365 2.765-.01 5.53-.009 8.296 0a.715.715 0 0 0 .598-.268c.26-.307.534-.602.8-.903 1.313-1.476 2.621-2.956 3.943-4.424.198-.22.19-.38.004-.58a93.504 93.504 0 0 1-1.006-1.108c-1.114-1.242-2.231-2.48-3.337-3.73-.22-.25-.458-.35-.795-.345zM14.363.004c.703.076 1.412.12 2.11.235a14.155 14.155 0 0 1 5.709 2.282c1.999 1.358 3.482 3.157 4.567 5.299.689 1.358 1.187 2.782 1.352 4.302.066.607.035 1.225.049 1.838l-.715.115-6.739-.023c-.902-.003-1.811.063-2.706-.02-1.222-.114-2.443-.084-3.664-.1-.192-.003-.277-.07-.277-.268a634.29 634.29 0 0 0 0-3.687c0-.196.083-.279.276-.27.134.006.269 0 .403 0h8.348c-.25-.455-.419-.835-.649-1.174-1.613-2.372-3.83-3.815-6.668-4.277-.452-.074-.912-.104-1.37-.142-.206-.017-.31-.092-.31-.317a268.964 268.964 0 0 0-.03-3.514c-.004-.242.109-.3.314-.279z" fill="#2CBA4E"/><path d="M4.463 4.39c.773.771 1.543 1.546 2.311 2.324.271.274.27.28.002.6-1.178 1.407-2.001 3-2.368 4.796-.706 3.455.299 6.404 2.775 8.865 1.26 1.253 2.79 2.078 4.475 2.613.203.065.343.102.335.363a177.94 177.94 0 0 0-.064 3.454c-.003.276-.12.333-.35.265-.954-.282-1.936-.495-2.855-.864a13.633 13.633 0 0 1-6.078-4.755c-1.271-1.76-2.043-3.72-2.384-5.854-.126-.793-.199-1.595-.262-2.114.114-3.908 1.356-7.058 3.863-9.69.29-.304.301-.302.6-.004zm74.391 2.618c1.166.004 2.826.242 4.363 1.035 2.266 1.168 3.545 3.046 3.897 5.553.225 1.602.079 3.173-.53 4.69-.84 2.094-2.381 3.45-4.485 4.155-2.433.814-4.908.845-7.354.071-2.871-.908-4.596-2.878-5.111-5.856-.3-1.731-.213-3.448.468-5.088.768-1.849 2.14-3.104 3.985-3.843 1.354-.542 2.777-.718 4.767-.717zm-26.454.08c.295.135.444.415.485.739.015.113.003.23.003.345 0 4.492 0 8.984-.002 13.476 0 .189-.002.388-.058.565-.111.356-.361.6-.742.632a9.532 9.532 0 0 1-1.09.01c-.316-.008-.52-.219-.709-.443l-2.226-2.638c-2.348-2.785-4.697-5.57-7.044-8.356-.061-.072-.098-.165-.147-.248l-.14.059v.352c0 3.36.003 6.719-.006 10.078 0 .258-.02.56-.151.766-.382.596-1.645.641-2.095.094-.115-.14-.175-.336-.22-.517-.037-.145-.014-.305-.015-.459l-.007-13.475c0-.714.376-1.068 1.09-1.127.731-.06 1.268.167 1.753.743 2.9 3.448 5.829 6.87 8.749 10.3.158.187.32.369.572.657v-.898-9.56c0-.153-.004-.307.01-.46.025-.29.177-.536.43-.641.51-.211 1.05-.23 1.56.005zm8.939-.133c1.355.017 2.668.287 3.888.904 1.79.907 2.979 2.316 3.48 4.273.56 2.198.557 4.367-.414 6.464-.652 1.408-1.723 2.427-3.078 3.154-1.541.828-3.214 1.107-4.94 1.121-1.67.014-3.34-.002-5.01.007-.453.002-.86-.09-1.07-.52-.104-.213-.135-.478-.136-.72-.01-2.246-.005-4.493-.005-6.739V8.334c0-.134-.008-.27.002-.403.04-.553.397-.92.948-.98.057-.005.115-.002.172-.002l4.109-.007c.684.001 1.37.005 2.054.013zm-25.077 4.206c.144.129.22.351.281.545.045.14.02.304.02.457 0 3.144.004 6.287-.007 9.43 0 .277-.036.59-.168.823-.266.473-1.266.612-1.708.286-.254-.187-.34-.458-.348-.755-.01-.421-.007-.843-.007-1.265v-8.337c0-.135-.003-.269 0-.403.013-.417.074-.813.537-.982.502-.183.991-.166 1.4.201zm41.715-1.865c-.404.057-1.215.103-1.991.294-1.856.458-3.21 1.53-3.758 3.427-.307 1.065-.302 2.16-.113 3.252.348 2.006 1.554 3.307 3.419 3.98 1.825.659 3.694.649 5.532.026 1.47-.498 2.538-1.47 3.14-2.921.508-1.23.516-2.506.317-3.792-.273-1.757-1.256-2.962-2.886-3.657-1.044-.446-2.14-.572-3.66-.61zm-21.05-.033c-.333-.003-.34.011-.34.42l-.002 2.589v2.588c0 1.765 0 3.529.002 5.293 0 .399.007.405.409.406 1.093.003 2.186.018 3.279-.003 1.173-.024 2.33-.163 3.42-.643 1.345-.593 2.22-1.588 2.614-3.01.406-1.465.33-2.929-.065-4.37-.27-.984-.83-1.8-1.716-2.366-.864-.553-1.827-.808-2.828-.846-1.59-.06-3.182-.047-4.772-.058zm-21.4-2.505c.556.081 1.025.619 1.036 1.189.004.19 0 .382 0 .573 0 .248.038.504-.007.744-.172.938-.775 1.272-1.606 1.068-.298-.074-.542-.297-.561-.592-.047-.7-.098-1.414-.011-2.106a1.002 1.002 0 0 1 1.15-.876zM8.584.548c1.504.009 2.73 1.23 2.7 2.708-.032 1.566-1.405 2.689-2.72 2.627-1.48 0-2.687-1.187-2.693-2.648A2.678 2.678 0 0 1 8.584.548z" fill="#090A2C"/><path d="M27.435 14.075l.715-.115c.078 1.48-.19 2.921-.613 4.32a12.62 12.62 0 0 1-1.29 2.905c-.648 1.065-1.398 2.047-2.315 2.894a14.333 14.333 0 0 1-2.819 2.028 14.66 14.66 0 0 1-3.917 1.482c-.908.202-1.826.36-2.768.311-.285-.015-.353-.109-.35-.373.011-1.113.01-2.226.001-3.338-.002-.237.057-.347.32-.34 1.213.032 2.367-.257 3.494-.681a8.613 8.613 0 0 0 2.758-1.687c1.256-1.135 2.126-2.516 2.685-4.118a14.25 14.25 0 0 0 .543-1.964c.046-.235.128-.382.421-.444.904-.19 1.797-.437 2.691-.673.156-.041.297-.137.444-.207" fill="#BBB"/></g></svg>