<svg width="113" height="24" xmlns="http://www.w3.org/2000/svg"><g fill="none" fill-rule="evenodd"><path d="M12 0c6.617 0 12 5.383 12 12s-5.383 12-12 12a11.96 11.96 0 0 1-8.543-3.584c-.435-.444-.275-1.004.31-1.209l1.316-.46c.391-.137.95-.013 1.27.248A8.943 8.943 0 0 0 12.002 21c4.962 0 9-4.037 9-9s-4.038-9-9-9a8.941 8.941 0 0 0-5.647 2.005c-.321.26-.88.385-1.27.248l-1.315-.46c-.587-.205-.747-.766-.311-1.208A11.952 11.952 0 0 1 12.001 0zM2.476 7.34l9.27 3.244a1.5 1.5 0 0 1 0 2.832l-9.27 3.244a1.496 1.496 0 0 1-1.176-.08 1.497 1.497 0 0 1-.756-.903 12.709 12.709 0 0 1 0-7.355 1.5 1.5 0 0 1 1.932-.982z" fill="#5B10FF"/><path d="M40.754.889c3.494 0 6.345 1.694 7.823 4.647l.336.672a.75.75 0 0 1-.335 1.006l-1.34.671a.75.75 0 0 1-1.007-.335l-.315-.628-.02-.042c-.966-1.93-2.792-2.991-5.142-2.991-4.15 0-6.254 2.677-6.254 7.958 0 .194.004.922.015 1.103.145 5.018 2.186 7.439 6.24 7.439 2.49 0 4.361-1.124 5.269-3.165l.303-.686a.75.75 0 0 1 .99-.38l1.37.609a.75.75 0 0 1 .382.99l-.305.685c-1.396 3.145-4.316 4.947-8.01 4.947-5.68 0-9.046-3.758-9.236-10.311a44.647 44.647 0 0 1-.018-1.231C31.5 4.883 34.873.889 40.754.889zm21.48.195c.61 0 1.159.369 1.39.933l8.218 20.136c.234.575-.08 1.041-.7 1.041h-1.365c-.414 0-.877-.31-1.034-.693L61.976 5.92l-3.06 7.51h2.375c.415 0 .877.31 1.034.694l.516 1.264c.235.575-.079 1.042-.7 1.042h-4.447l-2.472 6.07c-.156.382-.618.693-1.033.693h-1.364c-.621 0-.935-.466-.7-1.041l8.201-20.136a1.5 1.5 0 0 1 1.39-.933zm16.798 0a.75.75 0 0 1 .75.75v9.564l10.083-9.792c.297-.288.873-.522 1.288-.522h2.056c.829 0 1.018.468.424 1.045l-8.733 8.48 8.688 11.393c.502.659.237 1.192-.591 1.192h-1.522c-.414 0-.954-.267-1.205-.595l-7.537-9.885-2.95 2.866v6.864a.75.75 0 0 1-.75.75h-1.5a.75.75 0 0 1-.75-.75V1.834a.75.75 0 0 1 .75-.75zm32.718 0a.75.75 0 0 1 .75.75v1.5a.75.75 0 0 1-.75.75h-10.78l-.032 6.555h8.936a.75.75 0 0 1 .75.75v1.5a.75.75 0 0 1-.75.75h-8.95l-.032 6.555h10.858a.75.75 0 0 1 .75.75v1.5a.75.75 0 0 1-.75.75H99.385a1.5 1.5 0 0 1-1.5-1.506l.092-19.112a1.5 1.5 0 0 1 1.5-1.492z" fill="#08091F"/></g></svg>