<svg width="225" height="48" xmlns="http://www.w3.org/2000/svg"><g fill="none" fill-rule="evenodd"><path d="M24.001 0c13.233 0 24 10.767 24 24 0 13.234-10.767 24-24 24-6.682 0-12.732-2.748-17.086-7.169-.872-.886-.551-2.007.62-2.416l2.632-.921c.781-.273 1.899-.026 2.54.496A17.887 17.887 0 0 0 24.002 42c9.926 0 18-8.073 18-18 0-9.925-8.074-18-18-18a17.882 17.882 0 0 0-11.293 4.011c-.642.52-1.76.77-2.541.495l-2.63-.92c-1.173-.409-1.494-1.531-.62-2.416C11.268 2.747 17.318 0 24 0zM4.95 14.68l18.541 6.489a3 3 0 0 1-.001 5.664L4.949 33.32a2.991 2.991 0 0 1-2.351-.159 2.994 2.994 0 0 1-1.512-1.807 25.417 25.417 0 0 1 0-14.71A2.999 2.999 0 0 1 4.95 14.68z" fill="#5B10FF"/><path d="M81.508 1.778c6.989 0 12.69 3.388 15.647 9.295l.672 1.342a1.5 1.5 0 0 1-.67 2.014l-2.683 1.342a1.5 1.5 0 0 1-2.013-.67l-.67-1.342c-1.93-3.857-5.583-5.982-10.283-5.982-8.3 0-12.508 5.356-12.508 15.917 0 .387.009 1.844.03 2.207.29 10.036 4.372 14.877 12.478 14.877 4.982 0 8.724-2.247 10.54-6.33l.607-1.371a1.501 1.501 0 0 1 1.98-.761l2.74 1.218c.758.336 1.1 1.223.762 1.98l-.609 1.371c-2.793 6.288-8.632 9.893-16.02 9.893-11.36 0-18.093-7.517-18.472-20.622A80.29 80.29 0 0 1 63 23.931v-.238C63 9.765 69.747 1.778 81.508 1.778zm42.96.39c1.218 0 2.318.737 2.778 1.865l16.437 40.274c.47 1.149-.157 2.082-1.4 2.082h-2.73c-.827 0-1.753-.621-2.066-1.388l-13.535-33.16-6.118 15.02h4.749c.83 0 1.753.622 2.067 1.39l1.032 2.527c.47 1.15-.158 2.084-1.4 2.084h-8.893l-4.946 12.14c-.312.764-1.236 1.387-2.065 1.387h-2.727c-1.244 0-1.87-.933-1.403-2.084l16.404-40.27a3 3 0 0 1 2.78-1.868zm33.597-.001c.83 0 1.5.67 1.5 1.5v19.13L179.729 3.21c.596-.576 1.748-1.044 2.577-1.044h4.112c1.657 0 2.037.936.849 2.091L169.8 21.217l17.374 22.787c1.005 1.318.476 2.385-1.182 2.385h-3.043c-.828 0-1.908-.534-2.41-1.191l-15.074-19.77-5.901 5.731v13.73c0 .829-.67 1.5-1.5 1.5h-3c-.83 0-1.5-.671-1.5-1.5V3.667c0-.83.67-1.5 1.5-1.5zm65.435 0c.83 0 1.5.67 1.5 1.5v3c0 .83-.67 1.5-1.5 1.5h-21.56l-.064 13.11h17.871c.83 0 1.5.672 1.5 1.5v3c0 .83-.67 1.5-1.5 1.5h-17.9l-.064 13.112H223.5c.83 0 1.5.672 1.5 1.5v3c0 .829-.67 1.5-1.5 1.5h-24.73a3 3 0 0 1-3-3.014l.184-38.223a3 3 0 0 1 3-2.985z" fill="#08091F"/></g></svg>