<svg width="161" height="60" xmlns="http://www.w3.org/2000/svg"><g fill="none" fill-rule="evenodd"><rect stroke="#FFF" stroke-width="2" x="1" y="1" width="159" height="58" rx="2"/><path d="M36.074 13.054c3.235 0 5.786.961 7.579 2.858 1.775 1.877 2.673 4.436 2.673 7.607 0 3.172-.899 5.732-2.672 7.608-1.794 1.897-4.345 2.858-7.58 2.858a1.277 1.277 0 1 1 0-2.553c2.54 0 4.411-.672 5.72-2.057 1.33-1.407 1.977-3.321 1.977-5.856 0-2.533-.647-4.448-1.977-5.855-1.31-1.385-3.18-2.058-5.72-2.058H24.557v30.795c0 .704-.572 1.276-1.278 1.276-.707 0-1.279-.572-1.279-1.276V14.33c0-.705.572-1.277 1.28-1.277h12.794zm87.756 0c.706 0 1.278.572 1.278 1.276v30.795h16.257a1.277 1.277 0 1 1 0 2.552H123.83a1.277 1.277 0 0 1-1.279-1.276V14.33c0-.705.573-1.277 1.279-1.277zm-24.737.001c4.435 0 7.98 1.533 10.533 4.555 2.502 2.963 3.771 7.256 3.771 12.755 0 2.723-.317 5.164-.943 7.26-.64 2.138-1.589 3.976-2.82 5.463a12.128 12.128 0 0 1-4.587 3.441c-1.768.761-3.772 1.147-5.954 1.147-2.935 0-5.449-.66-7.47-1.958-2.025-1.303-3.628-3.24-4.761-5.758a1.22 1.22 0 0 1 2.229-1.001c.95 2.11 2.21 3.651 3.854 4.708 1.622 1.043 3.69 1.57 6.148 1.57 1.848 0 3.526-.318 4.986-.949a9.527 9.527 0 0 0 3.672-2.752c1.022-1.235 1.816-2.785 2.362-4.609.559-1.866.841-4.073.841-6.562 0-4.91-1.075-8.672-3.194-11.183-2.099-2.482-4.934-3.688-8.667-3.688-.748 0-5.326-.206-8.405 3.636-3.08 3.843-7.553 13.932-7.553 13.932-3.357 6.182-5.33 14.614-15.958 14.614-4.435 0-7.98-1.533-10.534-4.555-2.502-2.963-3.77-7.256-3.77-12.755 0-2.723.317-5.164.943-7.26.64-2.138 1.589-3.976 2.82-5.463a12.131 12.131 0 0 1 4.587-3.442c1.767-.76 3.771-1.146 5.954-1.146 2.935 0 5.449.66 7.47 1.958 2.025 1.303 3.627 3.24 4.76 5.758a1.221 1.221 0 0 1-2.228 1.001c-.95-2.11-2.211-3.652-3.854-4.709-1.622-1.042-3.691-1.57-6.148-1.57-1.848 0-3.526.319-4.986.95a9.526 9.526 0 0 0-3.672 2.752c-1.022 1.235-1.816 2.785-2.362 4.61-.559 1.865-.841 4.072-.841 6.56 0 4.91 1.074 8.673 3.194 11.184 2.098 2.481 4.933 3.688 8.667 3.688.747 0 5.325.206 8.405-3.636 3.079-3.843 7.241-13.242 7.241-13.242 3.358-6.182 5.641-15.304 16.27-15.304z" fill="#FFF"/></g></svg>