<svg width="60" height="60" xmlns="http://www.w3.org/2000/svg"><path d="M51.401 35.854c-1.046.661-2.279.743-3.215.215-1.19-.672-1.844-2.245-1.844-4.433V25.09c0-3.16-1.25-5.41-3.34-6.017-3.541-1.032-6.204 3.301-7.205 4.928L29.55 34.128V21.751c-.07-2.848-.995-4.551-2.751-5.065-1.162-.34-2.901-.204-4.59 2.38L8.217 41.537A24.687 24.687 0 0 1 5.372 30c0-13.535 10.847-24.546 24.179-24.546 13.331 0 24.177 11.01 24.177 24.546 0 .023.006.044.007.066 0 .023-.004.044-.003.067.126 2.621-.723 4.707-2.331 5.722v-.001zM59.1 30v-.068l-.001-.068C59.024 13.381 45.799 0 29.549 0 13.257 0 0 13.458 0 30c0 16.541 13.257 30 29.55 30 7.477 0 14.613-2.842 20.09-8a2.754 2.754 0 0 0 .144-3.854A2.659 2.659 0 0 0 45.988 48a23.899 23.899 0 0 1-16.437 6.546c-7.139 0-13.562-3.16-17.991-8.17l12.619-20.263v9.341c0 4.487 1.74 5.937 3.199 6.362 1.46.424 3.692.134 6.035-3.67l6.94-11.253a20.4 20.4 0 0 1 .615-.947v5.69c0 4.194 1.68 7.548 4.609 9.2 2.64 1.49 5.959 1.356 8.663-.35C57.518 38.414 59.284 34.6 59.1 30z" fill="#FFF" fill-rule="evenodd"/></svg>