<svg width="299" height="60" xmlns="http://www.w3.org/2000/svg"><path d="M105.065.005c5.037 0 9.352 1.134 12.82 3.37 3.476 2.242 6.225 5.576 8.171 9.909a2.103 2.103 0 0 1-1.91 2.96 2.105 2.105 0 0 1-1.914-1.237c-1.632-3.633-3.795-6.285-6.615-8.104-2.785-1.793-6.335-2.701-10.552-2.701-3.17 0-6.05.548-8.557 1.632a16.378 16.378 0 0 0-6.301 4.739c-1.754 2.124-3.117 4.792-4.054 7.932-.958 3.21-1.444 7.01-1.444 11.292 0 8.45 1.845 14.926 5.483 19.248 3.601 4.27 8.466 6.348 14.873 6.348 4.2 0 7.776-.978 10.628-2.905 2.922-1.98 5.14-4.669 6.78-8.227a2.104 2.104 0 0 1 1.904-1.22c.303 0 .599.065.878.196.508.234.895.653 1.088 1.181a2.085 2.085 0 0 1-.063 1.603c-1.944 4.213-4.717 7.56-8.24 9.944-3.556 2.405-7.92 3.626-12.975 3.626-7.612 0-13.694-2.64-18.077-7.84-4.294-5.1-6.471-12.489-6.471-21.954 0-4.686.545-8.887 1.618-12.493 1.099-3.68 2.728-6.845 4.84-9.404a20.794 20.794 0 0 1 7.873-5.923C97.882.668 101.32.005 105.065.005zm134.09 0c.493 0 .954.164 1.331.477a2.108 2.108 0 0 1 .385 2.822l-.103.137-17.674 21.406-.554.67.49.72 20.45 30.076c.314.462.429 1.021.326 1.57a2.079 2.079 0 0 1-.883 1.345 2.064 2.064 0 0 1-1.174.363c-.638 0-1.238-.29-1.635-.78l-.103-.138-19.385-28.51-.866-1.279-.985 1.193-9.345 11.319-.265.322v15.775c0 1.155-.94 2.098-2.1 2.098a2.1 2.1 0 0 1-2.09-1.949l-.005-.15V2.103a2.097 2.097 0 0 1 4.19-.15l.005.15v33.027l2.052-2.485L237.537.765c.398-.484.986-.76 1.617-.76zM27.667 0c16.436 0 29.76 13.34 29.76 29.795 0 16.454-13.324 29.795-29.76 29.795-9.595 0-18.119-4.552-23.56-11.61.138-.054.276-.109.413-.169l.206-.096 3.474-1.74c4.74 5.747 11.787 9.156 19.467 9.156 13.953 0 25.305-11.366 25.305-25.336 0-13.97-11.352-25.334-25.305-25.334-7.527 0-14.45 3.275-19.186 8.82l-.281.336-3.476-1.74c-.203-.102-.41-.183-.616-.267C9.55 4.552 18.075 0 27.669 0zM261.28.002h35.504a2.1 2.1 0 1 1 .15 4.193l-.15.005h-33.408v23.426h30.583a2.1 2.1 0 0 1 .15 4.194l-.15.005h-30.583v23.568h33.408c1.154 0 2.095.943 2.095 2.098a2.101 2.101 0 0 1-1.946 2.094l-.149.005H261.28a2.102 2.102 0 0 1-2.093-1.95l-.005-.149V2.102c0-1.107.862-2.018 1.948-2.095l.15-.005h35.504zM168.26 0c.983 0 1.854.628 2.17 1.556l18.632 55.004a2.29 2.29 0 0 1-2.168 3.03 2.291 2.291 0 0 1-2.167-1.557L166.62 4.585h-2.001L153.81 36.482h16.755l1.55 4.584h-19.857l-5.749 16.967a2.29 2.29 0 0 1-2.168 1.557 2.292 2.292 0 0 1-2.167-3.03l18.634-55.004A2.289 2.289 0 0 1 162.977 0h5.284zM2.583 15.796l.15.07 25.094 12.562c.753.378 1.13.874 1.13 1.367 0 .46-.321.916-.963 1.281l-.167.09-25.094 12.56c-1.453.727-2.65.04-2.727-1.526L0 42.035V17.558c0-1.628 1.149-2.393 2.582-1.762z" fill="#5B10FF" fill-rule="evenodd"/></svg>