<svg width="274" height="48" xmlns="http://www.w3.org/2000/svg"><g fill="none" fill-rule="evenodd"><path d="M3.958 33.488a2.99 2.99 0 0 1-1.36-.327 2.994 2.994 0 0 1-1.512-1.808 25.417 25.417 0 0 1 0-14.709A2.999 2.999 0 0 1 4.95 14.68l18.541 6.49a3 3 0 0 1-.001 5.663L4.948 33.32a2.991 2.991 0 0 1-.99.168" fill="#5B10FF"/><path d="M7.537 9.586l2.63.92c.78.274 1.898.025 2.542-.496A17.875 17.875 0 0 1 24 6c9.925 0 18 8.074 18 18s-8.075 18-18 18a17.887 17.887 0 0 1-11.294-4.01c-.643-.522-1.76-.77-2.542-.497l-2.628.921c-1.175.41-1.494 1.53-.623 2.417 4.355 4.42 10.404 7.168 17.087 7.168 13.233 0 24-10.765 24-24C48 10.766 37.234 0 24 0 17.318 0 11.27 2.746 6.914 7.17c-.871.885-.55 2.007.623 2.417" fill="#5B10FF"/><path d="M204.971 37.272c0 1.2.972 2.172 2.172 2.172h18.164c.598 0 1.084-.486 1.084-1.085v-2.173c0-.6-.486-1.086-1.084-1.086h-15.992v-8.948h11.646c.6 0 1.086-.486 1.086-1.087v-2.172c0-.6-.486-1.088-1.086-1.088h-11.646v-8.51h15.992c.598 0 1.084-.487 1.084-1.087v-2.172c0-.6-.486-1.086-1.084-1.086h-18.164c-1.2 0-2.172.974-2.172 2.172v26.15zm-18.603-2.173h-6.156V12.86h6.156c2 0 8.083 0 8.083 11.12s-6.084 11.12-8.083 11.12m0-26.586h-8.33c-1.2 0-2.172.974-2.172 2.174V37.27c0 1.2.972 2.172 2.172 2.172h8.33c4.642 0 12.427-2.007 12.427-15.463 0-13.458-7.785-15.467-12.427-15.467m46.7 30.93h4.344v-13.29h11.165c.6 0 1.086-.488 1.086-1.088v-2.172c0-.602-.486-1.088-1.086-1.088h-11.165v-8.51h15.509c.601 0 1.087-.487 1.087-1.087v-2.172c0-.6-.486-1.086-1.087-1.086h-17.68c-1.2 0-2.173.972-2.173 2.172v28.322z" fill="#000"/><path d="M79.818 29.648l-.426 1c-1.346 3.157-3.711 4.757-7.032 4.757-5.56 0-7.262-4.117-7.709-7.573a3.926 3.926 0 0 0-.045-.231c-.132-.585-.26-3.437-.26-4.76 0-3.826 1.04-10.246 8.014-10.246 3.361 0 5.524 1.43 6.805 4.501l.42 1.004c.231.553.869.814 1.42.582l2.006-.836c.554-.23.815-.867.584-1.42l-.419-1.002c-1.959-4.694-5.7-7.175-10.816-7.175C64.735 8.25 60 13.841 60 22.841c0 .04.037 4.107.354 5.646.95 7.055 5.433 11.262 12.006 11.262 5.08 0 8.995-2.628 11.03-7.398l.424-1a1.085 1.085 0 0 0-.575-1.424l-1.998-.853a1.086 1.086 0 0 0-1.423.574m66.857-8.039V37.076c0 1.198.972 2.172 2.172 2.172h18.162c.6 0 1.086-.486 1.086-1.088v-2.172c0-.598-.486-1.086-1.086-1.086h-15.99v-8.949h11.644c.6 0 1.086-.486 1.086-1.086v-2.172c0-.6-.486-1.086-1.086-1.086H151.02v-8.512h15.99c.6 0 1.086-.486 1.086-1.085V9.84c0-.6-.486-1.086-1.086-1.086h-18.162c-1.2 0-2.172.972-2.172 2.172v10.684zm-23.47 16.51v-7.444l4.754-5.497 8.737 13.123c.333.498 1.09.905 1.688.905h3.046c.602 0 .818-.407.486-.905L130.9 21.758l10.386-12.179c.389-.456.218-.826-.381-.826h-3.549c-.601 0-1.402.37-1.794.826L123.205 24.03V9.84c0-.6-.486-1.086-1.086-1.086h-2.172c-.6 0-1.086.486-1.086 1.086v28.28c0 .6.486 1.087 1.086 1.087h2.172c.6 0 1.086-.488 1.086-1.088m-22.963-24.933h.077l4.49 13.52h-9.034l4.467-13.52zM94.15 31.62l.19-.572h11.912l2.366 7.125c.189.57.83 1.032 1.428 1.032h2.406c.6 0 .933-.462.744-1.032l-9.246-27.844a2.174 2.174 0 0 0-2.063-1.488h-3.213c-.937 0-1.77.602-2.062 1.491l-9.203 27.841c-.189.57.146 1.032.746 1.032h2.403c.6 0 1.239-.462 1.428-1.032l2.164-6.553z" fill="#5B10FF"/><path d="M273 11.86v-1.825c0-.598-.486-1.084-1.087-1.084H260.88c-.599 0-1.086.486-1.086 1.084v1.826c0 .598.488 1.086 1.086 1.086h3.344v22.501h-3.344c-.599 0-1.086.486-1.086 1.085v1.825c0 .599.488 1.086 1.086 1.086h11.033c.601 0 1.087-.487 1.087-1.086v-1.825c0-.599-.486-1.085-1.087-1.085h-3.344V12.947h3.344c.601 0 1.087-.488 1.087-1.086" fill="#000"/></g></svg>