<svg height="51" width="90" xmlns="http://www.w3.org/2000/svg"><g fill="currentColor"><path d="M28.895 44.183c.44 0 .843.079 1.206.234.364.155.672.378.925.667.253.29.449.641.588 1.054.14.412.208.872.208 1.377 0 .507-.069.966-.208 1.38a3.058 3.058 0 0 1-.588 1.052 2.53 2.53 0 0 1-.925.668 3.043 3.043 0 0 1-1.206.233c-.441 0-.844-.078-1.207-.233a2.526 2.526 0 0 1-.925-.668 3.05 3.05 0 0 1-.588-1.053 4.302 4.302 0 0 1-.208-1.379c0-.505.07-.965.208-1.377a3.06 3.06 0 0 1 .588-1.054c.253-.29.561-.512.925-.667a3.043 3.043 0 0 1 1.207-.234zm32.13 0c.825 0 1.458.193 1.9.576.44.384.66.936.66 1.654v3.197h.675v1.09h-.748c-.35 0-.62-.1-.808-.3a1.338 1.338 0 0 1-.343-.766H62.3c-.123.4-.347.704-.674.908s-.723.305-1.189.305c-.66 0-1.17-.17-1.525-.514-.355-.343-.532-.804-.532-1.384 0-.637.23-1.115.692-1.434.461-.318 1.137-.477 2.027-.477h1.151v-.54c0-.39-.106-.694-.318-.906-.212-.211-.543-.318-.992-.318-.376 0-.682.081-.92.245a2.187 2.187 0 0 0-.6.624l-.796-.722c.213-.36.51-.656.895-.888.384-.233.886-.35 1.507-.35zm-43.747-2.547v3.749h.061a1.74 1.74 0 0 1 .68-.889 1.964 1.964 0 0 1 1.11-.312c.808 0 1.432.292 1.873.876.44.584.662 1.403.662 2.456s-.221 1.873-.662 2.456c-.44.584-1.065.876-1.874.876-.425 0-.794-.107-1.109-.319a1.773 1.773 0 0 1-.68-.882h-.061v1.054h-1.335v-9.065zm30.943 2.547c.637 0 1.16.144 1.568.429.408.286.706.666.894 1.14l-1.102.514a1.373 1.373 0 0 0-.472-.703c-.225-.177-.52-.265-.888-.265-.49 0-.86.153-1.109.459s-.373.702-.373 1.191v1.136c0 .488.124.885.373 1.191.25.306.62.458 1.11.458.39 0 .703-.095.936-.288.233-.191.419-.447.557-.766l1.017.54c-.212.524-.53.928-.955 1.207-.425.281-.943.421-1.556.421-.457 0-.865-.077-1.225-.232a2.432 2.432 0 0 1-.907-.668 3.023 3.023 0 0 1-.563-1.053 4.56 4.56 0 0 1-.196-1.378c0-.506.065-.966.196-1.378.13-.413.318-.764.563-1.054a2.44 2.44 0 0 1 .907-.667c.36-.156.768-.233 1.225-.233zm-12.477 0c.636 0 1.159.144 1.568.429.408.286.706.666.894 1.14l-1.103.514a1.373 1.373 0 0 0-.472-.703c-.224-.177-.52-.265-.887-.265-.49 0-.86.153-1.11.459-.248.306-.373.702-.373 1.191v1.136c0 .488.125.885.374 1.191s.619.458 1.109.458c.391 0 .704-.095.937-.288.232-.191.418-.447.557-.766l1.017.54c-.213.524-.531.928-.956 1.207-.424.281-.943.421-1.555.421-.458 0-.866-.077-1.225-.232a2.432 2.432 0 0 1-.907-.668 3.023 3.023 0 0 1-.564-1.053 4.56 4.56 0 0 1-.195-1.378c0-.506.065-.966.195-1.378a3.03 3.03 0 0 1 .564-1.054 2.44 2.44 0 0 1 .907-.667c.36-.156.767-.233 1.225-.233zm4.99-2.547v5.561h.061l.882-1.138 1.531-1.728h1.556l-2.23 2.462 2.5 3.908h-1.593l-1.825-3.038-.882.955v2.083h-1.335v-9.065zm-16.318 0v7.974h.882v1.091h-.857c-.458 0-.799-.116-1.023-.35-.225-.232-.337-.557-.337-.973v-7.742zm28.795 0v3.749h.062a2.09 2.09 0 0 1 .63-.858c.282-.228.668-.343 1.158-.343.654 0 1.162.214 1.525.643s.546 1.04.546 1.831v4.043h-1.336v-3.884c0-.987-.4-1.482-1.2-1.482-.172 0-.341.023-.509.067a1.484 1.484 0 0 0-.447.203.962.962 0 0 0-.429.821V50.7h-1.335v-9.065h1.335zm13.553 2.695v6.37H65.43v-6.37zm4.918-.148c.654 0 1.162.215 1.525.644.363.428.546 1.039.546 1.831v4.043h-1.336V46.83c0-.996-.4-1.495-1.201-1.495-.17 0-.34.023-.508.067a1.484 1.484 0 0 0-.447.203c-.13.09-.234.205-.312.343a.987.987 0 0 0-.117.49V50.7h-1.335v-6.37h1.335v1.053h.062a2.09 2.09 0 0 1 .63-.857c.282-.229.668-.343 1.158-.343zm-9.432 3.712h-1.127c-.922 0-1.384.286-1.384.858v.22c0 .286.096.5.288.644.192.142.455.214.79.214.417 0 .76-.092 1.03-.276a.852.852 0 0 0 .403-.74zM28.895 45.3c-.458 0-.825.14-1.103.42s-.416.7-.416 1.26v1.073c0 .56.138.98.416 1.26s.645.421 1.103.421c.457 0 .824-.14 1.102-.42s.417-.7.417-1.261V46.98c0-.56-.14-.98-.417-1.26-.278-.28-.645-.42-1.102-.42zm-10.171.036c-.409 0-.752.1-1.03.3a.933.933 0 0 0-.416.79v2.181c0 .327.14.59.416.79.278.2.621.3 1.03.3.465 0 .837-.148 1.114-.447.278-.298.417-.691.417-1.182v-1.102c0-.49-.14-.884-.417-1.183-.277-.298-.649-.447-1.114-.447zm47.38-3.748c.277 0 .477.065.6.196a.705.705 0 0 1 .183.502v.208a.707.707 0 0 1-.183.503c-.123.13-.323.195-.6.195-.278 0-.48-.065-.607-.195a.693.693 0 0 1-.19-.503v-.208a.69.69 0 0 1 .19-.502c.127-.131.329-.196.606-.196zM39.533.5a.905.905 0 1 1 .113 1.802l-.113.007h-7.92v10.102h6.7a.906.906 0 0 1 .114 1.803l-.114.007h-6.7v10.162h7.92a.906.906 0 0 1 .113 1.803l-.113.007h-8.826a.907.907 0 0 1-.9-.8l-.006-.105V1.405c0-.463.35-.846.8-.899L30.708.5h8.826zM66.02.5c.499 0 .906.407.906.905a.907.907 0 0 1-.792.898l-.114.007h-6.883v10.1H64.3a.907.907 0 1 1 .106 1.805l-.106.006h-5.165V25.27a.924.924 0 0 1-1.84.108l-.007-.108V1.424c0-.503.404-.912.904-.922h.002zm22.752 0c.473 0 .864.357.917.816l.007.108v23.845a.924.924 0 0 1-1.841.108l-.007-.108V2.347H81.7a.923.923 0 0 1-.108-1.84L81.7.501h7.073zM4.091.5c1.645 0 3.135.27 4.474.81a9.017 9.017 0 0 1 3.422 2.41c.945 1.069 1.675 2.406 2.19 4.013.516 1.608.773 3.479.773 5.614 0 2.134-.257 4.006-.772 5.614-.516 1.607-1.246 2.944-2.191 4.012a9.01 9.01 0 0 1-3.422 2.41c-1.218.492-2.56.759-4.029.804l-.444.006H0V.5h4.093zm0 1.7H1.7v22.293h2.393c1.417 0 2.708-.23 3.836-.686a7.251 7.251 0 0 0 2.786-1.961c.784-.886 1.404-2.032 1.845-3.405.459-1.431.691-3.146.691-5.094s-.232-3.663-.691-5.095c-.441-1.373-1.061-2.519-1.845-3.405A7.27 7.27 0 0 0 7.93 2.886C6.799 2.43 5.509 2.2 4.093 2.2z" fill="#fff" fill-rule="evenodd"/></g></svg>