<svg width="24" height="24" xmlns="http://www.w3.org/2000/svg"><path d="M15.987 2.5A5.477 5.477 0 0 1 19.8 4.035l3.9 3.751c.395.397.395 1.027.007 1.417l-2.324 2.324a1 1 0 0 1-1.346.061l-1.231-.951a.5.5 0 0 0-.806.4V20.5a1 1 0 0 1-1 1H7a1 1 0 0 1-1-1v-9.459a.5.5 0 0 0-.806-.4l-1.245.963a.989.989 0 0 1-1.332-.073L.293 9.207a1 1 0 0 1 0-1.414L4.2 4.035A5.477 5.477 0 0 1 8.012 2.5c.1.028.433-.07.5.3A3.692 3.692 0 0 0 12 6a3.692 3.692 0 0 0 3.487-3.2c.068-.371.4-.272.5-.3zM12.005 8v3.177l-.984-.753-.405-2.214c-.454.167-.87.413-1.23.723l.23 1.256-1.255.1A3.997 3.997 0 0 0 8 11.662l2.205-.175.698.535-.697.534-2.202-.176c.05.491.19.954.399 1.377l1.213.097-.218 1.183c.361.308.777.55 1.231.716l.393-2.133.983-.754V16a4.02 4.02 0 0 0 4.02-4 4.02 4.02 0 0 0-4.02-4zm1.348 1.68c.8.463 1.34 1.33 1.34 2.32 0 .99-.54 1.857-1.34 2.32V9.68z" fill="currentColor"/></svg>