<svg width="24" height="24" xmlns="http://www.w3.org/2000/svg"><g fill="none" fill-rule="evenodd"><path d="M0 0L24 0 24 24 0 24z"/><path d="M5.074 12.001a2.751 2.751 0 0 1 2.676 2.824v.941H8a1 1 0 0 1 1 1v4.5a1 1 0 0 1-1 1H2a1 1 0 0 1-1-1v-4.5l.007-.116A1 1 0 0 1 2 15.766h.25v-.94A2.751 2.751 0 0 1 5.074 12zM5 17.516a1 1 0 1 0 0 2l.117-.007A1 1 0 0 0 6 18.516l-.007-.116A1 1 0 0 0 5 17.516zm16.865-15.48c.537-.142 1 .153 1.108.7.056.281.016.558-.044.835l-.95 4.461-1.004 4.725c-.333 1.575-.668 3.15-1.004 4.725-.053.248-.094.5-.194.737a2.448 2.448 0 0 1-.057.126c-.215.42-.54.57-.994.447a1.963 1.963 0 0 1-.674-.327c-1.449-1.08-2.902-2.155-4.352-3.232l-.05-.035-.626.606c-.512.494-1.02.992-1.538 1.481-.237.225-.509.403-.837.473a.457.457 0 0 1-.078.012h-.086l.367-4.709.713-.65c2.575-2.355 5.15-4.707 7.725-7.06.062-.056.123-.112.173-.177.097-.122.055-.222-.098-.246-.173-.033-.325.027-.47.117-.293.186-.585.374-.878.559-3.23 2.032-6.46 4.064-9.689 6.099l-.054.031c-1.512-.463-3.024-.925-4.537-1.386-.17-.053-.346-.088-.498-.188-.252-.164-.305-.386-.158-.647.115-.199.294-.319.494-.415.442-.217.908-.374 1.367-.55 2.484-.961 4.971-1.92 7.458-2.878 2.88-1.112 5.763-2.225 8.647-3.335.271-.105.536-.226.818-.3zM4.95 13.525c-.69.027-1.228.609-1.2 1.3v.94h2.5v-.94a1.251 1.251 0 0 0-1.3-1.3z" fill="currentColor" fill-rule="nonzero"/></g></svg>