<svg width="150" height="54" viewBox="0 0 150 54" fill="none" xmlns="http://www.w3.org/2000/svg"><path d="M52.1818 53.0116 51.6623 52.8896 51.6103 51.1636C51.5584 49.1762 51.5757 49.1413 52.8745 49.1413 55.0912 49.1413 56.1649 48.2522 57.1001 45.7069l.5715-1.5865-3.6541-10.2162c-3.1865-8.9086-3.6367-10.2684-3.4463-10.5648C50.7791 23.0082 50.9522 22.9907 52.9438 23.0256L55.0912 23.0779l2.3726 7.1478 2.3725 7.1479L60.7022 34.6713C61.1698 33.1895 62.1743 29.9468 62.9362 27.4886l1.3682-4.4979H66.4172C68.3568 22.9907 68.5473 23.0256 68.7204 23.3394 68.8763 23.6358 68.1663 25.8673 64.6507 36.0312c-2.3552 6.7817-4.52 12.7963-4.8144 13.3716C59.1436 50.7104 57.7928 52.0876 56.6845 52.6455 55.9918 52.9768 55.5242 53.0639 54.26 53.0988 53.4114 53.1162 52.4762 53.0639 52.1818 53.0116z" fill="#13151b"/><path d="M120.986 52.6805C121.176 52.4016 122.596 50.7105 124.138 48.88 125.696 47.0669 127.671 44.661 128.554 43.5627 129.42 42.4644 130.822 40.7733 131.654 39.8145 133.715 37.426 134.251 36.5892 133.957 36.2754 133.524 35.857 132.416 35.7175 129.42 35.7175 126.683 35.7175 119.826 36.2754 119.41 36.5369 119.306 36.6067 119.289 36.5543 119.375 36.4323 119.774 35.7698 123.151 33.9742 123.965 33.9742 124.155 33.9742 124.311 33.9044 124.311 33.7998 124.311 33.7126 124.12 33.6255 123.895 33.6255 123.653 33.6255 122.822 33.4163 122.025 33.1722 119.86 32.4923 117.297 31.1499 118.683 31.4288 122.51 32.1959 128.311 32.3179 131.238 31.7252 134.39 31.0627 135.325 30.3828 136.485 27.9246 137.005 26.8089 137.04 26.6171 137.022 24.9086 136.988 20.0097 134.251 10.9442 130.597 3.56971 129.887 2.15758 129.35.937219 129.42.884918 129.766.536243 132.641 2.75033 135.239 5.38282 140.07 10.2991 144.071 17.2726 145.889 23.9672 146.305 25.5188 146.322 25.7977 146.166 26.7043 146.01 27.5062 145.508 28.8312 144.971 29.8075 144.937 29.8598 145.543 29.9993 146.305 30.1039 147.794 30.3131 148.365 30.5571 149.231 31.2894 150.132 32.039 150.201 32.3354 149.647 32.8584 148.746 33.6952 146.876 34.4972 144.677 34.9679 144.088 35.0899 143.984 35.1945 143.707 35.9267 143.118 37.4958 141.438 39.7447 139.118 42.0983c-2.685 2.7196-8.417 7.5488-10.287 8.6645C126.458 52.1924 123.48 53.1513 121.453 53.1513H120.657L120.986 52.6805z" fill="#13151b"/><path d="M5.99488 44.8529C2.86034 44.1032.435831 41.6276.0548374 38.8382-.118342 37.5307-.0144342 37.461 2.39276 37.461H4.41895L4.54018 38.1758C4.69604 39.1695 5.05971 39.7971 5.76975 40.3375 7.51886 41.6799 10.8785 41.5928 12.2466 40.1806 12.7489 39.6576 12.8355 39.431 12.8355 38.7685c0-1.569-.9179-2.1966-4.55466-3.1206-4.10434-1.0461-5.81881-1.97-6.87521-3.7483-1.714468-2.8766-.25976-6.7468 3.11723-8.3682 1.50666-.7148 2.92673-.9588 5.02219-.8368C13.736 22.9212 16.4895 25.0307 17.1303 28.4652 17.2862 29.3368 17.2688 29.5112 17.0091 29.8076 16.7493 30.0865 16.4549 30.1388 14.9482 30.1388 13.4589 30.1388 13.1472 30.0865 12.9047 29.825 12.7315 29.6507 12.6103 29.3543 12.6103 29.1625 12.6103 28.2211 11.2942 27.0356 9.85678 26.6521 8.40207 26.2685 6.25465 26.809 5.61389 27.7329c-.77931 1.0984-.39831 2.4931.83126 3.1033C6.84346 31.0279 8.24621 31.4638 9.54505 31.795 12.4198 32.5447 14.0304 33.1897 15.1907 34.044 17.4247 35.7002 18.0481 38.5419 16.7493 41.2441 15.918 43.0049 14.2209 44.2427 11.831 44.8703 10.5495 45.2016 7.363 45.2016 5.99488 44.8529z" fill="#13151b"/><path d="M91.5109 44.8702C89.8484 44.2775 88.7573 42.6736 88.4629 40.4246 88.3764 39.7098 88.2898 36.3102 88.2898 32.8932V26.6694L86.5233 26.6171 84.7396 26.5648 84.6876 25.0306C84.653 24.0369 84.7049 23.3918 84.8435 23.2349 84.982 23.0606 85.4843 22.9909 86.6619 22.9909h1.6279V20.7593C88.2898 17.9002 88.2551 17.9351 90.6623 17.9351 92.9829 17.9351 92.9656 17.9002 92.9656 20.7768v2.2141H94.5935C96.6889 22.9909 96.7755 23.0606 96.7755 24.8911 96.7755 25.6931 96.689 26.3207 96.5677 26.4427 96.4292 26.5822 95.7538 26.6519 94.6628 26.6519H92.9656v6.7992 6.8166L93.4159 40.721C93.8315 41.1394 93.9354 41.1568 95.1303 41.0871 95.9096 41.0348 96.4811 41.0696 96.6024 41.1917 96.689 41.2789 96.7755 42.1157 96.7755 43.0571v1.6911L95.9096 44.9399C94.6974 45.2014 92.3248 45.1666 91.5109 44.8702z" fill="#13151b"/><path d="M26.2223 44.3997C26.1704 44.1731 24.8022 39.4137 23.1917 33.8c-2.7536-9.5014-2.9268-10.1988-2.667-10.4951C20.7672 23.0434 21.0962 22.9911 22.7241 22.9911h1.9396L25.3045 25.4841C25.6508 26.8439 26.2916 29.3021 26.7245 30.9234 27.1575 32.5622 27.677 34.5671 27.8848 35.4213 28.0926 36.2581 28.3178 36.9381 28.3697 36.9381 28.4736 36.9381 30.0842 31.83 32.145 25.0308l.6235-2.0572L34.5869 23.0259 36.3879 23.0782 36.6996 24.0371C36.8728 24.5601 37.8426 27.6982 38.8644 31.0106c1.0044 3.3124 1.8876 6.0669 1.9569 6.1367C40.8906 37.2344 41.7565 34.0615 42.7436 30.1389l1.7837-7.1478H46.467c1.9569.0 2.3379.122 2.3379.697300000000002C48.8049 23.8279 47.4541 28.6222 45.8089 34.323L42.7956 44.6961 40.9772 44.7484 39.1588 44.8007 38.189 41.7846C37.6695 40.1284 36.6304 36.9032 35.903 34.6194c-.7273-2.3013-1.3854-4.1144-1.4374-4.0447C34.3964 30.6445 33.3746 33.8349 32.1797 37.6877l-2.1821 7.0084L28.1619 44.7484C26.3782 44.8007 26.3262 44.7832 26.2223 44.3997z" fill="#13151b"/><path d="M74.3487 44.574C74.2968 44.452 74.2448 40.3899 74.2102 35.5434L74.1756 26.7393 72.6169 26.6522 71.0583 26.565 71.0064 25.0308C70.9717 24.0545 71.0237 23.392 71.1449 23.2351 71.2835 23.0782 71.8376 22.9911 72.7555 22.9562L74.1756 22.9039 74.2795 20.899C74.4526 17.5692 75.4744 15.7735 77.8643 14.588 78.9899 14.0301 79.0765 14.0127 81.2759 14.0127 82.5055 14.0127 83.735 14.065 83.9775 14.1347 84.4104 14.2568 84.4105 14.2742 84.3412 15.7909 84.2373 17.8481 84.1507 17.9353 82.2457 17.9353 80.3581 17.9353 79.7 18.2317 79.1631 19.33 78.8514 19.9402 78.7648 20.3934 78.7648 21.5441v1.447h1.9569C82.0206 22.9911 82.7479 23.0608 82.8865 23.2003 83.1636 23.4792 83.1636 26.164 82.8865 26.4429 82.7479 26.5824 82.0206 26.6522 80.7217 26.6522H78.7648v8.7691C78.7648 43.7024 78.7475 44.2254 78.4531 44.4869 78.1933 44.7309 77.7604 44.7832 76.271 44.7832 74.9549 44.7832 74.4007 44.7135 74.3487 44.574z" fill="#13151b"/><path d="M99.3557 44.417C99.1826 44.0858 99.5636 43.4582 102.56 38.9254L105.954 33.7999 102.646 28.8139C98.5938 22.6772 98.6284 22.991 101.971 22.991h2.199L106.231 26.4777c1.143 1.9177 2.113 3.4519 2.182 3.4345C108.482 29.8947 109.469 28.3431 110.595 26.4777l2.044-3.3995L114.89 23.0259C117.089 22.991 117.159 22.991 117.332 23.3745 117.522 23.7929 117.834 23.2874 112.517 31.3766L110.959 33.765 114.318 38.8557C118.475 45.1144 118.423 44.7832 115.115 44.7832h-2.199l-2.2-3.574C109.504 39.2392 108.465 37.6353 108.413 37.6353 108.344 37.6353 107.322 39.2567 106.127 41.2092L103.962 44.7832h-2.199C99.7021 44.7832 99.5462 44.7657 99.3557 44.417z" fill="#13151b"/></svg>