<svg width="225" height="110" viewBox="0 0 225 110" fill="none" xmlns="http://www.w3.org/2000/svg">
<path d="M84.9102 53.2154C84.4344 52.6002 83.8766 52.0999 83.2204 51.739C82.2688 51.214 81.2025 50.9433 80.0295 50.9433C78.676 50.9433 77.462 51.2468 76.4038 51.8374C75.3374 52.4362 74.5008 53.2646 73.8855 54.3309C73.2703 55.3973 72.9586 56.6358 72.9586 58.0631C72.9586 59.4903 73.2703 60.7371 73.8855 61.8116C74.5008 62.8861 75.3374 63.7228 76.4038 64.3215C77.4702 64.9203 78.676 65.2156 80.0295 65.2156C81.2435 65.2156 82.3263 64.9449 83.2778 64.4118C83.9586 64.0263 84.541 63.5013 85.0168 62.8451V65.0598H87.4448V45.4805H84.9102V53.2072V53.2154ZM84.3196 60.6714C83.9094 61.4179 83.3434 61.992 82.6298 62.4022C81.9161 62.8041 81.1205 63.0091 80.2427 63.0091C79.365 63.0091 78.5448 62.8041 77.8393 62.4022C77.1339 62.0002 76.5761 61.4179 76.1495 60.6714C75.7312 59.925 75.5179 59.0556 75.5179 58.0713C75.5179 57.087 75.7312 56.2011 76.1495 55.4711C76.5679 54.7411 77.1339 54.1751 77.8393 53.7732C78.5448 53.3712 79.3404 53.1662 80.2427 53.1662C81.1451 53.1662 81.9161 53.3712 82.6298 53.7732C83.3434 54.1751 83.9012 54.7493 84.3196 55.4711C84.7297 56.2011 84.943 57.0706 84.943 58.0713C84.943 59.072 84.7379 59.925 84.3196 60.6714Z" fill="white"/>
<path d="M100.808 51.8511C99.7662 51.2523 98.5768 50.957 97.2151 50.957C95.8534 50.957 94.6804 51.2605 93.6141 51.8675C92.5477 52.4745 91.711 53.3111 91.104 54.3857C90.497 55.4602 90.1935 56.6906 90.1935 58.0768C90.1935 59.463 90.5052 60.7016 91.1286 61.7679C91.752 62.8424 92.6297 63.6873 93.7699 64.3024C94.9019 64.9176 96.2226 65.2293 97.7155 65.2293C98.8803 65.2293 99.9303 65.0325 100.865 64.6469C101.809 64.2614 102.596 63.6955 103.228 62.9572L101.825 61.325C101.317 61.8909 100.718 62.3092 100.045 62.5881C99.3643 62.867 98.6178 63.0065 97.7893 63.0065C96.7886 63.0065 95.8945 62.8014 95.1234 62.3995C94.3523 61.9976 93.7453 61.4316 93.3188 60.7016C92.9989 60.1602 92.802 59.5696 92.72 58.9216H104.073C104.089 58.7986 104.106 58.6674 104.114 58.5279C104.122 58.3885 104.13 58.2654 104.13 58.1588C104.13 56.7152 103.835 55.452 103.244 54.3693C102.654 53.2865 101.842 52.4499 100.8 51.8511H100.808ZM94.8691 53.6885C95.5581 53.2947 96.3374 53.0979 97.2151 53.0979C98.0928 53.0979 98.8967 53.2947 99.5775 53.6885C100.258 54.0822 100.783 54.6317 101.177 55.3371C101.472 55.8703 101.645 56.4609 101.71 57.1089H92.72C92.7938 56.4691 92.9742 55.8867 93.2613 55.3536C93.6469 54.6399 94.1883 54.0904 94.8691 53.6885Z" fill="white"/>
<path d="M118.681 51.082H116.146V65.0672H118.681V51.082Z" fill="white"/>
<path d="M111.816 45.3281C110.339 45.3281 109.199 45.7382 108.395 46.5585C107.591 47.3787 107.197 48.4697 107.197 49.8477V51.0863H104.819V53.1697H107.197V65.0715H109.732V53.1697H113.743V51.0863H109.683V49.8723C109.683 49.0602 109.88 48.4533 110.265 48.0349C110.651 47.6248 111.217 47.4116 111.955 47.4116C112.324 47.4116 112.677 47.469 113.013 47.5838C113.35 47.6986 113.645 47.8627 113.907 48.076L114.67 46.1484C114.317 45.8695 113.891 45.6562 113.391 45.525C112.89 45.3937 112.365 45.3281 111.824 45.3281H111.816Z" fill="white"/>
<path d="M126.367 53.7787C127.089 53.3768 127.909 53.1717 128.82 53.1717C129.575 53.1717 130.288 53.3357 130.944 53.6638C131.601 53.9919 132.158 54.4923 132.618 55.1813L134.546 53.9427C133.996 52.9584 133.233 52.212 132.241 51.7117C131.248 51.2113 130.116 50.957 128.853 50.957C127.425 50.957 126.154 51.2605 125.038 51.8675C123.923 52.4745 123.045 53.3111 122.414 54.3857C121.782 55.4602 121.462 56.6906 121.462 58.0768C121.462 59.463 121.782 60.7016 122.414 61.7679C123.045 62.8424 123.923 63.6873 125.038 64.3024C126.154 64.9176 127.425 65.2293 128.853 65.2293C130.116 65.2293 131.248 64.9668 132.241 64.4501C133.233 63.9333 134.004 63.1869 134.546 62.219L132.618 61.0051C132.158 61.6941 131.601 62.1944 130.944 62.5225C130.288 62.8506 129.575 63.0147 128.82 63.0147C127.901 63.0147 127.089 62.8096 126.367 62.4077C125.645 62.0058 125.071 61.4316 124.653 60.6934C124.235 59.9551 124.021 59.0857 124.021 58.085C124.021 57.0843 124.235 56.2148 124.653 55.4848C125.071 54.7548 125.645 54.1888 126.367 53.7869V53.7787Z" fill="white"/>
<path d="M147.194 51.6077C146.325 51.1648 145.316 50.9515 144.176 50.9515C142.913 50.9515 141.797 51.2058 140.854 51.7143C140.197 52.0671 139.664 52.5264 139.246 53.0678V45.4805H136.711V65.0598H139.246V57.858C139.246 56.8409 139.426 55.9878 139.787 55.2988C140.148 54.6098 140.665 54.0931 141.329 53.7404C142.002 53.3876 142.781 53.2154 143.675 53.2154C144.873 53.2154 145.8 53.5599 146.456 54.2407C147.112 54.9297 147.449 55.9468 147.449 57.3002V65.0598H149.983V57.0131C149.983 55.6433 149.737 54.5032 149.245 53.6091C148.753 52.715 148.072 52.0424 147.203 51.6077H147.194Z" fill="white"/>
<path d="M158.645 50.9492C157.538 50.9492 156.48 51.1051 155.463 51.4086C154.454 51.7203 153.584 52.1632 152.862 52.7374L153.92 54.6403C154.462 54.181 155.134 53.8201 155.93 53.5412C156.718 53.2705 157.53 53.1311 158.358 53.1311C159.605 53.1311 160.54 53.4264 161.172 54.0169C161.795 54.6075 162.107 55.436 162.107 56.5105V57.0108H158.096C156.709 57.0108 155.602 57.1995 154.782 57.5686C153.961 57.9377 153.371 58.4299 153.01 59.0451C152.649 59.6602 152.469 60.3492 152.469 61.1039C152.469 61.8585 152.682 62.6049 153.1 63.2283C153.518 63.8517 154.125 64.3439 154.905 64.6966C155.684 65.0493 156.595 65.2215 157.636 65.2215C158.924 65.2215 159.982 64.9836 160.827 64.4997C161.426 64.1552 161.885 63.7287 162.23 63.2119V65.0657H164.633V56.6253C164.633 54.7059 164.117 53.2869 163.075 52.3518C162.033 51.4168 160.557 50.9492 158.645 50.9492ZM160.557 62.6377C159.843 63.0561 159.014 63.2693 158.063 63.2693C157.111 63.2693 156.34 63.0643 155.791 62.6459C155.241 62.2358 154.97 61.6862 154.97 60.9972C154.97 60.3985 155.192 59.8899 155.627 59.4634C156.07 59.0451 156.923 58.8318 158.186 58.8318H162.09V60.784C161.771 61.596 161.262 62.2112 160.548 62.6295L160.557 62.6377Z" fill="white"/>
<path d="M170.646 51.082H168.112V65.0672H170.646V51.082Z" fill="white"/>
<path d="M186.773 53.6146C186.281 52.7206 185.6 52.048 184.731 51.6132C183.861 51.1703 182.852 50.957 181.712 50.957C180.449 50.957 179.333 51.2113 178.39 51.7199C177.684 52.0972 177.11 52.5975 176.675 53.2045V51.0883H174.247V65.0735H176.782V57.8717C176.782 56.8546 176.962 56.0015 177.323 55.3125C177.684 54.6235 178.201 54.1068 178.866 53.7541C179.538 53.4014 180.317 53.2291 181.212 53.2291C182.409 53.2291 183.336 53.5736 183.992 54.2544C184.649 54.9434 184.985 55.9605 184.985 57.3139V65.0735H187.52V57.0269C187.52 55.657 187.273 54.5169 186.781 53.6228L186.773 53.6146Z" fill="white"/>
<path d="M55.3546 65.9503V44.1071C60.0548 45.5097 63.4918 49.8735 63.4918 55.0328C63.4918 60.1922 60.0548 64.5559 55.3546 65.9585V65.9503ZM52.0981 40.375V52.7279L50.236 50.866L49.9981 46.2234L51.9422 40.3832C50.6954 40.3996 49.4978 40.5719 48.3494 40.8754L47.4142 43.697L44.7565 42.36C43.7066 42.9752 42.7304 43.7052 41.8609 44.5501L46.7908 47.019L46.9385 49.8406L44.1167 49.693L41.6476 44.7633C40.8027 45.6328 40.0645 46.6007 39.4575 47.6588L40.7945 50.3164L37.9728 51.2515C37.6693 52.3998 37.4888 53.6056 37.4806 54.8442L43.321 52.9002L47.9638 53.138L49.8259 55L47.9638 56.862L43.321 57.0998L37.4806 55.1558C37.497 56.4026 37.6693 57.6002 37.9728 58.7485L40.7945 59.6836L39.4575 62.3412C40.0727 63.3911 40.8027 64.3672 41.6476 65.2367L44.1167 60.307L46.9385 60.1594L46.7908 62.981L41.8609 65.4499C42.7304 66.2948 43.6983 67.033 44.7565 67.64L47.4142 66.303L48.3494 69.1246C49.4978 69.4281 50.7036 69.6086 51.9422 69.6168L49.9981 63.7766L50.236 59.134L52.0981 57.2721V69.625C60.1943 69.625 66.7483 63.063 66.7483 54.9754C66.7483 46.8878 60.1861 40.375 52.0981 40.375Z" fill="#FF00AF"/>
<path d="M149.54 41.9566C149.261 41.8008 148.95 41.7188 148.597 41.7188C148.285 41.7188 148.006 41.7844 147.768 41.9238C147.645 41.9976 147.539 42.0961 147.44 42.2027V41.768H146.423V46.7797H147.489V45.0572C147.58 45.1556 147.67 45.2376 147.785 45.3032C148.014 45.4427 148.285 45.5083 148.597 45.5083C148.95 45.5083 149.261 45.4263 149.54 45.2704C149.819 45.1146 150.032 44.8931 150.196 44.6142C150.36 44.3353 150.442 43.999 150.442 43.6135C150.442 43.228 150.36 42.8999 150.196 42.6128C150.032 42.3257 149.819 42.1125 149.54 41.9484V41.9566ZM149.228 44.1631C149.146 44.3189 149.032 44.4338 148.892 44.5158C148.753 44.5978 148.597 44.6388 148.416 44.6388C148.236 44.6388 148.08 44.5978 147.941 44.5158C147.801 44.4338 147.686 44.3189 147.604 44.1631C147.522 44.0072 147.473 43.8268 147.473 43.6217C147.473 43.4167 147.514 43.228 147.604 43.0722C147.686 42.9245 147.801 42.8097 147.941 42.7277C148.08 42.6456 148.244 42.6046 148.416 42.6046C148.589 42.6046 148.753 42.6456 148.892 42.7277C149.032 42.8097 149.146 42.9245 149.228 43.0722C149.31 43.2198 149.351 43.4085 149.351 43.6217C149.351 43.835 149.31 44.0154 149.228 44.1631Z" fill="white"/>
<path d="M153.913 41.9648C153.609 41.8008 153.256 41.7188 152.863 41.7188C152.469 41.7188 152.124 41.8008 151.821 41.9648C151.517 42.1289 151.28 42.3503 151.107 42.6374C150.935 42.9245 150.845 43.2526 150.845 43.6217C150.845 43.9908 150.935 44.3107 151.107 44.5978C151.28 44.8849 151.517 45.1064 151.821 45.2704C152.124 45.4345 152.469 45.5165 152.863 45.5165C153.256 45.5165 153.601 45.4345 153.913 45.2704C154.216 45.1064 154.462 44.8849 154.635 44.5978C154.807 44.3189 154.897 43.9908 154.897 43.6217C154.897 43.2526 154.807 42.9245 154.635 42.6374C154.462 42.3503 154.224 42.1289 153.913 41.9648ZM153.683 44.1713C153.601 44.3271 153.486 44.442 153.347 44.524C153.207 44.606 153.043 44.647 152.863 44.647C152.682 44.647 152.535 44.606 152.387 44.524C152.248 44.442 152.133 44.3271 152.051 44.1713C151.969 44.0154 151.928 43.835 151.928 43.6217C151.928 43.4085 151.969 43.228 152.051 43.0722C152.133 42.9245 152.248 42.8097 152.387 42.7277C152.526 42.6456 152.69 42.6046 152.863 42.6046C153.035 42.6046 153.199 42.6456 153.339 42.7277C153.478 42.8097 153.593 42.9245 153.675 43.0722C153.757 43.2198 153.798 43.4085 153.798 43.6217C153.798 43.835 153.757 44.0154 153.675 44.1713H153.683Z" fill="white"/>
<path d="M159.564 44.2873L158.686 41.7773H157.775L156.873 44.2627L156.003 41.7773H155.003L156.332 45.4603H157.365L158.21 43.1636L159.039 45.4603H160.072L161.401 41.7773H160.458L159.564 44.2873Z" fill="white"/>
<path d="M164.453 41.9523C164.166 41.7965 163.838 41.7227 163.477 41.7227C163.116 41.7227 162.763 41.8047 162.468 41.9687C162.164 42.1328 161.935 42.3542 161.771 42.6413C161.606 42.9284 161.524 43.2565 161.524 43.6174C161.524 43.9783 161.615 44.3064 161.787 44.5935C161.959 44.8806 162.205 45.1021 162.517 45.2661C162.829 45.4302 163.198 45.5122 163.616 45.5122C163.952 45.5122 164.248 45.463 164.502 45.3563C164.756 45.2579 164.97 45.1103 165.142 44.9134L164.576 44.2982C164.453 44.4131 164.313 44.5033 164.166 44.5689C164.018 44.6263 163.846 44.6591 163.657 44.6591C163.436 44.6591 163.239 44.6181 163.083 44.5361C162.919 44.4541 162.796 44.3392 162.706 44.1916C162.656 44.1096 162.624 44.0193 162.599 43.9209H165.38C165.38 43.8717 165.388 43.8225 165.396 43.7733C165.396 43.7241 165.396 43.6748 165.396 43.6338C165.396 43.2401 165.314 42.8956 165.142 42.6167C164.97 42.3378 164.74 42.1164 164.453 41.9605V41.9523ZM163.001 42.6495C163.14 42.5675 163.304 42.5265 163.485 42.5265C163.665 42.5265 163.829 42.5675 163.961 42.6495C164.092 42.7316 164.207 42.8382 164.281 42.9858C164.33 43.0761 164.354 43.1827 164.371 43.2975H162.574C162.591 43.1827 162.624 43.0761 162.673 42.9858C162.747 42.8464 162.861 42.7316 163.001 42.6495Z" fill="white"/>
<path d="M166.954 42.289V41.7805H165.937V45.4634H167.004V43.7244C167.004 43.3717 167.094 43.1093 167.274 42.9452C167.455 42.773 167.693 42.6909 167.996 42.6909C168.029 42.6909 168.07 42.6909 168.111 42.6909C168.152 42.6909 168.193 42.6991 168.234 42.7073V41.7148C167.89 41.7148 167.594 41.7805 167.348 41.9199C167.184 42.0101 167.069 42.1414 166.963 42.2808L166.954 42.289Z" fill="white"/>
<path d="M171.213 41.9523C170.926 41.7965 170.597 41.7227 170.237 41.7227C169.876 41.7227 169.523 41.8047 169.228 41.9687C168.924 42.1328 168.694 42.3542 168.53 42.6413C168.366 42.9284 168.284 43.2565 168.284 43.6174C168.284 43.9783 168.374 44.3064 168.547 44.5935C168.719 44.8806 168.965 45.1021 169.277 45.2661C169.588 45.4302 169.958 45.5122 170.376 45.5122C170.712 45.5122 171.008 45.463 171.262 45.3563C171.516 45.2579 171.729 45.1103 171.902 44.9134L171.336 44.2982C171.213 44.4131 171.073 44.5033 170.926 44.5689C170.778 44.6263 170.606 44.6591 170.417 44.6591C170.195 44.6591 169.999 44.6181 169.843 44.5361C169.679 44.4541 169.556 44.3392 169.465 44.1916C169.416 44.1096 169.383 44.0193 169.359 43.9209H172.14C172.14 43.8717 172.148 43.8225 172.156 43.7733C172.156 43.7241 172.156 43.6748 172.156 43.6338C172.156 43.2401 172.074 42.8956 171.902 42.6167C171.729 42.3378 171.5 42.1164 171.213 41.9605V41.9523ZM169.761 42.6495C169.9 42.5675 170.064 42.5265 170.245 42.5265C170.425 42.5265 170.589 42.5675 170.72 42.6495C170.852 42.7316 170.967 42.8382 171.04 42.9858C171.09 43.0761 171.114 43.1827 171.131 43.2975H169.334C169.351 43.1827 169.383 43.0761 169.433 42.9858C169.506 42.8464 169.621 42.7316 169.761 42.6495Z" fill="white"/>
<path d="M175.519 42.1631C175.437 42.0729 175.338 41.9909 175.231 41.9253C175.002 41.7858 174.723 41.7202 174.419 41.7202C174.075 41.7202 173.763 41.8022 173.484 41.9581C173.205 42.1139 172.984 42.3354 172.828 42.6225C172.664 42.9014 172.59 43.2377 172.59 43.6232C172.59 44.0087 172.672 44.345 172.828 44.6239C172.984 44.911 173.205 45.1242 173.484 45.2883C173.763 45.4441 174.075 45.5262 174.419 45.5262C174.747 45.5262 175.018 45.4605 175.256 45.3211C175.379 45.2473 175.486 45.157 175.576 45.0422V45.4687H176.601V40.375H175.535V42.1631H175.519ZM175.412 44.1645C175.33 44.3204 175.215 44.4352 175.076 44.5172C174.936 44.5993 174.772 44.6403 174.6 44.6403C174.428 44.6403 174.272 44.5993 174.124 44.5172C173.985 44.4352 173.87 44.3204 173.788 44.1645C173.706 44.0087 173.665 43.8282 173.665 43.615C173.665 43.4017 173.706 43.2213 173.788 43.0654C173.87 42.9178 173.985 42.8029 174.124 42.7209C174.264 42.6389 174.419 42.5979 174.6 42.5979C174.78 42.5979 174.936 42.6389 175.076 42.7209C175.215 42.8029 175.33 42.9178 175.412 43.0654C175.494 43.2131 175.535 43.4017 175.535 43.615C175.535 43.8282 175.494 44.0087 175.412 44.1645Z" fill="white"/>
<path d="M182.327 41.9581C182.048 41.8022 181.736 41.7202 181.384 41.7202C181.08 41.7202 180.809 41.7858 180.572 41.9253C180.465 41.9909 180.366 42.0729 180.276 42.1713V40.375H179.21V45.4605H180.227V45.034C180.317 45.1488 180.424 45.2473 180.555 45.3129C180.793 45.4441 181.064 45.5179 181.384 45.5179C181.736 45.5179 182.048 45.4359 182.327 45.2801C182.606 45.1242 182.819 44.9028 182.983 44.6157C183.147 44.3368 183.229 44.0005 183.229 43.615C183.229 43.2295 183.147 42.9014 182.983 42.6143C182.819 42.3272 182.606 42.1139 182.327 41.9499V41.9581ZM182.015 44.1645C181.933 44.3204 181.818 44.4352 181.679 44.5172C181.539 44.5993 181.384 44.6403 181.203 44.6403C181.023 44.6403 180.867 44.5993 180.727 44.5172C180.588 44.4352 180.473 44.3204 180.391 44.1645C180.309 44.0087 180.26 43.8282 180.26 43.615C180.26 43.4017 180.301 43.2213 180.391 43.0654C180.473 42.9178 180.588 42.8029 180.727 42.7209C180.867 42.6389 181.031 42.5979 181.203 42.5979C181.375 42.5979 181.539 42.6389 181.679 42.7209C181.818 42.8029 181.933 42.9178 182.015 43.0654C182.097 43.2131 182.138 43.4017 182.138 43.615C182.138 43.8282 182.097 44.0087 182.015 44.1645Z" fill="white"/>
<path d="M186.445 41.7816L185.395 44.2834L184.362 41.7816H183.263L184.854 45.4974L184.837 45.5302C184.764 45.6942 184.682 45.8091 184.591 45.8829C184.501 45.9567 184.386 45.9895 184.239 45.9895C184.132 45.9895 184.017 45.9649 183.911 45.9239C183.804 45.8829 183.706 45.8255 183.623 45.7434L183.23 46.5145C183.353 46.6211 183.509 46.7031 183.697 46.7605C183.886 46.818 184.075 46.8508 184.255 46.8508C184.477 46.8508 184.682 46.818 184.87 46.7441C185.059 46.6785 185.223 46.5555 185.379 46.3914C185.535 46.2274 185.666 45.9895 185.789 45.686L187.454 41.7734H186.437L186.445 41.7816Z" fill="white"/>
</svg>
