<svg height="274" width="304" xmlns="http://www.w3.org/2000/svg">
    <g fill="none" fill-rule="evenodd">
        <path d="M289.752 218.664c.54 24.418-60.102 45.564-135.448 47.232-75.346 1.666-136.866-16.778-137.406-41.198-.54-24.418 60.104-45.566 135.45-47.234 75.346-1.666 136.862 16.78 137.404 41.2"
              fill="#f4f3f6"/>
        <path d="M123.626 219.827l-9.162 5.302c-13.134-4.376-27.034-10.784-38.216-17.1-11.498-6.638-21.818-14.17-30.722-22.302l1.762-8.344a138.19 138.19 0 0 1-15.822-16.636l-8.374-1.255c-11.754-18.366-16.676-37.993-12.776-56.455l4.142-31.506.278.016c.812-2.708 1.768-5.677 2.974-8.272a59.118 59.118 0 0 1 3.412-6.306l1.594-8.214c4.114-6.674 9.542-12.605 16.066-17.736l.978-.758c6.912-5.265 15.004-9.657 24.022-13.11l10.944 3.409a140.29 140.29 0 0 1 14.058-3.213l.882-7.1c27.48-4.58 59.852-2.285 92.612 8.08C258.56 42.459 308.06 101.193 292.84 149.512a58.99 58.99 0 0 1-1.99 5.392l-15.89 34.489v.002c-16.516 34.721-65.444 52.065-120.946 44.861l-6.636-8.967c-7.832-1.351-15.886-3.15-23.752-5.462"
              fill="#fff"/>
        <g stroke="currentColor" stroke-width="2">
            <path d="M74.725 20.56a141.661 141.661 0 0 1 14.12-3.205m69.917 11.915a176.515 176.515 0 0 1 18.558 4.79c58.798 18.601 96.98 63.775 85.286 100.9-5.118 16.243-18.932 28.253-37.78 35.07"/>
            <path d="M164.111 40.782c4.168.99 8.368 2.15 12.576 3.48 56.39 17.84 93.374 60.03 82.6 94.233-4.65 14.764-17.44 25.626-35.008 31.769m-61.19-50.248l28.139 67.114M120.346 18.068l24.07 57.41m14.346-46.205l65.516 140.987M14.736 71.547c.812-2.708 1.768-5.677 2.974-8.272a59.463 59.463 0 0 1 3.41-6.306M121.592 8.045l-3.974 31.974 14 28.562 20.66 11.134z"/>
            <path d="M165.746 111.173l-11.028 12.651 11.028 33.95 39.372 45.357z" stroke-linejoin="bevel"/>
            <path d="M165.746 111.173l-2.656 8.843m-7.023 7.961l7.022-7.961M50.838 42.115l37.28 11.308 3.874 7.891m-3.875-7.892l2.25-8.33m-61.273 80.436c-5.88-8.828-10.184-17.937-12.692-27.058l64.716 12.704 44.992-2.764 11.02-12.204-21.512-12.341-44.75-1.253-54.942 14.015c-2.094-8.436-2.646-16.87-1.468-25.096l25.35-5.648-17.092-17.128m28.087 111.992c-9.162-8.141-17.156-17.393-23.264-26.415l1.556-8.803 31.356 5.77-7.834 20.858z"/>
            <path d="M21.122 56.969l1.594-8.214c4.114-6.674 9.542-12.605 16.066-17.736l33.086 30.295h26l-7.5-16.223-50.608-14.83c6.912-5.265 15.004-9.657 24.022-13.11l24.086 7.584 1.798-14.488c27.48-4.58 59.852-2.285 92.612 8.08C258.56 42.459 308.06 101.193 292.84 149.512c-12.58 39.939-65.442 60.26-126.476 52.48M32.263 67.564L21.123 56.97"/>
            <path d="M31.028 101.34L69.45 91.212l44 .836 18.362 10.044M113.45 92.048l2.166-8.184m-44.749-1.253l-1.416 8.602m-41.912 43.119l29.802 5.247m67.362 52.93c-13.744-4.515-26.59-10.155-38.314-16.651l44.416-22.158-6.062-20.657-27.438 1.806-12.824 39.938v.002c-11.898-6.756-22.602-14.397-31.866-22.63"/>
            <path d="M94.643 143.137l27.348-1.962 4.658 14.597m-1.907-22.73l-2.75 8.133m40.959 69.13l3.412-8.315-18.996-21.583-22.664 12.103-2.502 8.853c.816.269 1.634.533 2.458.794 13.228 4.183 25.486 6.516 38.292 8.147z"/>
            <path d="M122.2 201.363l22.716-13.144 18.034 22.086m-18.034-22.085l2.452-7.812m143.481-25.503l-15.89 34.489v.002c-16.516 34.72-65.444 52.065-120.944 44.861l-6.636-8.97"/>
            <path d="M114.465 225.128l2.442-7.41c1.044.348 2.094.687 3.15 1.02 12.266 3.882 25.146 6.474 37.06 8.02l-3.102 7.5"/>
            <path d="M23.093 159.493l1.342-8.258c6.11 9.023 13.692 18.005 22.854 26.149l-1.762 8.344c8.902 8.131 19.224 15.662 30.72 22.302 11.184 6.314 25.084 12.722 38.218 17.097l9.162-5.3"/>
            <path d="M14.457 71.531l-4.14 31.507c-3.902 18.462 1.022 38.088 12.776 56.454l8.372 1.255"/>
        </g>
    </g>
</svg>
