<svg height="30" width="126" xmlns="http://www.w3.org/2000/svg"><g fill="none"><g fill="#000"><path d="M49.938 7.466a3.858 3.858 0 0 0-.965-.707 3.601 3.601 0 0 0-.547-.233l.12-.059c.23-.119.443-.27.631-.45.312-.321.545-.71.68-1.137a4.48 4.48 0 0 0 .215-1.416 3.889 3.889 0 0 0-.23-1.364 2.773 2.773 0 0 0-.668-1.037C48.526.432 47.436.001 45.97.001h-7.692v13.662h8.246a5.342 5.342 0 0 0 1.892-.306 3.702 3.702 0 0 0 1.335-.858 3.1 3.1 0 0 0 .71-1.145c.17-.472.255-.97.252-1.473a4.77 4.77 0 0 0-.187-1.365 2.6 2.6 0 0 0-.588-1.05zm-3.025 3.167c-.15.11-.32.189-.5.232a2.893 2.893 0 0 1-.73.083h-4.2V8.182h4.233c.418-.02.83.103 1.169.347.148.123.26.284.322.466.07.212.105.434.1.658.004.198-.028.395-.095.582a.932.932 0 0 1-.299.398zm-.354-7.18c.078.201.118.415.117.63.004.24-.035.48-.117.706a1.219 1.219 0 0 1-.299.461 1.04 1.04 0 0 1-.387.232 1.464 1.464 0 0 1-.482.074h-3.907V2.7h3.626c.234-.005.468.02.696.075.172.04.331.12.466.234.131.124.232.277.294.447zm6.708 10.209h3.323V0h-3.323zm5.338-10.846h4.329v10.846h3.322V2.816H70.6V0H58.605zm13.185 0h4.328v10.846h3.322V2.816h4.346V0H71.79zm25.157 3.75c.326-.562.512-1.38.512-2.412a6.366 6.366 0 0 0-.146-1.463 3.401 3.401 0 0 0-.473-1.112A2.917 2.917 0 0 0 95.546.411 5.02 5.02 0 0 0 93.391 0h-7.59v13.662h3.222V8.486h3.212l2.595 5.176h3.673L95.36 7.847a2.65 2.65 0 0 0 1.586-1.28zm-2.875-1.224a.607.607 0 0 1-.15.186 1.11 1.11 0 0 1-.412.198c-.2.05-.404.075-.608.072H89.04V2.816h3.693c.308-.011.616.04.904.154.102.045.196.106.28.182a.883.883 0 0 1 .188.254c.022.054.041.11.054.167.055.268.082.542.08.816a3.042 3.042 0 0 1-.047.514 1.863 1.863 0 0 1-.12.44z"/><path d="M96.948 6.566h-.001v.001zm6.827 1.706h7.04V5.39h-7.04V2.87h7.309v-2.87H100.57v13.663H111.168v-2.85h-7.393z"/></g><path d="M126 17.879H38.354v11.985H126z" fill="#1c6fe8"/><path d="M69.964 27.201l-.067-.622c-.354.412-.868.716-1.938.716-1.043 0-1.878-.37-2.366-.985-.362-.456-.632-1.306-.632-2.426 0-.968.11-1.684.607-2.359.43-.58 1.237-1.077 2.568-1.077 1.416 0 2.232.463 2.628 1.169.21.372.32.793.32 1.22H69.67a1.168 1.168 0 0 0-.334-.75 1.581 1.581 0 0 0-1.154-.412c-.59 0-1.012.152-1.297.464-.286.313-.437.869-.437 1.779s.143 1.389.412 1.726c.22.27.708.489 1.349.489.85 0 1.456-.43 1.574-.977v-.614H67.86v-1.195h3.262v2.055c0 .816.009 1.768.009 1.793l-1.166.006zm2.13 0v-6.653h1.466v5.416h3.327v1.237zm10.781-5.684c.387.514.564 1.28.564 2.317 0 1.085-.21 1.837-.59 2.4-.462.69-1.347 1.061-2.652 1.061-1.306 0-2.156-.354-2.637-1.045-.412-.565-.606-1.356-.606-2.4 0-.986.177-1.752.573-2.273.5-.691 1.322-1.129 2.671-1.129 1.32 0 2.172.38 2.677 1.069zm-1.356 4.102c.32-.32.456-1.019.456-1.752 0-.732-.136-1.399-.414-1.692-.28-.294-.631-.515-1.364-.515s-1.062.202-1.348.523c-.262.294-.412.977-.412 1.693 0 .75.167 1.439.5 1.776.271.27.625.448 1.273.448.686 0 1.04-.212 1.309-.481zm6.863 1.582H84.35v-6.653h3.756c.716 0 1.237.21 1.541.501a1.54 1.54 0 0 1 .42 1.137c.025.444-.127.879-.42 1.212-.18.166-.4.282-.64.334a1.78 1.78 0 0 1 1.02.514c.243.252.361.668.361 1.146a1.77 1.77 0 0 1-.454 1.247c-.337.344-.834.562-1.55.562zm-.066-5.305a.958.958 0 0 0-.64-.177h-1.903v1.61h2.043a.695.695 0 0 0 .501-.178.866.866 0 0 0 .236-.65.834.834 0 0 0-.236-.605zm.547 3.385a.774.774 0 0 0-.244-.63 1.015 1.015 0 0 0-.64-.194h-2.206v1.566h2.189a1.1 1.1 0 0 0 .667-.177.68.68 0 0 0 .234-.565zm3.294 1.92h-1.491l2.578-6.653h1.836l2.434 6.653H96l-.565-1.566h-2.68l-.597 1.566zm2.132-4.816l-.152-.548-.167.556-.758 2.039h1.783zm3.854 4.816v-6.653h1.466v5.416h3.327v1.237z" fill="#fff"/><path d="M29.864 21.203V0H8.661v6.272h3.874V3.873h13.454v13.453h-4.786V8.663H0v21.203h21.203v-6.27H17.33v2.395H3.873V12.536h4.79v8.667zm-12.538-3.875h-4.79v-4.792h4.79z" fill="#1c6fe8"/><path d="M121.026 6.538l-1.448-2.064L116.573 0h-3.841l4.72 6.762-5.015 6.9h3.75l.075-.107 2.975-4.284 2.954 4.39h3.827z" fill="#000"/><path d="M121.756 2.357h1.903v1.859h2.36V0H121.8v2.357z" fill="#1c6fe8"/></g></svg>