<svg width="24" height="24" xmlns="http://www.w3.org/2000/svg"><g transform="translate(-1)" fill="currentColor"><path d="M8.159 12.6a1 1 0 1 0-1.414 1.414l.353.353a.5.5 0 0 1 0 .707l-5.511 5.513A2 2 0 0 0 3 24c.531.002 1.04-.21 1.415-.587l5.51-5.51a.5.5 0 0 1 .707 0l.353.353a1 1 0 1 0 1.415-1.414L8.159 12.6zm13.275-6.41h.125a1.72 1.72 0 0 0 1.253-.69l1.968-2.633a1.115 1.115 0 0 0-.1-1.448L23.582.325A1.109 1.109 0 0 0 22.165.2l-2.7 1.875c-.419.29-.687.752-.731 1.259-.02.232.01.465.085.685a.5.5 0 0 1-.12.515l-7.609 7.6a.75.75 0 0 0 0 1.06l.708.708a.75.75 0 0 0 1.061 0l7.65-7.642A.5.5 0 0 1 21 6.13c.141.04.287.06.434.06zm-2.224 8.963a.5.5 0 0 1-.484-.13l-2.24-2.24a.516.516 0 0 0-.707 0L13.658 14.9a.5.5 0 0 0 0 .707l2.24 2.241a.5.5 0 0 1 .129.484 4.506 4.506 0 0 0 5.512 5.512.5.5 0 0 0 .225-.837l-1.5-1.494a.507.507 0 0 1-.143-.3l-.177-1.591a.5.5 0 0 1 .553-.552l1.59.177a.5.5 0 0 1 .3.143l1.5 1.5a.5.5 0 0 0 .836-.225 4.5 4.5 0 0 0-5.512-5.512h-.001zM6.666 8.974a.5.5 0 0 1 .484.13l2.24 2.24a.5.5 0 0 0 .707 0l2.121-2.121a.5.5 0 0 0 0-.707l-2.24-2.241a.5.5 0 0 1-.129-.484A4.5 4.5 0 0 0 4.336.279a.5.5 0 0 0-.225.836l1.495 1.5a.5.5 0 0 1 .144.3L5.926 4.5a.5.5 0 0 1-.552.552l-1.591-.177a.5.5 0 0 1-.3-.143L1.99 3.237a.5.5 0 0 0-.836.225 4.5 4.5 0 0 0 5.512 5.512z"/></g></svg>