<svg width="25" height="24" xmlns="http://www.w3.org/2000/svg"><path d="M24 1.24a1 1 0 0 0-1-.99H10.584c-1.362 0-2 1.268-2.025 2.468A98.587 98.587 0 0 1 7.7 16.042a.251.251 0 0 1-.247.208H4.5c-2.015 0-2.222 2.068-2.346 3.305-.193 1.922-.419 2.2-1.154 2.2a1 1 0 1 0 0 2h11.5c2.376 0 2.713-2.356 2.915-3.764.169-1.176.3-1.736.585-1.736h.4c.107 0 .202.07.236.171.064.21.116.423.157.638.2.94.567 2.69 2.7 2.69 4.061 0 4.5-11.539 4.5-16.483C24.019 3.8 24 1.24 24 1.24zM12.059 13.5a.75.75 0 1 1 0-1.5h6a.75.75 0 1 1 0 1.5h-6zm-.25-8.75a.75.75 0 0 1 .75-.75h2a.75.75 0 1 1 0 1.5h-2a.75.75 0 0 1-.75-.75zm6.75 4.75h-5.75a.75.75 0 1 1 0-1.5h5.75a.75.75 0 1 1 0 1.5zM13.43 19.7c-.253 1.766-.446 2.048-.935 2.048H4.113a.25.25 0 0 1-.241-.315 10.6 10.6 0 0 0 .267-1.681 4.786 4.786 0 0 1 .28-1.5.214.214 0 0 1 .081-.002h8.891a.25.25 0 0 1 .243.306c-.096.397-.153.794-.204 1.144z" fill="#5B10FF"/></svg>