<svg height="24" width="24" xmlns="http://www.w3.org/2000/svg"><path d="M18.019 8.836a.25.25 0 0 0-.241.183l-3.387 12.1a.25.25 0 0 0 .444.212l8.64-12.094a.251.251 0 0 0-.2-.4zm-1.837.318a.25.25 0 0 0-.24-.318H8.059a.25.25 0 0 0-.241.318l3.941 14.077a.25.25 0 0 0 .482 0zm-1.244-1.818a.25.25 0 0 0 .226-.357L12.174.7a.191.191 0 1 0-.347-.004L8.836 6.979a.25.25 0 0 0 .226.357zM9.165 21.327a.25.25 0 0 0 .444-.212L6.222 9.019a.249.249 0 0 0-.24-.183H.729a.251.251 0 0 0-.2.4zm9.173-14.308a.249.249 0 0 0 .241.317h4.676a.25.25 0 0 0 .2-.4l-3.393-4.58a.25.25 0 0 0-.441.081zm-12.916.317a.249.249 0 0 0 .24-.317L4.38 2.437a.25.25 0 0 0-.442-.081L.544 6.938a.25.25 0 0 0 .2.4zm1.594-1.044a.251.251 0 0 0 .467.04L10.047.944a.25.25 0 0 0-.225-.358H5.745a.256.256 0 0 0-.2.1.251.251 0 0 0-.037.214zm9.501.04a.25.25 0 0 0 .467-.04L18.492.9a.25.25 0 0 0-.236-.318h-4.078a.25.25 0 0 0-.225.358z" fill="#5b10ff"/></svg>