<svg width="24" height="22" xmlns="http://www.w3.org/2000/svg"><g fill="#5B10FF"><path d="M23.709 10.5L21.79 7.941a.752.752 0 0 0-1.268.108L19.064 10.9a.75.75 0 0 0 .668 1.092c.041 0-.006 0 .734-.06a8.524 8.524 0 0 1-14.788 4.8 1 1 0 1 0-1.478 1.34c3.902 4.309 10.558 4.639 14.866.737a10.525 10.525 0 0 0 3.434-7.054l.678-.058a.749.749 0 0 0 .53-1.197h.001zm-19.503-.491l-.683.059A8.531 8.531 0 0 1 18.6 5.58a1 1 0 0 0 1.543-1.272C16.462-.186 9.834-.845 5.34 2.836a10.519 10.519 0 0 0-3.828 7.403l-.685.061a.75.75 0 0 0-.537 1.2l1.921 2.558a.75.75 0 0 0 1.268-.108l1.458-2.85a.751.751 0 0 0-.731-1.091z"/><path d="M10.936 15.713a.5.5 0 0 0 .553-.144l3.941-4.588a.75.75 0 0 0-.57-1.237h-1a.25.25 0 0 1-.25-.25v-3.25a.5.5 0 0 0-.879-.326L8.79 10.507a.75.75 0 0 0 .571 1.237h1a.25.25 0 0 1 .25.25v3.25a.5.5 0 0 0 .326.469z"/></g></svg>