<svg height="330" width="458" xmlns="http://www.w3.org/2000/svg"><g fill="none" fill-rule="evenodd"><path d="m288.45 219.746h-.01c.044-.876.07-1.753.055-2.636-.679-40.278-63.906-71.874-141.224-70.572-77.316 1.303-139.444 35.012-138.765 75.292.01.58.036 1.16.071 1.736h-.002l.003.024c.094 1.493.28 2.973.543 4.44l2.983 24.428c5.413 39.673 65.391 70.1 138.031 68.874 72.833-1.228 131.873-33.826 135.663-73.806l2.34-24.508a39.13 39.13 0 0 0 .286-3.004z" fill="#5b10ff"/><g stroke="#fff" stroke-width="2"><path d="m288.494 217.11c.68 40.28-61.448 73.987-138.765 75.29-77.317 1.304-140.545-30.293-141.224-70.57-.678-40.28 61.449-73.989 138.766-75.292s140.544 30.294 141.223 70.572z"/><path d="m260.985 213.701c.536 31.818-49.264 58.458-111.23 59.502-61.967 1.044-112.637-23.902-113.173-55.72-.536-31.817 49.263-58.457 111.231-59.5 61.967-1.046 112.636 23.901 113.172 55.718z"/><path d="m37.501 224.394c1.076-31.125 50.057-56.913 110.764-57.936 59.28-.999 108.18 21.98 112.425 51.991"/><path d="m288.45 219.746-2.653 27.78c-3.79 39.98-62.829 72.577-135.663 73.805-72.64 1.225-132.618-29.2-138.03-68.874l-3.529-28.892"/><path d="m129.527 167.583 10.002 8.765s22.14-5.572 34.042-1.507c11.903 4.063 18.03 10.545 10.371 17.379 0 0 19.975-1.721 29.175 3.885 9.78 5.96 10.417 13.771 5.35 18.789-5.067 5.016-21.644 11.656-21.644 11.656l14.213 12.454-14.136 4.43-13.889-12.591-10.726 3.385 13.481 12.695-14.454 4.529-13.224-12.746-27.55 8.692-6.926-10.284 11.694-3.532c1.833-.586 2.377-2.918.992-4.255l-29.698-28.664a10.631 10.631 0 0 0 -10.338-2.563l-10.03 3.152-7.216-6.286v-.001l25.538-7.857-10.274-9.903 13.536-3.695 10.08 9.493 9.218-2.836-10.11-9.165z" stroke-linejoin="round"/><path d="m138.389 202.304-13.311-12.536 18.212-5.266s9.529-2.456 16.848.333c7.158 2.728 3.479 9.388-3.591 11.509z"/><path d="m133.349 197.558 9.94-2.875s9.53-2.456 16.849.333m-11.626 16.822 17.933-5.065c10.075-2.475 21.386-2.83 25.452.707 4.065 3.534-1.056 8.34-5.644 9.808l-23.853 7.629z"/><path d="m156.967 219.8 10.636-3.004c7.555-1.856 15.807-2.52 21.176-1.243m-109.763-20.587v9.39l7.215 7.216 10.315-3.226a10.582 10.582 0 0 1 10.488 2.469l24.844 23.864m-45.648-33.427v10.32m37.381 25.542-.589 10.016 6.84 11.558 28.426-9.555 13.314 13.698 14.46-5.214-.297-10.694m-55.229.475-.674 11.29m28.225-19.982.2 10.427m13.024 2.32.291 11.378"/><path d="m180.38 241.85 2.449-.7 13.839 13.05 13.952-4.69.416-10.506m-14.136 4.43-.232 10.766m-13.656-23.357-.183 10.307m38.448-35.626c1.283 6.541 2.145 15.51-3.104 20.277-4.257 3.87-13.3 7.802-13.3 7.802" stroke-linejoin="round"/><path d="m117.003 171.002v9.33l2.222 2.263"/><path d="m94.28 177.205.045 10.295 2.147 2.095" stroke-linejoin="round"/></g><path d="m278.626 219.827-9.162 5.302c-13.134-4.376-27.034-10.784-38.216-17.1-11.498-6.638-21.818-14.17-30.722-22.302l1.762-8.344a138.19 138.19 0 0 1 -15.822-16.636l-8.374-1.255c-11.754-18.366-16.676-37.993-12.776-56.455l4.142-31.506.278.016c.812-2.708 1.768-5.677 2.974-8.272a59.118 59.118 0 0 1 3.412-6.306l1.594-8.214c4.114-6.674 9.542-12.605 16.066-17.736l.978-.758c6.912-5.265 15.004-9.657 24.022-13.11l10.944 3.409a140.29 140.29 0 0 1 14.058-3.213l.882-7.1c27.48-4.58 59.852-2.285 92.612 8.08 76.282 24.132 125.782 82.866 110.562 131.185a58.99 58.99 0 0 1 -1.99 5.392l-15.89 34.489v.002c-16.516 34.721-65.444 52.065-120.946 44.861l-6.636-8.967c-7.832-1.351-15.886-3.15-23.752-5.462" fill="#fff"/><g stroke="#5b10ff" stroke-width="2"><path d="m229.725 20.56a141.661 141.661 0 0 1 14.12-3.205m69.917 11.915a176.515 176.515 0 0 1 18.558 4.79c58.798 18.601 96.98 63.775 85.286 100.9-5.118 16.243-18.932 28.253-37.78 35.07"/><path d="m319.111 40.782c4.168.99 8.368 2.15 12.576 3.48 56.39 17.84 93.374 60.03 82.6 94.233-4.65 14.764-17.44 25.626-35.008 31.769m-61.19-50.248 28.139 67.114m-70.882-169.062 24.07 57.41m14.346-46.205 65.516 140.987m-209.542-98.713c.812-2.708 1.768-5.677 2.974-8.272a59.463 59.463 0 0 1 3.41-6.306m100.472-48.924-3.974 31.974 14 28.562 20.66 11.134z"/><path d="m320.746 111.173-11.028 12.651 11.028 33.95 39.372 45.357z" stroke-linejoin="bevel"/><path d="m320.746 111.173-2.656 8.843m-7.023 7.961 7.022-7.961m-112.251-77.901 37.28 11.308 3.874 7.891m-3.875-7.892 2.25-8.33m-61.273 80.436c-5.88-8.829-10.184-17.937-12.692-27.059l64.716 12.704 44.992-2.764 11.02-12.204-21.512-12.341-44.75-1.253-54.942 14.016c-2.094-8.436-2.646-16.87-1.468-25.096l25.35-5.648-17.092-17.128m28.087 111.992c-9.162-8.141-17.156-17.393-23.264-26.415l1.556-8.803 31.356 5.77-7.834 20.858z"/><path d="m176.122 56.969 1.594-8.214c4.114-6.674 9.542-12.605 16.066-17.736l33.086 30.295h26l-7.5-16.223-50.608-14.83c6.912-5.265 15.004-9.657 24.022-13.11l24.086 7.584 1.798-14.488c27.48-4.58 59.852-2.285 92.612 8.08 76.282 24.132 125.782 82.866 110.562 131.185-12.58 39.939-65.442 60.26-126.476 52.48m-134.101-134.428-11.14-10.595"/><path d="m186.028 101.34 38.422-10.128 44 .836 18.362 10.044m-18.362-10.044 2.166-8.184m-44.749-1.253-1.416 8.602m-41.912 43.119 29.802 5.247m67.362 52.93c-13.744-4.515-26.59-10.155-38.314-16.651l44.416-22.158-6.062-20.657-27.438 1.806-12.824 39.938v.002c-11.898-6.756-22.602-14.397-31.866-22.63"/><path d="m249.643 143.137 27.348-1.962 4.658 14.597m-1.907-22.73-2.75 8.133m40.959 69.13 3.412-8.315-18.996-21.583-22.664 12.103-2.502 8.853c.816.269 1.634.533 2.458.794 13.228 4.183 25.486 6.516 38.292 8.147z"/><path d="m277.2 201.363 22.716-13.144 18.034 22.086m-18.034-22.086 2.452-7.81m143.481-25.504-15.89 34.489v.002c-16.516 34.72-65.444 52.065-120.944 44.861l-6.636-8.97"/><path d="m269.465 225.128 2.442-7.41c1.044.348 2.094.687 3.15 1.02 12.266 3.882 25.146 6.474 37.06 8.02l-3.102 7.5"/><path d="m178.093 159.493 1.342-8.258c6.11 9.023 13.692 18.005 22.854 26.149l-1.762 8.344c8.902 8.131 19.224 15.662 30.72 22.302 11.184 6.314 25.084 12.722 38.218 17.097l9.162-5.3"/><path d="m169.457 71.531-4.14 31.507c-3.902 18.462 1.022 38.088 12.776 56.454l8.372 1.255"/></g></g></svg>