<svg height="330" viewBox="0 0 458 330" width="458" xmlns="http://www.w3.org/2000/svg"><g fill="none" fill-rule="evenodd"><g transform="translate(8 146)"><path d="m280.4491 73.7461h-.01c.045-.876.071-1.753.056-2.636-.679-40.278-63.906-71.874-141.224-70.572-77.316 1.303-139.444 35.012-138.765 75.291.01.58.036 1.159.071 1.736h-.002l.003.024c.094 1.493.28 2.973.543 4.44l2.983 24.428c5.413 39.673 65.391 70.099 138.031 68.874 72.833-1.228 131.873-33.826 135.663-73.806l2.339-24.508c.136-.996.228-1.998.287-3.004z" fill="currentColor"/><g stroke="#fff" stroke-width="2"><path d="m280.494 71.1103c.68 40.279-61.448 73.987-138.765 75.29-77.317 1.304-140.545-30.293-141.224-70.571-.678-40.28 61.449-73.988 138.766-75.291s140.544 30.294 141.223 70.572z"/><path d="m252.9853 67.7012c.536 31.818-49.264 58.458-111.23 59.502-61.967 1.044-112.637-23.902-113.173-55.72-.536-31.817 49.263-58.457 111.231-59.501 61.967-1.045 112.636 23.902 113.172 55.719z"/><path d="m29.5014 78.3945c1.076-31.125 50.057-56.913 110.764-57.936 59.28-.999 108.18 21.98 112.425 51.991"/><path d="m280.4491 73.7461-2.652 27.779c-3.79 39.98-62.829 72.578-135.663 73.806-72.64 1.225-132.618-29.201-138.031-68.874l-3.528-28.892"/><path d="m121.5273 21.583 10.002 8.765s22.139-5.572 34.042-1.507c11.903 4.063 18.03 10.545 10.371 17.379 0 0 19.975-1.721 29.175 3.885 9.78 5.96 10.417 13.771 5.35 18.789-5.067 5.016-21.644 11.656-21.644 11.656l14.213 12.454-14.136 4.43-13.889-12.591-10.726 3.385 13.481 12.695-14.454 4.529-13.224-12.746-27.551 8.692-6.925-10.284 11.694-3.532c1.833-.586 2.377-2.918.992-4.255l-29.699-28.664c-2.738-2.643-6.681-3.621-10.338-2.563l-10.03 3.152-7.216-6.286v-.001l25.538-7.857-10.274-9.903 13.536-3.695 10.08 9.493 9.218-2.836-10.11-9.165z" stroke-linejoin="round"/><path d="m130.3886 56.3037-13.311-12.536 18.212-5.266s9.529-2.456 16.848.333c7.158 2.728 3.479 9.388-3.591 11.509z"/><path d="m125.3485 51.5576 9.941-2.875s9.529-2.456 16.848.333"/><path d="m140.5116 65.8379 17.933-5.065c10.075-2.475 21.386-2.829 25.452.707 4.065 3.534-1.056 8.34-5.644 9.808l-23.853 7.629z"/><path d="m148.9667 73.7998 10.636-3.004c7.555-1.856 15.807-2.519 21.176-1.243"/><path d="m71.0155 48.9658v9.391l7.216 7.215 10.314-3.226c3.685-1.152 7.704-.206 10.489 2.469l24.843 23.864"/><path d="m78.2314 55.2519v10.32"/><path d="m115.6122 91.1143-.589 10.016 6.84 11.558 28.426-9.555 13.314 13.698 14.46-5.214-.297-10.694"/><path d="m122.537 101.3984-.674 11.29"/><path d="m150.0878 92.7061.201 10.427"/><path d="m163.3124 105.4521.291 11.379"/><path d="m172.3798 95.8506 2.449-.701 13.839 13.05 13.952-4.689.416-10.507" stroke-linejoin="round"/><path d="m188.9003 97.4336-.232 10.766" stroke-linejoin="round"/><path d="m175.0116 84.8428-.183 10.307" stroke-linejoin="round"/><path d="m213.2773 59.5244c1.283 6.541 2.145 15.509-3.104 20.277-4.257 3.869-13.3 7.802-13.3 7.802" stroke-linejoin="round"/><path d="m109.0028 25.0019v9.331l2.222 2.262"/><path d="m86.2792 31.2051.046 10.295 2.147 2.095" stroke-linejoin="round"/></g></g><g transform="translate(164 8)"><path d="m114.6258 211.827068-9.162 5.301525c-13.134-4.375512-27.034-10.783443-38.216-17.099173-11.498-6.638431-21.818-14.170806-30.722-22.302483l1.762-8.34414c-5.924-5.265446-11.19-10.881655-15.822-16.636165l-8.374-1.254728c-11.754-18.365926-16.676-37.992592-12.776-56.4547275l4.142-31.5064924.278.0160349c.812-2.7078868 1.768-5.6763399 2.974-8.2719826 1.016-2.1827451 2.154-4.2853159 3.412-6.3057081l1.594-8.2138562c4.114-6.6745098 9.542-12.605403 16.066-17.7365577l.978-.7576471c6.912-5.2654466 15.004-9.6569934 24.022-13.11050107l10.944 3.40941177c4.53-1.2827887 9.186-2.3591285 14.058-3.21298475l.882-7.09943356c27.48-4.57995642 59.852-2.28496732 92.612 8.07956431 76.282 24.1324618 125.782 82.8661438 110.562 131.185185-.578 1.84-1.244 3.635904-1.99 5.391721l-15.89 34.488976v.002005c-16.516 34.721481-65.444 52.065185-120.946 44.861525l-6.636-8.967495c-7.832-1.350937-15.886-3.150849-23.752-5.461873" fill="#fff"/><g stroke="currentColor" stroke-width="2"><path d="m65.7254 12.559878c4.532-1.2827887 9.248-2.3511111 14.12-3.20496732"/><path d="m149.7616 21.2702135c6.132 1.228671 12.338 2.8221351 18.558 4.790414 58.798 18.6004357 96.98 63.7746405 85.286 100.8993465-5.118 16.243311-18.932 28.25342-37.78 35.07024"/><path d="m155.1112 32.7824401c4.168.9901525 8.368 2.148671 12.576 3.4795643 56.39 17.8407843 93.374 60.030501 82.6 94.2328536-4.65 14.764096-17.44 25.625708-35.008 31.769064"/><path d="m154.0896 112.016288 28.138 67.113899"/><path d="m111.3456 10.068061 24.07 57.410806"/><path d="m149.7616 21.27322 65.516 140.986492"/><path d="m5.7362 63.546719c.812-2.7078868 1.768-5.6763399 2.974-8.2719826 1.016-2.1827451 2.154-4.2853159 3.41-6.3057081"/><path d="m112.5916.04527233-3.974 31.97350767 14 28.5620915 20.66 11.1342048z"/><path d="m156.746 103.172863-11.028 12.651503 11.028 33.949804 39.372 45.356601z" stroke-linejoin="bevel"/><path d="m156.746 103.172863-2.656 8.843224"/><path d="m147.0672 119.976993 7.022-7.961307"/><path d="m41.8378 34.1145359 37.28 11.3085839 3.874 7.8911547"/><path d="m79.117 45.422318 2.25-8.330109"/><path d="m20.0936 117.52827c-5.88-8.829194-10.184-17.9369933-12.692-27.0588234l64.716 12.7036164 44.992-2.764009 11.02-12.2045311-21.512-12.3408279-44.75-1.2527233-54.942 14.0164706c-2.094-8.4363399-2.646-16.8706754-1.468-25.0965578l25.35-5.6482788-17.092-17.1272332"/><path d="m41.8026 152.747434c-9.162-8.1417-17.156-17.393813-23.264-26.415425l1.556-8.803138 31.356 5.770545-7.834 20.857342z"/><path d="m12.122 48.9690283 1.594-8.2138562c4.114-6.6745098 9.542-12.605403 16.066-17.7365577l33.086 30.2958605h26l-7.5-16.2232679-50.608-14.8302397c6.912-5.2654466 15.004-9.6569934 24.022-13.11050107l24.086 7.58448797 1.798-14.48749451c27.48-4.57995642 59.852-2.28496732 92.612 8.07956431 76.282 24.1324618 125.782 82.8661438 110.562 131.185185-12.58 39.938824-65.442 60.258998-126.476 52.480087"/><path d="m23.2626 59.564462-11.14-10.595033"/><path d="m22.0282 93.3398867 38.422-10.1280174 44 .835817 18.362 10.0438344"/><path d="m104.45 84.048288 2.166-8.183791"/><path d="m61.867 74.610771-1.416 8.602702"/><path d="m18.539 126.331608 29.802 5.247407"/><path d="m115.703 184.509882c-13.744-4.515817-26.59-10.156078-38.314-16.6522l44.416-22.15817-6.062-20.656906-27.438 1.805926-12.824 39.938823v.002004c-11.898-6.756688-22.602-14.397298-31.866-22.631198"/><path d="m85.6434 135.13695 27.348-1.962266 4.658 14.597734"/><path d="m115.742 125.041603-2.75 8.133682"/><path d="m153.951 202.304366 3.412-8.314074-18.996-21.582919-22.664 12.102309-2.502 8.853246c.816.268584 1.634.533159 2.458.793726 13.228 4.183093 25.486 6.516165 38.292 8.147712z"/><path d="m113.2 193.363129 22.716-13.144576 18.034 22.086013"/><path d="m135.9158 180.219355 2.452-7.81098"/><path d="m281.8494 146.904732-15.89 34.488976v.002004c-16.516 34.719478-65.444 52.065186-120.944 44.861525l-6.636-8.969498"/><path d="m105.4646 217.12759 2.442-7.410109c1.044.348759 2.094.687495 3.15 1.020218 12.266 3.88244 25.146 6.474074 37.06 8.019434l-3.102 7.500305"/><path d="m14.0926 151.492706 1.342-8.257952c6.11 9.023616 13.692 18.005141 22.854 26.148845l-1.762 8.34414c8.902 8.131677 19.224 15.662047 30.72 22.302483 11.184 6.313726 25.084 12.721656 38.218 17.097168l9.162-5.299521"/><path d="m5.4568 63.531085-4.14 31.5064923c-3.902 18.4621347 1.022 38.0888017 12.776 56.4547277l8.372 1.254728"/></g></g></g></svg>