<svg height="256" viewBox="0 0 504 256" width="504" xmlns="http://www.w3.org/2000/svg"><g fill="none" fill-rule="evenodd"><rect fill="#5b10ff" height="96" rx="8" width="192" x="8" y="8"/><g transform="matrix(0 1 -1 0 108.5 112.5)"><path d="m0 4h27" stroke="#000" stroke-opacity=".401907" stroke-width="2"/><path d="m29 2 4 4h-8z" fill="#000" fill-opacity=".401907" transform="matrix(0 1 -1 0 33 -25)"/></g><g transform="matrix(0 -1 1 0 372.5 143.5)"><path d="m0 4h27" stroke="#000" stroke-opacity=".401907" stroke-width="2"/><path d="m29 2 4 4h-8z" fill="#000" fill-opacity=".401907" transform="matrix(0 1 -1 0 33 -25)"/></g><text fill="#fff" font-family="IBMPlexSans-Text, IBM Plex Sans" font-size="14" font-weight="400"><tspan x="52.658" y="61">DeFi Foundation</tspan></text><rect fill="#fff" height="96" rx="8" width="192" x="8" y="152"/><g transform="translate(209 196)"><path d="m0 4h35" stroke="#000" stroke-opacity=".401907" stroke-width="2"/><path d="m37 2 4 4h-8z" fill="#000" fill-opacity=".401907" transform="matrix(0 1 -1 0 41 -33)"/></g><rect fill="#fff" height="96" rx="8" width="240" x="256" y="152"/><rect height="36" rx="4" stroke="#b3b0bb" stroke-width="2" width="106" x="272" y="196"/><rect height="36" rx="4" stroke="#b3b0bb" stroke-width="2" width="88" x="394" y="196"/><rect fill="#5b10ff" height="96" rx="8" width="216" x="280" y="8"/><g font-family="IBMPlexSans-Text, IBM Plex Sans" font-size="14" font-weight="400"><text fill="#000" fill-opacity=".604895"><tspan x="33.471" y="205">DFI Token Distribution</tspan></text><text fill="#000" fill-opacity=".401907"><tspan x="416.615" y="219">Others</tspan></text><text fill="#000" fill-opacity=".604895"><tspan x="272" y="180">Ecosystem Partners</tspan></text><text fill="#000" fill-opacity=".401907"><tspan x="284.949" y="219">Pool by Cake</tspan></text><text fill="#fff"><tspan x="337.222" y="43">DeFi Blockchain</tspan> <tspan x="345.664" y="61">Development</tspan> <tspan x="344.383" y="79">(open source)</tspan></text></g></g></svg>