<svg width="504" height="256" xmlns="http://www.w3.org/2000/svg"><g fill="none" fill-rule="evenodd"><rect fill="currentColor" x="8" y="8" width="192" height="96" rx="8"/><g transform="rotate(90 -2 110.5)"><path stroke-opacity=".402" stroke="#000" stroke-width="2" d="M0 4L27 4"/><path fill-opacity=".402" fill="#000" transform="rotate(90 29 4)" d="M29 2L33 6 25 6z"/></g><g transform="rotate(-90 258 -114.5)"><path stroke-opacity=".402" stroke="#000" stroke-width="2" d="M0 4L27 4"/><path fill-opacity=".402" fill="#000" transform="rotate(90 29 4)" d="M29 2L33 6 25 6z"/></g><text font-family="IBMPlexSans-Text, IBM Plex Sans" font-size="14" font-weight="400" fill="#FFF"><tspan x="52.658" y="61">DeFi Foundation</tspan></text><rect fill="#FFF" x="8" y="152" width="192" height="96" rx="8"/><g transform="translate(209 196)"><path stroke-opacity=".402" stroke="#000" stroke-width="2" d="M0 4L35 4"/><path fill-opacity=".402" fill="#000" transform="rotate(90 37 4)" d="M37 2L41 6 33 6z"/></g><rect fill="#FFF" x="256" y="152" width="240" height="96" rx="8"/><rect stroke="#B3B0BB" stroke-width="2" x="272" y="196" width="106" height="36" rx="4"/><rect stroke="#B3B0BB" stroke-width="2" x="394" y="196" width="88" height="36" rx="4"/><rect fill="currentColor" x="280" y="8" width="216" height="96" rx="8"/><text font-family="IBMPlexSans-Text, IBM Plex Sans" font-size="14" font-weight="400" fill="#000" fill-opacity=".605"><tspan x="33.471" y="205">DFI Token Distribution</tspan></text><text font-family="IBMPlexSans-Text, IBM Plex Sans" font-size="14" font-weight="400" fill="#000" fill-opacity=".402"><tspan x="416.615" y="219">Others</tspan></text><text font-family="IBMPlexSans-Text, IBM Plex Sans" font-size="14" font-weight="400" fill="#000" fill-opacity=".605"><tspan x="272" y="180">Ecosystem Partners</tspan></text><text font-family="IBMPlexSans-Text, IBM Plex Sans" font-size="14" font-weight="400" fill="#000" fill-opacity=".402"><tspan x="284.949" y="219">Pool by Cake</tspan></text><text font-family="IBMPlexSans-Text, IBM Plex Sans" font-size="14" font-weight="400" fill="#FFF"><tspan x="337.222" y="43">DeFiChain</tspan> <tspan x="345.664" y="61">Development</tspan> <tspan x="344.383" y="79">(open source)</tspan></text></g></svg>