<svg height="358" viewBox="0 0 600 358" width="600" xmlns="http://www.w3.org/2000/svg"><g fill="none" fill-rule="evenodd"><rect fill="#ff00af" height="96" rx="8" width="192" x="68" y="54"/><g transform="matrix(0 1 -1 0 168.5 158.5)"><path d="m0 4h27" stroke="#000" stroke-opacity=".401907" stroke-width="2"/><path d="m29 2 4 4h-8z" fill="#000" fill-opacity=".401907" transform="matrix(0 1 -1 0 33 -25)"/></g><g transform="matrix(0 -1 1 0 432.5 189.5)"><path d="m0 4h27" stroke="#000" stroke-opacity=".401907" stroke-width="2"/><path d="m29 2 4 4h-8z" fill="#000" fill-opacity=".401907" transform="matrix(0 1 -1 0 33 -25)"/></g><text fill="#fff" font-family="IBMPlexSans-SemiBold, IBM Plex Sans" font-size="18" font-weight="500"><tspan x="121.723" y="97">DeFiChain</tspan> <tspan x="117.322" y="120">Foundation</tspan></text><rect fill="#fff" height="96" rx="8" width="192" x="68" y="198"/><g transform="translate(269 242)"><path d="m0 4h35" stroke="#000" stroke-opacity=".401907" stroke-width="2"/><path d="m37 2 4 4h-8z" fill="#000" fill-opacity=".401907" transform="matrix(0 1 -1 0 41 -33)"/></g><rect fill="#fff" height="96" rx="8" width="240" x="316" y="198"/><rect height="36" rx="4" stroke="#b3b0bb" stroke-width="2" width="106" x="332" y="242"/><rect height="36" rx="4" stroke="#b3b0bb" stroke-width="2" width="88" x="454" y="242"/><rect fill="#ff00af" height="96" rx="8" width="192" x="340" y="54"/><g font-family="IBMPlexSans-SemiBold, IBM Plex Sans" font-weight="500"><text fill="#000" fill-opacity=".604895" font-size="18"><tspan x="122.317" y="241">DFI Token </tspan><tspan x="115.108" y="264">Distribution</tspan></text><text fill="#000" fill-opacity=".401907" font-size="14"><tspan x="476.132" y="265">Others</tspan></text><text fill="#000" fill-opacity=".604895" font-size="16"><tspan x="332" y="226">Ecosystem Partners</tspan></text><text fill="#000" fill-opacity=".401907" font-size="14"><tspan x="344.025" y="265">Pool by Cake</tspan></text><text fill="#fff" font-size="18"><tspan x="393.723" y="86">DeFiChain </tspan><tspan x="380.907" y="109">Development</tspan> <tspan font-family="IBMPlexSans, IBM Plex Sans" font-weight="normal" x="380.826" y="132">(open source)</tspan></text></g></g></svg>