<?xml version="1.0" encoding="UTF-8"?>
<svg width="504px" height="256px" viewBox="0 0 504 256" version="1.1" xmlns="http://www.w3.org/2000/svg" xmlns:xlink="http://www.w3.org/1999/xlink">
    <!-- Generator: Sketch 59 (86127) - https://sketch.com -->
    <title>foundation-diagram</title>
    <desc>Created with Sketch.</desc>
    <g id="foundation-diagram" stroke="none" stroke-width="1" fill="none" fill-rule="evenodd">
        <rect id="Rectangle" fill="currentColor" x="8" y="8" width="192" height="96" rx="8"></rect>
        <g id="Group-2" transform="translate(104.500000, 128.000000) rotate(-270.000000) translate(-104.500000, -128.000000) translate(89.000000, 124.000000)">
            <line x1="0" y1="4" x2="27" y2="4" id="Path-7" stroke-opacity="0.401906687" stroke="#000000" stroke-width="2"></line>
            <polygon id="Triangle" fill-opacity="0.401906687" fill="#000000" transform="translate(29.000000, 4.000000) rotate(-270.000000) translate(-29.000000, -4.000000) " points="29 2 33 6 25 6"></polygon>
        </g>
        <g id="Group-2" transform="translate(376.500000, 128.000000) rotate(-90.000000) translate(-376.500000, -128.000000) translate(361.000000, 124.000000)">
            <line x1="0" y1="4" x2="27" y2="4" id="Path-7" stroke-opacity="0.401906687" stroke="#000000" stroke-width="2"></line>
            <polygon id="Triangle" fill-opacity="0.401906687" fill="#000000" transform="translate(29.000000, 4.000000) rotate(-270.000000) translate(-29.000000, -4.000000) " points="29 2 33 6 25 6"></polygon>
        </g>
        <text id="DeFi-Foundation" font-family="IBMPlexSans-Text, IBM Plex Sans" font-size="14" font-weight="400" fill="#FFFFFF">
            <tspan x="52.658" y="61">DeFi Foundation</tspan>
        </text>
        <rect id="Rectangle" fill="#FFFFFF" x="8" y="152" width="192" height="96" rx="8"></rect>
        <g id="Group-2" transform="translate(209.000000, 196.000000)">
            <line x1="-1.17302001e-13" y1="4" x2="35" y2="4" id="Path-7" stroke-opacity="0.401906687" stroke="#000000" stroke-width="2"></line>
            <polygon id="Triangle" fill-opacity="0.401906687" fill="#000000" transform="translate(37.000000, 4.000000) rotate(-270.000000) translate(-37.000000, -4.000000) " points="37 2 41 6 33 6"></polygon>
        </g>
        <rect id="Rectangle" fill="#FFFFFF" x="256" y="152" width="240" height="96" rx="8"></rect>
        <rect id="Rectangle" stroke="#B3B0BB" stroke-width="2" x="272" y="196" width="106" height="36" rx="4"></rect>
        <rect id="Rectangle" stroke="#B3B0BB" stroke-width="2" x="394" y="196" width="88" height="36" rx="4"></rect>
        <rect id="Rectangle" fill="currentColor" x="280" y="8" width="216" height="96" rx="8"></rect>
        <text id="DFI-Token-Distributi" font-family="IBMPlexSans-Text, IBM Plex Sans" font-size="14" font-weight="400" fill="#000000" fill-opacity="0.604895105">
            <tspan x="33.471" y="205">DFI Token Distribution</tspan>
        </text>
        <text id="Others" font-family="IBMPlexSans-Text, IBM Plex Sans" font-size="14" font-weight="400" fill="#000000" fill-opacity="0.401906687">
            <tspan x="416.615" y="219">Others</tspan>
        </text>
        <text id="Ecosystem-Partners" font-family="IBMPlexSans-Text, IBM Plex Sans" font-size="14" font-weight="400" fill="#000000" fill-opacity="0.604895105">
            <tspan x="272" y="180">Ecosystem Partners</tspan>
        </text>
        <text id="Pool-by-Cake" font-family="IBMPlexSans-Text, IBM Plex Sans" font-size="14" font-weight="400" fill="#000000" fill-opacity="0.401906687">
            <tspan x="284.949" y="219">Pool by Cake</tspan>
        </text>
        <text id="DeFi-Blockchain-Deve" font-family="IBMPlexSans-Text, IBM Plex Sans" font-size="14" font-weight="400" fill="#FFFFFF">
            <tspan x="337.222" y="43">DeFi Blockchain</tspan>
            <tspan x="345.664" y="61">Development</tspan>
            <tspan x="344.383" y="79">(open source)</tspan>
        </text>
    </g>
</svg>