<svg viewBox="0 0 1565 872" preserveAspectRatio="xMinYMin meet" xmlns="http://www.w3.org/2000/svg"><g fill="none" fill-rule="evenodd"><g stroke="#a4a4a4" stroke-linejoin="round" stroke-width="1"><path vector-effect="non-scaling-stroke" d="m188.8783 370.5116v56.392l31.146 38.905h56.392v11.912h21.311v15.409h12.458v-19.671h52.785v23.934h10.82v-30.163l25.244-20.655v-30.163h22.95v-19.016h14.754v-22.622h-11.147v14.426h-25.901v11.803h-13.77v9.508h-18.032v-22.95h-11.475v18.196c0 2.625-2.128 4.754-4.754 4.754-2.625 0-4.754-2.129-4.754-4.754v-26.065h-17.704v-12.786h-140.323z"/><path vector-effect="non-scaling-stroke" d="m230.1884 465.8085 43.277 46.993v11.148l31.802 19.999h26.557v-12.131h15.409v-18.032h-15.082v3.442c0 6.066-4.917 10.983-10.983 10.983-6.065 0-10.983-4.917-10.983-10.983v-24.098h-12.458v-15.409h-21.311v-11.912z"/><path vector-effect="non-scaling-stroke" d="m347.2333 531.8173h20v33.318h30.162v11.435h-41.965v-32.622h-23.606v-12.131z"/><path vector-effect="non-scaling-stroke" d="m577.7167 634.7645v15.081l-17.048 15.082v26.884l-40.655 25.245v16.065l-22.95 37.375h-19.015v26.885h-23.278v59.998l12.131 12.13h-15.082l-27.54-30.162v-156.279h-22.294l-28.196-50.271 23.606-41.31v-14.917-11.967h69.506v23.605l15.081.656h30.163v17.048z"/><path vector-effect="non-scaling-stroke" d="m352.4789 325.9232h21.311v23.605h12.13v-21.966l12.131-12.131v-9.835l-11.802-11.803 7.212-7.213v-26.228h13.77l19.672 13.77v23.605h19.671v-15.737h13.114v30.163l25.573 20.983v13.114l-48.523 28.524h-11.147v14.425h-25.901v10.82h-22.622v-12.459h-9.179v-20.655h-38.688-140.323l-72.784-78.358v-78.686h28.196l44.588-15.737 41.31 12.787v16.065h82.621v-19.344h16.065l25.9 25.901v26.228h-2.295c-19.375 0-35.081 15.706-35.081 35.081 0 19.375 15.706 35.081 35.081 35.081z"/><path vector-effect="non-scaling-stroke" d="m116.0941 288.5472h-40.654l-16.393 22.294h-34.425l-16.557-16.556-.327-14.262 23.769-.656v-18.36h-29.507v-17.704h26.228l-7.212-7.212-15.41-15.41 42.949-38.36 67.539 27.54z"/><path vector-effect="non-scaling-stroke" d="m655.0912 554.1933 39.629 39.63h37.745v-17.253h38.687v52.948h20.983v73.441l14.917 9.999v57.539h35.573l32.786-32.785v-20.984h10.491v-31.473h19.016v-65.573l47.867-43.112v-15.246h-38.687l-46.555-95.516h-27.54v-7.43h-21.639v12.458h-41.529l-.437-12.458v-20.328h-38.032l-7.54 7.54h-25.245l-17.65 17.65v13.497l-33.141 34.452z"/><path vector-effect="non-scaling-stroke" d="m924.5897 681.3202h13.114v-14.863h11.365v18.36l-8.742 42.84h-22.731z"/><path vector-effect="non-scaling-stroke" d="m1234.9608 770.497-10.491-57.702 35.845-12.24v-13.989l27.103-14.863v8.743h10.491v-13.989h27.978v11.803c0 5.553 4.501 10.054 10.053 10.054 5.554 0 10.055-4.501 10.055-10.054v-18.797h13.988v20.983l47.868 58.577-24.261 54.205h-45.9v-22.731h-14.426v-13.988h-41.092z"/><path vector-effect="non-scaling-stroke" d="m794.7577 387.5604 23.606 22.294v28.196h12.458v-20.983h22.951v-22.95-11.147h24.917l22.95.984v-33.77h-34.097v-7.869-26.228h-15.082v-31.147h-10.819l-18.032 18.033v21.549h-21.877l.02 8.941h-34.535-12.13l-30.491 30.491v36.064h-32.13v38.032h32.786v-26.885h15.737v-12.622h32.294l25.573 25.573 7.048-7.049-19.985-20.308c-2.558-2.557-2.48-6.726.17-9.186 2.442-2.268 6.219-2.274 8.668-.013z"/><path vector-effect="non-scaling-stroke" d="m1024.2577 496.081h-41.638l-5.245-8.524-10.492 3.606-15.019-16.055c-2.235-2.389-5.955-2.593-8.438-.465-2.601 2.229-2.86 6.16-.577 8.712l18.133 20.267h18.032l.377 27.851-58.407 23.295-38.032-75.08-7.018 3.335-8.391-17.214h19.999v-25.463h-33.769v-23.279l26.228-10.819 12.786 7.541h16.066v-13.114h18.032v11.147h16.064v19.016l7.87 7.868h15.081v-30.818h-8.197v-17.705h11.803v-11.803h-33.113v-7.868-14.426l.002-6.557 61.307-.656v-27.376l43.933.328 34.206 11.967v19.016h28.414v15.081 9.836h-13.769l-10.242-.116.077 11.591v28.086l-25.244.218v18.579h10.492v12.459h-11.476v9.508l3.443 3.442v6.394l-20.382 18.359.218 9.836z"/><path vector-effect="non-scaling-stroke" d="m1024.2577 496.081 11.803 21.748h6.995 6.12v22.294l18.797 35.846 11.803-13.115v-20.545h6.994l23.169-22.732v-6.994h6.994v-20.546h-14.863l-27.977-24.479v-13.115l7.868-7.869-6.12-6.119-10.272 8.087h-11.476v9.508l3.443 3.442v6.394l-20.382 18.359.218 9.836z"/><path vector-effect="non-scaling-stroke" d="m1220.0975 514.7685h-29.288l.219 9.836 22.95 22.95-23.607 23.606-20.545-20.546v34.097h-7.431v-43.277h-23.633l-.082-28.852h-21.748v-20.545h-14.863l-27.977-24.48v-13.114l7.868-7.869-6.12-6.119-10.272 8.086v-12.459h-10.492v-18.578l25.245-.218v-28.087l-.078-11.591 10.242.116h13.769v-9.835-9.181h41.966 12.678v-13.551h17.485l24.917 16.338h31.911 21.858v-22.458h27.102v24.917h19.672l13.552-.221v8.964 19.672h-10.984v7.376l-30.108 26.284-11.584-11.585-23.388 23.606 23.607 25.135v15.109z"/><path vector-effect="non-scaling-stroke" d="m685.9095 348.5453v-19.016h6.557v-7.868h12.131v21.966z"/><path vector-effect="non-scaling-stroke" d="m708.5316 325.5951v-28.523h12.131v20.655l12.131 9.18v25.572l-24.262.328v-7.212l10.492-8.853v-3.278z"/><path vector-effect="non-scaling-stroke" d="m628.5345 222.3202v22.294l20 7.541 22.622-16.393v-13.442h-28.196v9.508h-5.574v-9.508z"/><path vector-effect="non-scaling-stroke" d="m485.2611 6.3719v17.486h-41.813v66.445h41.813v119.559l59.342 59.342h20.655v-51.255l58.14-58.14v-78.249l26.447-34.971v-21.857l-21.311-22.732h-75.516v15.738h-35.845v-11.803z"/><path vector-effect="non-scaling-stroke" d="m754.9784 297.0716h14.425v-10.491h11.585v28.851h26.01v-57.266l18.36-17.923v-14.862h14.426v16.611l-16.612 16.174v18.798h39.124v-10.71-63.605l-6.666-6.666v-23.059h-40.327l-40.654 75.625-19.671 13.114z"/><path vector-effect="non-scaling-stroke" d="m1274.3036 426.0292 19.89 19.89 8.797-8.798-19.28-19.28z"/><path vector-effect="non-scaling-stroke" d="m1296.161 458.3778 43.277-24.043v-37.595h11.366v43.715l-49.124 27.539z"/><path vector-effect="non-scaling-stroke" d="m1192.7977 627.0966-8.25 9.042-44.241-40.365 8.25-9.042z"/><path vector-effect="non-scaling-stroke" d="m1255.507 513.457h8.742v-15.736h-8.742z"/><path vector-effect="non-scaling-stroke" d="m1285.3387 578.5917-10.601 6.12-23.824-41.265 10.601-6.12z"/><path vector-effect="non-scaling-stroke" d="m1206.1093 604.2733v21.967h39.78v-43.278h-17.049v13.115z"/><path vector-effect="non-scaling-stroke" d="m1195.181 646.348h34.972v-6.994h-34.972z"/><path vector-effect="non-scaling-stroke" d="m1316.16 631.0487 14.918-14.918h28.469l31.938 31.939h-55.981v-17.281z"/><path vector-effect="non-scaling-stroke" d="m1492.437 799.786h16.175v-16.175h-16.175z"/><path vector-effect="non-scaling-stroke" d="m1466.745 844.0155-9.582-9.583 29.056-29.056 9.583 9.582z"/><path vector-effect="non-scaling-stroke" d="m406.139 531.817h24.48v-8.743h-24.48z"/><path vector-effect="non-scaling-stroke" d="m368.107 519.14h29.289v-8.743h-29.289z"/><path vector-effect="non-scaling-stroke" d="m908.8524 400.6747-7.213-.191v-50.299h-34.097v-34.097h-15.082v-31.147h9.836v-7.977-74.315l-6.666-6.666 13.879-13.879 33.988 33.987-21.994 21.994 8.852 8.852 50.189-50.189h53.551v-8.962h35.408v-34.552h31.475l28.414-28.396h21.42v-21.857l28.852-17.486h30.162v-22.294h24.48v13.551h31.037v51.583h70.818v44.589h13.114v-19.235h31.911v-13.114h43.277v26.228h43.278v9.618h49.834 26.228l58.577 45.462-15.299 19.672-26.229-19.235-49.835 61.638-10.491-6.994-39.343 73.439h-8.306v-41.528l32.568-32.567v-8.525h-40.124v23.606h-63.261c-11.347 0-20.545 9.199-20.545 20.546s9.198 20.546 20.545 20.546h1.749v35.408l-21.857 32.786h-17.54v-8.306h10.983v-19.672-8.963l-13.552.221h-19.672v-24.917h-27.102v22.458h-53.769l-24.917-16.338h-17.485v13.551h-54.644v-5.901h-28.414v-19.016l-34.206-11.967-43.932-.328v27.376l-61.308.656v28.852 33.441h-9.51v-11.147z"/><path vector-effect="non-scaling-stroke" d="m1350.804 381.877h8.743v-49.397h-8.743z"/><path vector-effect="non-scaling-stroke" d="m62.005 542.318h10.807v-10.807h-10.807z"/><path vector-effect="non-scaling-stroke" d="m34.713 517.131h4.723v-4.724h-4.723z"/><path vector-effect="non-scaling-stroke" d="m21.687 508.356h3.478v-3.477h-3.478z"/><path vector-effect="non-scaling-stroke" d="m56.7904 527.3476-10.171-4.665 3.538-7.715 10.172 4.665z"/></g><circle cx="363" cy="450" fill="#ff00af" r="16"/><circle cx="397" cy="412" fill="#ff00af" r="16"/><circle cx="379" cy="397" fill="#ff00af" r="16"/><circle cx="759" cy="352" fill="#ff00af" r="16"/><circle cx="1050" cy="525" fill="#ff00af" r="16"/><circle cx="1168" cy="585" fill="#ff00af" r="16"/><circle cx="1339" cy="442" fill="#ff00af" r="16"/><circle cx="1393" cy="764" fill="#ff00af" r="16"/><circle cx="726" cy="341" fill="#ff00af" r="16"/><circle cx="305" cy="443" fill="#ff00af" r="16"/><circle cx="199" cy="419" fill="#ff00af" r="16"/><path vector-effect="non-scaling-stroke" d="m209.5 415h-21c-.828427 0-1.5.895431-1.5 2v4c0 1.104569.671573 2 1.5 2h21c.828427 0 1.5-.895431 1.5-2v-4c0-1.104569-.671573-2-1.5-2zm-19.25 4c0-.690356.559644-1.25 1.25-1.25s1.25.559644 1.25 1.25-.559644 1.25-1.25 1.25c-.690127-.000551-1.24945-.559873-1.25-1.25zm5.25 1.25c-.690356 0-1.25-.559644-1.25-1.25s.559644-1.25 1.25-1.25 1.25.559644 1.25 1.25v-.000018c-.001092.689899-.560083 1.24891-1.24998 1.250018z" fill="#fff" fill-rule="nonzero"/><path vector-effect="non-scaling-stroke" d="m315.5 439h-21c-.828427 0-1.5.895431-1.5 2v4c0 1.104569.671573 2 1.5 2h21c.828427 0 1.5-.895431 1.5-2v-4c0-1.104569-.671573-2-1.5-2zm-19.25 4c0-.690356.559644-1.25 1.25-1.25s1.25.559644 1.25 1.25-.559644 1.25-1.25 1.25c-.690127-.000551-1.24945-.559873-1.25-1.25zm5.25 1.25c-.690356 0-1.25-.559644-1.25-1.25s.559644-1.25 1.25-1.25 1.25.559644 1.25 1.25v-.000018c-.001092.689899-.560083 1.24891-1.24998 1.250018z" fill="#fff" fill-rule="nonzero"/><path vector-effect="non-scaling-stroke" d="m407.5 408h-21c-.828427 0-1.5.895431-1.5 2v4c0 1.104569.671573 2 1.5 2h21c.828427 0 1.5-.895431 1.5-2v-4c0-1.104569-.671573-2-1.5-2zm-19.25 4c0-.690356.559644-1.25 1.25-1.25s1.25.559644 1.25 1.25-.559644 1.25-1.25 1.25c-.690127-.000551-1.24945-.559873-1.25-1.25zm5.25 1.25c-.690356 0-1.25-.559644-1.25-1.25s.559644-1.25 1.25-1.25 1.25.559644 1.25 1.25v-.000018c-.001092.689899-.560083 1.24891-1.24998 1.250018z" fill="#fff" fill-rule="nonzero"/><path vector-effect="non-scaling-stroke" d="m736.5 337h-21c-.828427 0-1.5.895431-1.5 2v4c0 1.104569.671573 2 1.5 2h21c.828427 0 1.5-.895431 1.5-2v-4c0-1.104569-.671573-2-1.5-2zm-19.25 4c0-.690356.559644-1.25 1.25-1.25s1.25.559644 1.25 1.25-.559644 1.25-1.25 1.25c-.690127-.000551-1.24945-.559873-1.25-1.25zm5.25 1.25c-.690356 0-1.25-.559644-1.25-1.25s.559644-1.25 1.25-1.25 1.25.559644 1.25 1.25v-.000018c-.001092.689899-.560083 1.24891-1.24998 1.250018z" fill="#fff" fill-rule="nonzero"/><path vector-effect="non-scaling-stroke" d="m769.5 348h-21c-.828427 0-1.5.895431-1.5 2v4c0 1.104569.671573 2 1.5 2h21c.828427 0 1.5-.895431 1.5-2v-4c0-1.104569-.671573-2-1.5-2zm-19.25 4c0-.690356.559644-1.25 1.25-1.25s1.25.559644 1.25 1.25-.559644 1.25-1.25 1.25c-.690127-.000551-1.24945-.559873-1.25-1.25zm5.25 1.25c-.690356 0-1.25-.559644-1.25-1.25s.559644-1.25 1.25-1.25 1.25.559644 1.25 1.25v-.000018c-.001092.689899-.560083 1.24891-1.24998 1.250018z" fill="#fff" fill-rule="nonzero"/><path vector-effect="non-scaling-stroke" d="m1060.5 521h-21c-.82843 0-1.5.895431-1.5 2v4c0 1.104569.67157 2 1.5 2h21c.82843 0 1.5-.895431 1.5-2v-4c0-1.104569-.67157-2-1.5-2zm-19.25 4c0-.690356.55964-1.25 1.25-1.25s1.25.559644 1.25 1.25-.55964 1.25-1.25 1.25c-.69013-.000551-1.24945-.559873-1.25-1.25zm5.25 1.25c-.69036 0-1.25-.559644-1.25-1.25s.55964-1.25 1.25-1.25 1.25.559644 1.25 1.25v-.000018c-.00109.689899-.56008 1.24891-1.24998 1.250018z" fill="#fff" fill-rule="nonzero"/><path vector-effect="non-scaling-stroke" d="m1178.5 581h-21c-.82843 0-1.5.895431-1.5 2v4c0 1.104569.67157 2 1.5 2h21c.82843 0 1.5-.895431 1.5-2v-4c0-1.104569-.67157-2-1.5-2zm-19.25 4c0-.690356.55964-1.25 1.25-1.25s1.25.559644 1.25 1.25-.55964 1.25-1.25 1.25c-.69013-.000551-1.24945-.559873-1.25-1.25zm5.25 1.25c-.69036 0-1.25-.559644-1.25-1.25s.55964-1.25 1.25-1.25 1.25.559644 1.25 1.25v-.000018c-.00109.689899-.56008 1.24891-1.24998 1.250018z" fill="#fff" fill-rule="nonzero"/><path vector-effect="non-scaling-stroke" d="m1403.5 760h-21c-.82843 0-1.5.895431-1.5 2v4c0 1.104569.67157 2 1.5 2h21c.82843 0 1.5-.895431 1.5-2v-4c0-1.104569-.67157-2-1.5-2zm-19.25 4c0-.690356.55964-1.25 1.25-1.25s1.25.559644 1.25 1.25-.55964 1.25-1.25 1.25c-.69013-.000551-1.24945-.559873-1.25-1.25zm5.25 1.25c-.69036 0-1.25-.559644-1.25-1.25s.55964-1.25 1.25-1.25 1.25.559644 1.25 1.25v-.000018c-.00109.689899-.56008 1.24891-1.24998 1.250018z" fill="#fff" fill-rule="nonzero"/><path vector-effect="non-scaling-stroke" d="m1349.5 438h-21c-.82843 0-1.5.895431-1.5 2v4c0 1.104569.67157 2 1.5 2h21c.82843 0 1.5-.895431 1.5-2v-4c0-1.104569-.67157-2-1.5-2zm-19.25 4c0-.690356.55964-1.25 1.25-1.25s1.25.559644 1.25 1.25-.55964 1.25-1.25 1.25c-.69013-.000551-1.24945-.559873-1.25-1.25zm5.25 1.25c-.69036 0-1.25-.559644-1.25-1.25s.55964-1.25 1.25-1.25 1.25.559644 1.25 1.25v-.000018c-.00109.689899-.56008 1.24891-1.24998 1.250018z" fill="#fff" fill-rule="nonzero"/><path vector-effect="non-scaling-stroke" d="m389.5 393h-21c-.828427 0-1.5.895431-1.5 2v4c0 1.104569.671573 2 1.5 2h21c.828427 0 1.5-.895431 1.5-2v-4c0-1.104569-.671573-2-1.5-2zm-19.25 4c0-.690356.559644-1.25 1.25-1.25s1.25.559644 1.25 1.25-.559644 1.25-1.25 1.25c-.690127-.000551-1.24945-.559873-1.25-1.25zm5.25 1.25c-.690356 0-1.25-.559644-1.25-1.25s.559644-1.25 1.25-1.25 1.25.559644 1.25 1.25v-.000018c-.001092.689899-.560083 1.24891-1.24998 1.250018z" fill="#fff" fill-rule="nonzero"/><path vector-effect="non-scaling-stroke" d="m373.5 446h-21c-.828427 0-1.5.895431-1.5 2v4c0 1.104569.671573 2 1.5 2h21c.828427 0 1.5-.895431 1.5-2v-4c0-1.104569-.671573-2-1.5-2zm-19.25 4c0-.690356.559644-1.25 1.25-1.25s1.25.559644 1.25 1.25-.559644 1.25-1.25 1.25c-.690127-.000551-1.24945-.559873-1.25-1.25zm5.25 1.25c-.690356 0-1.25-.559644-1.25-1.25s.559644-1.25 1.25-1.25 1.25.559644 1.25 1.25v-.000018c-.001092.689899-.560083 1.24891-1.24998 1.250018z" fill="#fff" fill-rule="nonzero"/></g></svg>