<svg height="16" width="24" xmlns="http://www.w3.org/2000/svg"><g fill="#5b10ff"><path d="M22.858 3.593L17.417 7.22a1 1 0 0 1-.555.168H11.02a.735.735 0 0 0 0 1.469h6.368a.735.735 0 0 0 .407-.123l5.878-3.919a.734.734 0 0 0-.815-1.222z"/><path d="M22.858 6.776L17.417 10.4a1 1 0 0 1-.555.168H11.02a.735.735 0 0 0 0 1.47h6.368a.737.737 0 0 0 .407-.123L23.673 8a.735.735 0 1 0-.815-1.223z"/><path d="M22.858 9.96l-5.441 3.627a1 1 0 0 1-.555.168H11.02a.735.735 0 0 0 0 1.469h6.368a.727.727 0 0 0 .412-.124l5.878-3.918a.735.735 0 1 0-.815-1.223zM5.633 7.388H.735a.735.735 0 1 0 0 1.469h4.9a.735.735 0 0 0 0-1.469zm0 3.183H.735a.735.735 0 0 0 0 1.47h4.9a.735.735 0 0 0 0-1.47zm0 3.184H.735a.735.735 0 1 0 0 1.469h4.9a.735.735 0 0 0 0-1.469zm5.883-8.571c0 .27.219.489.489.489h5.383c.096 0 .19-.028.271-.082l5.878-3.918a.49.49 0 0 0-.272-.9h-5.387a.486.486 0 0 0-.272.082l-5.872 3.917a.5.5 0 0 0-.218.412zm.953-4.06A.489.489 0 0 0 12 .776H6.653a.485.485 0 0 0-.271.082L.509 4.772a.492.492 0 0 0 .273.9h5.34a.486.486 0 0 0 .272-.082l5.878-3.918a.49.49 0 0 0 .197-.548z"/></g></svg>