<svg width="24" height="24" xmlns="http://www.w3.org/2000/svg"><g fill="#5B10FF"><path d="M21.4 16.526a.489.489 0 0 0-.692 0l-1.954 1.965a.49.49 0 0 0 .347.835h.551c.082 0 .16.04.205.109a.246.246 0 0 1 .021.231 3.956 3.956 0 0 1-3.708 2.12.98.98 0 0 0 0 1.96 5.693 5.693 0 0 0 5.78-4.23.245.245 0 0 1 .24-.2h.827a.49.49 0 0 0 .344-.837L21.4 16.526zM2.11 7.461a.489.489 0 0 0 .692 0l1.954-1.967a.489.489 0 0 0-.347-.835H3.86a.244.244 0 0 1-.226-.34A3.955 3.955 0 0 1 7.34 2.2a.98.98 0 0 0 0-1.959A5.7 5.7 0 0 0 1.555 4.47a.245.245 0 0 1-.24.2H.488a.489.489 0 0 0-.343.837L2.11 7.461zM8 9.267a.246.246 0 0 0-.243-.2 7.345 7.345 0 1 0 7.416 7.415.245.245 0 0 0-.2-.242A8.829 8.829 0 0 1 8 9.267z"/><path d="M16.652.246a7.348 7.348 0 0 1 7.344 7.105l.004.243-.004.242a7.357 7.357 0 0 1-7.097 7.102l-.247.004-.243-.004A7.348 7.348 0 0 1 16.652.246zm0 1.348a6 6 0 0 0-.225 11.996l.225.004a6.007 6.007 0 0 0 5.996-5.775l.004-.225a6 6 0 0 0-6-6zm0 1a5 5 0 0 1 5 5l-.005.217a5.006 5.006 0 0 1-4.995 4.783l-.217-.005a5 5 0 0 1 .217-9.995z"/></g></svg>