<svg width="24" height="18" xmlns="http://www.w3.org/2000/svg"><g fill="currentColor"><path d="M8 9a4 4 0 1 0 4-4 4 4 0 0 0-4 4zm5 0a1 1 0 1 1-1-1 1 1 0 0 1 1 1zm7.886 1.357a.25.25 0 0 0-.006.36l1.059 1.059c.096.095.25.098.348.006.367-.343.713-.689 1.03-1.034.907-.99.907-2.51 0-3.5a19.538 19.538 0 0 0-1.027-1.031.25.25 0 0 0-.347.006L20.88 7.286a.251.251 0 0 0 .007.361c.347.32.67.642.961.958a.585.585 0 0 1 0 .787c-.297.322-.62.645-.962.965z"/><path d="M5.457 6.793a1 1 0 0 0 1.414-1.414.307.307 0 0 1 .072-.488 9.871 9.871 0 0 1 10.113 0 .307.307 0 0 1 .072.488 1 1 0 1 0 1.414 1.414l4.75-4.75A1 1 0 0 0 21.878.629L19.157 3.35a.5.5 0 0 1-.6.079 12.086 12.086 0 0 0-13.107 0 .5.5 0 0 1-.6-.079L2.121.629A1 1 0 0 0 .707 2.043l4.75 4.75zm-3.745 4.989c.098.093.252.09.347-.006l1.06-1.059a.251.251 0 0 0-.006-.36c-.342-.32-.665-.643-.961-.963a.586.586 0 0 1 0-.789c.291-.316.614-.637.961-.958a.25.25 0 0 0 .08-.179.254.254 0 0 0-.073-.182L2.059 6.224a.249.249 0 0 0-.347-.006C1.345 6.56 1 6.9.684 7.249a2.6 2.6 0 0 0 0 3.5c.316.343.661.69 1.028 1.033zm16.83-.575a1 1 0 0 0-1.414 1.415.33.33 0 0 1 .094.283.334.334 0 0 1-.172.243 10.059 10.059 0 0 1-10.1 0 .328.328 0 0 1-.078-.522 1 1 0 0 0-1.414-1.415l-4.75 4.75a1 1 0 0 0 1.414 1.415l2.72-2.721a.5.5 0 0 1 .6-.079 12.074 12.074 0 0 0 13.108 0 .5.5 0 0 1 .6.079l2.721 2.723a1 1 0 0 0 1.414-1.415l-4.743-4.756z"/></g></svg>