<svg width="24" height="24" xmlns="http://www.w3.org/2000/svg"><path d="M14.608.153a.491.491 0 0 0-.42.1.5.5 0 0 0-.188.388v1.97a.25.25 0 0 1-.25.25h-3.5a.25.25 0 0 1-.25-.25V.641a.5.5 0 0 0-.608-.488C2.923 1.593-1.153 8.005.287 14.474c1.44 6.47 7.852 10.546 14.321 9.105A12 12 0 0 0 24 11.861 12.07 12.07 0 0 0 14.608.153zM6.75 12.861A1.75 1.75 0 1 1 5 11.111c.966 0 1.75.784 1.75 1.75zM9 16.111a1.75 1.75 0 1 1-1.75 1.75c0-.966.784-1.75 1.75-1.75zm1.5-3.25a.5.5 0 0 1-.5-.5v-6a.5.5 0 0 1 .5-.5h3a.5.5 0 0 1 .5.5v6a.5.5 0 0 1-.5.5h-3zm4.5 3.25a1.75 1.75 0 1 1-1.75 1.75c0-.966.784-1.75 1.75-1.75zm2.25-3.25a1.75 1.75 0 1 1 1.75 1.75c-.966 0-1.75-.784-1.75-1.75z" fill="#5B10FF"/></svg>