<svg height="24" width="98" xmlns="http://www.w3.org/2000/svg"><linearGradient id="a" x1="0%" y1="50%" y2="50%"><stop offset="0" stop-color="#210622"/><stop offset="1" stop-color="#150430"/></linearGradient><linearGradient id="b" x1="0%" y1="50%" y2="50%"><stop offset="0" stop-color="#eb6f9f"/><stop offset="1" stop-color="#fa6f8d"/></linearGradient><linearGradient id="c" x1="0%" y1="50%" y2="50%"><stop offset="0" stop-color="#930046"/><stop offset="1" stop-color="#59008a"/></linearGradient><linearGradient id="d" x1="0%" y1="50%" y2="50%"><stop offset="0" stop-color="#460045"/><stop offset="1" stop-color="#29006e"/></linearGradient><linearGradient id="e" x1="0%" y1="50%" y2="50%"><stop offset="0" stop-color="#db0035"/><stop offset="1" stop-color="#9d0074"/></linearGradient><linearGradient id="f" x1="0%" y1="50%" y2="50%"><stop offset="0" stop-color="#f63362"/><stop offset="1" stop-color="#c0359d"/></linearGradient><g fill="none" fill-rule="evenodd"><g fill-rule="nonzero"><path d="M17.354 19.6l-5.6-5.6h11.2z" fill="url(#a)" transform="matrix(1 0 0 -1 0 31.6)"/><path d="M6.154 14l-5.6 5.6V8.4z" fill="url(#b)" transform="matrix(1 0 0 -1 0 26)"/><path d="M17.354 8.4l5.6 5.6h-11.2z" fill="url(#a)" transform="matrix(1 0 0 -1 0 20.4)"/><path d="M11.754 2.8l5.6 5.6h-11.2z" fill="url(#c)" transform="matrix(1 0 0 -1 0 9.2)"/><path d="M17.354 19.6l5.6 5.6h-11.2z" fill="url(#d)" transform="matrix(1 0 0 -1 0 42.8)"/><path d="M6.154 19.6l5.6 5.6H.554z" fill="url(#e)" transform="matrix(1 0 0 -1 0 42.8)"/><path d="M17.354 8.4l-5.6-5.6h11.2z" fill="url(#d)" transform="matrix(1 0 0 -1 0 9.2)"/><path d="M.554 2.8h11.2l-5.6 5.6z" fill="url(#e)" transform="matrix(1 0 0 -1 0 9.2)"/><path d="M11.754 25.2l-5.6-5.6h11.2z" fill="url(#c)" transform="matrix(1 0 0 -1 0 42.8)"/><path d="M6.154 19.6L.554 14h11.2z" fill="url(#f)" transform="matrix(1 0 0 -1 0 31.6)"/><path d="M11.754 14H.554l5.6-5.6z" fill="url(#f)" transform="matrix(1 0 0 -1 0 20.4)"/></g><path d="M29.445 14.05c.308 0 .537-.084.689-.252.145-.168.224-.415.224-.74h2.094l.017.04a2.408 2.408 0 0 1-.835 1.96 3.192 3.192 0 0 1-2.184.756c-1.12 0-1.976-.348-2.576-1.042a3.948 3.948 0 0 1-.912-2.694v-.156c0-1.098.302-1.994.907-2.688.599-.695 1.456-1.042 2.559-1.042.93 0 1.674.258 2.229.778.572.554.87 1.334.812 2.128l-.017.04h-2.094a1.456 1.456 0 0 0-.236-.857c-.15-.219-.386-.325-.694-.325-.437 0-.74.18-.913.532a3.304 3.304 0 0 0-.263 1.434v.156c0 .616.084 1.098.263 1.445.168.347.482.527.93.527m8.114-3.702l-.84-.006c-.257 0-.476.045-.644.13a.812.812 0 0 0-.37.38v4.816H33.41V8.326h2.161l.079 1.076a2.24 2.24 0 0 1 .616-.896c.247-.208.561-.32.884-.314.214 0 .426.026.633.078zm4.357 2.083v.056h.045l1.215-4.16h2.442l-2.924 8.433c-.224.543-.52.991-.873 1.344-.359.353-.93.532-1.708.532-.196 0-.359-.011-.487-.04a10.326 10.326 0 0 1-.594-.134l.28-1.635.14.034.118.011c.364 0 .627-.056.795-.162a.967.967 0 0 0 .375-.482l.185-.476-2.543-7.426h2.436zm8.82-.42c0-.616-.095-1.12-.28-1.495-.18-.375-.465-.56-.862-.56-.264 0-.482.045-.656.14a1.045 1.045 0 0 0-.425.414v3.07a.98.98 0 0 0 .431.352c.21.081.435.12.66.112.404 0 .69-.168.863-.498.2-.437.29-.916.263-1.395v-.14zm2.285.14c0 1.109-.252 1.994-.75 2.66a2.47 2.47 0 0 1-2.1 1.003 2.01 2.01 0 0 1-1.658-.796v3.472h-2.296V8.326h2.145l.084.807c.356-.6 1.01-.96 1.708-.941.912 0 1.612.347 2.116 1.047.534.823.796 1.792.75 2.772v.14zm3.724-5.65v1.825h1.243v1.585h-1.243v3.371c0 .258.056.448.157.56a.56.56 0 0 0 .43.18c.226 0 .452-.023.673-.068l.157 1.697a6.11 6.11 0 0 1-1.406.168c-.756-.005-1.327-.207-1.714-.616-.392-.397-.588-1.036-.588-1.904V9.911h-1.03V8.326h1.03V6.501h2.29zm4.105 5.572c0 .616.095 1.097.29 1.45.191.347.516.521.98.521.449 0 .768-.174.964-.526.196-.353.291-.84.291-1.445v-.146a3.024 3.024 0 0 0-.291-1.433c-.196-.359-.52-.538-.98-.538-.448 0-.773.18-.963.543-.196.359-.291.84-.291 1.428zm-2.296-.146a3.864 3.864 0 0 1 .94-2.693c.622-.695 1.496-1.048 2.616-1.048s1.993.353 2.615 1.048a3.88 3.88 0 0 1 .94 2.693v.146c0 1.109-.313 2.01-.94 2.699-.622.694-1.49 1.042-2.604 1.042-1.126 0-2.005-.348-2.632-1.042a3.875 3.875 0 0 1-.93-2.7v-.145zm10.23-3.6l.09 1.03a2.65 2.65 0 0 1 .89-.857 2.296 2.296 0 0 1 1.177-.308c.722 0 1.288.23 1.691.694.403.47.605 1.21.605 2.23v4.552H70.94V11.11c0-.42-.084-.723-.258-.896-.173-.168-.431-.258-.773-.258a1.254 1.254 0 0 0-.99.437v5.275h-2.28V8.326h2.15-.005zm8.894 1.629c-.33 0-.577.112-.745.353-.168.235-.263.549-.303.94l.023.034h1.977v-.173c0-.376-.079-.656-.23-.857-.157-.202-.392-.297-.722-.297m.168 5.858c-1.087 0-1.95-.336-2.593-1.02a3.556 3.556 0 0 1-.969-2.553v-.258c0-1.12.291-2.033.88-2.738.587-.706 1.422-1.064 2.514-1.053.996 0 1.775.297 2.34.896.591.665.897 1.536.852 2.425v1.204h-4.2l-.012.039c.056.375.202.689.465.93.258.24.6.364 1.03.364.704.016 1.4-.142 2.028-.46l.543 1.4a4.144 4.144 0 0 1-1.243.588 5.56 5.56 0 0 1-1.641.236m10.304-3.232h.04l.794-4.256h2.117l-1.725 7.342h-1.937l-1.199-3.892h-.039l-1.198 3.892h-1.938l-1.73-7.342h2.117l.806 4.29h.045l1.193-4.29h1.444zm7.6 1.025c0-.179-.102-.341-.309-.487a3.326 3.326 0 0 0-1.12-.38 4.407 4.407 0 0 1-1.937-.785 1.764 1.764 0 0 1-.65-1.445c0-.645.3-1.254.812-1.646.543-.448 1.282-.672 2.206-.672.98 0 1.759.218 2.336.655.551.381.865 1.022.828 1.691l-.01.04h-2.23c0-.286-.072-.504-.224-.656-.145-.15-.38-.224-.705-.224a.913.913 0 0 0-.605.196.61.61 0 0 0 .04.997c.352.192.738.315 1.136.364a4.592 4.592 0 0 1 1.994.795c.437.367.676.92.644 1.49 0 .66-.292 1.204-.88 1.63a3.86 3.86 0 0 1-2.324.644c-.996 0-1.792-.258-2.368-.762-.583-.504-.863-1.075-.835-1.697l.017-.039h2.072c.011.347.112.6.32.75.2.157.486.23.856.23.308 0 .543-.056.7-.18.157-.117.235-.29.235-.509" fill="#000"/></g></svg>