<svg width="118" height="12" xmlns="http://www.w3.org/2000/svg"><g fill="#070909"><path d="M5.107 11.425v.171h-2.42v-.17h.085c.359 0 .563-.597.563-.939V.967H1.358c-.733 0-1.09.7-1.09 1.228H.096V.335h7.652v1.86h-.17c0-.529-.358-1.228-1.091-1.228H4.477v9.52c0 .342.204.938.545.938h.085zm10.38 0h.085c.34 0 .545-.58.545-.938v-4.64h-5.454v4.64c0 .342.188.938.529.938h.085v.171H8.89v-.17h.085c.34 0 .545-.58.545-.939V1.393c0-.324-.187-.887-.545-.887H8.89v-.17h2.386v.17h-.085c-.359 0-.529.563-.529.887v3.856h5.454V1.393c0-.324-.188-.887-.545-.887h-.086v-.17h2.386v.17h-.085c-.358 0-.528.563-.528.887v9.094c0 .342.222.938.528.938h.085v.171h-2.386v-.17zm3.8 0h.085c.34 0 .58-.562.58-.904V1.393c0-.324-.24-.887-.58-.887h-.085v-.17h6.561v1.586h-.17c-.051-.529-.392-.99-1.16-.99h-3.425V5.25h2.829c.528 0 .92-.375.92-.802h.171V6.58h-.17c0-.41-.375-.75-.921-.75h-2.829v5.169h3.733c.869 0 1.278-.921 1.278-1.4h.17v1.997h-6.987v-.17zm12.22 0h.086c.34 0 .545-.596.545-.938V1.393c0-.324-.187-.887-.545-.887h-.085v-.17h3.29c3.612 0 5.76 2.73 5.76 5.681 0 2.764-2.011 5.58-5.982 5.58h-3.068v-.172zM34.15.932h-.87V11h.904c2.454 0 5.215-1.501 5.215-4.726 0-2.918-2.232-5.34-5.25-5.34zm14.384 10.493h.085c.273 0 .41-.12.41-.375a.952.952 0 0 0-.052-.29l-1.534-4.146h-2.982l-1.483 4.078a.69.69 0 0 0-.051.256c0 .29.187.477.374.477h.086v.171h-1.892v-.17h.085c.29 0 .597-.41.784-.888L46.267.131l3.818 10.305c.153.46.426.99.886.99h.085v.17h-2.522v-.17zM44.63 6.034h2.625l-1.313-3.566-1.312 3.566zM52.147.336h2.437v.17h-.086c-.323 0-.545.546-.545.887v9.094c0 .341.205.938.545.938h.086v.171h-2.437v-.17h.085c.358 0 .562-.58.562-.939V1.393c0-.324-.204-.887-.562-.887h-.085v-.17zm4.073 11.09h.085c.34 0 .58-.563.58-.905V1.393c0-.324-.24-.887-.58-.887h-.085v-.17h2.454v.17h-.085c-.341 0-.563.563-.563.887v9.572h3.733c.869 0 1.278-.921 1.278-1.519h.17v2.15H56.22v-.17zM62.762.335h2.353v.17a.356.356 0 0 0-.324.358c0 .051.017.12.051.188l2.556 4.487 2.454-4.248c.086-.188.12-.239.12-.376-.051-.358-.341-.41-.392-.41v-.17h1.824v.17c-.341 0-.716.53-.972.956l-2.659 4.607v4.42c0 .323.222.937.563.937h.085v.17h-2.438v-.17h.086c.358 0 .562-.58.562-.938V6.222l-2.744-4.71c-.221-.34-.665-1.006-1.04-1.006h-.085v-.17zm20.505 11.09h.085c.341 0 .545-.58.545-.939v-4.64h-5.453v4.64c0 .342.187.938.528.938h.085v.171h-2.385v-.17h.085c.34 0 .545-.58.545-.939V1.393c0-.324-.188-.887-.545-.887h-.085v-.17h2.385v.17h-.085c-.358 0-.528.563-.528.887v3.856h5.453V1.393c0-.324-.187-.887-.545-.887h-.085v-.17h2.386v.17h-.085c-.358 0-.529.563-.529.887v9.094c0 .342.222.938.529.938h.085v.171h-2.386v-.17zm15.27-5.495c0 3.413-2.692 5.835-5.965 5.835-3.494 0-5.641-2.746-5.641-5.681 0-2.934 2.147-5.92 5.88-5.92 3.527 0 5.726 2.695 5.726 5.766zm-1.158.205c0-2.508-1.892-5.374-4.79-5.374-2.812 0-4.516 2.764-4.516 5.084 0 2.508 2.01 5.324 4.72 5.324 3.052-.137 4.586-2.764 4.586-5.034zm2.64 5.29h.085c.341 0 .546-.597.546-.939V1.393c0-.324-.187-.887-.546-.887h-.085v-.17h3.29c3.613 0 5.76 2.73 5.76 5.681 0 2.764-2.01 5.58-5.982 5.58h-3.068v-.172zM102.661.931h-.869V11h.903c2.454 0 5.215-1.501 5.215-4.726 0-2.918-2.232-5.34-5.249-5.34zm7.874 10.493h.085c.341 0 .58-.562.58-.904V1.393c0-.324-.239-.887-.58-.887h-.085v-.17h2.454v.17h-.085c-.341 0-.562.563-.562.887v9.572h3.732c.87 0 1.278-.921 1.278-1.519h.17v2.15h-6.988v-.17h.001z"/></g></svg>