<svg width="100" height="20" xmlns="http://www.w3.org/2000/svg"><g transform="translate(1 .953)" fill="none"><path d="M17.73 0h-3.798c-.2 0-.363.163-.363.362v12.812c0 .199-.163.361-.362.361H.363c-.2 0-.363.164-.363.363v3.787c0 .2.163.362.363.362h17.729V.362c0-.199-.163-.362-.363-.362" fill="#F29700"/><path d="M.413 11.738H4.74a.414.414 0 0 0 .413-.412V7.01a.414.414 0 0 0-.413-.413H.413A.414.414 0 0 0 0 7.011v4.315c0 .227.186.412.413.412M6.851 5.14h4.326a.414.414 0 0 0 .413-.413V.412A.414.414 0 0 0 11.177 0H6.851a.414.414 0 0 0-.413.412v4.315c0 .227.186.413.413.413" fill="#F29700"/><path d="M74.165 5.072a.418.418 0 0 0-.362.25l-3.79 9.995c-.051.138-.163.152-.248.031l-2.435-3.464a.993.993 0 0 1-.154-.486V4.927a.268.268 0 0 0-.268-.267h-1.29a.268.268 0 0 0-.268.267v6.516c0 .147-.07.366-.155.486l-3.106 4.392a.256.256 0 0 0 .07.364l.956.623c.124.08.295.048.38-.072l2.624-3.656c.086-.12.226-.12.311 0l2.408 3.367c.086.12.228.217.316.217H71.153c.06 0 .153-.113.204-.25L75.65 5.322c.051-.138-.028-.25-.175-.25h-1.31zM31.111 1.11a.76.76 0 0 0-.46.187l-5.61 5.457a.26.26 0 0 0 0 .373l.927.898a.28.28 0 0 0 .385 0l5.156-4.959a.768.768 0 0 1 .46-.185h3.022c.147 0 .354.083.46.185l5.156 4.96a.28.28 0 0 0 .385 0l.928-.9a.26.26 0 0 0 0-.372l-5.61-5.457a.76.76 0 0 0-.46-.187h-4.74z" fill="#545555"/><path d="M34.415 12.234c0-.147.12-.267.268-.267h5.774c.148 0 .269-.12.269-.267v-1.211a.269.269 0 0 0-.269-.268h-5.774a.268.268 0 0 1-.268-.267V8.126c0-.147.12-.267.268-.267h3.474c.148 0 .268-.12.268-.267v-1.23a.268.268 0 0 0-.268-.266h-9.354a.268.268 0 0 0-.267.267v1.229c0 .147.12.267.267.267h3.494c.147 0 .268.12.268.267v1.828c0 .147-.12.267-.268.267h-5.794a.268.268 0 0 0-.267.268v1.21c0 .148.12.268.267.268h5.794c.147 0 .268.12.268.267v2.936c0 .147-.12.267-.268.267h-6.132a.268.268 0 0 0-.268.267v1.23c0 .146.12.267.268.267h14.632c.148 0 .269-.12.269-.268v-1.229a.269.269 0 0 0-.269-.267h-6.114a.268.268 0 0 1-.268-.267v-2.936zm29.723-9.15c0-.146.12-.266.268-.266h3.713c.147 0 .268.12.268.267v9.266c0 .147.12.267.268.267h1.29c.148 0 .268-.12.268-.267V1.376a.268.268 0 0 0-.268-.267H62.58a.269.269 0 0 0-.268.267v10.975c0 .147.12.267.268.267h1.29c.147 0 .268-.12.268-.267V3.085zm13.629-1.708a.268.268 0 0 0-.268-.267h-1.29a.268.268 0 0 0-.269.267v.665c0 .147-.12.268-.268.268H71.67a.268.268 0 0 0-.268.267V3.78c0 .147.12.267.268.267h4.003c.148 0 .268.12.268.267v10.896c0 .147-.12.267-.268.267h-1.306a.268.268 0 0 0-.268.268v1.187c0 .147.12.268.268.268h3.133c.147 0 .268-.12.268-.268V4.315c0-.147.12-.267.268-.267h.775c.147 0 .268-.12.268-.267V2.576a.268.268 0 0 0-.268-.267h-.775a.268.268 0 0 1-.268-.268v-.665zm9.788 10.059c0 .147.12.267.268.267h3.65c.147 0 .268.12.268.267v3.195c0 .147-.12.267-.268.267h-3.65a.268.268 0 0 0-.268.267v1.188c0 .147.12.267.268.267h9.698c.147 0 .268-.12.268-.267v-1.188a.268.268 0 0 0-.268-.267h-3.687a.268.268 0 0 1-.268-.267v-3.195c0-.146.12-.267.268-.267h3.687c.147 0 .268-.12.268-.267V10.23a.268.268 0 0 0-.268-.268h-9.698a.268.268 0 0 0-.268.268v1.205zM94.226 5.3c-.117-.089-.117-.233 0-.322l2.535-1.897a.603.603 0 0 0 .214-.428V1.476a.268.268 0 0 0-.268-.267H87.79a.268.268 0 0 0-.268.267v1.178c0 .147.12.267.268.267h5.934c.148 0 .248.028.223.062a1.879 1.879 0 0 1-.26.223l-6.475 4.83a.258.258 0 0 0-.048.37l.762.957a.278.278 0 0 0 .38.049l4.024-3.013a.38.38 0 0 1 .428 0l4.005 3.013a.287.287 0 0 0 .386-.044l.79-.94a.252.252 0 0 0-.041-.366L94.226 5.3zM46.627 7.385c0-.147.12-.267.268-.267h3.76c.148 0 .269.12.269.267v3.22c0 .148-.12.268-.268.268h-3.76a.268.268 0 0 1-.269-.267v-3.22zm6.114 0c0-.147.121-.267.269-.267h4.162c.148 0 .268.12.268.267v3.22c0 .148-.12.268-.268.268H53.01a.269.269 0 0 1-.269-.267v-3.22zm6.798 8.338a.269.269 0 0 0-.268-.267H46.895a.268.268 0 0 1-.268-.267v-2.304c0-.147.12-.267.268-.267h12.096c.147 0 .267-.12.267-.267V5.658a.268.268 0 0 0-.267-.268h-1.656c-.148 0-.24-.117-.206-.26l.708-2.966c.034-.143-.058-.26-.206-.26H47.448a.224.224 0 0 1-.228-.265l.047-.312a.224.224 0 0 0-.228-.264h-1.282a.334.334 0 0 0-.316.262l-.37 2.03a.216.216 0 0 0 .221.263H55.33c.147 0 .243.117.212.261l-.266 1.25a.347.347 0 0 1-.324.261h-9.893a.268.268 0 0 0-.267.268v11.275c0 .147.12.268.267.268h14.212c.147 0 .268-.12.268-.268v-1.21zm21.764-.42a.269.269 0 0 0-.269.267v1.188c0 .147.121.267.269.267h4.529c.147 0 .268-.12.268-.267V15.57a.268.268 0 0 0-.268-.267h-4.53z" fill="#545555"/><path d="M29.827 14.362c0 .147-.12.267-.268.267h-1.255a.268.268 0 0 1-.268-.267V13.11c0-.147.12-.268.268-.268h1.255c.148 0 .268.12.268.268v1.252zm9.086 0c0 .147-.12.267-.268.267H37.39a.268.268 0 0 1-.268-.267V13.11c0-.147.12-.268.268-.268h1.255c.147 0 .268.12.268.268v1.252zm45.243-2.526c-.147 0-.228-.114-.179-.252l1.494-4.228c.049-.139-.032-.252-.18-.251l-1.456.003a.406.406 0 0 0-.357.253l-2.086 5.945c-.049.138.032.252.18.252h4.26c.147 0 .268-.12.268-.268v-1.187a.268.268 0 0 0-.268-.267h-1.676z" fill="#545555"/><path d="M83.382 5.998c.051-.138.137-.363.191-.5l1.636-4.14c.054-.137-.022-.25-.17-.25h-1.51a.415.415 0 0 0-.36.252l-2.042 5.493c-.05.138.028.25.176.25h1.403c.147 0 .31-.112.36-.25l.316-.855z" fill="#F29700"/></g></svg>