<svg height="358" width="600" xmlns="http://www.w3.org/2000/svg"><g fill="none" fill-rule="evenodd"><path d="M0 0h600v358H0z" fill="#fff"/><text fill="#000" fill-opacity=".605" font-family="NotoSansCJKsc-Bold, Noto Sans CJK SC" font-size="14" font-weight="bold"><tspan x="286" y="51">治理</tspan></text><rect fill="#ff00af" height="96" rx="8" width="192" x="68" y="86"/><path d="M164.5 190.5v27" stroke="#000" stroke-opacity=".402" stroke-width="2"/><path d="M164.5 221.5l-4-4h8z" fill="#000" fill-opacity=".402"/><path d="M436.5 221.5v-27" stroke="#000" stroke-opacity=".402" stroke-width="2"/><path d="M436.5 190.5l4 4h-8z" fill="#000" fill-opacity=".402"/><text fill="#fff" font-family="NotoSansCJKsc-Bold, Noto Sans CJK SC" font-size="18" font-weight="bold"><tspan x="111" y="141">遞飛鏈基金會</tspan></text><rect fill="#f4f3f6" height="96" rx="8" width="192" x="68" y="230"/><path d="M269 278h35" stroke="#000" stroke-opacity=".402" stroke-width="2"/><path d="M308 278l-4 4v-8z" fill="#000" fill-opacity=".402"/><rect fill="#f4f3f6" height="96" rx="8" width="240" x="316" y="230"/><rect height="36" rx="4" stroke="#b3b0bb" stroke-width="2" width="106" x="332" y="274"/><rect height="36" rx="4" stroke="#b3b0bb" stroke-width="2" width="88" x="454" y="274"/><rect fill="#ff00af" height="96" rx="8" width="192" x="340" y="86"/><g fill="#000"><g font-family="NotoSansCJKsc-Bold, Noto Sans CJK SC" font-weight="bold"><text fill-opacity=".605" font-size="18"><tspan x="95.839" y="285">DFI初始代幣分配</tspan></text><text fill-opacity=".402" font-size="14"><tspan x="484" y="297">其他</tspan></text><text fill-opacity=".605" font-size="16"><tspan x="332" y="258">生態系統夥伴</tspan></text></g><text fill-opacity=".402" font-family="IBMPlexSans-SemiBold, IBM Plex Sans" font-size="14" font-weight="500"><tspan x="354.721" y="297">CakeDeFi</tspan></text></g><text fill="#fff" font-family="NotoSansCJKsc-Bold, Noto Sans CJK SC" font-size="18" font-weight="bold"><tspan x="364.5" y="132">遞飛鏈區塊鏈開發</tspan> <tspan x="411.696" y="159">(開源)</tspan></text></g></svg>