<svg height="60" width="60" xmlns="http://www.w3.org/2000/svg"><path d="M30 0c16.568 0 30 13.432 30 30S46.568 60 30 60 0 46.568 0 30 13.432 0 30 0zm0 2C14.561 2 2 14.561 2 30s12.561 28 28 28 28-12.561 28-28S45.439 2 30 2zm14.302 30.048a1 1 0 0 1 .652 1.253c-.031.098-3.2 9.773-13.868 10.695-.645.056-1.263.082-1.855.082-9.242 0-12.032-6.402-12.153-6.692a1 1 0 0 1 1.843-.775c.112.26 2.77 6.18 11.993 5.393 9.31-.805 12.022-8.96 12.133-9.307a1 1 0 0 1 1.255-.65zM19.999 16.834c1.631 0 3.065.791 3.978 2h6.045c.913-1.209 2.347-2 3.978-2h6.666a5 5 0 0 1 4.902 4.024.974.974 0 0 1 .535.075l1.938.939a1 1 0 0 1 .465 1.335 1.005 1.005 0 0 1-1.336.464l-1.619-.782a4.999 4.999 0 0 1-4.885 3.945H34a5 5 0 0 1-4.899-6h-4.202a5 5 0 0 1-4.9 6h-6.666a4.999 4.999 0 0 1-4.884-3.945l-1.618.782a.999.999 0 0 1-1.336-.464 1 1 0 0 1 .464-1.335l1.938-.939a.971.971 0 0 1 .534-.075 5 5 0 0 1 4.902-4.024zm17.958 2.543a.999.999 0 0 0-1.414 0l-3.5 3.5a.999.999 0 1 0 1.414 1.414l3.5-3.5a.999.999 0 0 0 0-1.414zm-21.75 0a.999.999 0 0 0-1.414 0l-3.5 3.5a.999.999 0 1 0 1.414 1.414l3.5-3.5a.999.999 0 0 0 0-1.414z" fill-rule="evenodd"/></svg>