<svg width="60" height="60" xmlns="http://www.w3.org/2000/svg"><path d="M50.556 0c.99 0 1.647.839 1.62 2.33l-.1 5.251c-.04 2.199.938 7.156 2.176 8.975L60 24.999c0 30-25.166 35-30 35s-30-5-30-35l5.749-8.443c1.238-1.819 2.217-6.776 2.175-8.975L7.827 2.33C7.797.839 8.455 0 9.447 0c.47 0 1.019.19 1.604.591l6.9 4.728c1.816 1.244 5.1 2.261 7.3 2.261h9.5c2.2 0 5.486-1.017 7.3-2.261l6.9-4.728C49.537.19 50.085 0 50.557 0zm-.38 2.179c-.03.018-.06.039-.094.062l-6.9 4.728c-2.138 1.464-5.84 2.611-8.431 2.611h-9.5c-2.59 0-6.293-1.147-8.43-2.611l-6.9-4.728a2.503 2.503 0 0 0-.094-.062 2.126 2.126 0 0 0 0 .113l.098 5.251c.049 2.599-1.058 7.988-2.521 10.138l-5.4 7.929c.14 11.753 4.296 20.673 12.359 26.52 6.607 4.791 13.68 5.869 15.638 5.869 1.957 0 9.032-1.078 15.639-5.869 8.063-5.847 12.219-14.767 12.357-26.52l-5.398-7.929c-1.463-2.148-2.57-7.537-2.522-10.137l.099-5.252zM33.072 31.464c2.137 0 2.853 1.34 1.652 3.007l-.11.148-2.154 2.76a3.56 3.56 0 0 1-.973.859c.728 2.298 2.262 2.84 4.514 2.84 3.97 0 4.341-1.155 4.812-2.618.08-.25.161-.5.254-.741a1 1 0 1 1 1.867.717c-.08.208-.148.422-.218.638-.679 2.11-1.704 4.004-6.715 4.004-3.3 0-5.066-1.31-6-3.203-.935 1.894-2.7 3.203-6 3.203-5.012 0-6.038-1.894-6.716-4.004-.07-.216-.138-.43-.218-.638a1 1 0 0 1 1.867-.717c.093.24.174.49.254.74.471 1.464.843 2.619 4.813 2.619 2.252 0 3.785-.542 4.513-2.84a3.585 3.585 0 0 1-.824-.681l-.148-.177-2.154-2.761c-1.313-1.686-.697-3.074 1.356-3.152l.185-.003h6.143zM44.54 15.999c.318 0 .644.04.965.118 1.912.463 2.756 1.504 3.128 2.296.605 1.29.46 2.918-.416 4.712C46.889 25.84 43.127 28 41 28c-2.126 0-5.888-2.16-7.216-4.874-.877-1.794-1.021-3.423-.416-4.712.372-.792 1.216-1.833 3.128-2.296a4.05 4.05 0 0 1 .965-.118c1.617 0 2.802.983 3.539 1.866.737-.883 1.922-1.866 3.539-1.866zm-22 0c.318 0 .644.04.965.118 1.912.463 2.756 1.504 3.128 2.296.604 1.29.461 2.918-.416 4.712C24.888 25.84 21.128 28 19.001 28s-5.887-2.16-7.216-4.874c-.877-1.794-1.02-3.423-.416-4.712.372-.792 1.216-1.833 3.128-2.296a4.05 4.05 0 0 1 .965-.118c1.617 0 2.802.983 3.54 1.866.736-.883 1.921-1.866 3.538-1.866zm22 2c-1.598 0-2.626 2.072-2.636 2.093a.999.999 0 0 1-1.806 0c-.01-.017-1.032-2.093-2.636-2.093-.16 0-.326.02-.494.061-.916.223-1.518.627-1.788 1.204-.334.71-.192 1.77.402 2.982 1.354 2.768 4.563 3.684 5.419 3.752.856-.068 4.065-.984 5.419-3.752.594-1.213.736-2.272.402-2.982-.27-.577-.872-.98-1.788-1.204a2.086 2.086 0 0 0-.494-.06zm-22 0c-1.598 0-2.625 2.072-2.636 2.093a.997.997 0 0 1-1.806 0C18.09 20.075 17.066 18 15.462 18c-.16 0-.326.02-.494.061-.916.223-1.518.627-1.789 1.204-.333.71-.19 1.77.403 2.982 1.354 2.768 4.563 3.684 5.42 3.752.854-.068 4.063-.984 5.418-3.752.593-1.213.736-2.272.403-2.982-.27-.577-.873-.98-1.789-1.204a2.086 2.086 0 0 0-.494-.06z" fill-rule="evenodd"/></svg>