<svg width="56" height="56" xmlns="http://www.w3.org/2000/svg"><path d="M33.578 21.003a.999.999 0 0 1 1.414 0c4.289 4.29 4.289 11.268 0 15.557L18.779 52.773a10.928 10.928 0 0 1-7.778 3.223 10.93 10.93 0 0 1-7.779-3.223A10.927 10.927 0 0 1 0 44.996a10.93 10.93 0 0 1 3.222-7.78l9.786-9.785a.999.999 0 1 1 1.414 1.414L4.636 38.63A8.947 8.947 0 0 0 2 44.996c0 2.404.936 4.664 2.636 6.363a8.95 8.95 0 0 0 6.365 2.637 8.948 8.948 0 0 0 6.364-2.637l16.213-16.213c3.508-3.508 3.508-9.219 0-12.729a.999.999 0 0 1 0-1.414zm3.644-17.786c4.29-4.29 11.27-4.289 15.557 0 4.29 4.29 4.29 11.268 0 15.556l-9.787 9.788a1 1 0 0 1-1.414-1.414l9.787-9.788c3.51-3.509 3.51-9.218 0-12.728-3.512-3.51-9.223-3.508-12.729 0L22.422 20.844c-3.509 3.51-3.509 9.22 0 12.73a.999.999 0 1 1-1.414 1.414c-4.289-4.29-4.289-11.269 0-15.558z" fill-rule="evenodd"/></svg>