<svg width="60" height="60" xmlns="http://www.w3.org/2000/svg"><path d="M11.514.698c1.512-1.309 3.438-.776 5.72 1.584.595.615 2.087 2.596 3.717 4.828-.15-1.82.34-3.242 1.376-3.919a1.532 1.532 0 0 1 1.186-.216c.998.226 1.694 1.37 2.43 2.582.185.303.365.6.537.854 1.399 2.066 10.182 10.421 14.053 12.815l.417-.718c.804-1.404 2.28-2.358 3.99-2.358h10.426c2.56 0 4.635 2.113 4.635 4.72v34.41c0 2.606-2.075 4.72-4.635 4.72H44.94c-2.02 0-3.707-1.33-4.335-3.168-.032.003-.058.017-.09.017h-.126c-1.659-.005-17.39-.08-24.194-1.368C9.23 54.165.21 47.965.003 42.875c-.057-1.4.808-2.53 2.202-2.882 1.417-.354 3.368.186 4.197 1.894 1.554 3.2 7.452 5.29 11.9 4.226 1.999-.479 4.37-1.772 4.308-5.212-.067-3.752-.976-6.287-2.7-7.535-1.852-1.342-4.38-.965-6.173-.41-2.236.69-4.394 2.107-6.13 3.247C5.36 37.68 3.736 38.75 2.432 37.99.583 36.911.388 36.504.695 34.36.91 32.85 4.1 27.9 8.064 25.423c1.999-1.248 3.987-1.965 5.9-2.169C11.24 19.81 3.643 10.183 2.593 8.643l-.11-.159c-.655-.947-2.65-3.829-.226-5.644 2.098-1.57 3.808-.152 4.727.608.154.128.299.25.437.35.422.302 3.38 3.136 6.816 6.464a505.974 505.974 0 0 1-2.67-4.195C9.77 3.15 10.547 1.538 11.515.698zM55.366 18.15H44.94c-1.452 0-2.633 1.221-2.633 2.72v34.41c0 1.5 1.18 2.72 2.633 2.72h10.426C56.819 58 58 56.78 58 55.28V20.87c0-1.498-1.182-2.719-2.635-2.719zm-2.317 33c1.28 0 2.316 1.058 2.316 2.36 0 1.307-1.037 2.362-2.316 2.362s-2.317-1.055-2.317-2.361c0-1.303 1.038-2.36 2.317-2.36zM15.796 3.674c-1.41-1.458-2.407-1.95-2.972-1.463-.555.482-.406 1.426.446 2.807.774 1.255 6.473 10.127 6.53 10.216a.98.98 0 0 1 .14.577c2.49 2.43 4.627 4.522 5.554 5.43a1 1 0 0 1-1.4 1.43C17.349 16.06 7.03 6.01 6.249 5.416a10.09 10.09 0 0 1-.54-.428C4.628 4.094 4.177 3.9 3.457 4.44c-.643.482-.461 1.27.67 2.906l.118.17C5.46 9.3 16.377 23.08 16.487 23.218c.02.025.025.056.042.082.49.075.974.175 1.447.328a1 1 0 0 1-.614 1.903c-2.34-.754-4.935-.326-7.715 1.273-3.963 2.28-7.21 6.446-7.081 8.933.015.276.388.606.89.524.326-.053 1.94-.998 3.054-1.73 1.84-1.208 4.13-2.713 6.637-3.486 3.195-.988 5.94-.744 7.937.701 2.26 1.637 3.446 4.705 3.526 9.12.066 3.665-2.064 6.287-5.842 7.191-4.901 1.178-12.001-.84-14.165-5.297-.354-.729-1.248-.994-1.911-.827-.718.181-.697.692-.691.86.138 3.358 7.502 9.387 14.566 10.724 6.494 1.23 21.955 1.326 23.768 1.332V21.396C35.99 19.187 26.04 9.33 24.824 7.532a22.932 22.932 0 0 1-.59-.936c-.262-.43-.706-1.162-1.02-1.512-.26.406-.361 1.191-.253 2.1.2 1.674.744 3.491.749 3.51.027.09.024.182.025.273 1.594 2.228 2.873 4.05 3.002 4.232a1 1 0 1 1-1.636 1.15c-2.183-3.107-8.108-11.44-9.305-12.676z" fill-rule="evenodd"/></svg>