<svg height="60" width="60" xmlns="http://www.w3.org/2000/svg"><path d="M6.854 37.472a1.03 1.03 0 0 1 1.414 0l6.11 6.11a1 1 0 0 1 0 1.415l-3.367 3.365.623.622 3.365-3.365a.999.999 0 0 1 1.414 0l6.11 6.11a1 1 0 0 1 0 1.413l-6.11 6.11a.969.969 0 0 1-.192.151c-.102.061-1.033.596-2.373.596l-.138-.002c-.99-.028-2.408-.37-3.802-1.763-.107-.108-.201-.216-.297-.324l-1.343 1.342a1.005 1.005 0 0 1-.193.151c-.102.061-1.033.596-2.373.596-.992 0-2.48-.306-3.94-1.765-2.45-2.45-1.835-5.2-1.168-6.314a.993.993 0 0 1 .15-.192l1.345-1.346c-.108-.095-.217-.186-.326-.295-2.45-2.45-1.836-5.2-1.17-6.312a1 1 0 0 1 .15-.193zm8.852 10.268l-2.658 2.658 1.33 1.33a.996.996 0 0 1 0 1.414l-3.341 3.341c.094.112.173.224.286.337.783.782 1.632 1.18 2.525 1.18a3.08 3.08 0 0 0 1.26-.272l5.294-5.293zm-6.11 2.036l-1.328 1.33a1 1 0 0 1-.193.15c-.102.061-1.034.596-2.374.596a5.07 5.07 0 0 1-1.88-.373l-1.558 1.56c-.205.42-.817 2.048.914 3.781.783.782 1.632 1.18 2.525 1.18a3.08 3.08 0 0 0 1.26-.272l1.559-1.557c-.712-1.785-.264-3.446.218-4.25a.998.998 0 0 1 .15-.193l1.33-1.33-.622-.622zm2.038 2.036l-1.226 1.226c-.107.22-.318.776-.254 1.5l2.103-2.103zM56.41 0c1.18 0 2.087.307 2.693.913 2.853 2.854-1.876 12.151-3.393 14.932a1.036 1.036 0 0 1-.171.229L43.104 28.508v11.804c0 .266-.105.52-.293.707l-9.928 9.93a1.004 1.004 0 0 1-.997.25 1.001 1.001 0 0 1-.69-.762l-1.977-9.884-4.171-4.171-3.365 3.366a1 1 0 0 1-1.414-1.414l3.365-3.366-4.17-4.171-9.887-1.977a1.003 1.003 0 0 1-.511-1.688l9.93-9.927c.188-.187.442-.293.707-.293h11.804L43.943 4.478a.98.98 0 0 1 .228-.171C44.494 4.131 52.116 0 56.41 0zM7.56 47.74l-2.086 2.087c.076.005.15.025.227.025.603 0 1.073-.184 1.262-.27l1.22-1.22-.622-.622zm0-8.147l-5.297 5.3c-.205.42-.817 2.05.914 3.78.109.11.223.194.335.287l3.342-3.34a.999.999 0 0 1 1.414 0l1.329 1.328 2.659-2.658-4.695-4.697zm33.544-9.084l-9.88 9.879 1.567 7.825 8.313-8.315zM56.41 2c-3.52 0-10.167 3.469-11.158 3.996L32.628 18.619 21.37 29.876l3.677 3.678 12.02-12.021a.999.999 0 1 1 1.414 1.414l-12.02 12.021 3.678 3.676 23.882-23.882c2.743-5.07 4.86-11.239 3.667-12.435-.211-.211-.666-.327-1.28-.327zM29.508 18.912h-9.391l-8.315 8.313 7.826 1.566 1.516-1.515z" fill-rule="evenodd"/></svg>