<svg width="54" height="60" xmlns="http://www.w3.org/2000/svg"><path d="M32.408 1.749C33.012.52 34.346-.182 35.66.041c.828.14 2.807.876 3.273 4.68.516 4.196-2.107 12.251-2.972 14.755h12.406c3.105 0 5.633 2.565 5.633 5.719a5.74 5.74 0 0 1-2.457 4.719A5.743 5.743 0 0 1 54 34.634a5.74 5.74 0 0 1-2.367 4.65 4.542 4.542 0 0 1 1.789 3.609 4.535 4.535 0 0 1-1.621 3.466 3.364 3.364 0 0 1 1.043 2.432c0 1.832-1.456 3.325-3.258 3.358l-29.92 3.419c-.149 2.47-2.143 4.431-4.606 4.431H4.635C2.075 59.999 0 57.887 0 55.281V20.869c0-2.606 2.075-4.719 4.635-4.719H15.06c1.709 0 3.187.954 3.991 2.357C23.957 12.598 31.82 2.951 32.408 1.749zM15.06 18.15H4.635C3.181 18.15 2 19.37 2 20.869v34.412c0 1.499 1.181 2.718 2.635 2.718H15.06c1.453 0 2.634-1.219 2.634-2.718V20.869c0-1.499-1.181-2.719-2.634-2.719zm-8.109 33c1.279 0 2.317 1.057 2.317 2.36 0 1.306-1.038 2.36-2.317 2.36-1.279 0-2.316-1.054-2.316-2.36 0-1.303 1.037-2.36 2.316-2.36zM35.326 2.013c-.438-.073-.906.178-1.123.618-.893 1.823-12.428 15.725-13.74 17.304a.975.975 0 0 1-.827.342c.024.196.058.389.058.592v32.683l29.718-3.395a.836.836 0 0 1 .113-.007c.727 0 1.319-.61 1.319-1.359 0-.75-.592-1.36-1.319-1.36-.07 0-.131-.026-.195-.039-.127.011-.252.039-.383.039a1 1 0 1 1 0-2c1.365 0 2.475-1.139 2.475-2.538 0-1.401-1.11-2.541-2.475-2.541-.041 0-.076-.019-.117-.023a5.882 5.882 0 0 1-.463.023 1 1 0 1 1 0-2c2.004 0 3.633-1.668 3.633-3.718 0-2.051-1.629-3.72-3.633-3.72a1 1 0 1 1 0-2c2.004 0 3.633-1.668 3.633-3.719s-1.629-3.719-3.633-3.719H30.121a1 1 0 1 1 0-2h3.719c.306-.852 3.631-10.265 3.109-14.511-.248-2.016-1-2.847-1.623-2.952z" fill-rule="evenodd"/></svg>