<svg width="24" height="24" xmlns="http://www.w3.org/2000/svg"><path d="M22.955 8.826C21.47 2.776 15.362-.925 9.312.559a11.28 11.28 0 0 0-8.267 8.267 2 2 0 0 0 .522 1.474L6.6 14.5a.25.25 0 0 1 .065.3 1.439 1.439 0 0 0-.147.635v4.035a.25.25 0 0 0 .427.177l5.255-5.259a.25.25 0 0 0-.177-.427H9.038a.219.219 0 0 1-.18-.094.859.859 0 0 0-.151-.169l-3.861-3.217a.25.25 0 0 1 .16-.442H19a.25.25 0 0 1 .162.441c-1.1.925-3.573 3.015-4.012 3.416a.25.25 0 0 1-.169.065H14.8a.249.249 0 0 0-.177.073L6.59 22.077a.252.252 0 0 0-.074.177v.046c.001.812.659 1.47 1.471 1.471h2.084a.25.25 0 0 0 .177-.073l6.982-6.982a.255.255 0 0 0 .073-.177v-1.1a1.4 1.4 0 0 0-.108-.538.249.249 0 0 1 .071-.287l5.167-4.3a2 2 0 0 0 .522-1.488zM12.683 23.34a.25.25 0 0 0 .177.427h2.974a1.473 1.473 0 0 0 1.471-1.467v-2.978a.25.25 0 0 0-.427-.177l-4.195 4.195z" fill="#6A3DE0"/></svg>