<svg width="24" height="24" xmlns="http://www.w3.org/2000/svg"><path d="M12 0c6.617 0 12 5.383 12 12s-5.383 12-12 12a11.96 11.96 0 0 1-8.543-3.584c-.408-.416-.293-.934.206-1.166l.105-.043 1.315-.46c.391-.137.95-.013 1.27.248A8.943 8.943 0 0 0 12.002 21c4.962 0 9-4.037 9-9s-4.038-9-9-9a8.941 8.941 0 0 0-5.647 2.005 1.502 1.502 0 0 1-1.135.284l-.136-.036-1.314-.46c-.587-.205-.747-.766-.311-1.208A11.952 11.952 0 0 1 12.001 0zM2.476 7.34l9.27 3.244a1.5 1.5 0 0 1 0 2.832l-9.27 3.244a1.496 1.496 0 0 1-1.176-.08 1.497 1.497 0 0 1-.756-.903 12.709 12.709 0 0 1 0-7.355 1.5 1.5 0 0 1 1.932-.982z" fill="currentColor" fill-rule="evenodd"/></svg>