<svg width="24" height="24" xmlns="http://www.w3.org/2000/svg"><g transform="translate(0 2)" fill="currentColor"><path d="M22.93 9.42a1.071 1.071 0 0 0 1.038-1.329l-1.6-6.418a1.07 1.07 0 0 0-1.038-.81H2.674c-.49 0-.919.334-1.038.81l-1.6 6.418A1.071 1.071 0 0 0 1.07 9.42h2.063a.5.5 0 0 0 .305-.1c.3-.237.67-.368 1.051-.371a.466.466 0 0 0 .4-.219 1.76 1.76 0 0 1 1.689-.83.5.5 0 0 0 .387-.123 1.764 1.764 0 0 1 2.869.822.5.5 0 0 0 .254.3c.176.091.335.213.47.358a.5.5 0 0 0 .363.156h2.908a.5.5 0 0 0 .363-.156 1.74 1.74 0 0 1 .469-.358.5.5 0 0 0 .254-.3 1.764 1.764 0 0 1 2.869-.822.5.5 0 0 0 .387.123 1.778 1.778 0 0 1 1.694.824c.086.138.238.22.4.219.382.003.752.134 1.051.371a.5.5 0 0 0 .3.1l1.314.006zM4 5.891H3a.75.75 0 1 1 0-1.5h1a.75.75 0 1 1 0 1.5zm1.5-2.5h-1a.75.75 0 1 1 0-1.5h1a.75.75 0 1 1 0 1.5zm2.5 2.5H7a.75.75 0 1 1 0-1.5h1a.75.75 0 1 1 0 1.5zm2.75-3.25a.75.75 0 0 1-.75.75H9a.75.75 0 1 1 0-1.5h1a.75.75 0 0 1 .75.75zm2.5 2.5a.75.75 0 0 1-.75.75h-1a.75.75 0 1 1 0-1.5h1a.75.75 0 0 1 .75.75zm.25-1.75a.75.75 0 1 1 0-1.5h1a.75.75 0 1 1 0 1.5h-1zm3.75 1.75a.75.75 0 0 1-.75.75h-1a.75.75 0 1 1 0-1.5h1a.75.75 0 0 1 .75.75zm.5-2.5a.75.75 0 0 1 .75-.75h1a.75.75 0 1 1 0 1.5h-1a.75.75 0 0 1-.75-.75zm3.5 2.5a.75.75 0 0 1-.75.75h-1a.75.75 0 1 1 0-1.5h1a.75.75 0 0 1 .75.75z"/><path d="M19.523 10.922l-.42-1.474a.767.767 0 1 0-1.475.421l-.28-.984a.793.793 0 0 0-.95-.526.77.77 0 0 0-.525.948l.281.982a.791.791 0 0 0-.948-.526.767.767 0 0 0-.526.948l1.259 4.409a.251.251 0 0 1-.339.3l-.73-.312a.613.613 0 0 0-.638 1.036s1.15 1.262 2.376 2.352a2.616 2.616 0 0 0 2.4.548l1.639-.469a2.553 2.553 0 0 0 1.753-3.159L21 10.5a.79.79 0 0 0-.948-.527.768.768 0 0 0-.529.949zm-14.276-.017l.42-1.475a.768.768 0 0 1 1.476.422l.28-.984a.792.792 0 0 1 .949-.526.769.769 0 0 1 .526.948l-.282.982a.792.792 0 0 1 .948-.526c.407.116.643.54.527.948L8.832 15.1a.25.25 0 0 0 .338.3l.73-.31a.613.613 0 0 1 .638 1.035s-1.149 1.263-2.376 2.353a2.617 2.617 0 0 1-2.4.548l-1.64-.469A2.553 2.553 0 0 1 2.37 15.4l1.4-4.914a.79.79 0 0 1 .948-.527.767.767 0 0 1 .529.946z"/></g></svg>