<svg width="24" height="24" xmlns="http://www.w3.org/2000/svg"><g transform="translate(0 2)" fill="currentColor"><path d="M23.523 9.25c0-1.641-1.508-2.5-3-2.5a3.464 3.464 0 0 1-2.585-1.28 1.282 1.282 0 0 1-.138-1.118.249.249 0 0 1 .177-.169 2.259 2.259 0 0 0 1.491-1.209 2.925 2.925 0 0 0 0-2.448.5.5 0 0 0-.448-.276 2.279 2.279 0 0 0-1.947 1.276 2.842 2.842 0 0 0-.13 2.112.249.249 0 0 1-.007.17 2.315 2.315 0 0 0 .17 2.222 4.453 4.453 0 0 0 3.414 1.72c.692 0 2 .313 2 1.5.007.438-.178.858-.506 1.149a.249.249 0 0 0-.047.313c.082.138.156.281.221.428a.249.249 0 0 0 .388.092c.603-.48.951-1.211.947-1.982zM8.645 14.765a.247.247 0 0 0-.174-.193 9.1 9.1 0 0 0-1.856-.272.249.249 0 0 0-.2.079c-.589.631-1.392 1.55-1.392 1.867.154.578.41 1.125.754 1.614a.5.5 0 0 0 .648.185l.369-.185a.5.5 0 0 0 .262-.324c.08-.301.242-.574.467-.79a4.171 4.171 0 0 1 1.039-.6.25.25 0 0 0 .145-.2c.01-.082.014-.165.014-.248a5.081 5.081 0 0 0-.076-.933zm13.379.485l-.014-.028a.25.25 0 0 0-.418-.049 7.024 7.024 0 0 1-1.086 1.045c-.162.127-.3.239-.428.336a.251.251 0 0 0 .059.428c.38.14.694.413.887.768.212.438.276.934.181 1.411a.5.5 0 0 0 .492.589h.9a.5.5 0 0 0 .493-.417l.4-2.385a.25.25 0 0 0-.139-.267 3.006 3.006 0 0 1-1.327-1.431z"/><path d="M18.729 16.335l.01-.007c.055-.041.277-.209 1.148-.895a3.47 3.47 0 0 0 1.636-2.683 3.515 3.515 0 0 0-2.973-3.245 6.306 6.306 0 0 1-3.44-2.3 4.529 4.529 0 0 0-3.354-1.922 8.81 8.81 0 0 0-.732-.029C8.3 5.25 6.081 7 3.746 8.634a.25.25 0 0 1-.393-.191 4.828 4.828 0 0 0-.074-.634 3.243 3.243 0 0 0-2.238-2.2.25.25 0 0 0-.288.385c.51.602.722 1.403.576 2.179-.238 1.008-.935 2.207-.844 2.7.016.084.04.166.073.245a.121.121 0 0 1-.034.136s0 3.5.5 4 2-.5 2.5-1c.24-.254.439-.544.588-.86a.251.251 0 0 1 .225-.14h.207c1.587-.102 3.18.086 4.7.553a.491.491 0 0 1 .234.245c.187.529.27 1.088.244 1.648a8.986 8.986 0 0 1-.9 3.243l-.007.018-.043.124a.5.5 0 0 0 .472.665h.486a.5.5 0 0 0 .437-.257l2.285-4.114a.249.249 0 0 1 .219-.129h2.063a.249.249 0 0 0 .247-.288c-.047-.308-.1-.517-.112-.588a.264.264 0 0 0-.017-.047 3.786 3.786 0 0 1-.329-1.577.5.5 0 0 1 1 0c0 .43.09.854.269 1.244.006.012.01.024.014.036a9.428 9.428 0 0 1-.112 4.988l-.008.027-.021.1a.5.5 0 0 0 .488.608h1.461a.5.5 0 0 0 .49-.4l.178-.89v-.017l.227-1.755a.5.5 0 0 1 .22-.356z"/></g></svg>