<svg width="24" height="24" xmlns="http://www.w3.org/2000/svg"><path d="M12 0c6.627 0 12 5.373 12 12s-5.373 12-12 12S0 18.627 0 12 5.373 0 12 0zm3.65 6.251h-2.496c-.015.003-.023.008-.03.023l-3.267 8.953c-.007.015-.015.02-.03.023h-2.09c-.031 0-.064.005-.095-.007-.008-.025 0-.047.009-.068l.013-.032 3.102-8.792c.01-.03.028-.058.024-.092l-.048-.009-2.382.001c-.078 0-.094-.005-.107.023l-4.001 11.27c-.009.04.014.036.1.036h7.245c.037 0 .05-.003.06-.024l.721-2.272c.01-.027.018-.034.046-.035l3.926.001c.038 0 .053.001.064.015l.032.087.7 2.197c.009.024.017.03.042.032h2.452c.041-.002.05-.01.038-.05L15.68 6.273c-.007-.014-.015-.02-.03-.022zm-1.24 3.41l1.149 3.237a.038.038 0 0 1-.035.02l-2.21.001-.038-.001c-.024-.001-.032-.014-.023-.04l1.109-3.125c.01-.029.012-.063.048-.092z" fill="#5B10FF" fill-rule="evenodd"/></svg>