<svg width="24" height="24" xmlns="http://www.w3.org/2000/svg"><g fill="#5B10FF"><path d="M23 10.5a.5.5 0 0 0 .5-.5c-.007-5.52-4.48-9.993-10-10a.5.5 0 0 0-.5.5v9.025c0 .538.437.975.975.976L23 10.5zm.5 1.5H14a.677.677 0 0 0-.5 1.207l6.718 6.718a.5.5 0 0 0 .707 0A10.433 10.433 0 0 0 24 12.5a.5.5 0 0 0-.5-.5z"/><path d="M10.588 24a10.322 10.322 0 0 0 7.337-3.084.5.5 0 0 0 0-.707l-6.718-6.718a.91.91 0 0 1-.207-.5v-9.5a.5.5 0 0 0-.5-.5C4.699 3.015.015 7.738.04 13.539.063 19.341 4.786 24.024 10.587 24z"/></g></svg>