<svg width="60" height="59" xmlns="http://www.w3.org/2000/svg"><path d="M29.998 0C13.433 0 0 13.43 0 30.002c0 13.252 8.595 24.495 20.517 28.464 1.501.274 2.048-.652 2.048-1.448 0-.71-.025-2.598-.04-5.1-8.345 1.811-10.105-4.023-10.105-4.023-1.365-3.466-3.332-4.387-3.332-4.387-2.723-1.862.207-1.825.207-1.825 3.01.214 4.595 3.092 4.595 3.092 2.675 4.584 7.02 3.26 8.73 2.494.273-1.94 1.047-3.262 1.905-4.011C17.864 42.5 10.86 39.926 10.86 28.43c0-3.274 1.17-5.952 3.088-8.05-.309-.759-1.338-3.808.293-7.939 0 0 2.52-.807 8.25 3.075 2.393-.666 4.96-.998 7.51-1.01 2.548.012 5.115.344 7.511 1.01 5.727-3.882 8.241-3.075 8.241-3.075 1.637 4.13.608 7.18.299 7.94 1.922 2.097 3.084 4.775 3.084 8.049 0 11.525-7.014 14.06-13.698 14.803 1.078.926 2.037 2.757 2.037 5.556 0 4.01-.037 7.245-.037 8.228 0 .803.54 1.737 2.063 1.444C51.41 54.486 60 43.25 60 30.002 60 13.43 46.567 0 29.998 0" fill="#181717" fill-rule="evenodd"/></svg>