<svg width="60" height="58" xmlns="http://www.w3.org/2000/svg"><g fill-rule="evenodd"><path d="M58 48.791a9.466 9.466 0 0 0-1.146-.068c-2.894 0-5.718 1.252-8.45 2.463-1.07.474-2.176.964-3.304 1.381-3.429 1.498-6.806 2.162-10.381 2.863-.573.112-1.146.224-1.719.34V11.249c.353.048.711.073 1.072.073 2.975 0 5.849-1.618 8.628-3.182 1.063-.599 2.162-1.217 3.285-1.748 3.48-1.931 6.91-2.799 10.541-3.718.492-.124.983-.248 1.474-.375v46.492zM59.607.205a1.003 1.003 0 0 0-.87-.17c-.9.245-1.8.473-2.702.7-3.595.91-7.312 1.851-10.961 3.877-1.13.532-2.262 1.169-3.355 1.785-2.672 1.504-5.197 2.925-7.647 2.925-.617 0-1.194-.09-1.764-.274A1 1 0 0 0 31 9.999V57a1 1 0 0 0 1.21.978c.965-.208 1.93-.396 2.894-.585 3.523-.692 7.167-1.407 10.742-2.969 1.133-.419 2.27-.923 3.369-1.41 2.658-1.178 5.169-2.291 7.639-2.291.662 0 1.279.079 1.887.242.299.083.62.016.867-.173a.997.997 0 0 0 .392-.793v-49c0-.311-.146-.605-.393-.794zM27 55.771c-.573-.117-1.146-.23-1.719-.342-3.575-.7-6.952-1.364-10.381-2.861-1.128-.417-2.234-.907-3.304-1.383-2.732-1.21-5.556-2.463-8.45-2.463-.386 0-.769.023-1.146.07V2.297c.491.127.982.252 1.474.377 3.631.919 7.061 1.787 10.541 3.716 1.123.532 2.222 1.15 3.285 1.748 2.779 1.566 5.653 3.183 8.628 3.183.361 0 .719-.024 1.072-.072v44.52zm1.589-46.58a1.008 1.008 0 0 0-.897-.144 5.655 5.655 0 0 1-1.764.274c-2.45 0-4.975-1.42-7.647-2.925-1.094-.614-2.225-1.252-3.355-1.784C11.277 2.587 7.56 1.646 3.965.736 3.063.508 2.163.28 1.263.036A1 1 0 0 0 0 1v49c0 .31.145.603.392.791a.99.99 0 0 0 .867.174 7.188 7.188 0 0 1 1.887-.243c2.47 0 4.981 1.114 7.639 2.291 1.099.488 2.236.992 3.369 1.41 3.575 1.563 7.219 2.279 10.742 2.97.964.19 1.929.377 2.894.584A1.002 1.002 0 0 0 29 57V10c0-.32-.153-.62-.411-.809z"/></g></svg>