<?xml version="1.0" encoding="UTF-8"?>
<svg width="60px" height="40px" viewBox="0 0 60 40" version="1.1" xmlns="http://www.w3.org/2000/svg" xmlns:xlink="http://www.w3.org/1999/xlink">
    <!-- Generator: Sketch 57.1 (83088) - https://sketch.com -->
    <title>email</title>
    <desc>Created with Sketch.</desc>
    <g id="Website" stroke="none" stroke-width="1" fill="none" fill-rule="evenodd">
        <g id="02-vision" transform="translate(-120.000000, -2952.000000)" fill="#000000">
            <g id="Group-17" transform="translate(0.000000, 2882.000000)">
                <g id="email" transform="translate(120.000000, 70.000000)">
                    <path d="M6,4 C6,2.897 6.897,2 8,2 L52,2 C53.103,2 54,2.897 54,4 L54,7.541 C54.742,6.88 55.412,6.267 56,5.714 L56,4 C56,1.791 54.209,0 52,0 L8,0 C5.791,0 4,1.791 4,4 L4,5.714 C4.588,6.266 5.258,6.879 6,7.54 L6,4 Z" id="Fill-1"></path>
                    <path d="M54,36 C54,37.103 53.103,38 52,38 L8,38 C6.897,38 6,37.103 6,36 L6,15.456 C5.295,14.875 4.625,14.312 4,13.774 L4,36 C4,38.209 5.791,40 8,40 L52,40 C54.209,40 56,38.209 56,36 L56,13.774 C55.375,14.312 54.705,14.875 54,15.457 L54,36 Z" id="Fill-3"></path>
                    <path d="M59.7168,6.3027 C59.3308,5.9067 58.6978,5.8987 58.3028,6.2827 C58.1198,6.4607 39.9788,23.9997 29.9998,23.9997 C20.0268,23.9997 1.8798,6.4607 1.6968,6.2827 C1.3008,5.8987 0.6698,5.9067 0.2828,6.3027 C-0.1022,6.6987 -0.0932,7.3317 0.3028,7.7167 C1.0698,8.4637 19.2178,25.9997 29.9998,25.9997 C40.7818,25.9997 58.9298,8.4637 59.6968,7.7167 C60.0928,7.3317 60.1018,6.6987 59.7168,6.3027" id="Fill-5"></path>
                </g>
            </g>
        </g>
    </g>
</svg>