<svg width="60" height="40" xmlns="http://www.w3.org/2000/svg"><g fill-rule="evenodd"><path d="M6 4c0-1.103.897-2 2-2h44c1.103 0 2 .897 2 2v3.541c.742-.661 1.412-1.274 2-1.827V4a4 4 0 0 0-4-4H8a4 4 0 0 0-4 4v1.714c.588.552 1.258 1.165 2 1.826V4zm48 32c0 1.103-.897 2-2 2H8c-1.103 0-2-.897-2-2V15.456a122.427 122.427 0 0 1-2-1.682V36a4 4 0 0 0 4 4h44a4 4 0 0 0 4-4V13.774a127.56 127.56 0 0 1-2 1.683V36z"/><path d="M59.717 6.303a1 1 0 0 0-1.414-.02C58.12 6.46 39.979 24 30 24 20.027 24 1.88 6.46 1.697 6.283A1 1 0 0 0 .303 7.717C1.07 8.464 19.218 26 30 26S58.93 8.464 59.697 7.717a1 1 0 0 0 .02-1.414"/></g></svg>