<svg height="18" width="18" xmlns="http://www.w3.org/2000/svg"><path fill="currentColor" d="M12.804 6.75h4.621a8.73 8.73 0 0 1 0 4.5h-4.62c.18-1.513.173-3.05 0-4.5zm-6.293 5.625c.376 1.887 1.167 3.956 2.466 5.343h.046c1.301-1.39 2.09-3.46 2.466-5.343H6.51zm6.122-6.75h4.408a8.732 8.732 0 0 0-6.46-5.2c1.062 1.515 1.716 3.386 2.052 5.2zm-.961 1.125H6.328a18.041 18.041 0 0 0 0 4.5h5.344a18.04 18.04 0 0 0 0-4.5zm-6.305 5.625H.959a8.732 8.732 0 0 0 6.46 5.2c-1.063-1.516-1.716-3.387-2.052-5.2zm7.266 0c-.336 1.814-.99 3.685-2.053 5.2a8.732 8.732 0 0 0 6.461-5.2zm-1.144-6.75c-.376-1.887-1.167-3.956-2.466-5.343h-.046c-1.301 1.39-2.09 3.46-2.466 5.343zM.575 6.75a8.729 8.729 0 0 0 0 4.5h4.62a19.088 19.088 0 0 1 0-4.5H.576zm4.792-1.125c.336-1.814.99-3.685 2.053-5.2a8.732 8.732 0 0 0-6.461 5.2z"/></svg>