<svg width="24" height="24" xmlns="http://www.w3.org/2000/svg"><path d="M12 2C6.478 2 2 6.495 2 12.04c0 4.435 2.865 8.198 6.84 9.526.5.092.682-.218.682-.484 0-.238-.009-.87-.014-1.707-2.782.607-3.368-1.346-3.368-1.346-.455-1.16-1.11-1.468-1.11-1.468-.909-.623.068-.61.068-.61 1.003.07 1.532 1.034 1.532 1.034.892 1.534 2.34 1.091 2.91.834.09-.65.35-1.091.635-1.342-2.22-.254-4.555-1.115-4.555-4.962 0-1.096.39-1.992 1.03-2.694-.104-.254-.447-1.275.097-2.657 0 0 .84-.27 2.75 1.029a9.565 9.565 0 0 1 2.504-.338c.85.004 1.705.115 2.504.338 1.908-1.299 2.746-1.03 2.746-1.03.546 1.383.203 2.404.1 2.658.641.702 1.028 1.598 1.028 2.694 0 3.857-2.338 4.706-4.566 4.954.36.31.68.922.68 1.86 0 1.341-.013 2.424-.013 2.753 0 .269.18.581.687.483A10.039 10.039 0 0 0 22 12.04C22 6.495 17.523 2 12 2" fill-rule="evenodd"/></svg>