<svg width="48" height="48" xmlns="http://www.w3.org/2000/svg"><path d="M29.32 41.89V6.11c7.703 2.3 13.334 9.45 13.334 17.89 0 8.44-5.631 15.59-13.334 17.89M23.987 0v20.228l-3.047-3.047-.39-7.604L23.729.013a23.884 23.884 0 0 0-5.89.812l-1.536 4.623-4.358-2.185a24.072 24.072 0 0 0-4.736 3.593l8.07 4.044.237 4.628-4.627-.237-4.045-8.07a24.084 24.084 0 0 0-3.593 4.736l2.186 4.359-4.625 1.536a23.947 23.947 0 0 0-.81 5.89l9.565-3.178 7.604.388L20.216 24l-3.046 3.048-7.604.388L0 24.259c.022 2.037.312 4.005.81 5.889l4.626 1.536-2.186 4.359a24.084 24.084 0 0 0 3.593 4.736l4.045-8.07 4.627-.237-.236 4.627-8.07 4.045a24.175 24.175 0 0 0 4.735 3.593l4.358-2.185 1.537 4.623c1.884.498 3.852.79 5.89.812l-3.178-9.564.39-7.604 3.046-3.047V48c13.255 0 24-10.745 24-24s-10.745-24-24-24" fill="#5B10FF" fill-rule="evenodd"/></svg>