<svg width="48" height="48" xmlns="http://www.w3.org/2000/svg" xmlns:xlink="http://www.w3.org/1999/xlink"><defs><rect id="a" y=".408" width="40" height="39.184" rx="4.5"/></defs><g transform="translate(4 4)" fill="none" fill-rule="evenodd"><mask id="b" fill="#fff"><use xlink:href="#a"/></mask><use fill="#5B10FF" xlink:href="#a"/><path d="M-70 31.02c19.998 0 19.998 9.796 39.996 9.796s19.998-9.796 39.996-9.796c20 0 20 9.796 40 9.796 20.002 0 20.002-9.796 40.004-9.796s20.002 9.796 40.004 9.796c19.998 0 19.998-9.796 39.996-9.796M-80 15.102c19.998 0 19.998 9.796 39.996 9.796s19.998-9.796 39.996-9.796c20 0 20 9.796 40 9.796 20.002 0 20.002-9.796 40.004-9.796S99.998 24.898 120 24.898c19.998 0 19.998-9.796 39.996-9.796M-90-.816c19.998 0 19.998 9.796 39.996 9.796S-30.006-.816-10.008-.816c20 0 20 9.796 40 9.796 20.002 0 20.002-9.796 40.004-9.796S89.998 8.98 110 8.98c19.998 0 19.998-9.796 39.996-9.796" stroke="#FFF" stroke-width="2.5" stroke-linecap="round" mask="url(#b)"/></g></svg>