<svg width="24" height="24" xmlns="http://www.w3.org/2000/svg"><path d="M24 3.805a3.5 3.5 0 0 0-3.5-3.5h-17c-.938 0-1.836.376-2.493 1.046a.477.477 0 0 0-.138.149A3.483 3.483 0 0 0 0 3.805v13a4.51 4.51 0 0 0 3.306 4.174L14.465 23.6c.253.06.511.091.771.092a2.726 2.726 0 0 0 1.716-.582A2.86 2.86 0 0 0 18 20.805v-9.693a4.262 4.262 0 0 0-3.119-4.1L4.056 4.027a.75.75 0 1 1 .4-1.445l3.5.966a.237.237 0 0 0 .065.009h12.478a.75.75 0 1 1 0 1.5h-5.234a.25.25 0 0 0-.067.491l.086.023a5.725 5.725 0 0 1 2.9 1.893c.049.06.123.094.2.093H20.5a.75.75 0 0 1 0 1.5h-1.038a.252.252 0 0 0-.2.1.248.248 0 0 0-.035.224c.184.558.279 1.142.281 1.73v6.943c0 .138.112.25.25.25h.742a3.5 3.5 0 0 0 3.5-3.5V3.805zm-8.5 11.5a2 2 0 1 1-2-2 2 2 0 0 1 2 2z"/></svg>