<svg width="153" height="20" xmlns="http://www.w3.org/2000/svg"><defs><linearGradient x1="102.879%" y1="234.691%" x2="184.303%" y2="294.52%" id="a"><stop stop-color="#FFEA6A" offset="0%"/><stop stop-color="#FFB115" offset="100%"/></linearGradient></defs><g fill="none" fill-rule="evenodd"><path d="M14.93 0A14.929 14.929 0 0 0 3.171 5.748a14.998 14.998 0 0 0-2.735 12.82h.168l-.139-.024 4.71-4.288 1.681 1.184 1.727-1.184 3.5-4.51 2 2.097.448-.364 3.182 3.134 3.045-2.27 3.227 2.497.908-.449 4.505 4.045-.377.047h.41a14.998 14.998 0 0 0-2.78-12.766A14.929 14.929 0 0 0 14.93 0z" fill="url(#a)" fill-rule="nonzero"/><path d="M1.95 17.25A13.158 13.158 0 0 1 7.608 4.041a13.094 13.094 0 0 1 14.34-.125 13.157 13.157 0 0 1 5.885 13.108" stroke="#FC8104" stroke-width="1.39"/><path fill="#000" fill-rule="nonzero" d="M0.464198905 18.5438202L5.14164883 13.9191011 6.38837086 14.9707865 12.0008623 9.29662921 13.9068223 11.388764 14.5772717 11.011236 17.4496654 14.2561798 20.6292551 11.741573 23.8492062 14.5101124 24.8806669 13.8898876 29.4101247 18.4382022 24.8986054 14.7842697 25.9614583 17.4314607 20.797428 12.5280899 18.7860797 14.5011236 20.8422741 19.4876404 14.5750294 11.9123596 14.0592991 12.5011236 11.9605008 10.152809 8.20239627 19.9258427 8.11943095 16.4022472 5.30533716 14.7865169z"/><path d="M43.7 13.101c.047 0 .091.018.124.052l.291.314a4.818 4.818 0 0 1-.7.618 4.35 4.35 0 0 1-.827.468 4.836 4.836 0 0 1-.984.299 6.073 6.073 0 0 1-1.177.105 5.006 5.006 0 0 1-1.965-.375 4.361 4.361 0 0 1-1.531-1.067 4.897 4.897 0 0 1-.996-1.67 6.305 6.305 0 0 1-.356-2.175c-.01-.733.115-1.461.367-2.149a4.89 4.89 0 0 1 1.034-1.67c.45-.468.995-.837 1.597-1.08a5.326 5.326 0 0 1 2.051-.384c.344-.003.688.025 1.027.083a4.7 4.7 0 0 1 .87.24c.267.103.523.234.763.391.246.162.48.342.7.54l-.225.328a.204.204 0 0 1-.182.087.31.31 0 0 1-.168-.076l-.258-.191a6.096 6.096 0 0 0-.378-.247 3.087 3.087 0 0 0-.53-.248 4.477 4.477 0 0 0-.706-.188c-.3-.054-.605-.08-.91-.077a4.476 4.476 0 0 0-1.727.326 3.87 3.87 0 0 0-1.345.928 4.238 4.238 0 0 0-.886 1.46 5.521 5.521 0 0 0-.316 1.924c-.01.666.096 1.329.314 1.958.188.539.483 1.034.867 1.456.366.394.812.705 1.308.912a4.17 4.17 0 0 0 1.637.317c.33.003.66-.022.986-.074a3.85 3.85 0 0 0 .799-.225c.236-.095.461-.214.672-.357.219-.15.426-.315.62-.497a.513.513 0 0 1 .069-.047.157.157 0 0 1 .071-.009zm2.41 1.737V7.571h.366a.257.257 0 0 1 .18.051.254.254 0 0 1 .062.176l.059 1.535c.193-.531.513-1.007.933-1.385a2.13 2.13 0 0 1 1.435-.5 2.318 2.318 0 0 1 1.13.27l-.094.482a.132.132 0 0 1-.146.117.394.394 0 0 1-.123-.03l-.2-.065a2.377 2.377 0 0 0-.697-.094 1.863 1.863 0 0 0-1.346.512 3.653 3.653 0 0 0-.872 1.472v4.72h-.693l.007.006zm7.369 2.337a.497.497 0 0 1-.112.169.28.28 0 0 1-.2.065h-.495l1.276-2.84-3.07-6.998h.576a.25.25 0 0 1 .17.054c.04.033.071.074.093.121l2.441 5.652c.03.073.056.148.077.224.02.077.042.152.062.225.024-.078.05-.153.077-.225l.083-.224 2.412-5.652a.314.314 0 0 1 .101-.128.243.243 0 0 1 .146-.047h.531l-4.168 9.604zm5.516.234V7.571h.38a.266.266 0 0 1 .152.04.178.178 0 0 1 .065.142l.065 1.123c.3-.42.68-.775 1.12-1.045.438-.26.939-.393 1.447-.386a2.52 2.52 0 0 1 2.085.928c.495.619.743 1.546.743 2.782a5.136 5.136 0 0 1-.209 1.485c-.125.435-.331.841-.608 1.198-.265.337-.602.61-.986.8-.42.2-.88.3-1.346.292a2.836 2.836 0 0 1-1.282-.27c-.37-.189-.69-.465-.933-.804v3.548h-.693v.005zm3.05-9.4a2.373 2.373 0 0 0-1.308.375c-.414.274-.767.63-1.038 1.047v3.82c.225.37.543.675.922.884.721.333 1.55.342 2.278.022.317-.153.593-.38.805-.66a2.98 2.98 0 0 0 .489-1.023c.113-.427.168-.868.163-1.31 0-1.08-.198-1.875-.594-2.384a2.045 2.045 0 0 0-1.717-.771zm6.727 6.946a1.543 1.543 0 0 1-1.144-.409c-.272-.273-.408-.694-.408-1.263V8.315h-1.043a.195.195 0 0 1-.13-.043.155.155 0 0 1-.051-.124v-.27l1.237-.087.173-2.6a.202.202 0 0 1 .054-.117.164.164 0 0 1 .125-.052h.326v2.776h2.28v.519h-2.283v4.93c-.004.175.022.349.077.515a.96.96 0 0 0 .21.355.825.825 0 0 0 .316.204c.126.045.26.067.393.066.153.003.305-.023.448-.077a1.864 1.864 0 0 0 .552-.337.249.249 0 0 1 .139-.076.16.16 0 0 1 .117.074l.19.308c-.197.212-.437.38-.704.492-.276.12-.573.183-.874.184zm5.98-7.501c.478-.008.953.083 1.395.267.398.17.753.428 1.038.755.292.346.512.747.645 1.18a5.465 5.465 0 0 1 0 3.086 3.357 3.357 0 0 1-.645 1.175 2.81 2.81 0 0 1-1.038.753c-.898.35-1.895.35-2.792 0a2.839 2.839 0 0 1-1.043-.753 3.321 3.321 0 0 1-.648-1.175 5.465 5.465 0 0 1 0-3.086c.133-.433.354-.835.648-1.18a2.88 2.88 0 0 1 1.043-.755 3.482 3.482 0 0 1 1.397-.267zm0 6.93c.389.008.775-.068 1.132-.224.318-.144.595-.363.81-.639.226-.299.39-.64.484-1.004a5.486 5.486 0 0 0 0-2.634 2.861 2.861 0 0 0-.484-1.011 2.167 2.167 0 0 0-.81-.647 2.95 2.95 0 0 0-2.267 0 2.167 2.167 0 0 0-.81.647 2.906 2.906 0 0 0-.488 1.011 5.369 5.369 0 0 0 0 2.634c.096.364.262.705.489 1.004.214.276.492.495.81.639.357.156.744.233 1.134.224zm17.51.454h-1.908a.88.88 0 0 1-.53-.15.77.77 0 0 1-.286-.385l-.628-1.854h-4.036l-.63 1.854a.845.845 0 0 1-.803.533h-1.924l4.11-10.64h2.523l4.112 10.642zm-6.821-4.067h2.901l-.977-2.922-.224-.653c-.086-.25-.17-.522-.252-.814-.077.3-.157.575-.24.825-.082.25-.156.47-.224.658l-.984 2.906zm12.987 4.067a.625.625 0 0 1-.354-.094.506.506 0 0 1-.2-.286l-.177-.577a4.446 4.446 0 0 1-.473.438 2.984 2.984 0 0 1-1.155.564 3.187 3.187 0 0 1-.717.077 2.327 2.327 0 0 1-1.092-.263 2.52 2.52 0 0 1-.868-.76 3.837 3.837 0 0 1-.572-1.216 5.92 5.92 0 0 1-.208-1.64 5.125 5.125 0 0 1 .224-1.573c.14-.456.364-.882.66-1.256.277-.348.626-.63 1.024-.83a2.91 2.91 0 0 1 1.318-.298c.337-.01.673.048.987.17.266.112.513.264.733.45v-3.84h2.27v10.932h-1.4v.002zm-2.287-1.62c.15.002.301-.014.449-.047.127-.03.25-.075.367-.135a1.61 1.61 0 0 0 .317-.225c.106-.095.205-.198.295-.308V9.29a1.493 1.493 0 0 0-.558-.398c-.199-.075-.41-.114-.623-.112a1.33 1.33 0 0 0-.576.123 1.174 1.174 0 0 0-.449.398 2.124 2.124 0 0 0-.303.712 4.432 4.432 0 0 0-.11 1.059 4.92 4.92 0 0 0 .088 1.009c.043.232.126.456.244.66a.95.95 0 0 0 .375.362c.15.075.315.113.482.113l.002.002zm9.629 1.62h-2.057l-2.94-7.58h1.88a.696.696 0 0 1 .403.113.564.564 0 0 1 .225.28l1.049 3.396.238.811c.076.264.14.529.193.794.053-.264.12-.527.197-.79.078-.261.16-.532.247-.81l1.094-3.396a.568.568 0 0 1 .224-.28.64.64 0 0 1 .368-.118h1.794l-2.915 7.58zm6.81-7.692c.467-.008.933.068 1.374.225.401.145.767.375 1.072.674.307.31.546.683.7 1.092.174.468.259.965.25 1.465.002.14-.005.278-.022.416a.657.657 0 0 1-.08.256.305.305 0 0 1-.158.13.732.732 0 0 1-.25.036h-4.357c.073.633.265 1.092.576 1.378.33.292.761.445 1.202.427.227.004.455-.027.672-.094a3.41 3.41 0 0 0 .507-.212l.408-.21a.846.846 0 0 1 .39-.095.468.468 0 0 1 .408.197l.655.812a3.366 3.366 0 0 1-.753.654c-.261.164-.54.297-.832.395-.277.094-.562.16-.852.198-.27.035-.54.053-.812.054a4.232 4.232 0 0 1-1.491-.259 3.42 3.42 0 0 1-1.218-.77c-.36-.361-.64-.794-.822-1.27a4.758 4.758 0 0 1-.303-1.769 4.006 4.006 0 0 1 .258-1.438 3.491 3.491 0 0 1 1.917-2.002 3.865 3.865 0 0 1 1.56-.29zm.044 1.573a1.36 1.36 0 0 0-1.024.36 1.923 1.923 0 0 0-.482 1.063h2.82c0-.178-.023-.355-.07-.526a1.277 1.277 0 0 0-.223-.45 1.153 1.153 0 0 0-.413-.326 1.406 1.406 0 0 0-.608-.13v.01zm4.649 6.12v-7.58h1.399a.622.622 0 0 1 .354.094c.098.068.169.17.2.285l.13.45c.142-.135.292-.262.448-.38.155-.117.323-.217.5-.297.185-.082.378-.146.577-.189.22-.047.446-.07.672-.07.377-.003.751.073 1.097.226.31.137.584.342.805.6.225.267.393.577.495.912.115.372.172.76.168 1.15v4.814h-2.253v-4.83a1.326 1.326 0 0 0-.256-.864.916.916 0 0 0-.75-.31 1.567 1.567 0 0 0-.7.159c-.228.114-.439.26-.626.431v5.394h-2.26v.004zm11.106.116a2.659 2.659 0 0 1-.951-.157 1.836 1.836 0 0 1-1.121-1.144c-.1-.294-.15-.602-.146-.912v-3.91h-.641a.408.408 0 0 1-.422-.45v-.883l1.202-.225.449-1.847a.449.449 0 0 1 .495-.35h1.173V7.29h1.836V8.83h-1.836v3.762a.707.707 0 0 0 .128.434.43.43 0 0 0 .367.17.72.72 0 0 0 .355-.082l.116-.059a.3.3 0 0 1 .128-.025.262.262 0 0 1 .164.048c.05.042.094.093.128.15l.686 1.074c-.297.222-.63.388-.985.493a3.903 3.903 0 0 1-1.125.16zm5.292-7.697v4.805c-.02.311.07.62.255.87a.92.92 0 0 0 .751.307c.238.006.474-.042.691-.139.23-.112.442-.257.63-.431V7.258h2.263v7.573h-1.4a.531.531 0 0 1-.553-.38l-.14-.449a4.37 4.37 0 0 1-.448.385 2.759 2.759 0 0 1-.5.292 2.998 2.998 0 0 1-.572.19 3.043 3.043 0 0 1-.672.07 2.643 2.643 0 0 1-1.097-.224 2.256 2.256 0 0 1-.805-.603 2.631 2.631 0 0 1-.495-.912 3.783 3.783 0 0 1-.169-1.153V7.258h2.26zm6.339 7.58v-7.58h1.345c.094-.001.188.008.28.03.07.016.135.048.19.092.053.043.094.1.117.164.03.08.054.163.07.247l.123.708c.245-.394.562-.739.933-1.016.325-.24.717-.371 1.121-.373a1.3 1.3 0 0 1 .832.247l-.291 1.665a.326.326 0 0 1-.117.225.396.396 0 0 1-.224.063 1.55 1.55 0 0 1-.292-.034 2.249 2.249 0 0 0-.421-.033c-.598 0-1.065.316-1.4.948v4.645h-2.266v.002zm9.26-7.692c.468-.008.934.068 1.375.225.401.145.767.375 1.072.674.307.31.546.683.7 1.092.174.468.259.965.25 1.465.002.14-.006.278-.022.416a.657.657 0 0 1-.08.256.305.305 0 0 1-.158.13.732.732 0 0 1-.25.036h-4.364c.073.633.265 1.092.576 1.378.33.292.761.445 1.202.427.228.004.455-.027.673-.094a3.41 3.41 0 0 0 .506-.212l.408-.21a.846.846 0 0 1 .39-.095.468.468 0 0 1 .409.197l.654.812a3.366 3.366 0 0 1-.753.654c-.26.164-.54.297-.832.395-.277.094-.562.16-.852.198-.27.035-.54.053-.812.054a4.232 4.232 0 0 1-1.49-.259 3.42 3.42 0 0 1-1.218-.77c-.36-.361-.641-.794-.823-1.27a4.758 4.758 0 0 1-.303-1.769 4.006 4.006 0 0 1 .258-1.438 3.491 3.491 0 0 1 1.917-2.002 3.865 3.865 0 0 1 1.567-.29zm.045 1.573a1.36 1.36 0 0 0-1.013.369 1.923 1.923 0 0 0-.482 1.063h2.82c0-.178-.023-.355-.07-.526a1.277 1.277 0 0 0-.223-.45 1.153 1.153 0 0 0-.413-.326 1.406 1.406 0 0 0-.626-.139l.007.01z" fill="#000" fill-rule="nonzero"/></g></svg>