<svg width="115" height="32" xmlns="http://www.w3.org/2000/svg"><path d="M6.854 7.761l3.982 10.189L14.871 7.76h6.659l-10.028 24.12H4.801l2.745-6.391L.014 7.76h6.84zm21.613-.406c2.354 0 3.783 1.036 4.4 1.618l.143.14.146.16.07.086V7.761h5.965v17.576h-5.965v-1.673l-.089.125-.088.11-.119.137-.15.157c-.644.636-2.025 1.62-4.41 1.62-4.729 0-8.29-4.095-8.29-9.26 0-4.589 3.248-9.198 8.387-9.198zm40.263.003c4.826 0 9.415 3.305 9.415 9.36 0 5.534-4.384 9.094-9.393 9.094-5.168 0-9.411-3.73-9.411-9.185 0-4.795 3.504-9.27 9.389-9.27zm19.81 0c4.825 0 9.415 3.305 9.415 9.36 0 5.534-4.384 9.094-9.393 9.094-5.169 0-9.411-3.73-9.411-9.185 0-4.795 3.503-9.27 9.388-9.27zm14.338 10.066a4.143 4.143 0 1 1 0 8.287 4.143 4.143 0 0 1 0-8.287zM47.485 0v9.42l.075-.094.154-.174.07-.073.169-.164c.657-.611 2.015-1.557 4.118-1.557 3.797 0 6.021 2.829 6.021 6.87v11.11h-6.194V15.75c0-1.368-.652-2.69-2.127-2.69-1.503 0-2.286 1.342-2.286 2.69v9.588h-6.239V0h6.24zm-17.75 13.004c-2.227 0-3.602 1.63-3.603 3.646 0 1.988 1.71 3.535 3.604 3.535 2.283 0 3.594-1.79 3.594-3.612 0-1.693-1.223-3.57-3.594-3.57zm39.051.052c-2.247 0-3.492 1.697-3.491 3.56 0 1.934 1.496 3.534 3.491 3.534 2.177 0 3.517-1.942 3.517-3.517 0-1.846-1.438-3.577-3.517-3.577zm19.81 0c-2.247 0-3.492 1.697-3.492 3.56 0 1.934 1.497 3.534 3.492 3.534 2.176 0 3.517-1.942 3.517-3.517 0-1.846-1.439-3.577-3.517-3.577zM114.974 0l-6.591 15.903h-7.459L107.544 0h7.43z" fill="#5F01D1"/></svg>