<svg height="96" width="135" xmlns="http://www.w3.org/2000/svg"><g fill="none" fill-rule="evenodd"><path d="M84.956 64.389h-.003c.014-.262.021-.525.017-.79-.203-12.057-19.131-21.515-42.277-21.125-23.146.389-41.745 10.48-41.541 22.539.003.173.01.346.02.52l.001.006c.028.447.084.89.163 1.33l.893 7.312C3.849 86.058 21.804 95.166 43.55 94.8c21.804-.368 39.478-10.127 40.612-22.095l.7-7.337c.041-.298.069-.598.087-.9l.007-.08z" fill="#5b10ff"/><g stroke="#fff"><path d="M84.97 63.6c.203 12.058-18.396 22.149-41.542 22.539-23.145.39-42.074-9.069-42.277-21.127s18.396-22.149 41.542-22.539c23.145-.39 42.073 9.07 42.277 21.127z"/><path d="M76.734 62.579c.16 9.525-14.747 17.5-33.298 17.813-18.55.312-33.72-7.155-33.88-16.68s14.748-17.5 33.299-17.813c18.55-.313 33.719 7.155 33.88 16.68z"/><path d="M9.832 65.78c.322-9.317 14.985-17.037 33.158-17.343 17.747-.3 32.385 6.58 33.656 15.564"/><path d="M84.956 64.389l-.794 8.316C83.028 84.672 65.354 94.432 43.55 94.8c-21.746.366-39.701-8.742-41.322-20.619l-1.056-8.649"/><path d="M37.38 48.773l2.995 2.624s6.628-1.668 10.19-.451c3.564 1.216 5.398 3.157 3.106 5.203 0 0 5.98-.516 8.734 1.163 2.927 1.784 3.118 4.122 1.601 5.624s-6.48 3.49-6.48 3.49l4.256 3.728-4.232 1.326-4.158-3.77-3.211 1.014 4.036 3.8-4.327 1.356-3.96-3.815-8.247 2.602-2.073-3.079 3.5-1.057a.762.762 0 0 0 .298-1.274l-8.891-8.58a3.18 3.18 0 0 0-3.095-.768l-3.002.943-2.16-1.881 7.644-2.353-3.075-2.964 4.052-1.107 3.018 2.842 2.76-.849-3.027-2.743 3.748-1.025" stroke-linejoin="round"/><path d="M40.034 59.167l-3.985-3.753 5.452-1.576s2.852-.735 5.043.1c2.143.816 1.042 2.81-1.075 3.445z"/><path d="M38.525 57.746l2.976-.86s2.852-.735 5.043.1m-3.48 5.035l5.368-1.516c3.017-.74 6.403-.847 7.62.212 1.217 1.058-.316 2.496-1.69 2.936l-7.14 2.284z"/><path d="M45.595 64.405l3.184-.9c2.262-.555 4.732-.753 6.34-.371m-32.86-6.163v2.81l2.16 2.16 3.088-.965a3.168 3.168 0 0 1 3.14.74l7.437 7.143M24.42 58.852v3.09m11.19 7.646l-.176 2.999 2.047 3.46 8.51-2.86 3.986 4.1 4.329-1.56-.09-3.202m-16.533.142l-.202 3.38m8.45-5.982l.06 3.121m3.899.694l.087 3.407"/><path d="M52.604 71.006l.733-.21 4.143 3.907 4.177-1.404.124-3.145M57.55 71.48l-.07 3.223m-4.088-6.992l-.055 3.085m11.51-10.664c.384 1.958.642 4.642-.929 6.07-1.274 1.158-3.981 2.335-3.981 2.335" stroke-linejoin="round"/><path d="M33.631 49.797v2.793l.666.677"/><path d="M26.829 51.654l.014 3.082.642.627" stroke-linejoin="round"/></g><path d="M82.015 64.413L79.272 66c-3.932-1.31-8.093-3.228-11.44-5.119-3.443-1.987-6.532-4.242-9.198-6.676l.528-2.498a41.369 41.369 0 0 1-4.737-4.98l-2.505-.377c-3.521-5.497-4.994-11.372-3.826-16.899l1.24-9.432.083.005c.243-.811.53-1.7.89-2.477.305-.653.645-1.283 1.022-1.887l.477-2.46c1.232-1.998 2.857-3.773 4.81-5.31l.292-.226c2.07-1.576 4.492-2.89 7.192-3.925l3.276 1.021a41.997 41.997 0 0 1 4.208-.962l.264-2.125C80.075.302 89.766.989 99.573 4.092c22.836 7.224 37.654 24.807 33.098 39.272a17.66 17.66 0 0 1-.596 1.614l-4.755 10.324c-4.945 10.395-19.592 15.587-36.207 13.43l-1.987-2.684a63.917 63.917 0 0 1-7.11-1.635" fill="#fff"/><g stroke="#5b10ff"><path d="M67.376 4.76a42.408 42.408 0 0 1 4.227-.96m20.93 3.568a52.44 52.44 0 0 1 5.556 1.434c17.601 5.568 29.031 19.091 25.531 30.205-1.532 4.863-5.667 8.458-11.31 10.499"/><path d="M94.135 10.814c1.247.296 2.505.643 3.764 1.042 16.881 5.34 27.953 17.97 24.728 28.21-1.392 4.42-5.221 7.67-10.48 9.51M93.829 34.534l8.423 20.091M81.033 4.014l7.205 17.187m4.295-13.833l19.613 42.207M49.417 20.024c.243-.811.53-1.7.89-2.477.305-.653.645-1.283 1.021-1.887M81.406 1.014l-1.19 9.571 4.191 8.55 6.185 3.334z"/><path d="M94.624 31.886l-3.301 3.788 3.301 10.163 11.786 13.578z" stroke-linejoin="bevel"/><path d="M94.624 31.886l-.795 2.647m-2.103 2.384l2.103-2.384m-33.604-23.32l11.16 3.385 1.16 2.362m-1.16-2.362l.673-2.494m-18.343 24.08c-1.76-2.644-3.048-5.37-3.8-8.1l19.374 3.802 13.47-.827 3.298-3.654-6.44-3.694-13.396-.375-16.448 4.196c-.627-2.526-.792-5.05-.44-7.513l7.59-1.691-5.117-5.128m8.408 33.526c-2.743-2.436-5.136-5.206-6.964-7.907l.466-2.635 9.386 1.727-2.345 6.244-.543 2.572z"/><path d="M51.329 15.66l.477-2.46c1.232-1.998 2.857-3.773 4.81-5.31l9.904 9.07h7.784l-2.245-4.856-15.15-4.44c2.069-1.576 4.491-2.89 7.19-3.925l7.211 2.27.538-4.336C80.075.302 89.766.989 99.573 4.092c22.836 7.224 37.655 24.807 33.098 39.272-3.766 11.956-19.59 18.039-37.862 15.71M54.664 18.831l-3.335-3.171"/><path d="M54.294 28.943l11.503-3.032 13.172.25 5.496 3.007m-5.497-3.007l.649-2.45m-13.396-.375l-.424 2.575M53.25 38.819l8.922 1.571m20.165 15.845a66.56 66.56 0 0 1-11.47-4.985l13.297-6.633-1.815-6.184-8.214.54-3.839 11.957c-3.562-2.022-6.766-4.31-9.54-6.774"/><path d="M73.338 41.455l8.187-.587 1.395 4.37m-.571-6.805l-.823 2.435m12.261 20.694l1.022-2.488-5.687-6.462-6.785 3.623-.749 2.65c.244.081.49.16.736.238 3.96 1.253 7.63 1.951 11.463 2.44z"/><path d="M81.588 58.886l6.8-3.935 5.399 6.612m-5.399-6.612l.734-2.338m42.953-7.635l-4.757 10.325c-4.944 10.394-19.591 15.587-36.206 13.43l-1.986-2.685"/><path d="M79.272 66l.731-2.218c.313.104.627.205.943.305 3.672 1.162 7.528 1.938 11.095 2.4l-.929 2.246"/><path d="M51.919 46.351l.402-2.472a41.958 41.958 0 0 0 6.841 7.828l-.527 2.498c2.665 2.434 5.755 4.689 9.196 6.677 3.348 1.89 7.51 3.808 11.441 5.118l2.743-1.587"/><path d="M49.334 20.019l-1.24 9.431c-1.168 5.528.306 11.403 3.826 16.9l2.506.376"/></g></g></svg>