<svg height="96" width="121" xmlns="http://www.w3.org/2000/svg"><g fill="none" fill-rule="evenodd"><path d="M48.227 88.165l-3.775 2.181c-5.411-1.8-11.138-4.437-15.745-7.036-4.737-2.731-8.99-5.83-12.658-9.177l.726-3.433a56.895 56.895 0 0 1-6.519-6.846l-3.45-.516C1.963 55.78-.064 47.704 1.542 40.107L3.25 27.142l.114.007c.335-1.114.729-2.336 1.226-3.404a24.34 24.34 0 0 1 1.405-2.595l.657-3.38c1.695-2.746 3.931-5.187 6.62-7.298l.402-.312c2.848-2.166 6.182-3.974 9.898-5.395l4.509 1.403a57.863 57.863 0 0 1 5.792-1.322l.363-2.921C45.558.04 58.896.985 72.394 5.249c31.429 9.93 51.823 34.1 45.552 53.982a24.254 24.254 0 0 1-.82 2.219l-6.546 14.192c-6.805 14.288-26.964 21.425-49.832 18.46l-2.734-3.69a88.063 88.063 0 0 1-9.786-2.247" fill="#fff"/><g stroke="#ff00af"><path d="M28.08 6.168a58.43 58.43 0 0 1 5.817-1.319m28.807 4.904a72.8 72.8 0 0 1 7.646 1.97c24.225 7.655 39.957 26.243 35.139 41.52-2.11 6.684-7.8 11.626-15.566 14.431"/><path d="M64.908 14.49a73.86 73.86 0 0 1 5.181 1.431c23.233 7.342 38.471 24.703 34.032 38.776-1.916 6.076-7.185 10.545-14.423 13.073M64.487 47.094L76.08 74.71M46.876 5.143l9.917 23.624m5.911-19.013l26.993 58.014M3.363 27.149c.335-1.114.729-2.336 1.226-3.404a24.34 24.34 0 0 1 1.405-2.595M47.389 1.019l-1.637 13.156 5.768 11.753 8.512 4.582z"/><path d="M65.581 43.455l-4.543 5.206 4.543 13.97 16.222 18.664z" stroke-linejoin="bevel"/><path d="M65.581 43.455l-1.094 3.639m-2.894 3.275l2.894-3.276m-46.25-32.055l15.36 4.653 1.597 3.247m-1.597-3.247l.927-3.428M9.279 49.362c-2.423-3.633-4.196-7.381-5.23-11.135l26.664 5.228 18.538-1.138 4.54-5.022-8.863-5.078-18.438-.515-22.637 5.767c-.862-3.471-1.09-6.942-.604-10.327l10.444-2.324-7.042-7.048m11.572 46.084c-3.775-3.35-7.068-7.157-9.585-10.87l.641-3.622 12.92 2.375-3.228 8.582z"/><path d="M5.994 21.15l.657-3.38c1.695-2.746 3.932-5.187 6.62-7.298l13.631 12.466h10.713l-3.09-6.675-20.852-6.103c2.848-2.166 6.182-3.974 9.898-5.395l9.924 3.121.74-5.961C45.557.04 58.895.985 72.393 5.249c31.429 9.93 51.823 34.1 45.552 53.982-5.183 16.434-26.962 24.796-52.11 21.595M10.584 25.51l-4.589-4.36"/><path d="M10.076 39.409l15.83-4.168 18.129.344 7.565 4.133m-7.565-4.133l.892-3.367m-18.437-.516l-.583 3.54M8.638 52.984l12.279 2.16m27.754 21.78c-5.663-1.858-10.955-4.179-15.786-6.852l18.3-9.118-2.498-8.5-11.304.743-5.284 16.435c-4.902-2.78-9.312-5.924-13.13-9.312"/><path d="M36.286 56.608l11.268-.808 1.919 6.007m-.786-9.353L47.554 55.8M64.43 84.246l1.405-3.42-7.826-8.882-9.338 4.98-1.03 3.643c.335.11.672.22 1.012.327 5.45 1.721 10.5 2.681 15.777 3.352z"/><path d="M47.64 80.567l9.359-5.409 7.43 9.089M57 75.159l1.01-3.214m59.116-10.495l-6.547 14.192c-6.804 14.287-26.963 21.425-49.83 18.46l-2.734-3.69"/><path d="M44.453 90.346l1.006-3.05c.43.144.863.284 1.298.42 5.053 1.598 10.36 2.665 15.269 3.3l-1.278 3.087"/><path d="M6.806 63.338l.553-3.398a57.695 57.695 0 0 0 9.416 10.76l-.726 3.433c3.668 3.346 7.92 6.445 12.657 9.178 4.608 2.598 10.335 5.235 15.747 7.035l3.775-2.18"/><path d="M3.248 27.142L1.543 40.107c-1.608 7.597.42 15.673 5.263 23.23l3.45.517"/></g></g></svg>