<svg width="72" height="72" xmlns="http://www.w3.org/2000/svg"><path d="M35.99 0C55.878 0 72 16.118 72 36c0 19.683-15.802 35.677-35.415 35.995L35.99 72V41.658l-4.571 4.57-.584 11.406 4.767 14.346a35.772 35.772 0 0 1-8.182-1.05l-.655-.168-2.306-6.934-6.538 3.278a36.418 36.418 0 0 1-6.61-4.915l-.496-.475 12.11-6.068.353-6.94-6.941.356-6.07 12.104a36.014 36.014 0 0 1-5.039-6.51l-.353-.594 3.281-6.538-6.94-2.304a36.05 36.05 0 0 1-1.201-8.13L0 36.387l14.352 4.766 11.41-.582L30.331 36l-4.57-4.572-11.41-.582L0 35.612c.03-2.82.403-5.553 1.05-8.18l.166-.654 6.94-2.304-3.28-6.538a36.24 36.24 0 0 1 4.916-6.609l.475-.495 6.07 12.104 6.941.356-.354-6.942-12.109-6.066a35.976 35.976 0 0 1 6.513-5.037l.593-.353 6.538 3.278 2.306-6.934A35.976 35.976 0 0 1 34.898.035l.704-.015-4.767 14.346.584 11.406 4.571 4.57V0zm8.002 9.164v53.672C55.55 59.386 63.998 48.66 63.998 36c0-12.52-8.264-23.148-19.626-26.72l-.38-.116z" fill="#FF00AF" fill-rule="evenodd"/></svg>