<svg xmlns="http://www.w3.org/2000/svg" width="71" height="51" viewBox="0 0 71 51" fill="none">
    <path fill-rule="evenodd" clip-rule="evenodd" d="M44.6623 34.1543C44.7677 40.4201 35.1124 45.6638 23.0967 45.8664C11.0815 46.0691 1.25492 41.1538 1.14954 34.8881C1.04415 28.6223 10.6994 23.3786 22.7151 23.176C34.7303 22.9733 44.5564 27.8891 44.6623 34.1543V34.1543Z" stroke="#FF00AF" stroke-width="0.746762"/>
    <path fill-rule="evenodd" clip-rule="evenodd" d="M40.3881 33.6236C40.4712 38.5732 32.7325 42.7173 23.1022 42.8799C13.4724 43.042 5.59724 39.1619 5.51418 34.2124C5.43112 29.2629 13.1703 25.1187 22.8006 24.9561C32.4304 24.7935 40.3051 28.6741 40.3886 33.6236H40.3881Z" stroke="#FF00AF" stroke-width="0.746762"/>
    <path d="M5.65506 35.2884C5.82222 30.447 13.4342 26.4354 22.8683 26.2764C32.0812 26.1205 39.6802 29.6956 40.34 34.364" stroke="#FF00AF" stroke-width="0.746762"/>
    <path d="M44.6541 34.5684L44.2419 38.8897C43.6533 45.1081 34.4782 50.1798 23.1592 50.371C11.8702 50.5612 2.54928 45.8284 1.70777 39.6566L1.15958 35.1623" stroke="#FF00AF" stroke-width="0.746762"/>
    <path d="M19.9569 26.4517L21.5117 27.8152C21.5117 27.8152 24.9525 26.9485 26.8016 27.5809C28.6518 28.2127 29.6038 29.2214 28.414 30.2845C28.414 30.2845 31.5184 30.0164 32.9481 30.8889C34.4675 31.8159 34.5667 33.0308 33.7792 33.8113C32.9917 34.5918 30.4152 35.6248 30.4152 35.6248L32.6246 37.562L30.4277 38.2511L28.2692 36.292L26.6022 36.819L28.6974 38.7936L26.4512 39.4982L24.3954 37.5158L20.1142 38.8679L19.038 37.2679L20.855 36.7187C20.9202 36.6979 20.9789 36.6605 21.0254 36.6101C21.0718 36.5598 21.1044 36.4983 21.12 36.4316C21.1356 36.3649 21.1336 36.2953 21.1143 36.2296C21.095 36.1638 21.0589 36.1043 21.0097 36.0567L16.3941 31.5982C16.1851 31.3959 15.9265 31.2525 15.6444 31.1825C15.3622 31.1124 15.0666 31.1181 14.7874 31.1991L13.229 31.6891L12.1077 30.7117L16.0759 29.489L14.4796 27.9488L16.5831 27.3735L18.1498 28.8503L19.5826 28.4092L18.0112 26.9838L19.9569 26.4512" stroke="#FF00AF" stroke-width="0.746762" stroke-linejoin="round"/>
    <path fill-rule="evenodd" clip-rule="evenodd" d="M21.3334 31.8483L19.2646 29.8981L22.0949 29.0792C22.0949 29.0792 23.5755 28.6972 24.7129 29.1311C25.8254 29.5552 25.2538 30.5913 24.1548 30.9213L21.3334 31.8483Z" stroke="#FF00AF" stroke-width="0.746762"/>
    <path d="M20.5508 31.112L22.0957 30.6651C22.0957 30.6651 23.5763 30.2832 24.7137 30.7171M22.9071 33.3334L25.6938 32.5457C27.26 32.1611 29.0178 32.1055 29.6496 32.6558C30.2813 33.2056 29.4855 33.9528 28.7722 34.1815L25.0657 35.3683L22.9071 33.3334Z" stroke="#FF00AF" stroke-width="0.746762"/>
    <path d="M24.2221 34.572L25.875 34.1043C27.0492 33.8159 28.3315 33.713 29.1662 33.9115M12.1077 30.709V32.1692L13.229 33.2916L14.8321 32.7901C15.1133 32.7022 15.4129 32.6915 15.6997 32.7591C15.9864 32.8268 16.2497 32.9703 16.4621 33.1747L20.3229 36.8864M13.2295 31.6864V33.2921M19.0386 37.2652L18.9472 38.8236L20.0099 40.6216L24.4276 39.1354L26.4969 41.2659L28.7442 40.4553L28.6974 38.7914M20.1147 38.8652L20.0099 40.6216M24.3965 37.5131L24.4276 39.1349M26.4517 39.4955L26.4969 41.2659" stroke="#FF00AF" stroke-width="0.746762"/>
    <path d="M27.8603 38.0001L28.2408 37.891L30.3916 39.9212L32.56 39.1917L32.6244 37.5574M30.4279 38.2464L30.3916 39.9212M28.2694 36.2879L28.2408 37.891M34.216 32.3496C34.4153 33.3671 34.5493 34.7618 33.7337 35.5038C33.0724 36.1055 31.6671 36.7172 31.6671 36.7172" stroke="#FF00AF" stroke-width="0.746762" stroke-linejoin="round"/>
    <path d="M18.012 26.9785V28.4299L18.3577 28.7817" stroke="#FF00AF" stroke-width="0.746762"/>
    <path d="M14.48 27.9434L14.4873 29.5449L14.8206 29.8707" stroke="#FF00AF" stroke-width="0.746762" stroke-linejoin="round"/>
    <path d="M35.5275 3.57893C36.25 3.37531 36.9824 3.20881 37.7219 3.08008M48.5872 4.93414C49.5615 5.12965 50.5244 5.37841 51.4715 5.6793C60.6086 8.57264 66.5423 15.5997 64.7253 21.3749C63.93 23.9019 61.7834 25.77 58.854 26.8306" stroke="#FF00AF" stroke-width="0.746762"/>
    <path d="M49.42 6.7233C50.0674 6.87711 50.7204 7.05742 51.374 7.26476C60.1374 10.0396 65.8852 16.6026 64.211 21.9237C63.4884 24.2205 61.5006 25.9093 58.7706 26.8654M49.2612 19.0491L53.6338 29.4891M42.6184 3.18977L46.3587 12.1208M48.5884 4.93263L58.77 26.8649M26.2057 11.5091C26.3318 11.0877 26.4808 10.6258 26.6677 10.222C26.826 9.88269 27.0025 9.55532 27.1977 9.24146M42.8121 1.63086L42.1943 6.6043L44.37 11.0472L47.5808 12.7797L42.8121 1.63086Z" stroke="#FF00AF" stroke-width="0.746762"/>
    <path fill-rule="evenodd" clip-rule="evenodd" d="M49.6743 17.6699L47.9606 19.6383L49.6743 24.9194L55.7927 31.975L49.6743 17.6699Z" stroke="#FF00AF" stroke-width="0.746762" stroke-linejoin="bevel"/>
    <path d="M49.673 17.6702L49.2603 19.0457M48.1685 20.2845L49.2603 19.0457M31.8155 6.92773L37.609 8.6867L38.2112 9.91408M37.609 8.6867L37.9583 7.39073M28.436 19.9036C27.5223 18.5297 26.8537 17.1131 26.4633 15.6945L36.5209 17.6702L43.5135 17.2404L45.2256 15.3417L41.8824 13.4222L34.9282 13.2273L26.3896 15.4077C26.0641 14.0951 25.9784 12.7835 26.1612 11.5037L30.1014 10.6249L27.445 7.96025M31.8098 25.3816C30.3858 24.1157 29.1436 22.6764 28.1946 21.2728L28.4365 19.9036L33.309 20.801L32.0917 24.0456L31.8098 25.3821V25.3816Z" stroke="#FF00AF" stroke-width="0.746762"/>
    <path d="M27.1968 9.24056L27.4445 7.96225C28.084 6.92402 28.9276 6.00167 29.9415 5.20298L35.0829 9.91609H39.1238L37.9583 7.39273L30.0936 5.08555C31.1676 4.2666 32.425 3.5838 33.8261 3.04597L37.5695 4.22555L37.8488 1.97241C42.1197 1.25998 47.1505 1.61697 52.2416 3.22941C64.0964 6.98326 71.7894 16.12 69.4237 23.6366C67.4687 29.8493 59.254 33.0103 49.7685 31.8001M28.9281 10.8883L27.1968 9.24056" stroke="#FF00AF" stroke-width="0.746762"/>
    <path d="M28.7373 16.1421L34.7089 14.5666L41.5468 14.6965L44.3999 16.259M41.5463 14.6965L41.8832 13.4234M34.929 13.2285L34.7089 14.5666M28.1954 21.274L32.827 22.0904M43.2952 30.324C41.2336 29.6496 39.24 28.7823 37.3408 27.7336L44.2437 24.2869L43.3015 21.0735L39.0373 21.3541L37.0444 27.5674C35.1953 26.5167 33.532 25.3277 32.0919 24.0473" stroke="#FF00AF" stroke-width="0.746762"/>
    <path d="M38.6224 22.6426L42.8725 22.3376L43.5967 24.6084M43.3003 21.0723L42.8731 22.3376M49.2381 33.0909L49.7686 31.7981L46.8163 28.4402L43.2941 30.3228L42.9052 31.6999C43.0319 31.742 43.1596 31.783 43.2873 31.8235C45.3431 32.4746 47.2483 32.8374 49.2381 33.0915V33.0909Z" stroke="#FF00AF" stroke-width="0.746762"/>
    <path d="M42.905 31.7017L46.4351 29.6569L49.2379 33.0928M46.4351 29.6569L46.8162 28.442M69.1142 24.4746L66.6447 29.8399C64.0782 35.241 56.4745 37.9394 47.8492 36.8186L46.8182 35.4233" stroke="#FF00AF" stroke-width="0.746762"/>
    <path d="M41.7041 35.4006L42.0836 34.248C42.2461 34.3021 42.4091 34.3546 42.5731 34.4065C44.4794 35.0104 46.4811 35.4136 48.3328 35.6537L47.8506 36.8208" stroke="#FF00AF" stroke-width="0.746762"/>
    <path d="M27.5023 25.1888L27.711 23.9043C28.7218 25.4023 29.9147 26.7687 31.2624 27.972L30.9888 29.2701C32.3723 30.5349 33.9764 31.7066 35.7627 32.7397C37.5007 33.7218 39.6613 34.7185 41.702 35.3992L43.126 34.5745" stroke="#FF00AF" stroke-width="0.746762"/>
    <path d="M26.1616 11.5059L25.5179 16.4066C24.9115 19.2791 25.6767 22.332 27.504 25.1884L28.805 25.3838" stroke="#FF00AF" stroke-width="0.746762"/>
</svg>
