<svg height="790" viewBox="0 0 438 790" width="438" xmlns="http://www.w3.org/2000/svg"><defs><clipPath id="branchesClip"><path d="m328.901644 0-43.425499 130.716551-123.13559-61.727816-26.863402 53.646792 138.477534 69.428791 4.400557 86.290926-86.310928-4.42056-69.388786-138.477533-53.62679 26.863401 61.687811 123.135591-130.716551 43.425498 18.9223958 56.967213 158.2800402-52.566656 119.755163 6.120775 55.527031 55.487026-55.527031 55.507028-119.775165 6.140777-158.2600382-52.586658-18.9223958 56.967213 130.716551 43.425498-61.687811 123.135591 53.62679 26.863401 69.388786-138.477533 86.310928-4.42056-4.400557 86.310928-138.477534 69.408789 26.863402 53.646792 123.13559-61.707813 43.425499 130.696548 56.94721-18.922396-52.566656-158.220033 6.120775-119.835173 97.952402-97.932399-97.952402-97.9324-6.120775-119.81517 52.566656-158.2200332z" fill="currentColor" fill-rule="evenodd"/></clipPath></defs></svg>