<svg height="21" width="24" xmlns="http://www.w3.org/2000/svg"><path d="m12.78 15.837.06.042c1.74 1.292 3.484 2.583 5.222 3.879.247.182.514.315.809.392.545.147.935-.033 1.193-.536.025-.051.046-.1.068-.152.12-.284.17-.586.233-.884.404-1.889.805-3.78 1.205-5.67s.804-3.78 1.205-5.67a4573 4573 0 0 1 1.14-5.353c.072-.333.12-.665.053-1.003-.13-.656-.686-1.01-1.33-.84-.338.089-.656.234-.982.36-3.46 1.332-6.919 2.667-10.376 4.002-2.984 1.15-5.969 2.3-8.95 3.453-.55.212-1.11.4-1.64.66-.24.116-.455.26-.593.498-.176.313-.112.58.19.777.182.12.394.162.598.225a3442.461 3442.461 0 0 1 5.444 1.664c.032-.02.048-.027.065-.038 3.875-2.442 7.75-4.88 11.626-7.319.352-.222.703-.447 1.055-.67.173-.108.355-.18.563-.141.184.029.234.149.118.296-.06.077-.134.145-.208.212-3.09 2.824-6.18 5.646-9.27 8.472l-.856.78c-.147 1.89-.292 3.766-.44 5.65h.103a.548.548 0 0 0 .094-.014c.394-.084.72-.298 1.004-.567.622-.587 1.231-1.185 1.846-1.778z" fill="currentColor" fill-rule="evenodd"/></svg>