<svg width="24" height="17" xmlns="http://www.w3.org/2000/svg"><path d="M9.522 11.635V4.844l6.484 3.407-6.484 3.384zM23.76 3.667s-.235-1.665-.954-2.399C21.893.305 20.87.301 20.401.245 17.043 0 12.005 0 12.005 0h-.01S6.957 0 3.599.245c-.47.056-1.492.06-2.406 1.023-.719.734-.953 2.4-.953 2.4S0 5.622 0 7.577v1.835c0 1.956.24 3.912.24 3.912s.234 1.665.953 2.399c.914.963 2.113.932 2.647 1.033C5.76 16.943 12 17 12 17s5.043-.008 8.401-.252c.47-.057 1.492-.061 2.405-1.024.72-.734.954-2.4.954-2.4S24 11.37 24 9.414V7.579c0-1.956-.24-3.912-.24-3.912z" fill="currentColor" fill-rule="evenodd"/></svg>