<svg width="24" height="22" xmlns="http://www.w3.org/2000/svg"><path d="M24 21.818h-5.304v-7.67c0-2.007-.83-3.378-2.655-3.378-1.395 0-2.171.925-2.533 1.816-.135.32-.114.766-.114 1.212v8.02H8.14s.068-13.586 0-14.821h5.255v2.326c.31-1.017 1.99-2.469 4.67-2.469 3.324 0 5.936 2.132 5.936 6.723v8.241zM2.825 5.143h-.034C1.098 5.143 0 4.01 0 2.573 0 1.11 1.13 0 2.857 0c1.726 0 2.787 1.106 2.821 2.57 0 1.435-1.095 2.573-2.853 2.573zM.605 6.997h4.678v14.821H.605V6.997z" fill="currentColor" fill-rule="evenodd"/></svg>