<svg width="24" height="17" xmlns="http://www.w3.org/2000/svg"><g transform="translate(-4 -8)" fill="none" fill-rule="evenodd"><path d="M0 0H32V32H0z"/><path d="M13.522 19.635v-6.791l6.484 3.407-6.484 3.384zm14.238-7.968s-.235-1.665-.954-2.399c-.913-.963-1.936-.967-2.405-1.023C21.043 8 16.005 8 16.005 8h-.01s-5.038 0-8.396.245c-.47.056-1.492.06-2.406 1.023-.719.734-.953 2.4-.953 2.4S4 13.622 4 15.577v1.835c0 1.956.24 3.912.24 3.912s.234 1.665.953 2.399c.914.963 2.113.932 2.647 1.033C9.76 24.943 16 25 16 25s5.043-.008 8.401-.252c.47-.057 1.492-.061 2.405-1.024.72-.734.954-2.4.954-2.4s.24-1.955.24-3.911v-1.834c0-1.956-.24-3.912-.24-3.912z" fill="#FFF"/></g></svg>