<svg width="24" height="24" xmlns="http://www.w3.org/2000/svg"><path d="M12 0C5.372 0 0 5.372 0 12c0 5.302 3.438 9.799 8.207 11.386.6.11.82-.26.82-.579 0-.284-.011-1.039-.017-2.04-3.338.725-4.042-1.609-4.042-1.609-.546-1.386-1.333-1.755-1.333-1.755-1.09-.744.083-.73.083-.73 1.204.086 1.838 1.237 1.838 1.237 1.07 1.834 2.808 1.304 3.492.998.11-.776.419-1.305.762-1.605-2.665-.303-5.466-1.332-5.466-5.93 0-1.31.468-2.381 1.235-3.22-.123-.304-.535-1.524.118-3.176 0 0 1.007-.323 3.3 1.23.957-.267 1.983-.4 3.004-.404a11.51 11.51 0 0 1 3.004.404c2.29-1.553 3.296-1.23 3.296-1.23.655 1.652.243 2.872.12 3.175.769.84 1.234 1.91 1.234 3.22 0 4.61-2.806 5.625-5.48 5.922.431.37.815 1.102.815 2.222 0 1.604-.015 2.898-.015 3.291 0 .322.216.695.825.578C20.564 21.795 24 17.3 24 12 24 5.372 18.627 0 12 0" fill="currentColor" fill-rule="evenodd"/></svg>