<svg width="24" height="24" xmlns="http://www.w3.org/2000/svg"><g transform="translate(-4 -4)" fill="none" fill-rule="evenodd"><path d="M0 0H32V32H0z"/><path d="M5.325 28A1.325 1.325 0 0 1 4 26.675V5.325C4 4.593 4.593 4 5.325 4h21.35C27.407 4 28 4.593 28 5.325v21.35c0 .732-.593 1.325-1.325 1.325H20.56v-9.294h3.12l.466-3.622H20.56V12.77c0-1.048.29-1.763 1.795-1.763h1.918v-3.24c-.332-.045-1.47-.143-2.795-.143-2.766 0-4.659 1.688-4.659 4.788v2.67h-3.127v3.623h3.127V28H5.325z" fill="#FFF"/></g></svg>