<svg width="24" height="20" xmlns="http://www.w3.org/2000/svg"><g transform="translate(-4 -6)" fill="none" fill-rule="evenodd"><path d="M0 0H32V32H0z"/><path d="M19.57 19.163c-.897 0-1.65-.72-1.65-1.61 0-.889.753-1.633 1.65-1.633.897 0 1.625.744 1.625 1.633 0 .89-.728 1.61-1.625 1.61m.381 3.124c-.835.827-2.124 1.23-3.939 1.23l-.013-.001h-.013c-1.815 0-3.102-.402-3.937-1.229a.644.644 0 0 1 0-.918.66.66 0 0 1 .927 0c.576.57 1.56.848 3.01.848l.013.001h.013c1.45 0 2.435-.279 3.012-.85a.66.66 0 0 1 .927 0 .646.646 0 0 1 0 .92m-9.146-4.735c0-.888.753-1.633 1.649-1.633.897 0 1.624.745 1.624 1.633 0 .89-.727 1.61-1.624 1.61-.896 0-1.649-.72-1.649-1.61M23.998 7.3c.607 0 1.102.49 1.102 1.091 0 .602-.495 1.092-1.102 1.092-.608 0-1.102-.49-1.102-1.092 0-.601.494-1.09 1.102-1.09M28 15.784c0-1.576-1.294-2.858-2.884-2.858-.689 0-1.321.24-1.818.642-1.758-1.096-3.99-1.756-6.383-1.896l1.248-3.91 3.43.801a2.406 2.406 0 0 0 2.405 2.217c1.33 0 2.412-1.072 2.412-2.39S25.328 6 23.998 6c-.93 0-1.739.524-2.141 1.29l-3.986-.93a.656.656 0 0 0-.774.437l-1.55 4.852c-2.578.063-5.001.725-6.889 1.884a2.886 2.886 0 0 0-1.774-.607C5.294 12.927 4 14.21 4 15.785c0 .975.495 1.836 1.249 2.352a4.972 4.972 0 0 0-.048.686c0 1.97 1.155 3.802 3.254 5.16 2.011 1.3 4.674 2.017 7.496 2.017s5.485-.716 7.496-2.018c2.099-1.357 3.255-3.19 3.255-5.16 0-.21-.015-.418-.04-.626A2.851 2.851 0 0 0 28 15.786" fill="#FFF"/></g></svg>