<?xml version="1.0" encoding="UTF-8"?>
<svg width="24px" height="24px" viewBox="0 0 24 24" version="1.1" xmlns="http://www.w3.org/2000/svg" xmlns:xlink="http://www.w3.org/1999/xlink">
    <title>qr-icon</title>
    <g id="Page-1" stroke="none" stroke-width="1" fill="none" fill-rule="evenodd">
        <g id="qr-icon">
            <polygon id="Path" points="0 0 24 0 24 24 0 24"></polygon>
            <path d="M6,20 L6,22 L4,22 L4,20 L6,20 Z M12,20 L12,22 L8,22 L8,20 L12,20 Z M8,18 L8,20 L6,20 L6,18 L8,18 Z M16,16 L16,18 L20,18 L20,20 L12,20 L12,18 L14,18 L14,16 L16,16 Z M4,4 L4,2 L14,2 L14,4 L16,4 L16,6 L22,6 L22,8 L20,8 L20,10 L18,10 L18,8 L14,8 L14,10 L16,10 L16,12 L20,12 L20,10 L22,10 L22,18 L20,18 L20,14 L10,14 L10,16 L8,16 L8,14 L6,14 L6,18 L2,18 L2,16 L4,16 L4,14 L2,14 L2,4 L4,4 L4,12 L12,12 L12,4 L4,4 Z M12,16 L12,18 L10,18 L10,16 L12,16 Z M10,6 L10,10 L6,10 L6,6 L10,6 Z M22,2 L22,4 L16,4 L16,2 L22,2 Z" id="shape" fill-opacity="0.6" fill="#000000"></path>
        </g>
    </g>
</svg>